<svg width="382" height="382" viewBox="0 0 382 382" fill="none" xmlns="http://www.w3.org/2000/svg">
<path d="M382 292.154H0V292.345H382V292.154Z" fill="#EBEBEB"/>
<path d="M276.568 298.22H251.264V298.411H276.568V298.22Z" fill="#EBEBEB"/>
<path d="M336.863 298.319H305.432V298.51H336.863V298.319Z" fill="#EBEBEB"/>
<path d="M287.226 303.308H272.565V303.499H287.226V303.308Z" fill="#EBEBEB"/>
<path d="M172.412 301.864H132.936V302.055H172.412V301.864Z" fill="#EBEBEB"/>
<path d="M126.136 301.864H99.8624V302.055H126.136V301.864Z" fill="#EBEBEB"/>
<path d="M84.1393 298.64H48.3535V298.831H84.1393V298.64Z" fill="#EBEBEB"/>
<path d="M181.068 258.079H33.5472C32.3915 258.077 31.2839 257.617 30.4674 256.799C29.6509 255.981 29.1924 254.872 29.1924 253.717V46.3442C29.2024 45.1952 29.6654 44.0965 30.4808 43.2869C31.2962 42.4772 32.3981 42.022 33.5472 42.02H181.068C182.225 42.02 183.335 42.4796 184.153 43.2977C184.971 44.1158 185.43 45.2254 185.43 46.3824V253.717C185.43 254.874 184.971 255.983 184.153 256.801C183.335 257.62 182.225 258.079 181.068 258.079ZM33.5472 42.1728C32.4422 42.1748 31.3831 42.6152 30.6025 43.3973C29.8218 44.1793 29.3834 45.2392 29.3834 46.3442V253.717C29.3834 254.822 29.8218 255.882 30.6025 256.664C31.3831 257.446 32.4422 257.886 33.5472 257.888H181.068C182.174 257.886 183.234 257.446 184.015 256.664C184.797 255.882 185.237 254.822 185.239 253.717V46.3442C185.237 45.2385 184.797 44.1787 184.015 43.3968C183.234 42.6149 182.174 42.1748 181.068 42.1728H33.5472Z" fill="#EBEBEB"/>
<path d="M346.329 258.079H198.8C197.644 258.077 196.536 257.617 195.718 256.799C194.9 255.982 194.44 254.873 194.438 253.717V46.3442C194.45 45.1945 194.915 44.0958 195.731 43.2864C196.548 42.4769 197.651 42.0219 198.8 42.02H346.329C347.477 42.024 348.577 42.4801 349.39 43.2895C350.204 44.099 350.666 45.1965 350.676 46.3442V253.717C350.676 254.871 350.218 255.978 349.404 256.796C348.589 257.614 347.483 258.075 346.329 258.079ZM198.8 42.1728C197.695 42.1748 196.635 42.6149 195.853 43.3968C195.071 44.1787 194.631 45.2385 194.629 46.3442V253.717C194.631 254.822 195.071 255.882 195.853 256.664C196.635 257.446 197.695 257.886 198.8 257.888H346.329C347.435 257.886 348.494 257.446 349.276 256.664C350.058 255.882 350.498 254.822 350.5 253.717V46.3442C350.498 45.2385 350.058 44.1787 349.276 43.3968C348.494 42.6149 347.435 42.1748 346.329 42.1728H198.8Z" fill="#EBEBEB"/>
<path d="M132.989 29.1389H26.5719V236.748H132.989V29.1389Z" fill="#F5F5F5"/>
<path d="M77.928 236.756H50.1719V112.713L77.928 103.644V236.756Z" fill="#EBEBEB"/>
<path d="M101.1 236.756H73.344V142.425L101.1 133.356V236.756Z" fill="#E6E6E6"/>
<path d="M97.7844 139.789H91.1605V117.282L97.7844 115.12V139.789Z" fill="#E6E6E6"/>
<path d="M243.983 29.1389H137.566V236.748H243.983V29.1389Z" fill="#F5F5F5"/>
<path d="M168.806 163.015H137.566V236.756H168.806V163.015Z" fill="#E6E6E6"/>
<path d="M355.436 29.1389H249.018V236.748H355.436V29.1389Z" fill="#F5F5F5"/>
<path d="M332.256 236.756H309.672V87.4932L332.256 78.4169V236.756Z" fill="#EBEBEB"/>
<path d="M355.428 236.756H327.672V142.425L355.428 133.356V236.756Z" fill="#E6E6E6"/>
<path d="M255.94 236.748H311.452V163.412L255.94 156.36V236.748Z" fill="#E6E6E6"/>
<path d="M352.12 139.789H348.804V117.282L352.12 115.12V139.789Z" fill="#E6E6E6"/>
<path d="M341.287 145.206H337.978V122.698L341.287 120.529V145.206Z" fill="#E6E6E6"/>
<path d="M43.2119 175.124H55.8561V236.756H34.976V183.36C34.976 181.176 35.8437 179.081 37.3882 177.536C38.9327 175.992 41.0276 175.124 43.2119 175.124Z" fill="#EBEBEB"/>
<path d="M132.99 177.286H105.249V236.756H132.99V177.286Z" fill="#EBEBEB"/>
<path d="M196.547 186.5L168.806 177.286V236.756H196.547V186.5Z" fill="#EBEBEB"/>
<path d="M207.052 186.5L179.311 177.286V236.756H207.052V186.5Z" fill="#E6E6E6"/>
<path d="M207.052 177.057L234.792 167.843V236.756H207.052V177.057Z" fill="#F0F0F0"/>
<path opacity="0.5" d="M84.6894 236.748H56.0929L115.036 29.1389H143.632L84.6894 236.748Z" fill="white"/>
<path opacity="0.5" d="M170.41 236.748H141.814L200.749 29.1389H229.353L170.41 236.748Z" fill="white"/>
<path opacity="0.5" d="M206.204 236.748H177.607L236.55 29.1389H265.146L206.204 236.748Z" fill="white"/>
<path opacity="0.5" d="M275.04 236.748H260.746L319.688 29.1389H333.983L275.04 236.748Z" fill="white"/>
<path d="M84.6818 254.412C92.933 210.161 114.676 189.396 133.18 178.822C115.456 195.584 103.4 253.579 84.6818 254.412Z" fill="#FAFAFA"/>
<path d="M66.5978 250.928C60.4858 217.572 45.7941 204.523 33.3562 198.976C45.3586 209.473 54.1446 253.029 66.5978 250.928Z" fill="#FAFAFA"/>
<path d="M77.2786 259.76C74.9254 211.781 56.6506 190.717 40.2169 180.602C55.1302 197.609 59.3933 260.409 77.2786 259.76Z" fill="#FAFAFA"/>
<path d="M77.2786 255.642C81.0986 207.434 101.482 184.873 119.604 173.42C102.964 191.634 96.6842 254.832 77.2786 255.642Z" fill="#FAFAFA"/>
<path d="M80.2888 263.183C86.4008 213.66 72.8856 183.818 59.1794 165.88C70.288 190.037 63.3509 255.42 80.2888 263.183Z" fill="#FAFAFA"/>
<path d="M99.3201 248.117C114.745 219.268 134.097 212.392 148.98 211.689C133.234 217.159 112.14 254.55 99.3201 248.117Z" fill="#FAFAFA"/>
<path d="M96.1189 249.209C105.845 216.518 124.257 202.605 139.384 196.172C124.387 207.372 110.688 250.126 96.1189 249.209Z" fill="#FAFAFA"/>
<path d="M79.0511 263.343C95.6758 212.071 88.1656 180.457 77.9739 161.204C84.1852 186.821 63.412 254.565 79.0511 263.343Z" fill="#FAFAFA"/>
<path d="M50.8442 244.908V277.164C50.8442 285.407 65.7193 292.154 83.9102 292.154C102.093 292.154 116.976 285.407 116.976 277.164V244.908H50.8442Z" fill="#F5F5F5"/>
<path d="M305.6 266.223C303.774 235.793 290.671 221.514 278.914 214.271C289.64 225.77 292.879 265.666 305.6 266.223Z" fill="#E0E0E0"/>
<path d="M318.313 263.847C325.357 240.927 336.573 231.927 345.573 228.107C336.443 235.312 326.664 265.284 318.313 263.847Z" fill="#E0E0E0"/>
<path d="M310.238 269.921C315.99 236.932 330.323 222.446 342.455 215.494C330.812 227.175 322.408 270.357 310.238 269.921Z" fill="#E0E0E0"/>
<path d="M310.597 267.087C312.125 233.929 300.13 218.42 288.708 210.551C298.533 223.088 297.372 266.529 310.597 267.087Z" fill="#E0E0E0"/>
<path d="M307.892 272.267C307.976 238.215 319.818 217.694 330.758 205.356C321.071 221.973 320.154 266.926 307.892 272.267Z" fill="#E0E0E0"/>
<path d="M296.165 261.907C288.074 242.043 275.414 237.337 265.284 236.855C275.59 240.614 286.813 266.33 296.165 261.907Z" fill="#E0E0E0"/>
<path d="M298.243 262.663C294.423 240.179 283.001 230.636 273.199 226.19C282.497 233.891 288.188 263.29 298.243 262.663Z" fill="#E0E0E0"/>
<path d="M308.717 272.381C301.757 237.123 309.634 215.387 318.275 202.154C311.811 219.757 320.162 266.338 308.717 272.381Z" fill="#E0E0E0"/>
<path d="M327.955 259.76V281.916C327.955 287.577 317.74 292.207 305.256 292.207C292.772 292.207 282.565 287.577 282.565 281.916V259.76H327.955Z" fill="#F5F5F5"/>
<path d="M191 326.656C272.811 326.656 339.132 322.784 339.132 318.007C339.132 313.231 272.811 309.359 191 309.359C109.189 309.359 42.868 313.231 42.868 318.007C42.868 322.784 109.189 326.656 191 326.656Z" fill="#F5F5F5"/>
<path d="M203.988 98.4719V108.488C203.986 109.195 203.704 109.872 203.205 110.371C202.705 110.871 202.028 111.152 201.322 111.154H176.744C176.037 111.152 175.36 110.871 174.861 110.371C174.361 109.872 174.079 109.195 174.077 108.488V72.1751C174.083 71.4712 174.367 70.7981 174.866 70.3017C175.365 69.8054 176.04 69.526 176.744 69.524H201.283C201.635 69.5199 201.984 69.5854 202.311 69.7165C202.637 69.8477 202.935 70.0419 203.186 70.2882C203.437 70.5345 203.637 70.8279 203.775 71.1517C203.913 71.4755 203.985 71.8233 203.988 72.1751V88.0204" fill="white"/>
<path d="M201.283 111.59H176.744C175.933 111.59 175.156 111.268 174.583 110.695C174.01 110.122 173.688 109.344 173.688 108.534V72.1751C173.688 71.3646 174.01 70.5873 174.583 70.0142C175.156 69.441 175.933 69.1191 176.744 69.1191H201.283C202.094 69.1191 202.871 69.441 203.444 70.0142C204.017 70.5873 204.339 71.3646 204.339 72.1751V88.0204H203.53V72.1751C203.53 71.5672 203.288 70.9842 202.858 70.5544C202.428 70.1246 201.845 69.8831 201.238 69.8831H176.744C176.136 69.8831 175.553 70.1246 175.123 70.5544C174.693 70.9842 174.452 71.5672 174.452 72.1751V108.488C174.452 109.096 174.693 109.679 175.123 110.109C175.553 110.539 176.136 110.78 176.744 110.78H201.283C201.891 110.78 202.474 110.539 202.904 110.109C203.334 109.679 203.575 109.096 203.575 108.488V98.472H204.385V108.488C204.391 108.897 204.315 109.303 204.162 109.682C204.008 110.061 203.78 110.406 203.491 110.695C203.201 110.984 202.857 111.213 202.478 111.366C202.099 111.52 201.692 111.596 201.283 111.59Z" fill="#407BFF"/>
<path d="M187.18 106.196C187.684 105.881 188.207 105.597 188.746 105.348C188.995 105.235 189.25 105.136 189.51 105.05C189.798 104.933 190.102 104.863 190.412 104.844L190.098 104.668C190.045 104.584 190.014 104.798 189.999 104.851L189.892 105.119C189.802 105.308 189.738 105.508 189.701 105.715C189.681 105.788 189.679 105.865 189.696 105.94C189.712 106.014 189.746 106.083 189.794 106.142C189.843 106.2 189.905 106.246 189.975 106.276C190.046 106.305 190.122 106.317 190.198 106.311C190.999 106.167 191.765 105.869 192.452 105.432H192.169C192.253 105.432 192.352 105.547 192.436 105.577C192.562 105.622 192.693 105.648 192.826 105.654C193.124 105.654 193.422 105.608 193.72 105.654C194.186 105.699 194.178 104.974 193.72 104.935C193.407 104.935 193.078 105.004 192.772 104.935C192.467 104.867 192.375 104.653 192.054 104.798C191.733 104.943 191.474 105.134 191.16 105.264C191.016 105.325 190.868 105.379 190.717 105.424L190.427 105.508C190.343 105.508 190.19 105.508 190.312 105.631L190.419 105.883C190.419 105.394 190.939 104.935 190.801 104.431C190.664 103.927 190.037 104.148 189.663 104.24C188.648 104.534 187.683 104.977 186.798 105.554C186.715 105.602 186.654 105.681 186.629 105.773C186.604 105.865 186.617 105.964 186.664 106.047C186.712 106.13 186.791 106.191 186.883 106.216C186.975 106.241 187.074 106.228 187.157 106.181L187.18 106.196Z" fill="#E0E0E0"/>
<path d="M201.1 74.9407H176.919V75.7429H201.1V74.9407Z" fill="#E0E0E0"/>
<path d="M198.365 80.6325H176.919V81.4347H198.365V80.6325Z" fill="#E0E0E0"/>
<path d="M201.1 86.332H176.919V87.1342H201.1V86.332Z" fill="#E0E0E0"/>
<path d="M183.566 92.0314H176.919V92.8336H183.566V92.0314Z" fill="#E0E0E0"/>
<path d="M195.194 92.0314H186.355V92.8336H195.194V92.0314Z" fill="#E0E0E0"/>
<path d="M201.1 97.7232H176.919V98.5254H201.1V97.7232Z" fill="#E0E0E0"/>
<path d="M180.243 107.9C179.505 107.9 178.785 107.681 178.172 107.271C177.558 106.862 177.081 106.279 176.798 105.598C176.516 104.917 176.442 104.167 176.586 103.444C176.73 102.721 177.085 102.056 177.607 101.535C178.128 101.014 178.792 100.659 179.515 100.515C180.239 100.371 180.988 100.445 181.67 100.727C182.351 101.009 182.933 101.487 183.343 102.1C183.753 102.713 183.971 103.434 183.971 104.171C183.971 105.16 183.578 106.109 182.879 106.808C182.18 107.507 181.232 107.9 180.243 107.9ZM180.243 101.253C179.664 101.253 179.098 101.425 178.616 101.747C178.135 102.068 177.76 102.526 177.539 103.061C177.317 103.596 177.26 104.185 177.374 104.753C177.487 105.321 177.766 105.842 178.176 106.251C178.586 106.66 179.109 106.938 179.677 107.05C180.245 107.162 180.833 107.103 181.368 106.88C181.902 106.658 182.359 106.281 182.68 105.799C183 105.317 183.17 104.75 183.169 104.171C183.167 103.397 182.858 102.654 182.309 102.107C181.761 101.56 181.018 101.253 180.243 101.253Z" fill="#407BFF"/>
<path d="M182.443 104.171C182.445 104.607 182.317 105.033 182.076 105.396C181.835 105.759 181.492 106.042 181.09 106.21C180.688 106.377 180.246 106.422 179.818 106.338C179.391 106.254 178.998 106.045 178.69 105.738C178.381 105.43 178.171 105.038 178.085 104.611C178 104.184 178.043 103.741 178.209 103.339C178.376 102.936 178.658 102.592 179.02 102.35C179.382 102.108 179.807 101.979 180.243 101.979C180.825 101.979 181.384 102.209 181.796 102.62C182.208 103.031 182.441 103.589 182.443 104.171Z" fill="#407BFF"/>
<path d="M194.881 103.514C195.01 102.468 195.382 101.466 195.966 100.588C196.516 99.7555 197.181 99.0602 197.792 98.2428C199.022 96.7148 200.298 95.1868 201.612 93.6588C204.194 90.6562 206.815 87.6843 209.672 84.8957C209.745 84.8333 209.837 84.7983 209.933 84.7965C210.029 84.7948 210.122 84.8264 210.197 84.8861C210.272 84.9458 210.324 85.0297 210.344 85.1234C210.364 85.2172 210.351 85.315 210.306 85.3999C208.243 88.815 205.944 92.0467 203.606 95.2479C202.429 96.837 201.238 98.4185 200.015 99.977C199.396 100.741 198.831 101.566 198.143 102.269C197.424 103.039 196.534 103.63 195.546 103.996C195.426 104.035 195.296 104.027 195.182 103.973C195.068 103.919 194.979 103.823 194.935 103.705C194.904 103.646 194.886 103.581 194.881 103.514Z" fill="#407BFF"/>
<path d="M196.858 130.566L191.837 134.945L192.364 135.55L197.385 131.171L196.858 130.566Z" fill="#407BFF"/>
<path d="M190.878 123.787L188.755 133.263L189.537 133.438L191.661 123.963L190.878 123.787Z" fill="#407BFF"/>
<path d="M183.4 131.048L182.814 131.596L185.608 134.58L186.194 134.032L183.4 131.048Z" fill="#407BFF"/>
<path d="M242.234 311.934H235.732L234.938 296.883H241.432L242.234 311.934Z" fill="#7F3E3B"/>
<path d="M275.009 311.934H268.508L265.964 296.883H272.458L275.009 311.934Z" fill="#7F3E3B"/>
<path d="M268.088 311.177H275.384C275.511 311.175 275.635 311.219 275.733 311.3C275.831 311.381 275.897 311.495 275.919 311.62L276.927 317.396C276.948 317.541 276.937 317.688 276.896 317.828C276.855 317.968 276.784 318.097 276.689 318.208C276.593 318.318 276.475 318.406 276.342 318.466C276.209 318.527 276.065 318.558 275.919 318.557C273.375 318.512 272.144 318.359 268.928 318.359C266.957 318.359 261.632 318.565 258.904 318.565C256.177 318.565 255.948 315.868 257.071 315.624C262.136 314.531 265.337 313.018 267.003 311.582C267.304 311.321 267.689 311.177 268.088 311.177Z" fill="#263238"/>
<path d="M235.572 311.177H242.662C242.789 311.175 242.913 311.219 243.011 311.3C243.109 311.381 243.175 311.495 243.196 311.62L244.205 317.396C244.228 317.54 244.22 317.687 244.181 317.827C244.142 317.967 244.072 318.097 243.978 318.207C243.883 318.318 243.766 318.406 243.633 318.467C243.501 318.527 243.357 318.558 243.212 318.557C240.66 318.512 236.962 318.359 233.746 318.359C229.987 318.359 229.032 318.565 224.616 318.565C221.95 318.565 221.338 315.868 222.469 315.624C227.603 314.516 229.46 314.394 233.975 311.689C234.451 311.376 235.003 311.2 235.572 311.177Z" fill="#263238"/>
<path d="M235.365 109.565L226.488 106.96C226.488 106.96 217.442 128.451 214.378 129.88C210.215 131.79 199.098 137.65 194.392 140.416C194.071 141.478 194.064 144.388 194.575 145.229C202.284 144.618 218.099 139.384 221.14 136.466C228.077 129.804 235.365 109.565 235.365 109.565Z" fill="#7F3E3B"/>
<path d="M238.055 105.508C240.576 111.131 223.264 135.793 223.264 135.793L214.86 127.068C214.86 127.068 222.293 108.404 226.32 101.245C230.43 93.888 235.312 99.32 238.055 105.508Z" fill="#407BFF"/>
<path opacity="0.4" d="M238.055 105.508C240.576 111.131 223.264 135.793 223.264 135.793L214.86 127.068C214.86 127.068 222.293 108.404 226.32 101.245C230.43 93.888 235.312 99.32 238.055 105.508Z" fill="white"/>
<path d="M214.249 126.297C213.721 126.61 212.591 128.665 212.339 129.689C212.086 130.713 218 138.613 220.299 138.292C222.599 137.971 225.227 135.732 225.701 134.525C226.175 133.318 215.356 125.647 214.249 126.297Z" fill="#407BFF"/>
<path d="M195.378 139.927L190.03 138.949L190.351 146.589C190.351 146.589 192.23 147.353 196.279 144.847L195.378 139.927Z" fill="#7F3E3B"/>
<path d="M183.566 141.493L184.544 146.191L190.312 146.619L189.992 138.956L183.566 141.493Z" fill="#7F3E3B"/>
<path opacity="0.2" d="M234.938 296.89L235.35 304.645H241.844L241.439 296.89H234.938Z" fill="black"/>
<path opacity="0.2" d="M272.465 296.89H265.964L267.278 304.645H273.779L272.465 296.89Z" fill="black"/>
<path d="M229.796 97.8378C229.796 97.8378 221.124 120.162 226.671 156.704H261.425C261.914 151.356 259.898 122.637 266.216 97.5017C262.397 96.7569 258.533 96.2643 254.649 96.0272C249.728 95.7443 244.794 95.7443 239.873 96.0272C236.473 96.373 233.104 96.9784 229.796 97.8378Z" fill="#407BFF"/>
<path opacity="0.2" d="M229.796 97.8378C229.796 97.8378 221.124 120.162 226.671 156.704H261.425C261.914 151.356 259.898 122.637 266.216 97.5017C262.397 96.7569 258.533 96.2643 254.649 96.0272C249.728 95.7443 244.794 95.7443 239.873 96.0272C236.473 96.373 233.104 96.9784 229.796 97.8378Z" fill="black"/>
<path opacity="0.2" d="M258.37 103.705C257.606 107.846 258.423 117.74 261.823 129.177C262.237 119.358 263.515 109.595 265.643 100V99.9541C263.336 99.7173 259.111 99.8242 258.37 103.705Z" fill="black"/>
<path d="M253.381 82.2141C252.219 86.9661 251.478 92.8566 254.649 96.0272C254.649 96.0272 252.51 100.856 243.678 100.856C235.602 100.856 239.858 96.0272 239.858 96.0272C245.206 94.7666 245.259 88.2115 244.511 84.5137L253.381 82.2141Z" fill="#7F3E3B"/>
<path d="M243.716 100.848C248.919 102.475 249.95 104.141 249.95 104.141C249.95 104.141 256.437 101.505 256.192 95.7903C255.404 95.2078 254.553 94.7158 253.656 94.3234C253.656 94.3234 253.106 98.556 243.716 100.848Z" fill="#407BFF"/>
<path d="M243.716 100.848C240.798 101.123 238.368 103.621 238.368 103.621C238.368 103.621 236.511 101.673 238.292 96.0195C238.292 96.0195 240.026 95.4312 241.462 95.1256C241.424 95.1333 240.255 99.6256 243.716 100.848Z" fill="#407BFF"/>
<path opacity="0.2" d="M244.526 84.5213C244.969 86.6834 245.137 89.8693 244.113 92.3218C244.948 92.1849 245.759 91.9276 246.52 91.5578C249.576 90.152 251.15 87.9288 252.846 84.6818C252.999 83.8337 253.182 83.0086 253.381 82.2141L244.526 84.5213Z" fill="black"/>
<path d="M243.494 67.0257C241.416 67.7057 236.771 71.6938 241.202 73.7031C245.634 75.7124 247.116 65.8492 243.494 67.0257Z" fill="#263238"/>
<path d="M257.514 76.4C255.489 82.6342 254.618 86.332 250.638 88.9296C244.656 92.7496 237.742 88.1656 237.902 81.5799C238.039 75.6131 241.325 66.4222 248.056 65.238C254.786 64.0538 259.538 70.1887 257.514 76.4Z" fill="#7F3E3B"/>
<path d="M247.75 69.5775C244.312 70.1581 241.447 69.9748 240.408 67.1174C239.369 64.26 244.098 61.2652 247.36 62.6098C249.767 60.1039 256.337 62.0292 257.185 64.4358C261.005 64.1913 264.619 68.5919 262.029 70.8457C262.615 71.2097 263.11 71.7023 263.477 72.2863C263.844 72.8702 264.073 73.5301 264.146 74.2158C264.22 74.9014 264.136 75.5949 263.902 76.2434C263.667 76.8919 263.288 77.4785 262.793 77.9586C263.909 81.2743 259.89 84.5824 256.719 83.2378C253.595 82.3057 251.891 83.0697 251.455 81.0528C251.02 79.0358 252.12 77.0876 254.779 76.698C253.434 75.0936 253.106 72.5571 254.015 71.4646C250.798 72.9238 248.162 71.0902 247.75 69.5775Z" fill="#263238"/>
<path d="M243.624 83.0162C244.232 83.0673 244.844 82.9977 245.425 82.8115C246.006 82.6253 246.544 82.3262 247.009 81.9314C247.037 81.9015 247.053 81.8618 247.053 81.8206C247.053 81.7793 247.037 81.7396 247.009 81.7098C246.995 81.695 246.979 81.6832 246.96 81.6751C246.942 81.667 246.922 81.6628 246.902 81.6628C246.882 81.6628 246.862 81.667 246.843 81.6751C246.825 81.6832 246.809 81.695 246.795 81.7098C246.285 82.1326 245.686 82.4347 245.043 82.5935C244.4 82.7522 243.73 82.7636 243.082 82.6266C243.042 82.6197 243 82.6285 242.966 82.6513C242.932 82.674 242.908 82.7089 242.899 82.7488C242.893 82.768 242.891 82.7881 242.894 82.8079C242.897 82.8276 242.904 82.8465 242.915 82.8632C242.926 82.88 242.94 82.8941 242.957 82.9047C242.974 82.9153 242.993 82.9221 243.013 82.9246C243.215 82.9654 243.419 82.996 243.624 83.0162Z" fill="#263238"/>
<path d="M257.873 85.0103C256.573 86.0257 254.93 86.4992 253.289 86.332C251.157 86.0952 250.997 83.9942 252.334 82.405C253.541 80.9687 256.108 79.349 257.888 80.4034C259.668 81.4577 259.47 83.742 257.873 85.0103Z" fill="#7F3E3B"/>
<path d="M249.515 156.704C249.515 156.704 248.629 164.879 247.498 175.949C246.199 188.502 244.587 204.798 243.563 217.205C243.563 217.266 243.563 217.32 243.563 217.373C243.365 219.734 243.189 221.957 243.044 223.959C241.592 244.213 244.19 303.132 244.19 303.132H233.173C233.173 303.132 223.027 243.005 223.279 222.393C223.516 202.582 226.664 156.689 226.664 156.689L249.515 156.704Z" fill="#407BFF"/>
<path d="M245.091 298.831C245.145 298.831 244.9 303.369 244.9 303.369H232.21L231.889 298.388L245.091 298.831Z" fill="#263238"/>
<path opacity="0.2" d="M247.536 175.949C246.237 188.502 244.625 204.798 243.601 217.205C243.601 217.266 243.601 217.32 243.601 217.373C241.18 205.6 240.423 190.962 241.363 166.858L247.536 175.949Z" fill="black"/>
<path d="M238.995 156.704C238.995 156.704 244.067 203.659 247.223 222.263C250.684 242.639 264.344 303.14 264.344 303.14H276.247C276.247 303.14 268.225 244.312 266.651 224.112C264.955 202.216 261.448 156.704 261.448 156.704H238.995Z" fill="#407BFF"/>
<path d="M276.392 299.106C276.446 299.106 276.805 303.369 276.805 303.369H263.725L262.77 298.609L276.392 299.106Z" fill="#263238"/>
<path d="M246.719 76.125C246.581 76.6369 246.207 76.9959 245.878 76.889C245.55 76.782 245.389 76.3389 245.519 75.827C245.649 75.3151 246.031 74.9561 246.359 75.063C246.688 75.17 246.848 75.636 246.719 76.125Z" fill="#263238"/>
<path d="M241.004 74.872C240.866 75.3839 240.492 75.743 240.163 75.636C239.835 75.529 239.674 75.0936 239.804 74.574C239.934 74.0545 240.316 73.7031 240.645 73.81C240.973 73.917 241.134 74.3601 241.004 74.872Z" fill="#263238"/>
<path d="M243.67 75.5291C242.659 76.9687 241.465 78.2708 240.118 79.4025C240.79 80.4416 242.41 80.3881 242.41 80.3881L243.67 75.5291Z" fill="#630F0F"/>
<path d="M249.828 74.6275C249.783 74.6155 249.741 74.5935 249.705 74.5631C249.669 74.5327 249.641 74.4947 249.622 74.4518C249.488 74.0985 249.268 73.7839 248.983 73.5359C248.697 73.288 248.355 73.1145 247.987 73.0308C247.947 73.0254 247.909 73.0118 247.874 72.9908C247.84 72.9698 247.81 72.9419 247.787 72.9088C247.764 72.8758 247.748 72.8383 247.741 72.7988C247.733 72.7593 247.733 72.7186 247.742 72.6793C247.757 72.5981 247.803 72.5259 247.87 72.4775C247.937 72.4291 248.02 72.4084 248.101 72.4196C248.571 72.5157 249.009 72.7284 249.375 73.0382C249.74 73.3479 250.023 73.7447 250.195 74.192C250.224 74.2693 250.222 74.3547 250.191 74.4312C250.16 74.5076 250.101 74.5695 250.027 74.6046C249.965 74.6343 249.895 74.6424 249.828 74.6275Z" fill="#263238"/>
<path d="M239.896 72.2591C239.855 72.2419 239.816 72.2188 239.781 72.1904C239.753 72.1619 239.73 72.128 239.714 72.0906C239.698 72.0533 239.69 72.0131 239.69 71.9726C239.69 71.9321 239.698 71.892 239.714 71.8546C239.73 71.8172 239.753 71.7833 239.781 71.7549C240.104 71.3803 240.512 71.0879 240.97 70.9019C241.429 70.7159 241.925 70.6416 242.417 70.6853C242.457 70.6907 242.495 70.7043 242.53 70.7253C242.564 70.7463 242.594 70.7742 242.617 70.8072C242.64 70.8403 242.656 70.8777 242.663 70.9172C242.671 70.9568 242.671 70.9974 242.662 71.0367C242.645 71.117 242.599 71.1882 242.533 71.2363C242.466 71.2843 242.384 71.3058 242.303 71.2965C241.911 71.2675 241.518 71.3313 241.156 71.4826C240.793 71.6339 240.472 71.8685 240.217 72.1674C240.176 72.2093 240.125 72.2398 240.069 72.2559C240.012 72.272 239.953 72.2731 239.896 72.2591Z" fill="#263238"/>
<path d="M270.066 106.372L261.861 111.338C261.861 111.338 271.029 131.202 270.976 134.54C270.823 140.775 273.504 154.29 272.779 161.41C273.787 161.769 276.599 161.853 277.485 161.357C279.112 154.916 281.366 137.994 280.717 133.753C279.295 124.532 270.066 106.372 270.066 106.372Z" fill="#7F3E3B"/>
<path d="M266.216 97.5017C272.328 98.3956 281.037 129.414 281.037 129.414L269.73 133.7C269.73 133.7 259.882 116.892 257.468 109.336C254.87 101.452 259.668 96.539 266.216 97.5017Z" fill="#407BFF"/>
<path opacity="0.4" d="M266.216 97.5017C272.328 98.3956 281.037 129.414 281.037 129.414L269.73 133.7C269.73 133.7 259.882 116.892 257.468 109.336C254.87 101.452 259.668 96.539 266.216 97.5017Z" fill="white"/>
<path d="M265.872 312.316C265.435 312.354 264.999 312.234 264.642 311.979C264.528 311.881 264.443 311.754 264.393 311.612C264.343 311.47 264.332 311.317 264.359 311.17C264.364 311.079 264.393 310.99 264.442 310.914C264.492 310.838 264.561 310.775 264.642 310.734C265.406 310.367 267.415 311.651 267.645 311.804C267.67 311.819 267.689 311.842 267.7 311.87C267.711 311.897 267.713 311.928 267.706 311.956C267.698 311.986 267.683 312.013 267.661 312.035C267.64 312.056 267.613 312.071 267.583 312.079C267.024 312.224 266.45 312.303 265.872 312.316ZM264.978 310.948C264.91 310.944 264.841 310.957 264.78 310.986C264.747 311.003 264.72 311.028 264.702 311.059C264.683 311.09 264.673 311.126 264.673 311.162C264.653 311.264 264.66 311.369 264.692 311.468C264.724 311.567 264.78 311.656 264.856 311.727C265.192 312.025 266.04 312.063 267.148 311.842C266.492 311.4 265.754 311.096 264.978 310.948Z" fill="#407BFF"/>
<path d="M267.553 312.086C267.53 312.093 267.506 312.093 267.484 312.086C266.827 311.727 265.597 310.299 265.773 309.573C265.801 309.46 265.866 309.36 265.957 309.289C266.049 309.217 266.161 309.177 266.277 309.176C266.392 309.16 266.51 309.169 266.622 309.202C266.734 309.235 266.837 309.291 266.926 309.367C267.652 309.985 267.69 311.865 267.69 311.941C267.69 311.97 267.683 311.998 267.67 312.023C267.657 312.049 267.637 312.07 267.614 312.086C267.594 312.089 267.573 312.089 267.553 312.086ZM266.369 309.42H266.3C266.101 309.42 266.078 309.535 266.071 309.573C265.964 310.001 266.743 311.101 267.385 311.582C267.382 310.852 267.15 310.141 266.72 309.55C266.623 309.465 266.498 309.419 266.369 309.42Z" fill="#407BFF"/>
<path d="M232.814 312.316C232.262 312.368 231.708 312.227 231.248 311.918C231.147 311.821 231.071 311.701 231.027 311.567C230.983 311.434 230.972 311.293 230.995 311.154C231.005 311.068 231.034 310.986 231.082 310.914C231.13 310.842 231.195 310.783 231.27 310.742C232.08 310.299 234.632 311.628 234.922 311.781C234.95 311.796 234.971 311.821 234.984 311.849C234.996 311.878 234.999 311.911 234.991 311.941C234.985 311.974 234.97 312.003 234.947 312.027C234.923 312.05 234.894 312.065 234.861 312.071C234.188 312.214 233.502 312.296 232.814 312.316ZM231.698 310.948C231.599 310.943 231.499 310.961 231.408 311.001C231.378 311.019 231.353 311.044 231.335 311.073C231.316 311.102 231.305 311.135 231.301 311.17C231.286 311.26 231.293 311.352 231.322 311.439C231.351 311.526 231.402 311.604 231.469 311.666C231.851 312.018 232.913 312.079 234.365 311.842C233.535 311.391 232.632 311.089 231.698 310.948Z" fill="#407BFF"/>
<path d="M234.838 312.086H234.77C234.006 311.735 232.478 310.329 232.669 309.596C232.669 309.42 232.844 309.206 233.265 309.168C233.415 309.149 233.568 309.162 233.713 309.207C233.858 309.251 233.992 309.327 234.105 309.428C234.869 310.108 234.991 311.857 234.999 311.934C234.998 311.961 234.991 311.988 234.978 312.012C234.964 312.036 234.945 312.056 234.922 312.071C234.897 312.087 234.867 312.092 234.838 312.086ZM233.371 309.42H233.28C233.005 309.42 232.982 309.558 232.974 309.588C232.883 310.031 233.883 311.116 234.663 311.613C234.624 310.882 234.356 310.182 233.899 309.611C233.753 309.483 233.565 309.415 233.371 309.42Z" fill="#407BFF"/>
<path d="M292.344 167.689L253.29 172.782C251.579 173.005 250.373 174.573 250.596 176.285L253.922 201.785C254.145 203.496 255.713 204.703 257.424 204.479L296.478 199.386C298.189 199.163 299.395 197.595 299.172 195.884L295.847 170.384C295.623 168.672 294.055 167.466 292.344 167.689Z" fill="#263238"/>
<path opacity="0.3" d="M292.344 167.689L253.29 172.782C251.579 173.005 250.373 174.573 250.596 176.285L253.922 201.785C254.145 203.496 255.713 204.703 257.424 204.479L296.478 199.386C298.189 199.163 299.395 197.595 299.172 195.884L295.847 170.384C295.623 168.672 294.055 167.466 292.344 167.689Z" fill="black"/>
<path d="M270.983 176.117C270.33 176.117 269.696 175.899 269.18 175.498C268.556 175.017 268.147 174.309 268.042 173.527L267.354 168.225C267.304 167.839 267.33 167.446 267.431 167.07C267.533 166.694 267.707 166.342 267.945 166.033C268.183 165.724 268.479 165.466 268.817 165.271C269.154 165.077 269.527 164.952 269.914 164.902L278.738 163.748C279.519 163.646 280.308 163.859 280.933 164.338C281.558 164.818 281.966 165.527 282.069 166.308L282.764 171.61C282.862 172.39 282.648 173.177 282.169 173.801C281.69 174.425 280.984 174.834 280.205 174.941L271.373 176.087C271.244 176.104 271.114 176.115 270.983 176.117ZM279.127 165.421H278.967L270.135 166.575C269.973 166.596 269.817 166.648 269.676 166.729C269.535 166.81 269.411 166.919 269.311 167.048C269.212 167.177 269.139 167.325 269.097 167.482C269.055 167.64 269.044 167.804 269.065 167.965L269.753 173.268C269.798 173.595 269.971 173.892 270.234 174.093C270.363 174.192 270.511 174.265 270.668 174.307C270.826 174.349 270.99 174.359 271.151 174.337L279.975 173.191C280.302 173.145 280.598 172.973 280.8 172.712C281.001 172.451 281.092 172.121 281.053 171.793L280.388 166.552C280.367 166.39 280.315 166.234 280.234 166.092C280.152 165.95 280.044 165.826 279.914 165.727C279.692 165.546 279.414 165.446 279.127 165.444V165.421Z" fill="#263238"/>
<path d="M296.063 167.205L257.009 172.298C255.298 172.521 254.092 174.09 254.315 175.801L257.64 201.301C257.864 203.013 259.432 204.219 261.143 203.996L300.197 198.903C301.908 198.68 303.114 197.111 302.891 195.4L299.566 169.9C299.342 168.189 297.774 166.982 296.063 167.205Z" fill="#263238"/>
<path d="M273.145 160.341L270.655 165.192L277.959 165.528C278.485 164.469 278.677 163.274 278.508 162.103C278.339 160.932 277.816 159.84 277.011 158.973L273.145 160.341Z" fill="#7F3E3B"/>
<path d="M273.443 168.951L277.798 168.355L277.959 165.528L270.655 165.192L270.769 166.774C270.791 167.096 270.88 167.411 271.028 167.698C271.177 167.985 271.383 168.238 271.634 168.442C271.885 168.647 272.174 168.797 272.486 168.885C272.797 168.972 273.123 168.995 273.443 168.951Z" fill="#7F3E3B"/>
<path d="M268.027 131.935C267.912 132.531 268.722 134.739 269.318 135.595C269.914 136.45 279.769 137.207 281.037 135.266C282.306 133.326 282.359 129.872 281.756 128.719C281.152 127.565 268.263 130.644 268.027 131.935Z" fill="#407BFF"/>
<path d="M124.058 108.091C122.828 109.703 121.491 111.468 120.238 113.202C118.985 114.936 117.778 116.701 116.625 118.489C114.311 121.919 112.314 125.553 110.658 129.345C110.467 129.796 110.291 130.247 110.138 130.697C110.057 130.922 109.98 131.143 109.909 131.362L109.802 131.698L109.756 131.859V131.905C109.616 132.49 109.588 133.096 109.672 133.692C109.936 135.614 110.389 137.505 111.025 139.338C112.331 143.288 114.081 147.36 115.8 151.31L111.896 153.786C108.967 150.171 106.431 146.255 104.332 142.104C103.176 139.863 102.296 137.49 101.711 135.037C101.332 133.45 101.27 131.804 101.528 130.193L101.589 129.827L101.65 129.582L101.765 129.108C101.834 128.795 101.91 128.482 102.002 128.176C102.17 127.557 102.353 126.962 102.552 126.366C104.15 121.87 106.235 117.564 108.771 113.523C109.993 111.544 111.246 109.603 112.591 107.732C113.935 105.86 115.265 104.042 116.816 102.177L124.058 108.091Z" fill="#263238"/>
<path d="M114.768 149.897L118.787 152.028L114.203 157.445C114.203 157.445 111.315 155.489 111.147 152.51L114.768 149.897Z" fill="#FFC3BD"/>
<path d="M124.196 155.367L119.245 159.302L114.165 157.445L118.787 152.028L124.196 155.367Z" fill="#FFC3BD"/>
<path d="M184.262 138.284L189.014 140.736L188.593 142.448L184.773 146.268C184.773 146.268 182.023 144.129 182.084 141.149L184.262 138.284Z" fill="#FFC3BD"/>
<path d="M184.949 138.956L189.304 138.139L192.1 139.331L190.236 139.644L189.014 140.752L184.949 138.956Z" fill="#FFC3BD"/>
<path d="M193.773 146.833L189.052 147.849C188.557 147.954 188.041 147.892 187.585 147.674L184.751 146.298L188.571 142.478L191.099 141.714L194.262 145.343C194.361 145.464 194.427 145.608 194.455 145.762C194.484 145.915 194.473 146.073 194.424 146.222C194.376 146.37 194.291 146.504 194.177 146.611C194.063 146.717 193.924 146.794 193.773 146.833Z" fill="#FFC3BD"/>
<path d="M141.47 77.1182C141.577 77.63 141.928 77.9891 142.234 77.8822C142.54 77.7752 142.753 77.3397 142.654 76.8278C142.555 76.316 142.188 75.9569 141.89 76.0638C141.592 76.1708 141.34 76.6063 141.47 77.1182Z" fill="#263238"/>
<path d="M141.883 77.9967C142.812 79.4397 143.936 80.7482 145.221 81.8855C144.457 82.9169 142.868 82.8405 142.868 82.8405L141.883 77.9967Z" fill="#FF5652"/>
<path d="M139.048 74.6504C138.972 74.6473 138.899 74.6176 138.842 74.5664C138.785 74.508 138.754 74.4299 138.754 74.3486C138.754 74.2674 138.785 74.1893 138.842 74.1309C139.165 73.7653 139.57 73.4823 140.025 73.3055C140.479 73.1288 140.97 73.0634 141.455 73.1148C141.526 73.1379 141.586 73.1857 141.625 73.2495C141.664 73.3134 141.679 73.3891 141.667 73.463C141.655 73.5369 141.617 73.604 141.56 73.6522C141.503 73.7005 141.43 73.7266 141.355 73.726C140.971 73.6902 140.583 73.7464 140.224 73.8898C139.866 74.0333 139.546 74.2599 139.293 74.5511C139.262 74.5853 139.224 74.6121 139.182 74.6293C139.139 74.6465 139.094 74.6538 139.048 74.6504Z" fill="#263238"/>
<path d="M127.588 86.1715C128.474 90.6791 129.001 96.921 125.854 99.9235C125.854 99.9235 127.084 104.508 135.457 104.508C144.671 104.508 139.888 100.489 139.888 100.489C136.068 99.3047 136.068 94.9423 136.97 91.4431L127.588 86.1715Z" fill="#FFC3BD"/>
<path d="M124.532 103.01C123.768 101.803 124.02 98.1434 124.937 97.5475C126.404 96.5849 132.455 96.6918 140.484 99.0373C139.399 102.536 141.164 104.508 141.164 104.508L124.532 103.01Z" fill="#407BFF"/>
<path opacity="0.2" d="M117.809 109.496C114.944 112.323 114.111 118.114 114.424 122.064C115.127 120.865 115.876 119.665 116.648 118.496C117.801 116.701 119.031 114.951 120.269 113.194C120.613 112.713 120.964 112.224 121.323 111.735C121.392 111.422 121.453 111.109 121.514 110.803L117.809 109.496Z" fill="black"/>
<path d="M97.517 310.948C98.0175 311.123 98.5667 311.092 99.045 310.864C99.1373 310.78 99.201 310.669 99.227 310.547C99.2531 310.425 99.2402 310.298 99.1902 310.184C99.1619 310.09 99.1138 310.003 99.0493 309.93C98.9847 309.856 98.9051 309.797 98.8158 309.756C97.9831 309.359 96.0654 310.138 95.989 310.169C95.9628 310.179 95.9401 310.197 95.9238 310.22C95.9075 310.243 95.8983 310.27 95.8973 310.299C95.8962 310.327 95.9036 310.356 95.9185 310.38C95.9335 310.405 95.9553 310.424 95.9814 310.436C96.4737 310.661 96.9885 310.832 97.517 310.948ZM98.5255 309.962L98.6936 310.016C98.7467 310.039 98.794 310.074 98.8323 310.117C98.8706 310.161 98.8988 310.212 98.9151 310.268C98.9915 310.528 98.9151 310.612 98.8617 310.642C98.5331 310.925 97.3337 310.642 96.4398 310.314C97.1074 310.029 97.8313 309.901 98.5561 309.94L98.5255 309.962Z" fill="#407BFF"/>
<path d="M96.0196 310.428H96.0883C96.7912 310.23 98.281 309.168 98.2963 308.473C98.2987 308.362 98.2627 308.255 98.1944 308.168C98.126 308.082 98.0297 308.022 97.9219 307.999C97.8164 307.959 97.7035 307.944 97.5913 307.953C97.479 307.962 97.3701 307.996 97.2725 308.052C96.4551 308.473 95.9355 310.176 95.9126 310.245C95.9012 310.268 95.8953 310.292 95.8953 310.318C95.8953 310.343 95.9012 310.368 95.9126 310.39C95.9424 310.416 95.9805 310.429 96.0196 310.428ZM97.7615 308.243H97.8303C98.006 308.305 98.006 308.396 98.006 308.434C98.006 308.847 97.0128 309.672 96.287 310.008C96.4818 309.334 96.8727 308.733 97.4101 308.282C97.4679 308.25 97.5315 308.23 97.5972 308.223C97.6628 308.217 97.7291 308.224 97.7921 308.243H97.7615Z" fill="#407BFF"/>
<path d="M143.013 311.956C143.777 311.956 144.541 311.85 144.824 311.49C144.889 311.398 144.924 311.287 144.924 311.173C144.924 311.06 144.889 310.949 144.824 310.856C144.72 310.685 144.552 310.562 144.358 310.513C143.334 310.237 141.18 311.46 141.088 311.513C141.061 311.528 141.04 311.55 141.028 311.578C141.015 311.606 141.012 311.637 141.019 311.666C141.023 311.696 141.037 311.724 141.057 311.745C141.078 311.767 141.104 311.782 141.134 311.788C141.754 311.898 142.383 311.954 143.013 311.956ZM143.991 310.765C144.085 310.753 144.18 310.753 144.274 310.765C144.333 310.777 144.389 310.802 144.437 310.838C144.486 310.873 144.527 310.919 144.557 310.971C144.663 311.154 144.625 311.238 144.557 311.292C144.274 311.689 142.715 311.697 141.569 311.536C142.319 311.126 143.142 310.864 143.991 310.765Z" fill="#407BFF"/>
<path d="M141.149 311.788H141.21C141.974 311.46 143.426 310.123 143.319 309.428C143.319 309.26 143.174 309.061 142.776 309.015C142.631 309.002 142.485 309.017 142.346 309.061C142.207 309.104 142.078 309.174 141.967 309.267C141.203 309.917 141.012 311.559 141.004 311.643C141.003 311.668 141.009 311.693 141.019 311.715C141.03 311.738 141.045 311.758 141.065 311.773C141.091 311.786 141.12 311.792 141.149 311.788ZM142.677 309.29H142.769C143.028 309.29 143.044 309.42 143.051 309.451C143.12 309.871 142.119 310.917 141.363 311.368C141.431 310.668 141.714 310.006 142.173 309.473C142.307 309.358 142.477 309.294 142.654 309.29H142.677Z" fill="#407BFF"/>
<path d="M134.38 311.643H140.538L141.149 297.372H134.991L134.38 311.643Z" fill="#FFC3BD"/>
<path d="M89.2582 309.007L95.2021 310.268L100.596 296.615L94.652 295.355L89.2582 309.007Z" fill="#FFC3BD"/>
<path d="M95.7522 309.489L88.9831 308.022C88.8647 307.997 88.7414 308.013 88.6331 308.067C88.5249 308.121 88.4382 308.21 88.3872 308.32L86.0341 313.416C85.9773 313.54 85.9495 313.676 85.9526 313.813C85.9558 313.95 85.9899 314.085 86.0523 314.207C86.1148 314.329 86.204 314.435 86.3133 314.518C86.4226 314.6 86.5491 314.657 86.6835 314.684C89.0595 315.15 90.2361 315.265 93.2081 315.906C95.0417 316.304 99.1749 317.312 101.704 317.855C104.233 318.397 105.096 315.975 104.11 315.524C99.6944 313.507 97.8455 311.704 96.6461 310.069C96.4304 309.772 96.1118 309.565 95.7522 309.489Z" fill="#263238"/>
<path d="M140.5 310.948H133.769C133.647 310.95 133.529 310.992 133.433 311.068C133.338 311.144 133.27 311.25 133.242 311.368L132.027 316.846C131.997 316.979 131.997 317.116 132.028 317.248C132.059 317.381 132.119 317.504 132.204 317.61C132.289 317.716 132.397 317.801 132.52 317.859C132.643 317.918 132.777 317.947 132.913 317.946C135.343 317.9 138.849 317.763 141.898 317.763C145.466 317.763 146.734 317.954 150.913 317.954C153.442 317.954 154.145 315.402 153.09 315.165C148.27 314.111 146.146 313.996 141.982 311.429C141.541 311.136 141.028 310.97 140.5 310.948Z" fill="#263238"/>
<path opacity="0.2" d="M141.149 297.379L140.836 304.729H134.67L134.984 297.379H141.149Z" fill="black"/>
<path opacity="0.2" d="M94.6521 295.355L100.596 296.615L97.815 303.652L91.8711 302.399L94.6521 295.355Z" fill="black"/>
<path d="M138.788 154.901C138.788 154.901 131.79 201.994 127.955 219.635C123.753 238.956 101.215 302.911 101.215 302.911L90.1521 300.481C90.1521 300.481 105.921 248.392 109.443 221.384C112.155 200.642 117.496 154.916 117.496 154.916L138.788 154.901Z" fill="#263238"/>
<path opacity="0.1" d="M138.788 154.901C138.788 154.901 131.79 201.994 127.955 219.635C123.753 238.956 101.215 302.911 101.215 302.911L90.1521 300.481C90.1521 300.481 105.921 248.392 109.443 221.384C112.155 200.642 117.496 154.916 117.496 154.916L138.788 154.901Z" fill="white"/>
<path d="M103.851 299.19C103.896 299.19 101.795 303.178 101.795 303.178L89.3881 300.489L90.4347 296.761L103.851 299.19Z" fill="#263238"/>
<path opacity="0.3" d="M134.365 171.678C126.282 173.268 127.137 203.423 128.108 218.932C130.4 207.968 133.853 186.844 136.191 171.9C135.624 171.624 134.981 171.546 134.365 171.678Z" fill="black"/>
<path d="M150.508 154.901C150.508 154.901 151.356 200.97 150.684 219.765C149.989 239.308 143.166 303.308 143.166 303.308H132.692C132.692 303.308 132.31 240.454 131.844 221.254C131.339 200.328 128.788 154.901 128.788 154.901H150.508Z" fill="#263238"/>
<path opacity="0.1" d="M150.508 154.901C150.508 154.901 151.356 200.97 150.684 219.765C149.989 239.308 143.166 303.308 143.166 303.308H132.692C132.692 303.308 132.31 240.454 131.844 221.254C131.339 200.328 128.788 154.901 128.788 154.901H150.508Z" fill="white"/>
<path d="M145.16 299.152C145.206 299.152 144.564 303.484 144.564 303.484H131.851L131.507 299.618L145.16 299.152Z" fill="#263238"/>
<path d="M151.318 107.502C152.579 114.165 154.916 132.776 151.264 159.852L115.601 159.302C115.395 154.572 119.154 128.902 115.677 106.112C115.58 105.466 115.613 104.806 115.774 104.173C115.935 103.539 116.22 102.944 116.613 102.422C117.007 101.9 117.5 101.461 118.065 101.132C118.63 100.803 119.254 100.589 119.902 100.504C121.705 100.26 123.799 100.031 125.861 99.9312C130.526 99.6636 135.201 99.6636 139.866 99.9312C141.394 100.076 142.922 100.298 144.281 100.535C146.022 100.846 147.627 101.679 148.884 102.924C150.141 104.168 150.989 105.765 151.318 107.502Z" fill="#263238"/>
<path opacity="0.2" d="M152.296 114.119L146.291 115.608C145.832 121.216 149.53 127.565 153.228 132.416C153.265 126.304 152.954 120.195 152.296 114.119Z" fill="black"/>
<path d="M149.828 104.508C150.844 106.333 151.944 108.328 153.075 110.184C154.206 112.041 155.367 113.943 156.536 115.777C158.789 119.38 161.345 122.784 164.176 125.953C164.527 126.312 164.871 126.679 165.223 127.015L165.482 127.267L165.689 127.45C165.803 127.573 166.002 127.71 166.147 127.84C166.85 128.39 167.675 128.971 168.584 129.529C170.38 130.636 172.305 131.721 174.261 132.768C178.173 134.869 182.222 136.932 186.217 139.017L184.636 143.365C180.114 142.282 175.662 140.927 171.304 139.308C169.119 138.49 166.926 137.604 164.734 136.527C163.568 135.971 162.437 135.344 161.349 134.647C161.051 134.433 160.769 134.265 160.448 134.013L159.989 133.662L159.615 133.349C159.103 132.936 158.637 132.508 158.163 132.08C156.358 130.397 154.674 128.59 153.121 126.671C151.593 124.815 150.164 122.851 148.812 120.949C147.46 119.046 146.176 117.03 144.992 115.005C143.808 112.98 142.631 110.994 141.531 108.794L149.828 104.508Z" fill="#263238"/>
<path d="M124.142 79.5018C125.808 85.7208 126.434 89.4338 130.308 92.0314C136.084 95.9278 143.296 91.4584 143.495 84.8651C143.693 78.9365 140.935 69.7608 134.265 68.5079C132.795 68.2225 131.276 68.3181 129.853 68.7857C128.43 69.2533 127.15 70.0773 126.135 71.1793C125.121 72.2812 124.405 73.6245 124.056 75.0813C123.707 76.538 123.737 78.0598 124.142 79.5018Z" fill="#FFC3BD"/>
<path d="M137.062 79.5782C138.544 77.4008 139.109 74.0545 138.07 72.4425C139.04 72.8474 146.039 73.3287 143.296 68.3474C140.553 63.3662 135.052 61.991 130.262 63.3662L132.592 64.0385C132.592 64.0385 126.045 63.5648 122.859 66.2159C123.829 66.2693 124.67 66.2159 124.67 66.2159C124.67 66.2159 117.656 69.524 120.712 72.0376C115.784 75.7888 119.123 80.984 127.237 88.7309C128.65 90.0068 132.653 89.5408 133.54 88.7768C132.974 85.3999 136.229 80.8159 137.062 79.5782Z" fill="#263238"/>
<path d="M137.887 75.338C139.338 76.4 141.134 79.5248 141.967 81.0833C142.799 82.6419 143.678 82.4432 144.098 83.0621C144.518 83.6809 146.237 94.1477 144.396 95.8209C142.555 97.494 137.016 94.8506 136.29 92.9253C135.564 91 136.894 86.2785 137.253 85.2013C137.63 83.3407 137.52 81.414 136.932 79.6088C136.29 77.7828 137.887 75.338 137.887 75.338Z" fill="#263238"/>
<path d="M134.617 79.8686C134.815 80.6305 135.163 81.3449 135.642 81.9696C136.121 82.5943 136.721 83.1164 137.405 83.5052C139.094 84.2692 139.3 82.3057 138.972 80.4492C138.674 78.7608 138.208 77.3932 136.84 76.7362C135.228 75.9034 134.059 78.0197 134.617 79.8686Z" fill="#FFC3BD"/>
</svg>
