<svg width="351" height="351" viewBox="0 0 351 351" fill="none" xmlns="http://www.w3.org/2000/svg">
<path d="M58.968 280.8L51.5058 275.661C51.5058 275.661 47.1955 281.93 40.6107 277.564C39.3266 276.745 38.3291 275.547 37.7568 274.135C37.1844 272.724 37.0655 271.169 37.4166 269.687C37.695 268.438 38.2649 267.272 39.0799 266.285C39.8949 265.298 40.9318 264.518 42.106 264.008C44.8017 262.794 48.8803 262.808 53.3029 267.153L64.8718 250.305L57.4938 245.23L50.7195 255.058C50.7195 255.058 38.5328 250.614 30.6844 262.014C23.1801 272.924 31.218 282.19 35.4089 285.068C38.61 287.322 50.0175 294.054 58.968 280.8Z" fill="#EBEBEB"/>
<path d="M59.7554 241.729L67.239 246.878L72.0499 239.886L64.5663 234.737L59.7554 241.729Z" fill="#EBEBEB"/>
<path d="M90.7405 301.432L94.6998 300.386C94.5822 299.935 94.5554 299.466 94.6209 299.005C94.6864 298.544 94.8429 298.101 95.0814 297.701C95.3198 297.301 95.6354 296.953 96.0098 296.676C96.3842 296.4 96.8099 296.2 97.2621 296.09C97.9217 295.889 98.6275 295.899 99.2807 296.12C99.934 296.34 100.502 296.759 100.905 297.318C101.252 297.781 101.485 298.319 101.583 298.889C101.682 299.459 101.645 300.044 101.474 300.596C101.095 301.881 99.8876 303.278 97.0936 303.51L99.4453 312.446L103.362 311.414L101.958 306.177C103.44 305.279 104.585 303.92 105.219 302.308C105.853 300.697 105.941 298.921 105.468 297.255C103.938 291.463 98.3853 291.484 96.167 292.074C94.5033 292.523 88.8241 294.461 90.7405 301.432Z" fill="#EBEBEB"/>
<path d="M103.915 313.228L99.9373 314.278L100.917 317.991L104.894 316.941L103.915 313.228Z" fill="#EBEBEB"/>
<path d="M156.546 51.2951C158.549 50.0748 160.707 49.1303 162.962 48.4871L164.282 42.1691L175.016 41.9796L176.56 48.2976C178.837 48.8553 181.028 49.7171 183.075 50.8599L188.501 47.3007L196.223 54.756L192.86 60.3018C194.077 62.3092 195.021 64.4692 195.668 66.7251L202.022 68.0448L202.204 78.7784L195.886 80.3228C195.325 82.5986 194.464 84.7894 193.324 86.8374L196.876 92.2638L189.421 99.9858L183.875 96.6233C181.87 97.8436 179.709 98.7881 177.452 99.4313L176.132 105.791L165.398 105.974L163.854 99.6559C161.576 99.1013 159.384 98.2393 157.339 97.0936L151.913 100.653L144.191 93.1975L147.553 87.6517C146.333 85.6465 145.389 83.4859 144.745 81.2284L138.427 79.9086L138.238 69.1751L144.556 67.6307C145.103 65.3405 145.958 63.1349 147.097 61.074L143.538 55.6475L150.993 47.9255L156.546 51.2951ZM162.267 65.5949C160.688 67.2353 159.631 69.3071 159.229 71.5483C158.828 73.7896 159.099 76.0996 160.011 78.1863C160.922 80.2731 162.431 82.0427 164.348 83.2716C166.265 84.5004 168.503 85.1333 170.78 85.0901C173.056 85.0469 175.269 84.3296 177.138 83.0289C179.007 81.7282 180.448 79.9026 181.279 77.7828C182.111 75.663 182.295 73.3443 181.808 71.1199C181.322 68.8955 180.187 66.8653 178.547 65.286C176.346 63.1698 173.396 62.0136 170.343 62.0715C167.291 62.1295 164.386 63.3967 162.267 65.5949Z" fill="#F5F5F5"/>
<path d="M111.618 28.9154C112.775 28.2206 114.019 27.6823 115.318 27.3148L116.076 23.6504L122.26 23.5451L123.152 27.1744C124.462 27.4948 125.723 27.9907 126.901 28.6486L130.024 26.5988L134.447 30.888L132.51 34.0821C133.208 35.2379 133.749 36.4822 134.117 37.7816L137.775 38.5398L137.88 44.7244L134.251 45.63C133.931 46.9406 133.435 48.2017 132.776 49.3787L134.826 52.5026L130.53 56.9533L127.336 55.0157C126.18 55.7144 124.936 56.2551 123.636 56.6233L122.85 60.2737L116.665 60.386L115.83 56.7567C114.521 56.4307 113.26 55.9326 112.081 55.2755L108.957 57.3253L104.507 53.0291L106.416 49.842C105.716 48.6892 105.176 47.4471 104.809 46.1495L101.151 45.3843L101.039 39.1997L104.675 38.3152C104.994 37.0023 105.49 35.7389 106.149 34.5595L104.1 31.4356L108.396 26.9919L111.618 28.9154ZM114.91 37.1569C113.994 38.0992 113.379 39.2925 113.142 40.5852C112.905 41.8779 113.057 43.2119 113.58 44.4179C114.102 45.6239 114.971 46.6475 116.076 47.3589C117.181 48.0703 118.473 48.4375 119.787 48.4138C121.101 48.3901 122.378 47.9766 123.457 47.2258C124.536 46.475 125.367 45.4207 125.846 44.1967C126.324 42.9727 126.428 41.6341 126.145 40.3507C125.862 39.0674 125.203 37.8971 124.254 36.9884C122.988 35.7694 121.29 35.1026 119.533 35.1342C117.776 35.1658 116.104 35.8932 114.882 37.1569H114.91Z" fill="#EBEBEB"/>
<path d="M308.929 143.706C310.083 143.009 311.325 142.469 312.622 142.099L313.387 138.441L319.564 138.336L320.456 141.965C321.769 142.285 323.032 142.781 324.212 143.44L327.336 141.39L331.779 145.686L329.842 148.88C330.54 150.036 331.081 151.28 331.449 152.58L335.114 153.338L335.219 159.522L331.59 160.414C331.263 161.722 330.768 162.982 330.116 164.163L332.158 167.287L327.869 171.737L324.675 169.8C323.519 170.498 322.275 171.039 320.975 171.407L320.21 175.065L314.033 175.177L313.141 171.541C311.831 171.222 310.569 170.726 309.392 170.067L306.262 172.116L301.818 167.82L303.755 164.626C303.056 163.471 302.515 162.226 302.148 160.926L298.49 160.168L298.378 153.984L302.007 153.092C302.334 151.784 302.83 150.524 303.482 149.343L301.439 146.22L305.728 141.769L308.929 143.706ZM312.222 151.941C311.31 152.884 310.698 154.077 310.464 155.368C310.23 156.659 310.384 157.991 310.907 159.194C311.43 160.398 312.298 161.419 313.401 162.129C314.505 162.84 315.794 163.207 317.106 163.184C318.418 163.161 319.694 162.75 320.772 162.003C321.85 161.255 322.682 160.204 323.164 158.983C323.645 157.763 323.753 156.427 323.475 155.144C323.196 153.862 322.544 152.691 321.6 151.779C320.334 150.559 318.636 149.891 316.878 149.921C315.119 149.951 313.445 150.678 312.222 151.941Z" fill="#EBEBEB"/>
<path d="M325.574 326.648C325.574 326.753 259.003 326.83 176.911 326.83C94.8191 326.83 28.2344 326.753 28.2344 326.648C28.2344 326.542 94.784 326.465 176.911 326.465C259.038 326.465 325.574 326.549 325.574 326.648Z" fill="#263238"/>
<path d="M293.197 326.135L193.513 326.079C187.755 326.075 182.234 323.785 178.164 319.712C174.094 315.64 171.807 310.117 171.807 304.359L171.857 54.4471C171.87 48.684 174.168 43.1614 178.248 39.0908C182.328 35.0203 187.855 32.7342 193.619 32.7343L293.303 32.7974C299.061 32.8012 304.582 35.0911 308.652 39.164C312.722 43.2369 315.008 48.7593 315.008 54.5173L314.959 304.429C314.959 307.285 314.396 310.112 313.302 312.749C312.207 315.386 310.604 317.781 308.582 319.798C306.56 321.814 304.161 323.412 301.521 324.499C298.881 325.587 296.053 326.143 293.197 326.135Z" fill="#455A64"/>
<path d="M293.162 41.6075H273.836C272.562 41.637 271.352 42.1711 270.471 43.0925C269.59 44.0139 269.112 45.2473 269.14 46.5215V50.0315C269.168 51.3058 268.689 52.5391 267.809 53.4605C266.928 54.3819 265.718 54.9161 264.443 54.9455H226.767C225.494 54.9142 224.285 54.3793 223.406 53.4581C222.527 52.5369 222.049 51.3046 222.078 50.0315V46.5215C222.106 45.2473 221.627 44.0139 220.747 43.0925C219.866 42.1711 218.656 41.637 217.381 41.6075H193.668C189.642 41.6038 185.78 43.1964 182.927 46.0362C180.074 48.876 178.463 52.7313 178.448 56.7567L178.399 300.716C178.407 304.744 180.012 308.605 182.862 311.452C185.713 314.298 189.576 315.898 193.605 315.9L293.099 315.956C295.097 315.957 297.075 315.565 298.921 314.801C300.767 314.037 302.445 312.917 303.858 311.506C305.271 310.094 306.392 308.417 307.158 306.572C307.923 304.727 308.318 302.749 308.318 300.751L308.361 56.7918C308.355 52.7639 306.751 48.9029 303.902 46.0561C301.053 43.2093 297.19 41.6094 293.162 41.6075Z" fill="white"/>
<path d="M308.354 92.8816V56.5391C308.282 52.5564 306.65 48.761 303.809 45.9687C300.969 43.1765 297.146 41.6106 293.162 41.6075H273.836C273.205 41.6212 272.583 41.7592 272.005 42.0137C271.427 42.2682 270.905 42.6341 270.469 43.0905C270.033 43.5469 269.691 44.0849 269.463 44.6737C269.235 45.2624 269.125 45.8903 269.14 46.5215V50.0315C269.168 51.3058 268.689 52.5391 267.809 53.4605C266.928 54.3819 265.718 54.9161 264.443 54.9455H226.767C225.494 54.9142 224.285 54.3793 223.406 53.4581C222.527 52.5369 222.049 51.3046 222.078 50.0315V46.5215C222.106 45.2473 221.627 44.0139 220.747 43.0925C219.866 42.1711 218.656 41.637 217.381 41.6075H193.668C189.642 41.6038 185.78 43.1964 182.927 46.0362C180.074 48.876 178.463 52.7313 178.448 56.7567V92.9939H308.354V92.8816Z" fill="#EBEBEB"/>
<path d="M204.942 142.176C213.638 142.176 220.688 135.142 220.688 126.465C220.688 117.788 213.638 110.755 204.942 110.755C196.246 110.755 189.196 117.788 189.196 126.465C189.196 135.142 196.246 142.176 204.942 142.176Z" fill="#E0E0E0"/>
<path d="M197.585 130.396L201.713 130.045L211.779 131.744L212.966 139.319L212.797 140.203C210.53 141.483 207.981 142.184 205.378 142.244C202.775 142.304 200.197 141.721 197.873 140.547L197.585 130.396Z" fill="#455A64"/>
<path d="M209.624 131.625C210.622 131.479 211.642 131.617 212.565 132.023C213.489 132.429 214.28 133.086 214.847 133.921C215.529 134.873 216.155 135.864 216.721 136.89C215.079 138.673 213.745 140.028 211.47 140.821L209.624 131.625Z" fill="#455A64"/>
<path d="M197.585 130.396C197.585 130.396 194.861 130.733 193.808 133.057C192.755 135.381 192.509 136.104 192.509 136.104C193.913 137.803 195.711 139.81 197.908 140.561C197.908 140.561 198.406 134.707 198.469 133.057C198.547 131.274 198.617 130.347 197.585 130.396Z" fill="#455A64"/>
<path d="M200.07 115.514C200.756 114.635 201.631 113.922 202.63 113.426C203.628 112.93 204.726 112.665 205.84 112.65C206.799 112.65 207.75 112.821 208.648 113.155C209.594 113.379 210.43 113.932 211.007 114.714C211.723 115.634 212.192 116.721 212.369 117.873C212.534 119.052 212.59 120.243 212.538 121.432C212.48 122.629 212.094 123.788 211.421 124.78L208.396 125.3C206.727 125.433 205.049 125.343 203.404 125.033C201.742 124.714 200.273 123.75 199.319 122.352C198.104 120.379 198.61 117.311 200.07 115.514Z" fill="#263238"/>
<path d="M197.15 124.254C197.181 123.912 197.289 123.581 197.467 123.287C197.644 122.992 197.886 122.742 198.175 122.555C198.47 122.378 198.814 122.298 199.157 122.329C199.5 122.359 199.825 122.497 200.084 122.724L200.561 123.285C200.93 123.455 201.236 123.736 201.437 124.089C201.639 124.441 201.725 124.847 201.685 125.251C201.632 125.655 201.464 126.035 201.2 126.345C200.935 126.656 200.587 126.883 200.196 126.999C199.806 127.11 199.394 127.118 198.999 127.023C198.604 126.929 198.241 126.734 197.943 126.458C197.651 126.176 197.427 125.831 197.29 125.448C197.152 125.066 197.104 124.658 197.15 124.254Z" fill="#263238"/>
<path d="M197.746 126.318C197.633 126.14 197.577 125.932 197.585 125.721C197.686 125.21 197.929 124.738 198.287 124.359C198.626 123.961 199.038 123.633 199.501 123.391C199.852 123.201 200.098 123.131 200.091 123.11C199.867 123.126 199.649 123.191 199.452 123.299C198.957 123.519 198.52 123.851 198.175 124.268C197.981 124.48 197.816 124.716 197.683 124.97C197.568 125.187 197.501 125.427 197.487 125.672C197.484 125.841 197.53 126.007 197.62 126.149C197.683 126.29 197.746 126.36 197.746 126.318Z" fill="#455A64"/>
<path d="M208.368 131.084V128.276C208.368 128.276 210.832 128.003 211.52 124.844C211.843 122.754 211.97 120.639 211.899 118.526C211.899 116.609 210.249 113.998 207.876 113.991L206.823 113.864L202.787 115.465C202.506 115.48 202.242 115.6 202.045 115.8C201.847 115.999 201.731 116.265 201.72 116.546L201.6 130.031L203.447 132.622C203.785 133.079 204.257 133.42 204.799 133.595C205.34 133.77 205.922 133.771 206.464 133.599C207.006 133.426 207.48 133.088 207.821 132.632C208.161 132.176 208.35 131.625 208.361 131.056L208.368 131.084Z" fill="#FFBE9D"/>
<path d="M206.76 124.114C206.782 123.951 206.865 123.803 206.992 123.699C207.107 123.603 207.251 123.546 207.401 123.537C207.552 123.528 207.701 123.568 207.827 123.65C207.956 123.751 208.056 123.884 208.118 124.035C208.18 124.187 208.2 124.352 208.178 124.514C208.108 124.611 208.018 124.693 207.914 124.754C207.81 124.814 207.694 124.852 207.574 124.865H207.462C207.369 124.867 207.276 124.851 207.19 124.817C207.103 124.783 207.024 124.733 206.957 124.668C206.886 124.595 206.831 124.508 206.797 124.412C206.764 124.317 206.751 124.215 206.76 124.114Z" fill="#EB996E"/>
<path d="M210.432 120.744C210.428 120.851 210.382 120.952 210.305 121.025C210.227 121.099 210.124 121.139 210.017 121.137C209.965 121.138 209.913 121.129 209.864 121.109C209.815 121.09 209.77 121.061 209.732 121.025C209.695 120.988 209.664 120.945 209.643 120.897C209.622 120.848 209.611 120.797 209.61 120.744C209.616 120.637 209.663 120.536 209.741 120.462C209.82 120.389 209.924 120.349 210.031 120.351C210.084 120.35 210.135 120.359 210.184 120.379C210.232 120.398 210.277 120.427 210.314 120.464C210.351 120.5 210.381 120.544 210.401 120.592C210.421 120.64 210.432 120.692 210.432 120.744Z" fill="#263238"/>
<path d="M211.105 119.733C211.049 119.782 210.747 119.537 210.312 119.515C209.877 119.494 209.533 119.698 209.491 119.642C209.449 119.586 209.526 119.522 209.673 119.424C209.872 119.306 210.102 119.249 210.333 119.263C210.562 119.272 210.782 119.356 210.958 119.501C211.084 119.614 211.127 119.712 211.105 119.733Z" fill="#263238"/>
<path d="M208.333 123.061C208.563 123.007 208.798 122.978 209.035 122.976C209.147 122.976 209.259 122.976 209.28 122.878C209.296 122.763 209.276 122.645 209.224 122.541L208.936 121.671C208.668 120.928 208.459 120.165 208.311 119.389C208.64 120.108 208.91 120.852 209.119 121.614C209.217 121.916 209.301 122.211 209.393 122.492C209.452 122.632 209.464 122.787 209.428 122.934C209.385 123.009 209.314 123.065 209.231 123.089C209.168 123.095 209.105 123.095 209.042 123.089C208.805 123.111 208.567 123.102 208.333 123.061Z" fill="#263238"/>
<path d="M208.354 128.283C206.846 128.216 205.388 127.73 204.142 126.879C204.142 126.879 205.16 129.147 208.354 129.028V128.283Z" fill="#EB996E"/>
<path d="M207.02 123.299C207.097 123.299 207.069 123.777 207.462 124.135C207.855 124.493 208.361 124.472 208.361 124.535C208.361 124.598 208.241 124.626 208.031 124.619C207.75 124.606 207.482 124.497 207.273 124.31C207.075 124.128 206.954 123.877 206.936 123.608C206.929 123.405 206.992 123.292 207.02 123.299Z" fill="#263238"/>
<path d="M211.014 118.076C210.937 118.182 210.6 118.076 210.207 118.076C209.814 118.076 209.505 118.175 209.4 118.076C209.294 117.978 209.4 117.922 209.554 117.824C209.748 117.702 209.971 117.636 210.2 117.634C210.43 117.628 210.657 117.689 210.853 117.81C211 117.936 211.049 118.027 211.014 118.076Z" fill="#263238"/>
<path d="M205.602 120.744C205.6 120.851 205.64 120.956 205.713 121.034C205.786 121.113 205.887 121.16 205.995 121.165C206.047 121.17 206.1 121.164 206.15 121.148C206.2 121.133 206.246 121.107 206.286 121.073C206.326 121.039 206.358 120.997 206.382 120.95C206.406 120.904 206.42 120.852 206.423 120.8C206.423 120.694 206.382 120.592 206.309 120.514C206.236 120.437 206.136 120.391 206.03 120.386C205.978 120.38 205.926 120.385 205.876 120.4C205.826 120.415 205.779 120.44 205.739 120.473C205.699 120.507 205.666 120.548 205.643 120.595C205.619 120.641 205.605 120.692 205.602 120.744Z" fill="#263238"/>
<path d="M205.068 119.579C205.117 119.635 205.433 119.41 205.876 119.417C206.318 119.424 206.634 119.649 206.683 119.6C206.732 119.551 206.683 119.48 206.514 119.375C206.327 119.238 206.101 119.164 205.869 119.164C205.641 119.157 205.417 119.224 205.23 119.354C205.089 119.459 205.04 119.551 205.068 119.579Z" fill="#263238"/>
<path d="M204.816 118.638C204.9 118.743 205.244 118.638 205.651 118.638C206.058 118.638 206.402 118.722 206.486 118.638C206.571 118.554 206.486 118.484 206.318 118.385C206.113 118.266 205.881 118.202 205.644 118.202C205.407 118.202 205.174 118.266 204.97 118.385C204.823 118.484 204.773 118.582 204.816 118.638Z" fill="#263238"/>
<path d="M202.253 121.93C202.253 121.692 202.029 121.116 201.79 121.067C201.172 120.934 200.042 120.927 199.944 122.513C199.81 124.682 202.05 124.366 202.05 124.303C202.05 124.24 202.211 122.745 202.253 121.93Z" fill="#FFBE9D"/>
<path d="M201.474 123.475C201.474 123.475 201.439 123.475 201.369 123.524C201.324 123.543 201.277 123.553 201.228 123.553C201.18 123.553 201.132 123.543 201.088 123.524C200.952 123.426 200.844 123.294 200.777 123.141C200.709 122.988 200.683 122.82 200.702 122.653C200.71 122.468 200.758 122.286 200.842 122.12C200.867 122.054 200.908 121.994 200.96 121.947C201.013 121.899 201.076 121.865 201.144 121.846C201.189 121.837 201.235 121.843 201.275 121.865C201.315 121.887 201.346 121.923 201.362 121.965C201.367 122 201.367 122.036 201.362 122.071C201.362 122.071 201.411 122.071 201.397 121.951C201.388 121.897 201.361 121.848 201.32 121.811C201.293 121.785 201.261 121.765 201.226 121.753C201.19 121.741 201.153 121.737 201.116 121.741C201.026 121.752 200.941 121.787 200.868 121.841C200.796 121.895 200.738 121.967 200.702 122.05C200.598 122.232 200.54 122.437 200.533 122.646C200.51 122.839 200.543 123.035 200.631 123.209C200.718 123.383 200.855 123.526 201.025 123.622C201.082 123.642 201.144 123.649 201.204 123.642C201.265 123.636 201.323 123.618 201.376 123.587C201.474 123.552 201.474 123.482 201.474 123.475Z" fill="#EB996E"/>
<path d="M201.706 121.074L202.253 121.643C204.64 119.368 209.308 113.661 209.049 113.998C207.959 113.596 206.787 113.47 205.637 113.633C203.861 113.935 200.498 114.819 200.547 116.904C200.652 118.357 201.046 119.775 201.706 121.074Z" fill="#263238"/>
<path d="M198.547 120.597C198.547 120.597 198.547 120.547 198.547 120.47C198.588 120.352 198.637 120.237 198.694 120.126C198.92 119.724 199.231 119.376 199.607 119.108C200.163 118.712 200.782 118.413 201.439 118.224C202.141 117.992 202.983 117.81 203.791 117.466C205.172 116.882 206.419 116.022 207.455 114.938C207.767 114.609 208.06 114.262 208.333 113.899L208.55 113.598C208.574 113.561 208.602 113.528 208.634 113.499L208.571 113.612C208.522 113.682 208.459 113.794 208.368 113.928C208.106 114.302 207.82 114.658 207.511 114.995C207.05 115.491 206.542 115.942 205.995 116.342C205.326 116.834 204.6 117.244 203.833 117.564C203.059 117.861 202.269 118.114 201.467 118.322C200.82 118.503 200.208 118.79 199.656 119.172C199.284 119.428 198.97 119.76 198.736 120.147C198.662 120.292 198.599 120.442 198.547 120.597Z" fill="#455A64"/>
<path d="M199.178 120.934C199.173 120.773 199.202 120.612 199.263 120.463C199.425 120.047 199.709 119.69 200.077 119.438C200.63 119.085 201.248 118.847 201.895 118.736C202.671 118.588 203.426 118.353 204.149 118.034C204.867 117.708 205.541 117.293 206.156 116.799C206.667 116.393 207.137 115.939 207.56 115.444C207.839 115.111 208.095 114.759 208.326 114.391C208.403 114.272 208.466 114.166 208.508 114.089C208.53 114.051 208.556 114.016 208.585 113.984C208.57 114.023 208.551 114.061 208.529 114.096L208.361 114.412C208.145 114.794 207.896 115.155 207.617 115.493C207.202 116.011 206.731 116.482 206.213 116.897C205.592 117.401 204.91 117.826 204.184 118.161C203.453 118.482 202.687 118.718 201.902 118.863C201.267 118.982 200.659 119.22 200.112 119.565C199.748 119.802 199.462 120.141 199.291 120.54C199.242 120.668 199.204 120.799 199.178 120.934Z" fill="#455A64"/>
<path d="M197.908 140.547C197.805 139.164 197.805 137.775 197.908 136.392C198.001 137.775 198.001 139.164 197.908 140.547Z" fill="#263238"/>
<path d="M212.804 140.253C212.786 140.019 212.786 139.784 212.804 139.551C212.846 138.965 212.825 138.377 212.741 137.796C212.632 137.216 212.462 136.649 212.236 136.104C212.129 135.878 212.045 135.643 211.983 135.402C212.12 135.607 212.236 135.826 212.327 136.055C212.587 136.596 212.773 137.17 212.882 137.76C212.965 138.354 212.965 138.957 212.882 139.551C212.885 139.787 212.86 140.023 212.804 140.253Z" fill="#263238"/>
<path d="M288.578 146.416H234.91C233.632 146.414 232.406 145.906 231.502 145.002C230.598 144.097 230.089 142.872 230.088 141.593V119.059L224.17 113.808H288.578C289.215 113.804 289.847 113.925 290.436 114.166C291.026 114.407 291.562 114.762 292.014 115.211C292.465 115.66 292.823 116.194 293.068 116.782C293.312 117.37 293.437 118.001 293.436 118.638V141.593C293.435 142.229 293.309 142.859 293.064 143.446C292.819 144.033 292.46 144.566 292.009 145.014C291.558 145.462 291.022 145.817 290.433 146.057C289.845 146.298 289.214 146.42 288.578 146.416Z" fill="#EBEBEB"/>
<path d="M284.9 150.067C282.996 150.247 281.083 150.308 279.171 150.249C277.262 150.308 275.351 150.247 273.45 150.067C275.351 149.886 277.262 149.825 279.171 149.884C281.083 149.825 282.996 149.886 284.9 150.067Z" fill="#E0E0E0"/>
<path d="M287.265 150.516C287.242 150.515 287.218 150.51 287.196 150.501C287.175 150.491 287.155 150.477 287.139 150.46L286.03 149.301C285.998 149.269 285.98 149.224 285.98 149.179C285.98 149.133 285.998 149.088 286.03 149.056C286.046 149.039 286.065 149.025 286.086 149.016C286.107 149.007 286.13 149.002 286.153 149.002C286.176 149.002 286.199 149.007 286.22 149.016C286.241 149.025 286.26 149.039 286.276 149.056L287.258 150.081L289.414 147.89C289.429 147.874 289.448 147.86 289.469 147.851C289.491 147.842 289.513 147.837 289.536 147.837C289.559 147.837 289.582 147.842 289.603 147.851C289.624 147.86 289.643 147.874 289.659 147.89C289.691 147.923 289.709 147.967 289.709 148.013C289.709 148.059 289.691 148.103 289.659 148.136L287.378 150.46C287.347 150.49 287.308 150.509 287.265 150.516Z" fill="#407BFF"/>
<path d="M288.845 150.481H288.641C288.595 150.481 288.55 150.462 288.517 150.429C288.484 150.396 288.466 150.352 288.466 150.305C288.471 150.259 288.492 150.216 288.525 150.184C288.559 150.152 288.602 150.133 288.648 150.13H288.775L291 147.862C291.016 147.845 291.036 147.832 291.058 147.823C291.08 147.813 291.103 147.809 291.126 147.809C291.15 147.809 291.173 147.813 291.195 147.823C291.217 147.832 291.236 147.845 291.253 147.862C291.285 147.895 291.303 147.939 291.303 147.985C291.303 148.031 291.285 148.075 291.253 148.108L288.971 150.425C288.956 150.443 288.936 150.457 288.914 150.467C288.893 150.477 288.869 150.481 288.845 150.481Z" fill="#407BFF"/>
<path d="M284.9 238.287C282.996 238.468 281.083 238.529 279.171 238.469C277.262 238.528 275.351 238.468 273.45 238.287C275.351 238.106 277.262 238.045 279.171 238.104C281.083 238.045 282.996 238.106 284.9 238.287Z" fill="#E0E0E0"/>
<path d="M287.265 238.736C287.238 238.739 287.211 238.735 287.185 238.726C287.159 238.716 287.136 238.7 287.118 238.68L286.009 237.522C285.989 237.506 285.973 237.486 285.962 237.464C285.951 237.441 285.944 237.417 285.943 237.392C285.942 237.367 285.946 237.342 285.956 237.319C285.965 237.295 285.98 237.274 285.998 237.257C286.016 237.24 286.038 237.227 286.062 237.219C286.085 237.21 286.111 237.208 286.136 237.21C286.161 237.212 286.185 237.22 286.207 237.233C286.228 237.245 286.247 237.263 286.262 237.283L287.244 238.308L289.399 236.118C289.415 236.101 289.434 236.088 289.455 236.078C289.477 236.069 289.499 236.064 289.522 236.064C289.545 236.064 289.568 236.069 289.589 236.078C289.61 236.088 289.629 236.101 289.645 236.118C289.677 236.15 289.695 236.195 289.695 236.241C289.695 236.286 289.677 236.331 289.645 236.363L287.392 238.68C287.358 238.713 287.313 238.733 287.265 238.736Z" fill="#407BFF"/>
<path d="M288.845 238.68H288.641C288.594 238.678 288.55 238.658 288.517 238.624C288.484 238.59 288.466 238.545 288.466 238.497C288.466 238.474 288.471 238.451 288.48 238.43C288.489 238.408 288.503 238.389 288.52 238.373C288.537 238.357 288.558 238.345 288.58 238.338C288.602 238.33 288.625 238.327 288.648 238.329H288.775L291 236.062C291.016 236.045 291.036 236.031 291.058 236.022C291.08 236.013 291.103 236.008 291.126 236.008C291.15 236.008 291.173 236.013 291.195 236.022C291.217 236.031 291.236 236.045 291.253 236.062C291.285 236.094 291.303 236.138 291.303 236.184C291.303 236.23 291.285 236.274 291.253 236.307L288.971 238.624C288.956 238.642 288.936 238.656 288.914 238.666C288.893 238.676 288.869 238.681 288.845 238.68Z" fill="#407BFF"/>
<path d="M287.89 120.26C287.89 120.358 276.174 120.442 261.72 120.442C247.265 120.442 235.556 120.358 235.556 120.26C235.556 120.161 247.265 120.077 261.72 120.077C276.174 120.077 287.89 120.154 287.89 120.26Z" fill="white"/>
<path d="M287.89 124.1C287.89 124.205 276.174 124.282 261.72 124.282C247.265 124.282 235.556 124.205 235.556 124.1C235.556 123.994 247.265 123.917 261.72 123.917C276.174 123.917 287.89 124.001 287.89 124.1Z" fill="white"/>
<path d="M287.89 127.947C287.89 128.045 276.174 128.129 261.72 128.129C247.265 128.129 235.556 128.045 235.556 127.947C235.556 127.848 247.265 127.764 261.72 127.764C276.174 127.764 287.89 127.848 287.89 127.947Z" fill="white"/>
<path d="M204.942 240.154C213.638 240.154 220.688 233.12 220.688 224.443C220.688 215.767 213.638 208.733 204.942 208.733C196.246 208.733 189.196 215.767 189.196 224.443C189.196 233.12 196.246 240.154 204.942 240.154Z" fill="#E0E0E0"/>
<path d="M197.585 228.375L201.713 228.024L211.779 229.722L212.966 237.276L212.797 238.153C210.53 239.435 207.982 240.137 205.378 240.197C202.775 240.257 200.196 239.673 197.873 238.497L197.585 228.354" fill="#455A64"/>
<path d="M209.624 229.596C210.622 229.452 211.641 229.591 212.564 229.996C213.487 230.402 214.278 231.059 214.847 231.892C215.53 232.846 216.156 233.84 216.721 234.868C215.079 236.651 213.745 238.006 211.47 238.792L209.624 229.596Z" fill="#455A64"/>
<path d="M197.585 228.375C197.585 228.375 194.861 228.705 193.808 231.028C192.755 233.352 192.509 234.082 192.509 234.082C193.913 235.774 195.711 237.781 197.908 238.533C197.908 238.533 198.406 232.685 198.469 231.028C198.547 229.217 198.617 228.318 197.585 228.375Z" fill="#455A64"/>
<path d="M200.07 213.492C200.755 212.612 201.63 211.898 202.629 211.402C203.627 210.906 204.725 210.642 205.84 210.628C206.799 210.622 207.75 210.791 208.648 211.126C209.592 211.355 210.426 211.907 211.007 212.685C211.722 213.605 212.19 214.693 212.369 215.844C212.534 217.025 212.59 218.219 212.538 219.41C212.481 220.606 212.095 221.762 211.421 222.752L208.396 223.278C206.727 223.408 205.049 223.318 203.404 223.011C201.742 222.692 200.273 221.728 199.319 220.33C198.104 218.322 198.61 215.282 200.07 213.492Z" fill="#263238"/>
<path d="M197.15 222.26C197.18 221.918 197.287 221.586 197.465 221.292C197.643 220.997 197.885 220.748 198.175 220.561C198.469 220.382 198.812 220.301 199.156 220.33C199.499 220.359 199.824 220.497 200.084 220.723L200.561 221.291C200.93 221.461 201.237 221.741 201.439 222.094C201.64 222.446 201.726 222.853 201.685 223.257C201.627 223.659 201.457 224.037 201.194 224.347C200.93 224.656 200.584 224.884 200.196 225.005C199.805 225.114 199.393 225.121 198.998 225.025C198.604 224.929 198.24 224.734 197.943 224.457C197.651 224.177 197.428 223.832 197.29 223.451C197.152 223.07 197.104 222.663 197.15 222.26Z" fill="#263238"/>
<path d="M197.746 224.296C197.634 224.115 197.578 223.905 197.585 223.692C197.686 223.183 197.93 222.714 198.287 222.337C198.624 221.937 199.037 221.608 199.501 221.369C199.852 221.179 200.098 221.109 200.091 221.081C199.868 221.101 199.651 221.166 199.452 221.27C198.96 221.495 198.524 221.826 198.175 222.239C197.98 222.465 197.815 222.715 197.683 222.983C197.567 223.2 197.5 223.44 197.487 223.685C197.484 223.854 197.531 224.02 197.62 224.163C197.683 224.268 197.746 224.303 197.746 224.296Z" fill="#455A64"/>
<path d="M208.382 229.315V226.507C208.382 226.507 210.846 226.234 211.534 223.082C211.857 220.992 211.984 218.877 211.913 216.764C211.913 214.847 210.263 212.236 207.89 212.229L206.837 212.109L202.801 213.71C202.52 213.724 202.254 213.843 202.057 214.043C201.859 214.243 201.744 214.51 201.734 214.791L201.614 228.269L203.461 230.86C203.799 231.317 204.271 231.657 204.813 231.833C205.354 232.008 205.936 232.009 206.478 231.836C207.02 231.664 207.495 231.326 207.835 230.87C208.175 230.414 208.364 229.863 208.375 229.294L208.382 229.315Z" fill="#FFBE9D"/>
<path d="M206.76 222.092C206.782 221.929 206.865 221.781 206.992 221.678C207.107 221.581 207.251 221.524 207.401 221.515C207.552 221.506 207.701 221.546 207.827 221.628C207.956 221.729 208.056 221.862 208.118 222.013C208.18 222.165 208.2 222.33 208.178 222.492C208.107 222.589 208.017 222.669 207.913 222.728C207.809 222.788 207.694 222.824 207.574 222.836H207.462C207.274 222.832 207.095 222.759 206.957 222.632C206.885 222.563 206.83 222.479 206.796 222.385C206.762 222.291 206.749 222.191 206.76 222.092Z" fill="#EB996E"/>
<path d="M210.432 219.024C210.418 219.124 210.37 219.215 210.294 219.282C210.218 219.348 210.121 219.384 210.021 219.384C209.92 219.384 209.823 219.348 209.748 219.282C209.672 219.215 209.623 219.124 209.61 219.024C209.616 218.917 209.663 218.816 209.741 218.742C209.82 218.669 209.924 218.629 210.031 218.631C210.084 218.63 210.135 218.639 210.184 218.659C210.232 218.678 210.277 218.707 210.314 218.744C210.351 218.78 210.381 218.824 210.401 218.872C210.421 218.92 210.432 218.972 210.432 219.024Z" fill="#263238"/>
<path d="M211.105 217.978C211.049 218.027 210.747 217.781 210.312 217.76C209.877 217.739 209.533 217.936 209.491 217.88C209.449 217.824 209.526 217.76 209.673 217.669C209.87 217.544 210.102 217.488 210.333 217.508C210.562 217.517 210.782 217.601 210.958 217.746C211.084 217.859 211.127 217.957 211.105 217.978Z" fill="#263238"/>
<path d="M208.333 221.305C208.563 221.251 208.798 221.22 209.035 221.214C209.147 221.214 209.259 221.214 209.28 221.116C209.296 221.001 209.276 220.883 209.224 220.779C209.133 220.505 209.035 220.217 208.936 219.909C208.67 219.168 208.461 218.407 208.311 217.634C208.64 218.35 208.91 219.092 209.119 219.852C209.217 220.161 209.301 220.449 209.393 220.73C209.452 220.87 209.464 221.025 209.428 221.172C209.409 221.211 209.381 221.245 209.347 221.272C209.313 221.299 209.273 221.317 209.231 221.327C209.168 221.336 209.104 221.336 209.042 221.327C208.805 221.352 208.567 221.345 208.333 221.305Z" fill="#263238"/>
<path d="M208.354 226.521C206.85 226.463 205.392 225.989 204.142 225.152C204.142 225.152 205.16 227.42 208.354 227.301V226.521Z" fill="#EB996E"/>
<path d="M207.02 221.537C207.097 221.537 207.069 222.015 207.462 222.38C207.855 222.745 208.361 222.717 208.361 222.78C208.361 222.843 208.241 222.864 208.031 222.864C207.749 222.852 207.48 222.74 207.273 222.548C207.072 222.367 206.951 222.115 206.936 221.846C206.929 221.649 206.992 221.537 207.02 221.537Z" fill="#263238"/>
<path d="M211.014 216.321C210.937 216.427 210.6 216.321 210.207 216.321C209.814 216.321 209.505 216.42 209.4 216.321C209.294 216.223 209.4 216.167 209.554 216.069C209.746 215.944 209.971 215.878 210.2 215.879C210.43 215.87 210.658 215.931 210.853 216.055C211 216.167 211.049 216.272 211.014 216.321Z" fill="#263238"/>
<path d="M205.602 218.968C205.6 219.075 205.64 219.178 205.714 219.255C205.787 219.333 205.888 219.378 205.995 219.382C206.047 219.388 206.099 219.383 206.149 219.368C206.199 219.353 206.245 219.328 206.285 219.295C206.326 219.261 206.358 219.22 206.382 219.173C206.406 219.127 206.42 219.076 206.423 219.024C206.425 218.916 206.385 218.812 206.312 218.734C206.238 218.655 206.137 218.608 206.03 218.603C205.978 218.598 205.925 218.604 205.875 218.62C205.825 218.635 205.779 218.661 205.739 218.695C205.699 218.729 205.666 218.771 205.643 218.818C205.619 218.864 205.605 218.916 205.602 218.968Z" fill="#263238"/>
<path d="M205.068 217.817C205.117 217.873 205.433 217.648 205.876 217.662C206.318 217.676 206.634 217.894 206.683 217.838C206.732 217.781 206.683 217.718 206.514 217.613C206.326 217.479 206.1 217.405 205.869 217.402C205.64 217.401 205.417 217.469 205.23 217.599C205.089 217.697 205.04 217.795 205.068 217.817Z" fill="#263238"/>
<path d="M204.816 216.876C204.9 216.974 205.244 216.876 205.651 216.876C206.058 216.876 206.402 216.953 206.486 216.876C206.571 216.799 206.486 216.728 206.318 216.63C206.113 216.51 205.881 216.447 205.644 216.447C205.407 216.447 205.174 216.51 204.97 216.63C204.823 216.721 204.773 216.827 204.816 216.876Z" fill="#263238"/>
<path d="M202.253 219.901C202.253 219.663 202.029 219.094 201.79 219.045C201.172 218.912 200.042 218.898 199.944 220.484C199.81 222.653 202.05 222.344 202.05 222.281C202.05 222.218 202.211 220.723 202.253 219.901Z" fill="#FFBE9D"/>
<path d="M201.474 221.453C201.474 221.453 201.439 221.453 201.369 221.502C201.278 221.537 201.178 221.537 201.088 221.502C200.953 221.406 200.845 221.275 200.777 221.123C200.71 220.971 200.683 220.804 200.702 220.639C200.709 220.453 200.757 220.271 200.842 220.105C200.867 220.039 200.908 219.98 200.96 219.932C201.013 219.884 201.076 219.85 201.144 219.831C201.188 219.823 201.233 219.829 201.273 219.849C201.312 219.87 201.344 219.903 201.362 219.944C201.368 219.981 201.368 220.019 201.362 220.056C201.362 220.056 201.411 220.021 201.397 219.93C201.387 219.876 201.359 219.827 201.32 219.789C201.292 219.766 201.259 219.748 201.224 219.737C201.189 219.726 201.152 219.722 201.116 219.726C201.026 219.736 200.94 219.77 200.867 219.824C200.794 219.879 200.737 219.951 200.702 220.035C200.597 220.217 200.539 220.422 200.533 220.632C200.51 220.824 200.544 221.018 200.632 221.191C200.719 221.363 200.856 221.506 201.025 221.6C201.079 221.627 201.139 221.641 201.2 221.641C201.261 221.641 201.321 221.627 201.376 221.6C201.474 221.502 201.474 221.453 201.474 221.453Z" fill="#EB996E"/>
<path d="M201.706 219.024L202.253 219.6C204.64 217.318 209.308 211.611 209.049 211.955C207.96 211.548 206.787 211.42 205.637 211.583C203.861 211.885 200.498 212.769 200.547 214.861C200.653 216.312 201.046 217.727 201.706 219.024Z" fill="#263238"/>
<path d="M198.547 218.568C198.547 218.568 198.547 218.526 198.547 218.441C198.59 218.326 198.639 218.214 198.694 218.104C198.921 217.701 199.232 217.351 199.607 217.079C200.175 216.687 200.807 216.394 201.474 216.216C202.176 215.977 203.018 215.795 203.826 215.451C204.586 215.135 205.307 214.732 205.974 214.25C206.518 213.857 207.026 213.416 207.49 212.931C207.883 212.509 208.192 212.144 208.368 211.892C208.452 211.765 208.529 211.667 208.585 211.59C208.641 211.513 208.663 211.484 208.67 211.492L208.606 211.604L208.403 211.913C208.145 212.289 207.858 212.646 207.546 212.98C207.085 213.479 206.577 213.932 206.03 214.335C205.356 214.812 204.628 215.208 203.861 215.514C203.047 215.858 202.218 216.04 201.495 216.272C200.849 216.45 200.237 216.735 199.684 217.115C199.311 217.373 198.998 217.708 198.764 218.097C198.682 218.25 198.61 218.407 198.547 218.568Z" fill="#455A64"/>
<path d="M199.178 218.912C199.173 218.748 199.202 218.586 199.263 218.434C199.423 218.02 199.708 217.664 200.077 217.416C200.63 217.063 201.248 216.825 201.895 216.714C202.67 216.563 203.425 216.328 204.149 216.012C204.867 215.686 205.541 215.271 206.156 214.777C207.002 214.1 207.728 213.286 208.304 212.369C208.382 212.243 208.445 212.144 208.487 212.06C208.51 212.025 208.536 211.992 208.564 211.962C208.549 212.001 208.53 212.039 208.508 212.074L208.34 212.39C208.124 212.772 207.875 213.134 207.595 213.471C207.181 213.989 206.71 214.46 206.191 214.875C205.572 215.38 204.89 215.802 204.163 216.132C203.431 216.45 202.665 216.685 201.881 216.834C201.244 216.946 200.635 217.185 200.091 217.536C199.723 217.768 199.436 218.109 199.27 218.512C199.227 218.642 199.196 218.776 199.178 218.912Z" fill="#455A64"/>
<path d="M197.908 238.519C197.805 237.138 197.805 235.751 197.908 234.37C198.001 235.751 198.001 237.137 197.908 238.519Z" fill="#263238"/>
<path d="M212.804 238.231C212.784 237.985 212.784 237.739 212.804 237.494C212.846 236.906 212.825 236.315 212.741 235.732C212.631 235.154 212.462 234.59 212.236 234.047C212.131 233.821 212.046 233.586 211.983 233.345C212.12 233.55 212.236 233.769 212.327 233.998C212.588 234.539 212.775 235.112 212.882 235.704C212.965 236.297 212.965 236.9 212.882 237.494C212.888 237.742 212.862 237.989 212.804 238.231Z" fill="#263238"/>
<path d="M288.578 233.682H234.91C233.631 233.68 232.404 233.17 231.5 232.265C230.595 231.359 230.088 230.132 230.088 228.852V217.03L224.17 211.779H288.578C289.857 211.781 291.082 212.29 291.986 213.194C292.89 214.098 293.399 215.324 293.401 216.602V228.852C293.401 230.132 292.893 231.359 291.989 232.265C291.085 233.17 289.858 233.68 288.578 233.682Z" fill="#EBEBEB"/>
<path d="M287.89 218.231C287.89 218.336 276.174 218.413 261.72 218.413C247.265 218.413 235.556 218.336 235.556 218.231C235.556 218.125 247.265 218.048 261.72 218.048C276.174 218.048 287.89 218.132 287.89 218.231Z" fill="white"/>
<path d="M287.89 222.078C287.89 222.176 276.174 222.26 261.72 222.26C247.265 222.26 235.556 222.176 235.556 222.078C235.556 221.979 247.265 221.895 261.72 221.895C276.174 221.895 287.89 221.979 287.89 222.078Z" fill="white"/>
<path d="M287.89 225.925C287.89 226.023 276.174 226.107 261.72 226.107C247.265 226.107 235.556 226.023 235.556 225.925C235.556 225.826 247.265 225.742 261.72 225.742C276.174 225.742 287.89 225.819 287.89 225.925Z" fill="white"/>
<path d="M287.89 131.793C287.89 131.892 276.174 131.976 261.72 131.976C247.265 131.976 235.556 131.892 235.556 131.793C235.556 131.695 247.265 131.611 261.72 131.611C276.174 131.611 287.89 131.688 287.89 131.793Z" fill="white"/>
<path d="M287.89 135.633C287.89 135.739 276.174 135.816 261.72 135.816C247.265 135.816 235.556 135.739 235.556 135.633C235.556 135.528 247.265 135.451 261.72 135.451C276.174 135.451 287.89 135.535 287.89 135.633Z" fill="white"/>
<path d="M287.89 140.253C287.89 140.358 276.174 140.435 261.72 140.435C247.265 140.435 235.556 140.358 235.556 140.253C235.556 140.147 247.265 140.07 261.72 140.07C276.174 140.07 287.89 140.154 287.89 140.253Z" fill="white"/>
<path d="M235.872 73.4503C235.91 72.9048 236.105 72.3821 236.436 71.9464C236.766 71.5107 237.217 71.1809 237.732 70.9975C238.247 70.8141 238.804 70.7851 239.336 70.9141C239.867 71.043 240.349 71.3243 240.723 71.7233L239.972 72.4253C239.816 72.2373 239.621 72.0861 239.4 71.9829C239.179 71.8797 238.938 71.827 238.694 71.8286C238.262 71.8286 237.848 72.0002 237.542 72.3057C237.237 72.6111 237.065 73.0253 237.065 73.4573C237.065 73.8892 237.237 74.3035 237.542 74.6089C237.848 74.9143 238.262 75.0859 238.694 75.0859C238.939 75.0877 239.181 75.0344 239.402 74.9298C239.623 74.8253 239.818 74.6723 239.972 74.4822L240.723 75.1842C240.349 75.583 239.868 75.8642 239.337 75.9934C238.806 76.1227 238.249 76.0943 237.735 75.9117C237.22 75.7292 236.769 75.4004 236.438 74.9657C236.108 74.531 235.911 74.0092 235.872 73.4643V73.4503Z" fill="#263238"/>
<path d="M245.391 73.7521V75.9915H244.296V73.9276C244.296 73.2958 244.001 73.008 243.503 73.008C243.004 73.008 242.569 73.3449 242.569 74.061V75.9915H241.432V70.6071H242.569V72.4955C242.734 72.3373 242.929 72.2141 243.142 72.1333C243.356 72.0524 243.583 72.0157 243.812 72.0252C244.034 72.0162 244.256 72.0559 244.462 72.1416C244.668 72.2273 244.852 72.357 245.003 72.5214C245.153 72.6859 245.266 72.8813 245.333 73.0938C245.4 73.3064 245.42 73.5311 245.391 73.7521Z" fill="#263238"/>
<path d="M249.87 73.7662V75.9915H248.81V75.5071C248.678 75.6966 248.498 75.8468 248.288 75.942C248.078 76.0372 247.846 76.0737 247.616 76.0477C246.704 76.0477 246.163 75.5422 246.163 74.8683C246.163 74.1944 246.648 73.696 247.841 73.696H248.74C248.74 73.2116 248.445 72.9308 247.841 72.9308C247.436 72.9267 247.04 73.0521 246.711 73.2888L246.304 72.5026C246.805 72.1781 247.392 72.0118 247.989 72.0252C249.21 72.0252 249.87 72.5798 249.87 73.7662ZM248.74 74.756V74.3558H247.96C247.434 74.3558 247.258 74.5524 247.258 74.8192C247.258 75.0859 247.497 75.2895 247.897 75.2895C248.076 75.3029 248.255 75.2583 248.407 75.1622C248.559 75.0661 248.675 74.9237 248.74 74.756Z" fill="#263238"/>
<path d="M253.422 75.816C253.145 75.9898 252.822 76.0755 252.495 76.0617C252.303 76.0882 252.106 76.0706 251.921 76.0102C251.736 75.9498 251.567 75.8481 251.428 75.7129C251.288 75.5777 251.18 75.4125 251.113 75.2297C251.047 75.0469 251.022 74.8513 251.042 74.6577V73.0501H250.439V72.1796H251.042V71.2249H252.172V72.1796H253.148V73.0501H252.172V74.6437C252.164 74.7106 252.17 74.7785 252.191 74.8426C252.212 74.9067 252.247 74.9654 252.294 75.0144C252.34 75.0634 252.396 75.1015 252.459 75.126C252.522 75.1505 252.59 75.1608 252.657 75.1561C252.822 75.1621 252.983 75.1099 253.113 75.0087L253.422 75.816Z" fill="#263238"/>
<path d="M273.45 81.2846C273.45 81.3829 261.516 81.4671 246.725 81.4671C231.934 81.4671 220.007 81.3829 220.007 81.2846C220.007 81.1863 231.941 81.095 246.725 81.095C261.509 81.095 273.45 81.1793 273.45 81.2846Z" fill="#263238"/>
<path d="M297.129 73.4502C297.815 73.4502 298.371 72.8939 298.371 72.2077C298.371 71.5215 297.815 70.9652 297.129 70.9652C296.442 70.9652 295.886 71.5215 295.886 72.2077C295.886 72.8939 296.442 73.4502 297.129 73.4502Z" fill="#263238"/>
<path d="M298.35 75.816C298.351 76.0637 298.279 76.3063 298.142 76.5128C298.006 76.7194 297.811 76.8806 297.582 76.9761C297.353 77.0715 297.101 77.0969 296.858 77.0489C296.615 77.0009 296.392 76.8817 296.217 76.7066C296.042 76.5314 295.923 76.3081 295.875 76.065C295.827 75.822 295.852 75.5702 295.947 75.3416C296.043 75.113 296.204 74.9179 296.411 74.7811C296.617 74.6443 296.86 74.5721 297.107 74.5734C297.436 74.5753 297.751 74.7068 297.984 74.9394C298.217 75.172 298.348 75.487 298.35 75.816Z" fill="#263238"/>
<path d="M298.35 79.4594C298.351 79.7071 298.279 79.9497 298.142 80.1562C298.006 80.3628 297.811 80.524 297.582 80.6195C297.353 80.7149 297.101 80.7403 296.858 80.6923C296.615 80.6443 296.392 80.5251 296.217 80.3499C296.042 80.1748 295.923 79.9515 295.875 79.7084C295.827 79.4654 295.852 79.2136 295.947 78.985C296.043 78.7563 296.204 78.5613 296.411 78.4245C296.617 78.2877 296.86 78.2154 297.107 78.2168C297.437 78.2168 297.753 78.3477 297.986 78.5808C298.219 78.8138 298.35 79.1298 298.35 79.4594Z" fill="#263238"/>
<path d="M196.083 76.4197C196.006 76.4213 195.932 76.3965 195.872 76.3495L192.58 73.9346C192.535 73.9012 192.498 73.8578 192.472 73.8079C192.447 73.758 192.433 73.7029 192.432 73.6468C192.432 73.5916 192.446 73.5373 192.472 73.4884C192.497 73.4395 192.534 73.3976 192.58 73.366L195.872 70.9932C195.91 70.9663 195.952 70.9471 195.998 70.9368C196.043 70.9264 196.09 70.9251 196.135 70.933C196.181 70.9408 196.225 70.9576 196.264 70.9824C196.303 71.0072 196.337 71.0395 196.363 71.0775C196.416 71.1523 196.438 71.2449 196.423 71.3354C196.409 71.4259 196.36 71.5072 196.286 71.5619L193.38 73.6679L196.286 75.7739C196.36 75.8298 196.41 75.9123 196.424 76.004C196.439 76.0956 196.417 76.1893 196.363 76.2653C196.333 76.3119 196.291 76.3503 196.242 76.3772C196.193 76.4041 196.138 76.4187 196.083 76.4197Z" fill="#263238"/>
<path d="M282 194.454C290.697 194.454 297.746 187.42 297.746 178.743C297.746 170.066 290.697 163.032 282 163.032C273.304 163.032 266.255 170.066 266.255 178.743C266.255 187.42 273.304 194.454 282 194.454Z" fill="#E0E0E0"/>
<path d="M286.311 188.031H278.027C277.744 188.031 277.473 187.918 277.273 187.718C277.072 187.518 276.96 187.247 276.96 186.964C276.96 186.68 277.072 186.408 277.272 186.207C277.472 186.005 277.743 185.891 278.027 185.89H286.311C286.594 185.891 286.866 186.005 287.066 186.207C287.266 186.408 287.378 186.68 287.378 186.964C287.378 187.247 287.265 187.518 287.065 187.718C286.865 187.918 286.594 188.031 286.311 188.031Z" fill="#263238"/>
<path d="M282.639 168.529H281.909V172.208H282.639V168.529Z" fill="#263238"/>
<path d="M271.541 183.236C272.719 183.236 273.675 182.281 273.675 181.102C273.675 179.923 272.719 178.968 271.541 178.968C270.362 178.968 269.407 179.923 269.407 181.102C269.407 182.281 270.362 183.236 271.541 183.236Z" fill="#407BFF"/>
<path d="M293.12 183.096C294.299 183.096 295.254 182.14 295.254 180.962C295.254 179.783 294.299 178.827 293.12 178.827C291.941 178.827 290.986 179.783 290.986 180.962C290.986 182.14 291.941 183.096 293.12 183.096Z" fill="#407BFF"/>
<path d="M282.59 171.435C282.59 171.435 291.281 171.33 292.657 178.863C294.033 186.395 286.683 186.528 284.57 186.669C283.615 186.732 281.565 186.739 279.754 186.711C275.746 186.641 272.917 185.869 271.955 182.148C271.84 181.711 271.767 181.265 271.737 180.814C271.484 176.743 274.236 171.239 282.59 171.435Z" fill="#407BFF"/>
<path d="M276.286 182.899L288.922 183.096C289.558 183.105 290.171 182.862 290.628 182.42C291.084 181.978 291.347 181.372 291.358 180.737C291.366 180.101 291.121 179.489 290.677 179.033C290.234 178.578 289.628 178.317 288.992 178.308L276.356 178.111C276.041 178.106 275.728 178.162 275.435 178.278C275.142 178.394 274.875 178.566 274.649 178.785C274.422 179.004 274.242 179.266 274.117 179.555C273.992 179.844 273.925 180.155 273.92 180.47C273.916 180.785 273.973 181.098 274.09 181.391C274.206 181.683 274.379 181.95 274.599 182.176C274.819 182.401 275.081 182.581 275.371 182.705C275.66 182.83 275.971 182.895 276.286 182.899Z" fill="#263238"/>
<path d="M286.297 180.477C286.315 180.576 286.353 180.671 286.408 180.756C286.464 180.84 286.535 180.913 286.619 180.97C286.702 181.026 286.796 181.066 286.895 181.086C286.994 181.107 287.096 181.107 287.195 181.088C287.302 181.077 287.406 181.044 287.499 180.991C287.592 180.938 287.674 180.866 287.738 180.78C287.802 180.694 287.847 180.595 287.871 180.49C287.895 180.386 287.896 180.277 287.876 180.172C287.855 180.066 287.813 179.966 287.751 179.878C287.69 179.79 287.611 179.716 287.519 179.66C287.427 179.604 287.325 179.568 287.218 179.554C287.112 179.54 287.003 179.548 286.9 179.579C286.802 179.598 286.708 179.636 286.624 179.692C286.54 179.748 286.468 179.819 286.412 179.903C286.356 179.986 286.317 180.08 286.297 180.178C286.278 180.277 286.277 180.379 286.297 180.477Z" fill="white"/>
<path d="M277.473 180.337C277.483 180.444 277.516 180.547 277.569 180.64C277.622 180.734 277.694 180.815 277.781 180.879C277.867 180.943 277.965 180.989 278.07 181.012C278.175 181.036 278.283 181.038 278.389 181.017C278.494 180.996 278.594 180.954 278.682 180.893C278.77 180.831 278.845 180.752 278.901 180.66C278.956 180.569 278.992 180.466 279.006 180.36C279.02 180.253 279.012 180.145 278.982 180.042C278.928 179.857 278.806 179.699 278.642 179.599C278.478 179.499 278.282 179.464 278.093 179.501C277.904 179.538 277.736 179.644 277.621 179.799C277.506 179.953 277.453 180.145 277.473 180.337Z" fill="white"/>
<path d="M283.475 168.48C283.476 168.718 283.407 168.95 283.276 169.149C283.145 169.347 282.958 169.502 282.738 169.594C282.519 169.686 282.278 169.711 282.044 169.665C281.811 169.62 281.596 169.506 281.428 169.338C281.259 169.171 281.144 168.957 281.097 168.724C281.05 168.491 281.074 168.249 281.164 168.029C281.255 167.81 281.409 167.622 281.607 167.489C281.804 167.357 282.036 167.287 282.274 167.287C282.591 167.287 282.896 167.412 283.121 167.636C283.345 167.859 283.473 168.163 283.475 168.48Z" fill="#407BFF"/>
<path d="M284.085 180.126C284.085 180.126 284.135 180.182 284.163 180.309C284.185 180.488 284.168 180.67 284.113 180.842C284.036 181.109 283.891 181.351 283.692 181.544C283.449 181.787 283.129 181.939 282.787 181.972C282.444 182.001 282.103 181.912 281.818 181.72C281.593 181.567 281.407 181.362 281.277 181.123C281.194 180.962 281.146 180.785 281.137 180.604C281.137 180.477 281.137 180.407 281.179 180.407C281.221 180.407 281.249 180.674 281.481 181.004C281.616 181.186 281.785 181.341 281.979 181.46C282.214 181.6 282.486 181.663 282.759 181.642C283.02 181.609 283.265 181.496 283.461 181.32C283.638 181.173 283.779 180.988 283.875 180.779C284.057 180.414 284.029 180.126 284.085 180.126Z" fill="white"/>
<path d="M292.643 178.617C292.669 178.676 292.69 178.737 292.706 178.799C292.733 178.873 292.757 178.948 292.776 179.024C292.776 179.108 292.825 179.207 292.846 179.326C292.9 179.588 292.938 179.853 292.959 180.119C292.983 180.446 292.983 180.775 292.959 181.102C292.929 181.428 292.875 181.752 292.797 182.071C292.731 182.329 292.647 182.582 292.544 182.829C292.51 182.927 292.47 183.023 292.425 183.117C292.394 183.187 292.359 183.255 292.32 183.32L292.222 183.496C292.237 183.431 292.263 183.369 292.299 183.313L292.39 183.096C292.425 183.011 292.467 182.92 292.502 182.815C292.597 182.568 292.674 182.314 292.734 182.057C292.809 181.74 292.863 181.419 292.895 181.095C292.916 180.77 292.916 180.444 292.895 180.119C292.878 179.855 292.845 179.593 292.797 179.333C292.782 179.224 292.761 179.116 292.734 179.01C292.734 178.919 292.699 178.849 292.685 178.785C292.663 178.731 292.649 178.675 292.643 178.617Z" fill="#263238"/>
<path d="M272.053 178.659C272.023 178.72 272 178.783 271.983 178.849C271.983 178.905 271.941 178.982 271.913 179.066C271.885 179.15 271.864 179.256 271.843 179.368C271.789 179.63 271.753 179.895 271.737 180.161C271.713 180.488 271.713 180.817 271.737 181.144C271.765 181.471 271.819 181.795 271.899 182.113C271.964 182.374 272.048 182.63 272.151 182.878C272.186 182.983 272.236 183.075 272.271 183.159C272.306 183.243 272.348 183.313 272.376 183.369L272.474 183.538C272.456 183.474 272.43 183.413 272.397 183.355C272.397 183.299 272.341 183.229 272.306 183.145C272.271 183.061 272.229 182.969 272.194 182.864C272.099 182.614 272.022 182.359 271.962 182.099C271.886 181.782 271.832 181.461 271.8 181.137C271.78 180.814 271.78 180.491 271.8 180.168C271.818 179.902 271.851 179.637 271.899 179.375C271.913 179.276 271.935 179.177 271.962 179.08C271.962 178.989 271.997 178.912 272.011 178.856C272.025 178.799 272.053 178.659 272.053 178.659Z" fill="#263238"/>
<path d="M273.927 192.236C273.927 192.236 276.511 189.715 281.909 189.715C287.308 189.715 290.073 192.236 290.073 192.236C287.637 193.706 284.846 194.483 282 194.483C279.155 194.483 276.364 193.706 273.927 192.236Z" fill="#407BFF"/>
<path d="M195.858 194.763H249.519C250.152 194.764 250.78 194.64 251.366 194.398C251.951 194.156 252.483 193.8 252.931 193.352C253.379 192.904 253.734 192.372 253.976 191.787C254.218 191.201 254.343 190.574 254.342 189.94V174.37L260.259 169.119H195.858C195.225 169.119 194.598 169.244 194.012 169.486C193.427 169.728 192.896 170.084 192.448 170.531C192 170.979 191.645 171.511 191.402 172.096C191.16 172.681 191.035 173.308 191.035 173.942V189.94C191.034 190.574 191.158 191.201 191.401 191.787C191.643 192.372 191.998 192.904 192.446 193.352C192.894 193.8 193.426 194.156 194.011 194.398C194.597 194.64 195.224 194.764 195.858 194.763Z" fill="#EBEBEB"/>
<path d="M247.104 176.728C247.104 176.834 236.055 176.911 222.422 176.911C208.789 176.911 197.739 176.834 197.739 176.728C197.739 176.623 208.789 176.546 222.422 176.546C236.055 176.546 247.104 176.63 247.104 176.728Z" fill="white"/>
<path d="M247.104 180.898C247.104 181.004 236.055 181.081 222.422 181.081C208.789 181.081 197.739 181.004 197.739 180.898C197.739 180.793 208.789 180.716 222.422 180.716C236.055 180.716 247.104 180.8 247.104 180.898Z" fill="white"/>
<path d="M247.104 185.068C247.104 185.167 236.055 185.251 222.422 185.251C208.789 185.251 197.739 185.167 197.739 185.068C197.739 184.97 208.789 184.886 222.422 184.886C236.055 184.886 247.104 184.97 247.104 185.068Z" fill="white"/>
<path d="M247.104 189.238C247.104 189.336 236.055 189.421 222.422 189.421C208.789 189.421 197.739 189.336 197.739 189.238C197.739 189.14 208.789 189.056 222.422 189.056C236.055 189.056 247.104 189.133 247.104 189.238Z" fill="white"/>
<path d="M282 281.699C290.697 281.699 297.746 274.665 297.746 265.988C297.746 257.311 290.697 250.277 282 250.277C273.304 250.277 266.255 257.311 266.255 265.988C266.255 274.665 273.304 281.699 282 281.699Z" fill="#E0E0E0"/>
<path d="M286.311 275.275H278.027C277.886 275.275 277.747 275.247 277.617 275.193C277.487 275.139 277.369 275.06 277.27 274.96C277.171 274.86 277.092 274.742 277.039 274.612C276.986 274.481 276.959 274.342 276.96 274.201C276.96 273.918 277.072 273.647 277.273 273.447C277.473 273.247 277.744 273.134 278.027 273.134H286.311C286.594 273.134 286.865 273.247 287.065 273.447C287.265 273.647 287.378 273.918 287.378 274.201C287.379 274.342 287.352 274.481 287.299 274.612C287.245 274.742 287.167 274.86 287.068 274.96C286.969 275.06 286.851 275.139 286.721 275.193C286.591 275.247 286.451 275.275 286.311 275.275Z" fill="#263238"/>
<path d="M282.639 255.774H281.909V259.452H282.639V255.774Z" fill="#263238"/>
<path d="M271.541 270.481C272.719 270.481 273.675 269.525 273.675 268.347C273.675 267.168 272.719 266.212 271.541 266.212C270.362 266.212 269.407 267.168 269.407 268.347C269.407 269.525 270.362 270.481 271.541 270.481Z" fill="#407BFF"/>
<path d="M293.12 270.333C294.299 270.333 295.254 269.378 295.254 268.199C295.254 267.02 294.299 266.065 293.12 266.065C291.941 266.065 290.986 267.02 290.986 268.199C290.986 269.378 291.941 270.333 293.12 270.333Z" fill="#407BFF"/>
<path d="M282.59 258.68C282.59 258.68 291.281 258.575 292.657 266.1C294.033 273.626 286.683 273.773 284.57 273.913C283.615 273.977 281.565 273.984 279.754 273.955C275.746 273.885 272.917 273.106 271.955 269.392C271.84 268.956 271.767 268.509 271.737 268.059C271.484 263.987 274.236 258.476 282.59 258.68Z" fill="#407BFF"/>
<path d="M276.286 270.144L288.922 270.34C289.558 270.35 290.171 270.107 290.628 269.664C291.084 269.222 291.347 268.617 291.358 267.981C291.366 267.346 291.121 266.733 290.677 266.278C290.234 265.823 289.628 265.562 288.992 265.553L276.356 265.349C275.721 265.34 275.107 265.583 274.651 266.025C274.194 266.467 273.932 267.072 273.92 267.708C273.916 268.023 273.973 268.336 274.09 268.629C274.206 268.922 274.379 269.189 274.599 269.416C274.818 269.642 275.081 269.823 275.37 269.948C275.66 270.072 275.971 270.139 276.286 270.144Z" fill="#263238"/>
<path d="M286.297 267.722C286.314 267.822 286.35 267.917 286.404 268.003C286.458 268.089 286.529 268.164 286.612 268.222C286.694 268.281 286.788 268.323 286.887 268.345C286.986 268.368 287.088 268.371 287.188 268.354C287.288 268.336 287.384 268.3 287.47 268.246C287.556 268.192 287.63 268.121 287.689 268.039C287.747 267.956 287.789 267.862 287.812 267.763C287.834 267.664 287.837 267.562 287.82 267.462C287.809 267.355 287.776 267.252 287.723 267.158C287.67 267.065 287.598 266.984 287.512 266.92C287.426 266.856 287.327 266.81 287.222 266.786C287.118 266.763 287.009 266.761 286.904 266.782C286.798 266.802 286.698 266.845 286.61 266.906C286.522 266.967 286.448 267.047 286.392 267.138C286.336 267.23 286.3 267.333 286.286 267.439C286.272 267.546 286.281 267.654 286.311 267.757L286.297 267.722Z" fill="white"/>
<path d="M277.473 267.581C277.502 267.731 277.575 267.869 277.682 267.978C277.79 268.086 277.927 268.16 278.077 268.191C278.226 268.221 278.382 268.206 278.523 268.148C278.664 268.091 278.785 267.992 278.871 267.866C278.956 267.739 279.002 267.59 279.003 267.437C279.003 267.284 278.959 267.135 278.874 267.008C278.79 266.88 278.67 266.781 278.529 266.722C278.388 266.663 278.233 266.647 278.083 266.676C277.984 266.695 277.889 266.734 277.804 266.79C277.72 266.846 277.647 266.918 277.59 267.002C277.534 267.086 277.494 267.181 277.474 267.28C277.454 267.379 277.453 267.482 277.473 267.581Z" fill="white"/>
<path d="M283.475 255.696C283.475 255.934 283.404 256.166 283.272 256.363C283.14 256.561 282.953 256.715 282.734 256.806C282.514 256.896 282.273 256.92 282.04 256.874C281.807 256.828 281.593 256.713 281.425 256.545C281.258 256.377 281.143 256.164 281.097 255.931C281.051 255.698 281.074 255.456 281.165 255.237C281.256 255.018 281.41 254.83 281.607 254.698C281.805 254.566 282.037 254.496 282.274 254.496C282.593 254.496 282.898 254.623 283.123 254.848C283.348 255.073 283.475 255.378 283.475 255.696Z" fill="#407BFF"/>
<path d="M284.085 267.364C284.085 267.364 284.135 267.427 284.163 267.553C284.184 267.733 284.168 267.914 284.113 268.087C284.035 268.353 283.89 268.594 283.692 268.789C283.449 269.032 283.129 269.183 282.787 269.217C282.444 269.245 282.103 269.156 281.818 268.964C281.593 268.812 281.407 268.607 281.277 268.368C281.195 268.206 281.147 268.029 281.137 267.848C281.137 267.722 281.137 267.652 281.179 267.652C281.221 267.652 281.249 267.918 281.481 268.241C281.614 268.428 281.783 268.586 281.979 268.705C282.216 268.84 282.487 268.903 282.759 268.887C283.02 268.854 283.265 268.741 283.461 268.564C283.634 268.414 283.775 268.23 283.875 268.024C284.057 267.644 284.029 267.371 284.085 267.364Z" fill="white"/>
<path d="M292.643 265.854C292.643 265.854 292.643 265.925 292.706 266.044C292.734 266.117 292.758 266.192 292.776 266.269C292.776 266.353 292.825 266.451 292.846 266.563C292.899 266.825 292.937 267.09 292.959 267.357C292.983 267.684 292.983 268.012 292.959 268.339C292.931 268.666 292.877 268.99 292.797 269.308C292.732 269.569 292.648 269.825 292.544 270.073C292.51 270.169 292.47 270.263 292.425 270.354C292.396 270.427 292.361 270.498 292.32 270.565L292.222 270.733C292.24 270.67 292.266 270.608 292.299 270.551C292.299 270.495 292.355 270.424 292.39 270.34C292.425 270.256 292.467 270.165 292.502 270.059C292.598 269.81 292.675 269.554 292.734 269.294C292.809 268.98 292.863 268.661 292.895 268.339C292.916 268.015 292.916 267.689 292.895 267.364C292.878 267.1 292.846 266.837 292.797 266.577C292.782 266.476 292.761 266.375 292.734 266.276C292.734 266.184 292.699 266.114 292.685 266.051C292.661 265.988 292.647 265.922 292.643 265.854Z" fill="#263238"/>
<path d="M272.053 265.904C272.023 265.964 272 266.028 271.983 266.093C271.983 266.149 271.941 266.226 271.913 266.311C271.885 266.395 271.864 266.5 271.843 266.613C271.789 266.874 271.753 267.139 271.737 267.406C271.713 267.733 271.713 268.061 271.737 268.389C271.766 268.715 271.82 269.039 271.899 269.357C271.964 269.618 272.048 269.874 272.151 270.123C272.186 270.228 272.236 270.319 272.271 270.403C272.306 270.488 272.348 270.558 272.376 270.614L272.474 270.782C272.457 270.718 272.431 270.657 272.397 270.6C272.397 270.544 272.341 270.474 272.306 270.389C272.271 270.305 272.229 270.214 272.194 270.102C272.099 269.854 272.022 269.601 271.962 269.343C271.886 269.027 271.832 268.705 271.8 268.382C271.78 268.059 271.78 267.735 271.8 267.413C271.818 267.147 271.851 266.882 271.899 266.62C271.913 266.52 271.935 266.422 271.962 266.325C271.962 266.233 271.997 266.156 272.011 266.1C272.025 266.044 272.053 265.904 272.053 265.904Z" fill="#263238"/>
<path d="M273.927 279.48C273.927 279.48 276.511 276.96 281.909 276.96C287.308 276.96 290.073 279.48 290.073 279.48C287.637 280.95 284.846 281.727 282 281.727C279.155 281.727 276.364 280.95 273.927 279.48Z" fill="#407BFF"/>
<path d="M195.858 282.007H249.519C250.152 282.008 250.78 281.884 251.366 281.642C251.951 281.4 252.483 281.045 252.931 280.597C253.379 280.149 253.734 279.617 253.976 279.031C254.218 278.446 254.343 277.818 254.342 277.185V261.614L260.259 256.363H195.858C195.225 256.363 194.598 256.488 194.012 256.73C193.427 256.973 192.896 257.328 192.448 257.776C192 258.224 191.645 258.755 191.402 259.341C191.16 259.926 191.035 260.553 191.035 261.186V277.185C191.034 277.818 191.158 278.446 191.401 279.031C191.643 279.617 191.998 280.149 192.446 280.597C192.894 281.045 193.426 281.4 194.011 281.642C194.597 281.884 195.224 282.008 195.858 282.007Z" fill="#EBEBEB"/>
<path d="M195.858 306.36H249.519C250.153 306.36 250.781 306.235 251.366 305.992C251.952 305.749 252.484 305.393 252.932 304.945C253.379 304.496 253.735 303.964 253.977 303.378C254.218 302.792 254.343 302.164 254.342 301.53V296.37L260.259 291.119H195.858C195.225 291.119 194.598 291.244 194.012 291.486C193.427 291.729 192.896 292.084 192.448 292.532C192 292.98 191.645 293.511 191.402 294.097C191.16 294.682 191.035 295.309 191.035 295.942V301.558C191.041 302.834 191.551 304.055 192.455 304.955C193.359 305.855 194.583 306.36 195.858 306.36Z" fill="#EBEBEB"/>
<path d="M247.104 263.952C247.104 264.057 236.055 264.135 222.422 264.135C208.789 264.135 197.739 264.057 197.739 263.952C197.739 263.847 208.789 263.769 222.422 263.769C236.055 263.769 247.104 263.875 247.104 263.952Z" fill="white"/>
<path d="M247.104 268.164C247.104 268.262 236.055 268.347 222.422 268.347C208.789 268.347 197.739 268.262 197.739 268.164C197.739 268.066 208.789 267.981 222.422 267.981C236.055 267.981 247.104 268.045 247.104 268.164Z" fill="white"/>
<path d="M247.104 272.313C247.104 272.411 236.055 272.495 222.422 272.495C208.789 272.495 197.739 272.411 197.739 272.313C197.739 272.215 208.789 272.13 222.422 272.13C236.055 272.13 247.104 272.208 247.104 272.313Z" fill="white"/>
<path d="M247.104 276.483C247.104 276.581 236.055 276.665 222.422 276.665C208.789 276.665 197.739 276.581 197.739 276.483C197.739 276.384 208.789 276.3 222.422 276.3C236.055 276.3 247.104 276.377 247.104 276.483Z" fill="white"/>
<path d="M247.272 298.961C247.272 299.059 236.335 299.143 222.85 299.143C209.364 299.143 198.42 299.059 198.42 298.961C198.42 298.862 209.357 298.778 222.85 298.778C236.342 298.778 247.272 298.855 247.272 298.961Z" fill="white"/>
<path d="M67.7009 288.796C68.6464 289.024 69.5362 289.44 70.3167 290.02C71.0972 290.601 71.7523 291.333 72.2428 292.172C73.2131 293.863 73.7868 295.752 73.9206 297.697C74.2786 301.432 72.9799 305.553 71.3653 308.929C67.7219 306.893 66.0301 302.365 65.3141 300.014C64.1839 296.3 64.3945 288.894 67.7009 288.782" fill="#455A64"/>
<path d="M76.2091 314.208C75.7741 313.213 75.6099 312.121 75.7332 311.042C75.8565 309.964 76.2629 308.937 76.9111 308.066C77.5783 307.208 78.4101 306.493 79.3576 305.961C80.3051 305.429 81.3493 305.092 82.4288 304.97C82.9134 304.865 83.4147 304.865 83.8991 304.971C84.3835 305.076 84.8396 305.284 85.2368 305.581C85.5597 305.923 85.7847 306.346 85.8884 306.806C85.9922 307.265 85.9708 307.744 85.8265 308.192C85.5283 309.085 85.0005 309.884 84.2962 310.509C81.9866 312.741 79.34 314.475 76.1389 314.208" fill="#455A64"/>
<path d="M74.6366 326.233C74.5952 325.978 74.5787 325.72 74.5875 325.461C74.5875 324.914 74.5875 324.205 74.5313 323.355C74.3883 321.028 74.6254 318.692 75.2333 316.441C75.886 314.183 77.1292 312.14 78.8346 310.523C79.3568 310.042 79.9341 309.625 80.5545 309.28C80.72 309.186 80.8912 309.101 81.067 309.027C81.125 308.992 81.1894 308.968 81.2565 308.957C80.4388 309.448 79.6722 310.02 78.968 310.663C77.3202 312.285 76.1123 314.3 75.458 316.518C74.8539 318.745 74.5865 321.049 74.6647 323.355C74.6647 324.247 74.6647 324.963 74.6647 325.461C74.6743 325.719 74.6649 325.977 74.6366 326.233Z" fill="#263238"/>
<path d="M68.0378 294.454C68.0827 294.556 68.118 294.661 68.1431 294.77C68.2133 295.008 68.2976 295.317 68.3958 295.696C68.6135 296.504 68.9153 297.676 69.2663 299.129C69.9683 302.035 70.909 306.065 71.8356 310.53C72.7623 314.994 73.5064 319.066 74.0048 322.014C74.2505 323.489 74.4401 324.682 74.5664 325.524C74.6226 325.918 74.6647 326.226 74.6998 326.479C74.711 326.591 74.711 326.704 74.6998 326.816C74.6635 326.708 74.6353 326.598 74.6156 326.486C74.5664 326.24 74.5103 325.932 74.433 325.538C74.2716 324.689 74.054 323.503 73.7872 322.064C73.2396 319.122 72.4674 315.044 71.5408 310.6C70.6142 306.156 69.7156 302.106 69.0557 299.192C68.7258 297.788 68.459 296.588 68.2695 295.739C68.1852 295.352 68.115 295.037 68.0659 294.798C68.0432 294.685 68.0338 294.569 68.0378 294.454Z" fill="#263238"/>
<path d="M71.3653 317.557C70.5211 315.43 69.1833 313.534 67.4624 312.025C65.7414 310.516 63.6865 309.438 61.4671 308.88C60.3369 308.606 58.9329 308.571 58.245 309.512C57.557 310.452 58.0414 311.786 58.6802 312.762C60.0459 314.768 61.9735 316.327 64.2214 317.242C66.4693 318.158 68.9373 318.389 71.3162 317.908" fill="#455A64"/>
<path d="M62.7027 312.2C62.9403 312.23 63.1751 312.279 63.4047 312.348C63.6825 312.413 63.9567 312.492 64.226 312.587C64.5349 312.699 64.928 312.797 65.286 312.973C65.644 313.148 66.1003 313.317 66.5285 313.555C66.9987 313.794 67.4535 314.061 67.8904 314.356C68.8969 315.023 69.8227 315.805 70.6493 316.686C71.4598 317.579 72.1664 318.561 72.7553 319.614C73.0148 320.068 73.2491 320.537 73.4573 321.018C73.6371 321.439 73.7941 321.871 73.9276 322.309C74.068 322.702 74.1242 323.081 74.2084 323.404C74.2757 323.682 74.3272 323.963 74.3629 324.247C74.4059 324.478 74.4293 324.713 74.4331 324.949C74.3699 324.949 74.2576 323.924 73.7311 322.344C73.5921 321.917 73.4304 321.498 73.2467 321.088C73.0385 320.607 72.8042 320.139 72.5447 319.684C71.9492 318.655 71.243 317.695 70.4387 316.82C69.6229 315.958 68.7195 315.184 67.743 314.51C67.2797 314.215 66.8445 313.927 66.4092 313.71C66.0159 313.486 65.6105 313.285 65.1948 313.106C63.6995 312.488 62.6816 312.257 62.7027 312.2Z" fill="#263238"/>
<path d="M85.0124 106.494L82.415 98.3854C86.1093 92.3904 87.4276 85.2304 86.1107 78.3128C84.7938 71.3952 80.937 65.2203 75.2984 61.002C69.6598 56.7838 62.6472 54.8272 55.6392 55.5169C48.6312 56.2067 42.1347 59.4928 37.4266 64.7294C32.7186 69.966 30.1395 76.7743 30.1965 83.8159C30.2535 90.8576 32.9424 97.6232 37.7346 102.783C42.5268 107.943 49.0757 111.123 56.0939 111.699C63.1122 112.276 70.0922 110.206 75.6617 105.897L85.0124 106.494Z" fill="#FAFAFA"/>
<path d="M85.0122 106.493H84.4225L82.6394 106.402L75.6194 106.016C75.6087 106.016 75.598 106.014 75.5882 106.01C75.5783 106.005 75.5695 105.999 75.5622 105.991C75.5549 105.983 75.5494 105.974 75.5459 105.964C75.5425 105.953 75.5412 105.943 75.5422 105.932C75.5392 105.918 75.5392 105.904 75.5422 105.89L75.6545 106.002C70.7766 109.812 64.7782 111.907 58.5889 111.962C57.0257 111.954 55.4654 111.829 53.9206 111.59C46.743 110.466 40.2781 106.61 35.8792 100.828C33.4293 97.5734 31.7036 93.8324 30.8178 89.856C29.8552 85.6281 29.8936 81.2338 30.9301 77.0234C31.0635 76.4899 31.2039 75.9494 31.3443 75.4159C31.4847 74.8823 31.7163 74.3629 31.8989 73.8364C32.0767 73.3039 32.283 72.7813 32.5166 72.2709C32.7553 71.7655 33.001 71.26 33.2186 70.7476C33.4602 70.2353 33.737 69.7403 34.047 69.2663L34.9385 67.8062L35.9634 66.4022L36.4829 65.7002C36.6584 65.4755 36.862 65.272 37.0515 65.0543C40.0873 61.5639 43.9384 58.8776 48.2625 57.2341C52.379 55.6655 56.7993 55.0581 61.1863 55.458C65.3085 55.8679 69.2897 57.1813 72.8465 59.305C79.1675 63.059 83.7778 69.1273 85.7002 76.2232C86.1063 77.7435 86.3972 79.2923 86.5706 80.8564C86.6831 82.3184 86.7088 83.7858 86.6479 85.2509C86.3789 89.92 84.9453 94.4474 82.478 98.4204V98.3572C83.3063 100.997 83.9381 103.033 84.3734 104.422C84.584 105.125 84.7384 105.609 84.8507 105.967L85.0052 106.486C85.0052 106.486 84.935 106.297 84.8156 105.946L84.3032 104.394C83.8539 102.99 83.187 101.011 82.3306 98.4064C82.323 98.386 82.323 98.3636 82.3306 98.3432C84.7514 94.3791 86.1482 89.8751 86.3951 85.2368C86.449 83.7854 86.4162 82.332 86.2969 80.8844C86.1215 79.334 85.8282 77.7992 85.4194 76.2934C83.9136 70.8308 80.7906 65.9516 76.4605 62.2969C72.1305 58.6422 66.7961 56.3829 61.1582 55.816C56.8265 55.4196 52.4615 56.0174 48.3959 57.564C44.1375 59.1935 40.3453 61.8454 37.3534 65.286C37.1709 65.5036 36.9673 65.7002 36.7918 65.9248L36.2794 66.6268L35.2685 67.9817L34.398 69.4278C34.0891 69.9001 33.8124 70.3926 33.5696 70.902C33.3309 71.4004 33.0923 71.9059 32.8676 72.4043C32.6386 72.9078 32.4371 73.4233 32.2639 73.9487C32.0814 74.4682 31.8638 74.9806 31.7093 75.5071C31.5549 76.0336 31.4356 76.5671 31.3022 77.0936C30.2843 81.2393 30.241 85.5645 31.1758 89.7296C32.3922 95.1993 35.2235 100.178 39.3028 104.019C43.3821 107.86 48.5212 110.388 54.054 111.274C55.5847 111.514 57.1308 111.643 58.6802 111.66C60.1264 111.654 61.57 111.534 62.9975 111.302C67.597 110.553 71.9388 108.674 75.6335 105.834C75.6407 105.826 75.6494 105.82 75.659 105.816C75.6687 105.811 75.6791 105.809 75.6896 105.809C75.7001 105.809 75.7106 105.811 75.7202 105.816C75.7299 105.82 75.7386 105.826 75.7458 105.834C75.7561 105.848 75.7616 105.865 75.7616 105.883C75.7616 105.9 75.7561 105.917 75.7458 105.932L75.6896 105.805L82.6254 106.283L84.4225 106.409L85.0122 106.493Z" fill="#263238"/>
<path d="M50.5019 83.6363C50.5019 84.2014 50.3343 84.7538 50.0204 85.2236C49.7064 85.6935 49.2602 86.0597 48.7381 86.2759C48.216 86.4922 47.6416 86.5488 47.0873 86.4385C46.5331 86.3283 46.024 86.0562 45.6244 85.6566C45.2249 85.257 44.9527 84.7479 44.8425 84.1937C44.7323 83.6395 44.7888 83.065 45.0051 82.5429C45.2213 82.0208 45.5875 81.5746 46.0574 81.2607C46.5272 80.9467 47.0797 80.7791 47.6447 80.7791C48.4019 80.781 49.1276 81.0826 49.663 81.618C50.1984 82.1534 50.5 82.8791 50.5019 83.6363Z" fill="#263238"/>
<path d="M61.9444 83.6363C61.9444 84.2014 61.7769 84.7538 61.4629 85.2236C61.149 85.6935 60.7028 86.0597 60.1807 86.2759C59.6586 86.4922 59.0841 86.5488 58.5299 86.4385C57.9757 86.3283 57.4666 86.0562 57.067 85.6566C56.6674 85.257 56.3953 84.7479 56.2851 84.1937C56.1748 83.6395 56.2314 83.065 56.4477 82.5429C56.6639 82.0208 57.0301 81.5746 57.5 81.2607C57.9698 80.9467 58.5222 80.7791 59.0873 80.7791C59.8445 80.781 60.5701 81.0826 61.1056 81.618C61.641 82.1534 61.9426 82.8791 61.9444 83.6363Z" fill="#263238"/>
<path d="M73.359 82.2112C73.6406 82.7006 73.771 83.2625 73.7336 83.8259C73.6961 84.3893 73.4926 84.929 73.1486 85.3768C72.8047 85.8247 72.3358 86.1605 71.8011 86.342C71.2664 86.5235 70.6899 86.5425 70.1444 86.3966C69.5989 86.2507 69.1089 85.9464 68.7362 85.5222C68.3635 85.0979 68.1249 84.5728 68.0505 84.0131C67.9761 83.4533 68.0692 82.8841 68.3181 82.3772C68.5669 81.8704 68.9604 81.4486 69.4488 81.1652C69.7741 80.9765 70.1334 80.8538 70.5062 80.8043C70.8789 80.7547 71.2578 80.7792 71.6211 80.8764C71.9843 80.9736 72.3248 81.1415 72.6231 81.3706C72.9213 81.5996 73.1714 81.8853 73.359 82.2112Z" fill="#263238"/>
<path d="M74.4962 209.898L44.928 206.837L32.4043 178.413L22.6746 180.948C22.6746 180.948 29.863 210.986 37.908 215.64C45.9529 220.295 73.4362 221.13 73.4362 221.13L74.4962 209.898Z" fill="#407BFF"/>
<path d="M90.2152 224.355C95.0264 218.942 94.5384 210.653 89.1251 205.842C83.7118 201.031 75.4233 201.519 70.6121 206.932C65.8009 212.345 66.289 220.634 71.7022 225.445C77.1155 230.256 85.404 229.768 90.2152 224.355Z" fill="#263238"/>
<path d="M80.4141 228.768C77.3753 228.768 74.4306 227.714 72.0817 225.786C69.7327 223.859 68.1249 221.176 67.532 218.196C66.9392 215.215 67.3981 212.122 68.8306 209.442C70.263 206.762 72.5804 204.662 75.3878 203.499C78.1952 202.336 81.319 202.182 84.2269 203.064C87.1347 203.947 89.6468 205.81 91.335 208.336C93.0232 210.863 93.7831 213.897 93.4853 216.921C93.1874 219.945 91.8502 222.772 89.7015 224.921C88.4846 226.144 87.0372 227.114 85.4431 227.774C83.8489 228.435 82.1396 228.772 80.4141 228.768ZM80.4141 202.541C77.3835 202.538 74.4456 203.586 72.101 205.506C69.7563 207.426 68.15 210.1 67.5556 213.071C66.9613 216.043 67.4157 219.129 68.8415 221.803C70.2672 224.477 72.5761 226.574 75.3747 227.737C78.1734 228.9 81.2886 229.056 84.1896 228.18C87.0906 227.303 89.5979 225.448 91.2843 222.93C92.9708 220.412 93.7319 217.387 93.4382 214.371C93.1445 211.354 91.814 208.533 89.6734 206.388C88.4611 205.166 87.0184 204.197 85.4291 203.537C83.8397 202.877 82.1351 202.538 80.4141 202.541Z" fill="#263238"/>
<path d="M42.2774 217.886C47.5591 216.618 50.8128 211.308 49.5447 206.027C48.2767 200.745 42.9672 197.491 37.6855 198.759C32.4039 200.027 29.1502 205.337 30.4182 210.618C31.6862 215.9 36.9958 219.154 42.2774 217.886Z" fill="#263238"/>
<path d="M32.5131 180.711C35.6521 177.572 35.6521 172.483 32.5131 169.344C29.3741 166.205 24.2847 166.205 21.1458 169.344C18.0068 172.483 18.0068 177.572 21.1457 180.711C24.2847 183.85 29.3741 183.85 32.5131 180.711Z" fill="#263238"/>
<path d="M39.3576 170.678L32.7392 176.267L30.3523 173.44L36.9707 167.851C37.3192 167.557 37.7704 167.413 38.2249 167.451C38.6794 167.49 39.1001 167.707 39.3944 168.056L39.5575 168.249C39.7043 168.421 39.8156 168.621 39.885 168.836C39.9545 169.052 39.9807 169.279 39.9621 169.505C39.9435 169.73 39.8806 169.95 39.7768 170.152C39.6731 170.353 39.5307 170.532 39.3576 170.678Z" fill="#263238"/>
<path d="M30.9512 160.442V168.866C30.9512 168.931 30.9253 168.994 30.8792 169.04C30.8331 169.086 30.7706 169.112 30.7055 169.112H27.5044C27.4392 169.112 27.3767 169.086 27.3306 169.04C27.2845 168.994 27.2587 168.931 27.2587 168.866V160.442C27.2587 159.986 27.4399 159.548 27.7624 159.226C28.0849 158.903 28.5224 158.722 28.9786 158.722H29.2313C29.6874 158.722 30.1249 158.903 30.4474 159.226C30.77 159.548 30.9512 159.986 30.9512 160.442Z" fill="#263238"/>
<path d="M24.9904 160.474L26.8295 168.695C26.8437 168.758 26.8321 168.825 26.7972 168.88C26.7623 168.935 26.7069 168.974 26.6433 168.988L23.5194 169.687C23.4558 169.701 23.3892 169.69 23.3342 169.655C23.2792 169.62 23.2403 169.564 23.226 169.501L21.387 161.28C21.2874 160.835 21.3687 160.368 21.6131 159.983C21.8574 159.598 22.2448 159.326 22.6899 159.226L22.9365 159.171C23.3817 159.071 23.8481 159.153 24.2333 159.397C24.6185 159.641 24.8908 160.029 24.9904 160.474Z" fill="#263238"/>
<path d="M18.578 162.534L22.79 169.829C22.8225 169.886 22.8314 169.953 22.8145 170.016C22.7976 170.079 22.7565 170.133 22.7 170.165L19.9278 171.766C19.8713 171.798 19.8043 171.807 19.7413 171.79C19.6784 171.773 19.6247 171.732 19.5921 171.676L15.3801 164.38C15.1521 163.985 15.0903 163.516 15.2083 163.075C15.3264 162.635 15.6146 162.259 16.0097 162.031L16.2285 161.905C16.6236 161.676 17.093 161.615 17.5336 161.733C17.9742 161.851 18.3499 162.139 18.578 162.534Z" fill="#263238"/>
<path d="M203.003 283.531L211.854 279.767L186.316 219.721L177.466 223.485L203.003 283.531Z" fill="#407BFF"/>
<path d="M187.585 225.459C192.266 219.933 191.581 211.658 186.055 206.977C180.529 202.296 172.255 202.98 167.573 208.506C162.892 214.032 163.577 222.307 169.103 226.988C174.629 231.669 182.903 230.985 187.585 225.459Z" fill="#263238"/>
<path d="M177.606 230.144C175.549 230.145 173.52 229.663 171.683 228.736C169.846 227.81 168.252 226.466 167.03 224.811C165.807 223.156 164.99 221.237 164.645 219.209C164.299 217.181 164.435 215.1 165.04 213.134C165.758 210.815 167.105 208.741 168.931 207.141C170.758 205.542 172.992 204.48 175.385 204.074C177.779 203.668 180.238 203.933 182.489 204.841C184.741 205.749 186.697 207.263 188.139 209.216C189.582 211.169 190.454 213.483 190.66 215.902C190.867 218.321 190.398 220.75 189.306 222.918C188.215 225.087 186.544 226.91 184.478 228.186C182.412 229.461 180.034 230.139 177.606 230.144ZM177.606 203.903C175.182 203.905 172.807 204.58 170.744 205.852C168.681 207.124 167.012 208.944 165.921 211.108C164.83 213.272 164.362 215.697 164.567 218.112C164.772 220.526 165.643 222.837 167.084 224.786C168.524 226.736 170.476 228.247 172.724 229.153C174.972 230.058 177.428 230.322 179.817 229.916C182.206 229.509 184.436 228.448 186.258 226.85C188.079 225.251 189.422 223.179 190.137 220.863C191.156 217.545 190.818 213.957 189.195 210.888C187.572 207.818 184.798 205.518 181.481 204.493C180.212 204.1 178.892 203.901 177.564 203.903H177.606Z" fill="#263238"/>
<path d="M204.13 256.19C205.584 250.957 202.521 245.535 197.287 244.081C192.054 242.627 186.633 245.69 185.178 250.924C183.724 256.157 186.788 261.579 192.021 263.033C197.254 264.487 202.676 261.424 204.13 256.19Z" fill="#263238"/>
<path d="M209.484 292.207C213.923 292.207 217.522 288.609 217.522 284.17C217.522 279.73 213.923 276.132 209.484 276.132C205.045 276.132 201.446 279.73 201.446 284.17C201.446 288.609 205.045 292.207 209.484 292.207Z" fill="#263238"/>
<path d="M198.971 292.264L203.472 284.879L206.631 286.804L202.13 294.19C201.893 294.579 201.51 294.858 201.067 294.966C200.624 295.073 200.156 295.001 199.766 294.763L199.55 294.632C199.357 294.515 199.188 294.36 199.054 294.178C198.92 293.995 198.823 293.788 198.769 293.568C198.715 293.348 198.705 293.12 198.74 292.896C198.775 292.672 198.853 292.458 198.971 292.264Z" fill="#263238"/>
<path d="M210.177 299.308L207.51 291.317C207.489 291.256 207.494 291.188 207.523 291.13C207.552 291.072 207.603 291.027 207.665 291.007L210.702 289.993C210.763 289.972 210.831 289.977 210.889 290.006C210.948 290.035 210.992 290.086 211.012 290.148L213.68 298.139C213.749 298.354 213.775 298.58 213.756 298.806C213.737 299.031 213.675 299.25 213.571 299.451C213.468 299.652 213.326 299.83 213.153 299.976C212.981 300.122 212.782 300.233 212.566 300.301L212.327 300.381C211.899 300.518 211.435 300.483 211.034 300.282C210.632 300.082 210.325 299.732 210.177 299.308Z" fill="#263238"/>
<path d="M215.827 297.393L211.48 290.177C211.463 290.15 211.452 290.119 211.447 290.087C211.443 290.055 211.444 290.023 211.452 289.992C211.46 289.96 211.474 289.931 211.493 289.905C211.512 289.879 211.536 289.857 211.564 289.84L214.305 288.188C214.333 288.172 214.364 288.16 214.396 288.156C214.428 288.151 214.46 288.152 214.491 288.16C214.523 288.168 214.552 288.182 214.578 288.201C214.604 288.22 214.626 288.244 214.643 288.272L218.99 295.487C219.226 295.878 219.296 296.346 219.186 296.789C219.077 297.232 218.795 297.613 218.405 297.848L218.188 297.978C217.797 298.214 217.329 298.284 216.887 298.175C216.444 298.065 216.063 297.784 215.827 297.393Z" fill="#263238"/>
<path d="M221.254 293.415L214.949 287.828C214.9 287.785 214.871 287.724 214.867 287.659C214.863 287.594 214.885 287.53 214.928 287.481L217.046 285.091C217.089 285.042 217.15 285.012 217.215 285.008C217.28 285.004 217.344 285.026 217.393 285.07L223.698 290.656C224.04 290.958 224.247 291.384 224.274 291.84C224.302 292.295 224.148 292.742 223.845 293.084L223.677 293.273C223.374 293.612 222.949 293.818 222.495 293.844C222.041 293.871 221.595 293.716 221.254 293.415Z" fill="#263238"/>
<path d="M76.518 201.993C76.518 201.993 77.4657 294.054 129.126 295.851C180.786 297.648 182.955 202.653 182.955 201.993C182.955 201.993 176.855 188.269 129.737 188.803C82.6184 189.336 76.518 201.993 76.518 201.993Z" fill="#407BFF"/>
<path d="M105.525 185.791H149.189C152.039 185.791 154.349 183.481 154.349 180.632V179.88C154.349 177.031 152.039 174.721 149.189 174.721H105.525C102.675 174.721 100.365 177.031 100.365 179.88V180.632C100.365 183.481 102.675 185.791 105.525 185.791Z" fill="#263238"/>
<path d="M125.476 103.931H129.245V84.8718H125.476V103.931Z" fill="#263238"/>
<path d="M185.001 160.672C190.953 159.257 194.632 153.285 193.217 147.333C191.802 141.381 185.83 137.702 179.878 139.117C173.926 140.532 170.247 146.504 171.662 152.456C173.077 158.408 179.049 162.086 185.001 160.672Z" fill="#407BFF"/>
<path d="M73.0686 159.952C79.035 158.599 82.7746 152.665 81.4213 146.699C80.0679 140.732 74.1341 136.993 68.1677 138.346C62.2013 139.699 58.4617 145.633 59.815 151.6C61.1684 157.566 67.1022 161.306 73.0686 159.952Z" fill="#407BFF"/>
<path d="M125.167 99.7963C125.167 99.7963 80.1263 99.2558 73.008 138.294C65.8897 177.332 103.966 178.034 114.924 178.771C119.888 179.108 130.516 179.143 139.895 178.975C160.66 178.617 175.332 174.601 180.323 155.339C180.917 153.08 181.291 150.769 181.439 148.438C182.752 127.294 168.48 98.7574 125.167 99.7963Z" fill="#407BFF"/>
<path d="M157.838 159.214L92.4042 160.231C90.7716 160.26 89.1494 159.967 87.6303 159.368C86.1112 158.769 84.7252 157.876 83.5515 156.741C82.3778 155.606 81.4395 154.25 80.7903 152.752C80.1411 151.254 79.7938 149.642 79.7682 148.01C79.7403 146.377 80.0347 144.754 80.6343 143.235C81.234 141.716 82.1273 140.33 83.2631 139.156C84.3988 137.983 85.7548 137.045 87.2535 136.396C88.7522 135.747 90.3641 135.399 91.9971 135.374L157.43 134.356C159.063 134.326 160.686 134.619 162.206 135.217C163.725 135.816 165.111 136.709 166.285 137.844C167.459 138.979 168.397 140.335 169.046 141.834C169.695 143.333 170.042 144.945 170.066 146.578C170.095 148.211 169.802 149.834 169.202 151.353C168.603 152.873 167.71 154.259 166.574 155.433C165.438 156.607 164.081 157.545 162.582 158.193C161.083 158.842 159.471 159.189 157.838 159.214Z" fill="#263238"/>
<path d="M106.002 146.655C105.85 147.429 105.472 148.14 104.915 148.699C104.359 149.257 103.649 149.639 102.876 149.794C102.103 149.95 101.302 149.873 100.572 149.573C99.8431 149.273 99.2192 148.763 98.7796 148.109C98.3399 147.454 98.1042 146.684 98.1022 145.895C98.1003 145.107 98.3322 144.335 98.7686 143.678C99.205 143.022 99.8264 142.509 100.554 142.205C101.282 141.902 102.083 141.821 102.857 141.972C103.371 142.073 103.86 142.274 104.296 142.564C104.733 142.854 105.108 143.227 105.4 143.662C105.692 144.097 105.895 144.585 105.999 145.099C106.102 145.612 106.103 146.141 106.002 146.655Z" fill="white"/>
<path d="M151.695 145.925C151.544 146.699 151.167 147.411 150.611 147.971C150.055 148.531 149.346 148.913 148.573 149.07C147.8 149.227 146.997 149.15 146.268 148.851C145.538 148.551 144.913 148.042 144.473 147.387C144.033 146.733 143.796 145.962 143.794 145.174C143.792 144.385 144.024 143.613 144.46 142.956C144.897 142.299 145.518 141.786 146.246 141.482C146.974 141.178 147.776 141.097 148.55 141.249C149.587 141.453 150.5 142.06 151.09 142.936C151.68 143.813 151.897 144.888 151.695 145.925Z" fill="white"/>
<path d="M145.117 238.554C144.861 242.067 143.569 245.425 141.404 248.203C139.239 250.982 136.299 253.056 132.955 254.163C129.612 255.271 126.015 255.362 122.619 254.426C119.224 253.489 116.182 251.566 113.879 248.901C111.576 246.236 110.115 242.948 109.681 239.453C109.247 235.957 109.859 232.411 111.44 229.264C113.021 226.116 115.499 223.508 118.562 221.769C121.626 220.03 125.135 219.239 128.648 219.494C133.359 219.839 137.74 222.041 140.829 225.615C143.917 229.189 145.459 233.843 145.117 238.554Z" fill="#263238"/>
<path d="M140.295 238.203C140.107 240.763 139.165 243.21 137.587 245.235C136.008 247.26 133.865 248.771 131.428 249.578C128.991 250.385 126.369 250.45 123.894 249.767C121.42 249.084 119.203 247.682 117.525 245.739C115.848 243.796 114.783 241.399 114.468 238.851C114.152 236.303 114.599 233.719 115.752 231.426C116.905 229.132 118.713 227.232 120.946 225.965C123.179 224.698 125.737 224.123 128.297 224.31C129.998 224.434 131.657 224.891 133.18 225.656C134.704 226.422 136.061 227.48 137.175 228.77C138.29 230.06 139.139 231.557 139.674 233.176C140.209 234.794 140.42 236.503 140.295 238.203Z" fill="white"/>
<path d="M134.04 240.561C133.941 239.852 133.901 239.136 133.921 238.42C133.885 237.079 133.857 235.163 133.857 232.804L133.998 233.064L127.322 229.168H127.694L120.955 232.952C120.772 233.261 121.2 232.537 121.158 232.615V233.612V234.615C121.158 235.275 121.158 235.935 121.123 236.581C121.123 237.873 121.074 239.122 121.053 240.33L120.87 240.007L127.469 244.036H127.174C129.231 242.927 130.93 242.043 132.088 241.439C132.712 241.084 133.362 240.779 134.033 240.526C133.509 240.953 132.945 241.327 132.348 241.642C131.211 242.344 129.54 243.334 127.434 244.549L127.287 244.633L127.139 244.549L120.456 240.653L120.274 240.547V240.323C120.274 239.115 120.288 237.866 120.316 236.574C120.316 235.928 120.316 235.275 120.316 234.608V233.612V232.643C120.274 232.72 120.702 232.004 120.519 232.306L127.28 228.557L127.476 228.452L127.659 228.564L134.251 232.594L134.398 232.685V232.853C134.321 235.282 134.243 237.234 134.173 238.561C134.191 239.23 134.147 239.9 134.04 240.561Z" fill="#407BFF"/>
<path d="M131.757 88.8787C134.184 86.4525 134.184 82.5188 131.757 80.0926C129.331 77.6664 125.397 77.6664 122.971 80.0926C120.545 82.5188 120.545 86.4525 122.971 88.8787C125.397 91.3049 129.331 91.3049 131.757 88.8787Z" fill="#407BFF"/>
<path d="M117.438 144.816C117.732 144.851 117.585 146.22 118.455 148.094C118.949 149.17 119.667 150.127 120.561 150.902C121.61 151.825 122.916 152.405 124.303 152.566C125.698 152.656 127.088 152.323 128.29 151.611C129.308 151.019 130.189 150.217 130.874 149.259C132.067 147.595 132.173 146.199 132.467 146.22C132.587 146.22 132.706 146.571 132.706 147.23C132.679 148.171 132.439 149.092 132.004 149.926C131.35 151.186 130.383 152.257 129.196 153.036C127.729 154.07 125.941 154.548 124.153 154.385C122.365 154.222 120.694 153.427 119.438 152.144C118.413 151.164 117.659 149.936 117.248 148.578C116.955 147.673 116.878 146.711 117.023 145.77C117.143 145.117 117.325 144.795 117.438 144.816Z" fill="white"/>
<path d="M177.409 163.004C177.339 163.004 178.147 161.741 178.926 159.529C179.895 156.633 180.508 153.63 180.751 150.586C181.032 147.553 181.102 144.503 180.962 141.46C180.912 140.288 180.856 139.354 180.8 138.652C180.753 138.313 180.741 137.969 180.765 137.627C180.855 137.958 180.914 138.296 180.94 138.638C181.039 139.291 181.137 140.239 181.221 141.446C181.441 144.514 181.406 147.594 181.116 150.656C180.869 153.729 180.215 156.755 179.171 159.656C178.841 160.531 178.442 161.378 177.978 162.19C177.812 162.477 177.622 162.75 177.409 163.004Z" fill="#263238"/>
<path d="M73.0922 136.988C73.0525 137.329 72.9796 137.665 72.8746 137.992C72.7833 138.308 72.6851 138.694 72.5938 139.157C72.5025 139.621 72.3621 140.126 72.2779 140.709C72.0318 142.062 71.8677 143.429 71.7865 144.802C71.6921 146.481 71.7155 148.165 71.8567 149.842C72.0136 151.515 72.2856 153.176 72.671 154.812C72.9933 156.15 73.3966 157.468 73.8785 158.757C74.068 159.312 74.2856 159.796 74.4611 160.232C74.6366 160.667 74.8051 161.032 74.9455 161.327C75.1056 161.63 75.2372 161.947 75.3386 162.274C75.1388 161.996 74.965 161.7 74.8191 161.39C74.6207 161.039 74.4403 160.678 74.2786 160.309C74.082 159.888 73.8434 159.403 73.6398 158.849C73.1186 157.563 72.687 156.242 72.3481 154.896C71.9373 153.245 71.651 151.564 71.4917 149.87C71.3486 148.177 71.3345 146.476 71.4495 144.78C71.5475 143.395 71.7398 142.019 72.0252 140.66C72.1305 140.077 72.2779 139.565 72.3972 139.108C72.5166 138.652 72.6289 138.266 72.7342 137.95C72.8273 137.62 72.947 137.299 73.0922 136.988Z" fill="#263238"/>
<path d="M76.2793 201.916L76.5461 201.993L77.3323 202.26L80.3228 203.313L82.485 204.085C83.2782 204.352 84.1557 204.605 85.0894 204.893C86.9637 205.447 89.0768 206.17 91.4776 206.732L95.2193 207.694C96.525 208.024 97.9009 208.269 99.3189 208.578C102.127 209.224 105.209 209.666 108.445 210.186C115.444 211.146 122.497 211.65 129.561 211.695C136.625 211.654 143.679 211.149 150.677 210.186C153.892 209.666 156.953 209.231 159.803 208.578C161.207 208.276 162.611 208.031 163.903 207.701L167.652 206.739C170.045 206.177 172.158 205.454 174.033 204.9C174.966 204.612 175.844 204.359 176.637 204.092L178.799 203.32L181.79 202.267L182.576 202C182.665 201.966 182.756 201.94 182.85 201.923L182.59 202.036L181.818 202.337L178.849 203.454L176.637 204.282C175.851 204.556 174.973 204.816 174.04 205.117C172.165 205.693 170.059 206.43 167.659 207.013L163.91 207.996C162.611 208.333 161.228 208.585 159.81 208.901C157.002 209.561 153.913 210.01 150.684 210.544C143.671 211.528 136.6 212.041 129.519 212.081C122.44 212.036 115.371 211.52 108.361 210.537C105.139 210.01 102.043 209.554 99.2347 208.894C97.8307 208.578 96.4267 208.326 95.135 207.989L91.3863 207.006C88.9855 206.423 86.8795 205.686 85.0052 205.11C84.0715 204.808 83.201 204.549 82.4078 204.275L80.2526 203.468L77.2832 202.351L76.511 202.05C76.4297 202.013 76.3521 201.968 76.2793 201.916Z" fill="#263238"/>
<g opacity="0.3">
<path d="M76.518 201.993C76.518 201.993 82.6184 189.357 129.737 188.803C176.855 188.248 182.955 201.993 182.955 201.993C182.955 201.993 135.402 225.433 76.518 201.993Z" fill="black"/>
</g>
<path d="M119.459 102.717C119.406 102.722 119.352 102.722 119.298 102.717L118.828 102.766C118.406 102.808 117.789 102.822 116.995 102.913C114.757 103.13 112.536 103.499 110.347 104.015C99.0273 106.608 89.0427 113.243 82.2674 122.674C78.994 127.207 76.5157 132.263 74.9385 137.627C74.6928 138.385 74.5594 138.989 74.4401 139.389L74.3067 139.852C74.2941 139.906 74.2752 139.958 74.2505 140.007C74.2412 139.953 74.2412 139.899 74.2505 139.845C74.2505 139.719 74.3067 139.565 74.3488 139.375C74.4471 138.968 74.5524 138.357 74.777 137.585C75.3629 135.404 76.1139 133.271 77.0234 131.204C80.024 124.335 84.5921 118.264 90.3614 113.478C96.1553 108.729 102.981 105.401 110.291 103.763C112.493 103.262 114.729 102.931 116.981 102.773C117.782 102.703 118.385 102.71 118.82 102.689H119.298C119.41 102.703 119.459 102.71 119.459 102.717Z" fill="white"/>
<path d="M75.3948 156.757C75.1134 156.322 74.8959 155.849 74.7489 155.353C73.9162 153.007 73.5282 150.526 73.6047 148.038C73.5846 147.521 73.6462 147.005 73.7872 146.507C73.8995 146.507 73.7451 148.852 74.1944 151.688C74.6436 154.524 75.5001 156.714 75.3948 156.757Z" fill="white"/>
<path d="M63.5801 153.127C63.5801 153.127 63.4187 153.015 63.2011 152.748C62.8908 152.37 62.6247 151.958 62.4078 151.52C61.6581 150.069 61.3713 148.422 61.5859 146.803C61.8006 145.184 62.5064 143.67 63.6082 142.464C63.931 142.095 64.2962 141.765 64.6963 141.481C64.8338 141.365 64.9906 141.275 65.1596 141.214C65.2018 141.27 64.57 141.699 63.8048 142.618C62.8005 143.821 62.158 145.284 61.9517 146.837C61.7454 148.39 61.9839 149.97 62.6395 151.393C63.1309 152.51 63.6293 153.085 63.5801 153.127Z" fill="white"/>
<path d="M127.764 80.1544C127.216 80.0941 126.664 80.0823 126.114 80.1193C125.46 80.1767 124.827 80.3834 124.264 80.7234C123.702 81.0634 123.225 81.5278 122.869 82.0808C122.514 82.6339 122.291 83.2609 122.215 83.9139C122.14 84.5668 122.216 85.2283 122.436 85.8476C122.625 86.3612 122.86 86.8569 123.138 87.3288C123.138 87.3288 122.997 87.2446 122.801 87.0199C122.531 86.6949 122.318 86.3272 122.169 85.9318C121.901 85.2763 121.795 84.5659 121.86 83.8607C121.925 83.1556 122.159 82.4764 122.542 81.8807C122.925 81.2851 123.445 80.7904 124.06 80.4385C124.674 80.0867 125.365 79.8881 126.072 79.8595C126.492 79.8304 126.915 79.8707 127.322 79.9789C127.638 80.028 127.764 80.1333 127.764 80.1544Z" fill="white"/>
<path d="M188.95 144.612C188.873 144.696 187.785 143.65 186.142 142.864C184.5 142.078 183.004 141.846 183.018 141.734C184.163 141.705 185.294 141.981 186.297 142.534C187.352 142.975 188.269 143.693 188.95 144.612Z" fill="white"/>
<path d="M92.664 267.511C92.632 267.469 92.6038 267.425 92.5798 267.378L92.3481 266.964C92.1375 266.563 91.8567 266.03 91.4917 265.349C91.3092 264.998 91.1126 264.605 90.888 264.184L90.2281 262.78C89.7507 261.762 89.2172 260.603 88.6907 259.27C88.4239 258.617 88.1431 257.929 87.8483 257.22C87.5535 256.511 87.3007 255.739 87.0129 254.959C86.4092 253.408 85.8967 251.702 85.3 249.933C84.1979 246.353 83.1168 242.387 82.1691 238.175C81.2214 233.963 80.5335 229.898 79.9719 226.198C79.4103 222.499 79.0452 219.178 78.8206 216.328C78.6872 214.924 78.603 213.647 78.5328 212.523C78.4626 211.4 78.3994 210.417 78.3783 209.645C78.3573 208.873 78.3362 208.276 78.3151 207.827V207.357C78.3076 207.303 78.3076 207.249 78.3151 207.195C78.3232 207.249 78.3232 207.303 78.3151 207.357L78.3573 207.827C78.3573 208.269 78.4345 208.88 78.4836 209.638C78.5328 210.396 78.603 211.393 78.7012 212.509C78.7995 213.626 78.8908 214.903 79.0452 216.307C79.2979 219.115 79.7472 222.457 80.2737 226.135C80.8002 229.814 81.5654 233.857 82.492 238.069C83.4187 242.281 84.5068 246.241 85.5808 249.814C86.1775 251.583 86.676 253.282 87.2656 254.833C87.5464 255.619 87.8132 256.37 88.08 257.093L88.8943 259.157C89.3997 260.47 89.9192 261.635 90.3825 262.667L91.0143 264.071C91.2179 264.5 91.4145 264.893 91.59 265.251L92.3762 266.893L92.5728 267.322C92.6153 267.378 92.6463 267.443 92.664 267.511Z" fill="white"/>
<path d="M65.1948 210.277C63.4821 210.342 61.7669 210.281 60.0631 210.095C58.3514 210.035 56.646 209.854 54.9596 209.554C56.6723 209.489 58.3874 209.55 60.0912 209.737C61.803 209.796 63.5085 209.977 65.1948 210.277Z" fill="white"/>
<path d="M38.7855 195.289C37.7898 193.839 36.8961 192.322 36.1109 190.747C35.2208 189.231 34.4374 187.655 33.7662 186.03C34.7588 187.483 35.6501 189.003 36.4338 190.579C37.3283 192.091 38.1142 193.665 38.7855 195.289Z" fill="white"/>
<path d="M117.585 289.645C117.309 289.64 117.033 289.607 116.764 289.547C116.021 289.415 115.287 289.236 114.566 289.013C113.496 288.687 112.45 288.286 111.435 287.813C110.2 287.217 109.013 286.527 107.883 285.749C106.767 284.951 105.715 284.066 104.738 283.103C103.947 282.31 103.215 281.461 102.548 280.561C102.091 279.961 101.676 279.33 101.306 278.673C101.154 278.442 101.029 278.195 100.934 277.936C100.99 277.901 101.579 278.919 102.752 280.407C103.441 281.272 104.184 282.093 104.977 282.864C106.92 284.752 109.15 286.32 111.583 287.511C112.577 287.991 113.599 288.411 114.644 288.768C116.441 289.371 117.599 289.575 117.585 289.645Z" fill="white"/>
<path d="M128.354 257.171C128.191 257.199 128.027 257.215 127.862 257.22C127.395 257.259 126.927 257.273 126.458 257.262C124.713 257.223 122.981 256.942 121.313 256.427C120.16 256.068 119.038 255.617 117.957 255.079C116.718 254.441 115.542 253.687 114.447 252.825C111.91 250.876 109.909 248.313 108.635 245.378C107.36 242.443 106.853 239.232 107.16 236.047C107.275 234.665 107.522 233.297 107.897 231.962C108.234 230.804 108.668 229.677 109.196 228.592C109.958 227.02 110.936 225.562 112.102 224.261C112.415 223.905 112.748 223.568 113.099 223.25C113.215 223.134 113.34 223.026 113.471 222.927C113.471 222.927 113.008 223.426 112.208 224.331C111.084 225.652 110.14 227.116 109.4 228.684C108.296 230.994 107.638 233.493 107.462 236.047C107.178 239.176 107.684 242.326 108.935 245.207C110.187 248.089 112.142 250.609 114.623 252.537C115.686 253.393 116.828 254.145 118.034 254.784C119.091 255.341 120.192 255.811 121.327 256.188C122.97 256.721 124.677 257.035 126.402 257.122C127.673 257.171 128.354 257.129 128.354 257.171Z" fill="white"/>
<path d="M43.3625 201.888C43.3625 201.944 42.822 201.685 41.9585 201.481C40.8031 201.228 39.6054 201.24 38.4553 201.516C37.3051 201.792 36.2324 202.325 35.3176 203.075C34.6156 203.657 34.2786 204.121 34.2295 204.085C34.4221 203.621 34.7201 203.208 35.1 202.878C36.0111 202.042 37.1205 201.452 38.3231 201.165C39.5258 200.877 40.7819 200.902 41.9726 201.235C42.4799 201.343 42.9556 201.566 43.3625 201.888Z" fill="white"/>
<path d="M147.027 132.088C147.027 132.187 138.406 132.271 127.778 132.271C117.15 132.271 108.522 132.187 108.522 132.088C108.522 131.99 117.143 131.906 127.778 131.906C138.413 131.906 147.027 131.976 147.027 132.088Z" fill="white"/>
<path d="M114.173 175.984C114.068 176.014 113.96 176.031 113.85 176.034L112.91 176.118C112.503 176.153 112.004 176.181 111.421 176.195C110.839 176.209 110.179 176.237 109.449 176.195C107.982 176.195 106.241 176.09 104.31 175.886C102.221 175.643 100.147 175.284 98.0975 174.812C96.0528 174.322 94.0373 173.717 92.0603 173.001C90.4496 172.411 88.8703 171.739 87.3288 170.986C86.6268 170.677 86.0863 170.354 85.5738 170.081C85.0614 169.807 84.6261 169.561 84.2751 169.379L83.4678 168.887C83.3721 168.834 83.2826 168.771 83.201 168.698C83.201 168.698 83.3134 168.698 83.5029 168.824L84.3453 169.252C84.7033 169.449 85.1456 169.68 85.6651 169.954C86.1846 170.228 86.7742 170.509 87.4411 170.804C88.7609 171.421 90.3685 172.081 92.1796 172.734C96.116 174.145 100.2 175.106 104.352 175.598C106.262 175.823 107.996 175.949 109.449 175.984C110.151 176.027 110.853 175.984 111.421 175.984C111.99 175.984 112.496 175.984 112.903 175.984H113.843C113.953 175.966 114.064 175.966 114.173 175.984Z" fill="white"/>
<path d="M170.214 207.617C170.162 207.651 170.105 207.677 170.045 207.694L169.54 207.883L167.588 208.585C166.739 208.894 165.7 209.252 164.472 209.61C163.243 209.968 161.86 210.432 160.295 210.825L157.852 211.47C157.002 211.688 156.104 211.871 155.184 212.088C153.345 212.53 151.351 212.882 149.259 213.282C140.147 214.869 130.887 215.436 121.65 214.973C119.544 214.84 117.501 214.735 115.619 214.517C114.679 214.419 113.766 214.349 112.896 214.229L110.389 213.885C108.789 213.696 107.357 213.408 106.1 213.183C104.844 212.959 103.756 212.748 102.878 212.545L100.856 212.095L100.33 211.969C100.269 211.959 100.21 211.94 100.154 211.913C100.217 211.907 100.281 211.907 100.344 211.913L100.87 212.004L102.906 212.39C103.791 212.566 104.872 212.769 106.135 212.959C107.399 213.148 108.824 213.422 110.425 213.598L112.924 213.913C113.794 214.026 114.707 214.089 115.647 214.18C117.522 214.384 119.544 214.475 121.664 214.601C125.911 214.777 130.579 214.784 135.479 214.496C140.379 214.208 145.005 213.598 149.196 212.91C151.302 212.523 153.282 212.208 155.121 211.758C156.041 211.548 156.939 211.372 157.788 211.162L160.231 210.537C161.797 210.165 163.18 209.73 164.408 209.379C165.637 209.028 166.69 208.677 167.539 208.417L169.512 207.785L170.031 207.631L170.214 207.617Z" fill="white"/>
</svg>
