<svg width="382" height="382" viewBox="0 0 382 382" fill="none" xmlns="http://www.w3.org/2000/svg">
<path d="M288.845 66.7965C251.027 45.183 217.534 62.9765 200.779 81.9237C184.025 100.871 171.541 120.009 150.508 123.524C129.475 127.038 97.5628 118.122 73.7871 134.869C50.0114 151.616 50.1031 196.096 68.9281 221.316C87.753 246.535 136.458 258.591 192.65 266.697C212.813 269.751 233.389 268.609 253.09 263.343L278.616 254.076C291.084 248.384 301.536 241.974 310.383 236.771C323.844 228.826 328.589 209.458 331.163 195.271C334.901 174.01 334.577 152.234 330.208 131.095C324.57 104.462 311.712 79.8533 288.845 66.7965Z" fill="#1856E4"/>
<path opacity="0.8" d="M288.845 66.7965C251.027 45.183 217.534 62.9765 200.779 81.9237C184.025 100.871 171.541 120.009 150.508 123.524C129.475 127.038 97.5628 118.122 73.7871 134.869C50.0114 151.616 50.1031 196.096 68.9281 221.316C87.753 246.535 136.458 258.591 192.65 266.697C212.813 269.751 233.389 268.609 253.09 263.343L278.616 254.076C291.084 248.384 301.536 241.974 310.383 236.771C323.844 228.826 328.589 209.458 331.163 195.271C334.901 174.01 334.577 152.234 330.208 131.095C324.57 104.462 311.712 79.8533 288.845 66.7965Z" fill="white"/>
<path opacity="0.8" d="M346.657 93.2691C345.802 79.1504 336.16 74.5205 330.048 81.2437C328.596 82.8838 327.623 84.8919 327.236 87.048C326.849 89.2042 327.064 91.4252 327.855 93.4677C330.002 99.2665 333.692 109.558 335.893 117.61C339.132 129.498 338.047 138.681 341.829 133.822C345.611 128.963 347.735 111.101 346.657 93.2691Z" fill="#1856E4"/>
<path opacity="0.8" d="M346.657 93.2691C345.802 79.1504 336.16 74.5205 330.048 81.2437C328.596 82.8838 327.623 84.8919 327.236 87.048C326.849 89.2042 327.064 91.4252 327.855 93.4677C330.002 99.2665 333.692 109.558 335.893 117.61C339.132 129.498 338.047 138.681 341.829 133.822C345.611 128.963 347.735 111.101 346.657 93.2691Z" fill="white"/>
<path d="M183.498 91.107C189.434 90.0297 196.997 75.9798 206.723 70.0359C216.449 64.0919 207.808 59.7677 198.64 64.0919C198.64 64.0919 191.611 65.7116 186.21 76.5222C180.808 87.3328 177.554 92.1842 183.498 91.107Z" fill="#1856E4"/>
<path opacity="0.8" d="M183.498 91.107C189.434 90.0297 196.997 75.9798 206.723 70.0359C216.449 64.0919 207.808 59.7677 198.64 64.0919C198.64 64.0919 191.611 65.7116 186.21 76.5222C180.808 87.3328 177.554 92.1842 183.498 91.107Z" fill="white"/>
<path d="M173.772 83.5434C178.593 81.6105 183.849 68.4849 178.356 69.1573C177.662 69.2579 177.005 69.5358 176.45 69.964C175.895 70.3922 175.459 70.9564 175.185 71.6021C173.428 75.5061 169.432 85.2777 173.772 83.5434Z" fill="#1856E4"/>
<path opacity="0.8" d="M173.772 83.5434C178.593 81.6105 183.849 68.4849 178.356 69.1573C177.662 69.2579 177.005 69.5358 176.45 69.964C175.895 70.3922 175.459 70.9564 175.185 71.6021C173.428 75.5061 169.432 85.2777 173.772 83.5434Z" fill="white"/>
<path d="M203.209 327.901C288.577 327.901 357.781 325.329 357.781 322.156C357.781 318.983 288.577 316.411 203.209 316.411C117.841 316.411 48.6362 318.983 48.6362 322.156C48.6362 325.329 117.841 327.901 203.209 327.901Z" fill="#1856E4"/>
<path opacity="0.8" d="M203.209 327.901C288.577 327.901 357.781 325.329 357.781 322.156C357.781 318.983 288.577 316.411 203.209 316.411C117.841 316.411 48.6362 318.983 48.6362 322.156C48.6362 325.329 117.841 327.901 203.209 327.901Z" fill="white"/>
<path d="M277.5 106.196C277.196 106.196 276.905 106.317 276.69 106.532C276.475 106.747 276.354 107.038 276.354 107.342V113.217H255.413V107.342C255.413 107.038 255.292 106.747 255.077 106.532C254.862 106.317 254.571 106.196 254.267 106.196C253.963 106.196 253.671 106.317 253.456 106.532C253.242 106.747 253.121 107.038 253.121 107.342V255.329C253.121 255.633 253.242 255.924 253.456 256.139C253.671 256.354 253.963 256.475 254.267 256.475C254.571 256.475 254.862 256.354 255.077 256.139C255.292 255.924 255.413 255.633 255.413 255.329V222.225H276.354V255.329C276.354 255.633 276.475 255.924 276.69 256.139C276.905 256.354 277.196 256.475 277.5 256.475C277.804 256.475 278.096 256.354 278.31 256.139C278.525 255.924 278.646 255.633 278.646 255.329V107.319C278.64 107.019 278.517 106.733 278.302 106.523C278.088 106.314 277.8 106.196 277.5 106.196ZM276.354 219.956H255.413V212.529H276.354V219.956ZM276.354 210.23H255.413V202.811H276.354V210.23ZM276.354 200.512H255.413V193.116H276.354V200.512ZM276.354 190.801H255.413V183.436H276.354V190.801ZM276.354 181.099H255.413V173.818H276.354V181.099ZM276.354 171.426H255.413V164.1H276.354V171.426ZM276.354 161.8H255.413V154.404H276.354V161.8ZM276.354 152.082H255.413V144.686H276.354V152.082ZM276.354 142.387H255.413V134.968H276.354V142.387ZM276.354 132.669H255.413V125.235H276.354V132.669ZM276.354 122.943H255.413V115.509H276.354V122.943Z" fill="white"/>
<path d="M79.1351 225.502C79.1351 225.502 96.2869 202.025 87.9211 196.47C79.2192 190.733 75.1318 208.114 73.2905 216.648C69.3636 234.861 70.4714 238.727 73.1072 234.724L79.1351 225.502Z" fill="#1856E4"/>
<path opacity="0.5" d="M79.1351 225.502C79.1351 225.502 96.2869 202.025 87.9211 196.47C79.2192 190.733 75.1318 208.114 73.2905 216.648C69.3636 234.861 70.4714 238.727 73.1072 234.724L79.1351 225.502Z" fill="white"/>
<path d="M85.568 239.942C85.568 239.942 109.412 223.302 103.293 215.372C96.9287 207.113 87.4169 222.248 82.9016 229.704C73.2676 245.657 73.069 249.675 76.8584 246.742L85.568 239.942Z" fill="#1856E4"/>
<path opacity="0.5" d="M85.568 239.942C85.568 239.942 109.412 223.302 103.293 215.372C96.9287 207.113 87.4169 222.248 82.9016 229.704C73.2676 245.657 73.069 249.675 76.8584 246.742L85.568 239.942Z" fill="white"/>
<path d="M86.0875 259.24C86.0875 259.24 106.716 249.973 103.193 243.021C99.5263 235.786 90.0603 245.962 85.5298 251.02C75.8499 261.823 75.1165 264.864 78.4399 263.175L86.0875 259.24Z" fill="#1856E4"/>
<path opacity="0.5" d="M86.0875 259.24C86.0875 259.24 106.716 249.973 103.193 243.021C99.5263 235.786 90.0603 245.962 85.5298 251.02C75.8499 261.823 75.1165 264.864 78.4399 263.175L86.0875 259.24Z" fill="white"/>
<path d="M87.3099 278.623C87.3099 278.623 107.938 269.356 104.424 262.403C100.749 255.176 91.2904 265.345 86.7522 270.41C77.08 281.213 76.3389 284.254 79.6699 282.558L87.3099 278.623Z" fill="#1856E4"/>
<path opacity="0.5" d="M87.3099 278.623C87.3099 278.623 107.938 269.356 104.424 262.403C100.749 255.176 91.2904 265.345 86.7522 270.41C77.08 281.213 76.3389 284.254 79.6699 282.558L87.3099 278.623Z" fill="white"/>
<path d="M63.114 235.312C63.114 235.312 40.4385 217.106 34.5481 225.204C28.4361 233.608 45.5955 238.521 54.0377 240.752C72.0529 245.511 75.9645 244.572 72.0834 241.76L63.114 235.312Z" fill="#1856E4"/>
<path opacity="0.5" d="M63.114 235.312C63.114 235.312 40.4385 217.106 34.5481 225.204C28.4361 233.608 45.5955 238.521 54.0377 240.752C72.0529 245.511 75.9645 244.572 72.0834 241.76L63.114 235.312Z" fill="white"/>
<path d="M63.7864 250.523C63.7864 250.523 37.9479 237.184 33.7841 246.298C29.4522 255.78 47.2534 257.155 55.9401 257.659C74.5435 258.744 78.1954 257.048 73.833 255.061L63.7864 250.523Z" fill="#1856E4"/>
<path opacity="0.5" d="M63.7864 250.523C63.7864 250.523 37.9479 237.184 33.7841 246.298C29.4522 255.78 47.2534 257.155 55.9401 257.659C74.5435 258.744 78.1954 257.048 73.833 255.061L63.7864 250.523Z" fill="white"/>
<path d="M66.9111 267.576C66.9111 267.576 44.7551 256.88 41.447 264.695C38.0014 272.817 53.0827 273.565 60.4706 273.787C76.2243 274.276 79.2726 272.748 75.5367 271.22L66.9111 267.576Z" fill="#1856E4"/>
<path opacity="0.5" d="M66.9111 267.576C66.9111 267.576 44.7551 256.88 41.447 264.695C38.0014 272.817 53.0827 273.565 60.4706 273.787C76.2243 274.276 79.2726 272.748 75.5367 271.22L66.9111 267.576Z" fill="white"/>
<path d="M67.996 281.351C67.996 281.351 47.093 268.363 42.975 275.781C38.689 283.49 53.6099 285.835 60.929 286.844C76.5452 288.998 79.7311 287.814 76.209 285.851L67.996 281.351Z" fill="#1856E4"/>
<path opacity="0.5" d="M67.996 281.351C67.996 281.351 47.093 268.363 42.975 275.781C38.689 283.49 53.6099 285.835 60.929 286.844C76.5452 288.998 79.7311 287.814 76.209 285.851L67.996 281.351Z" fill="white"/>
<path d="M66.0172 212.247C66.0172 212.247 62.0903 178.15 49.2092 181.633C35.8316 185.27 47.0318 202.521 52.716 210.864C64.7948 228.619 69.2413 230.575 68.2863 225.029L66.0172 212.247Z" fill="#1856E4"/>
<path opacity="0.5" d="M66.0172 212.247C66.0172 212.247 62.0903 178.15 49.2092 181.633C35.8316 185.27 47.0318 202.521 52.716 210.864C64.7948 228.619 69.2413 230.575 68.2863 225.029L66.0172 212.247Z" fill="white"/>
<path d="M51.845 194.056C51.845 194.056 71.4493 230.789 74.49 247.842C77.9891 267.431 78.5545 289.312 76.1402 306.456" stroke="#1856E4" stroke-width="1.25197" stroke-linecap="round" stroke-linejoin="round"/>
<path d="M71.3958 236.496L80.9993 207.082" stroke="#1856E4" stroke-width="1.25197" stroke-linecap="round" stroke-linejoin="round"/>
<path d="M74.49 247.842L92.5662 225.113" stroke="#1856E4" stroke-width="1.25197" stroke-linecap="round" stroke-linejoin="round"/>
<path d="M73.3364 243.708L47.1617 232.714" stroke="#1856E4" stroke-width="1.25197" stroke-linecap="round" stroke-linejoin="round"/>
<path d="M76.7591 263.236L96.4397 248.155" stroke="#1856E4" stroke-width="1.25197" stroke-linecap="round" stroke-linejoin="round"/>
<path d="M75.7124 256.765L55.1532 252.487" stroke="#1856E4" stroke-width="1.25197" stroke-linecap="round" stroke-linejoin="round"/>
<path d="M76.698 272.511L60.7762 269.99" stroke="#1856E4" stroke-width="1.25197" stroke-linecap="round" stroke-linejoin="round"/>
<path d="M78.0426 282.703L88.7539 273.107" stroke="#1856E4" stroke-width="1.25197" stroke-linecap="round" stroke-linejoin="round"/>
<path d="M77.8287 287.02L59.5309 282.42" stroke="#1856E4" stroke-width="1.25197" stroke-linecap="round" stroke-linejoin="round"/>
<path d="M64.2753 292.62H85.9042V297.097H84.0171L80.1131 321.522H70.0665L66.1624 297.097H64.2753V292.62Z" fill="#1856E4"/>
<path opacity="0.5" d="M64.2753 292.62H85.9042V297.097H84.0171L80.1131 321.522H70.0665L66.1624 297.097H64.2753V292.62Z" fill="white"/>
<path d="M99.893 61.9757C98.9552 61.1378 97.8102 60.5662 96.5769 60.3204C95.3435 60.0745 94.0669 60.1633 92.8795 60.5776C88.6775 61.9757 84.6512 68.0495 85.6673 73.1912C86.3778 76.7514 89.6783 82.0001 90.6792 84.0018C91.68 86.0035 90.2742 89.388 87.096 96.4168C83.9178 103.446 82.6877 110.039 91.9016 115.845C101.115 121.652 111.544 112.438 116.892 105.829C122.24 99.2207 112.881 84.0018 112.079 77.5613C111.277 71.1208 109.901 58.7745 99.893 61.9757Z" fill="#263238"/>
<path d="M121.552 106.272C119.26 108.566 116.49 110.326 113.439 111.428C110.389 112.529 107.133 112.944 103.904 112.644L101.696 121.85L105.898 142.868L133.333 128.65L127.122 112.606L121.552 106.272Z" fill="#1856E4" stroke="#263238" stroke-linecap="round" stroke-linejoin="round"/>
<path opacity="0.3" d="M121.552 106.272C119.26 108.566 116.49 110.326 113.439 111.428C110.389 112.529 107.133 112.944 103.904 112.644L101.696 121.85L105.898 142.868L133.333 128.65L127.122 112.606L121.552 106.272Z" fill="#263238"/>
<path d="M121.552 106.272L117.35 78.4323L104.897 80.984L98.6859 84.9874C98.6859 84.9874 91.2751 90.8014 91.2751 91.3973C91.2751 91.9932 103.812 112.973 103.812 112.973C107.074 113.166 110.34 112.669 113.397 111.514C116.454 110.36 119.233 108.574 121.552 106.272Z" fill="white"/>
<path d="M121.552 106.272L117.35 78.4323L104.897 80.984L98.6859 84.9874C98.6859 84.9874 91.2751 90.8014 91.2751 91.3973C91.2751 91.9932 103.812 112.973 103.812 112.973C107.074 113.166 110.34 112.669 113.397 111.514C116.454 110.36 119.233 108.574 121.552 106.272Z" stroke="#263238" stroke-linecap="round" stroke-linejoin="round"/>
<path opacity="0.5" d="M104.844 105.081C104.844 105.081 113.622 98.5712 112.812 100.497C112.002 102.422 105.936 107.227 104.309 107.373C102.682 107.518 104.844 105.081 104.844 105.081Z" fill="#1856E4"/>
<path d="M105.111 92.719L105.455 93.0781L107.594 95.3395L108.144 104.026L110.765 103.614L108.694 95.4771L112.01 102.368L114.768 99.6103L108.839 94.2317L108.694 89.961L105.661 88.4406" fill="#263238"/>
<path d="M100.29 82.405C100.29 82.405 97.6851 83.6045 97.6851 86.0035C97.6851 88.4024 100.504 94.1095 102.269 95.309C104.034 96.5085 107.059 91.0153 107.059 91.0153C107.059 91.0153 111.643 93.2156 112.866 91.2139C114.088 89.2123 110.062 82.6037 107.464 80.8006C104.867 78.9976 100.29 82.405 100.29 82.405Z" fill="white" stroke="#263238" stroke-linecap="round" stroke-linejoin="round"/>
<path d="M98.09 79.9984C98.8063 81.8286 99.4085 83.7015 99.893 85.6062C100.29 87.6079 105.699 91.0153 106.295 91.214C106.891 91.4126 107.296 84.804 107.296 84.804L105.699 76.9959L98.09 79.9984Z" fill="white"/>
<mask id="mask0_341_1625" style="mask-type:luminance" maskUnits="userSpaceOnUse" x="98" y="76" width="10" height="16">
<path d="M98.09 79.9984C98.8063 81.8286 99.4085 83.7015 99.893 85.6062C100.29 87.6079 105.699 91.0153 106.295 91.214C106.891 91.4126 107.296 84.804 107.296 84.804L105.699 76.9959L98.09 79.9984Z" fill="white"/>
</mask>
<g mask="url(#mask0_341_1625)">
<g style="mix-blend-mode:multiply" opacity="0.5">
<path d="M105.867 77.8287C105.531 77.7344 105.189 77.663 104.844 77.6147L99.32 79.5629L98.5942 81.4577C98.9609 82.4814 99.427 83.8566 99.7096 84.9721C100.615 85.7022 101.709 86.1605 102.865 86.2938C104.523 86.4084 105.982 85.1249 107.013 83.551L105.867 77.8287Z" fill="#1856E4"/>
</g>
</g>
<path d="M98.09 79.9984C98.8063 81.8286 99.4085 83.7015 99.893 85.6062C100.29 87.6079 105.699 91.0153 106.295 91.214C106.891 91.4126 107.296 84.804 107.296 84.804L105.699 76.9959L98.09 79.9984Z" stroke="#263238" stroke-linecap="round" stroke-linejoin="round"/>
<path d="M94.4839 76.591C94.4839 76.591 92.2759 74.7956 92.2759 76.591C92.2759 78.3864 94.2853 79.3949 95.882 79.3949" fill="white"/>
<path d="M94.4839 76.591C94.4839 76.591 92.2759 74.7956 92.2759 76.591C92.2759 78.3864 94.2853 79.3949 95.882 79.3949" stroke="#263238" stroke-linecap="round" stroke-linejoin="round"/>
<path d="M106.295 70.7846C106.295 70.7846 107.701 68.5843 108.098 70.9909C108.281 72.5576 107.852 74.1344 106.899 75.3915L106.295 70.7846Z" fill="white" stroke="#263238" stroke-linecap="round" stroke-linejoin="round"/>
<g opacity="0.5">
<path d="M94.4839 76.591C94.4839 76.591 92.2759 74.7956 92.2759 76.591C92.2759 78.3864 94.2853 79.3949 95.882 79.3949" fill="#1856E4"/>
<path d="M94.4839 76.591C94.4839 76.591 92.2759 74.7956 92.2759 76.591C92.2759 78.3864 94.2853 79.3949 95.882 79.3949" stroke="#263238" stroke-linecap="round" stroke-linejoin="round"/>
</g>
<path opacity="0.5" d="M106.295 70.7846C106.295 70.7846 107.701 68.5843 108.098 70.9909C108.281 72.5576 107.852 74.1344 106.899 75.3915L106.295 70.7846Z" fill="#1856E4" stroke="#263238" stroke-linecap="round" stroke-linejoin="round"/>
<path d="M92.0009 70.7999C92.0009 70.7999 93.7199 77.9586 97.41 81.4959C101.1 85.0332 105.05 85.0638 106.418 78.7608C107.541 73.5656 104.752 66.6361 104.752 66.6361C104.752 66.6361 95.7521 59.2253 92.0009 70.7999Z" fill="white"/>
<mask id="mask1_341_1625" style="mask-type:luminance" maskUnits="userSpaceOnUse" x="92" y="64" width="15" height="20">
<path d="M92.0009 70.7999C92.0009 70.7999 93.7199 77.9586 97.41 81.4959C101.1 85.0332 105.05 85.0638 106.418 78.7608C107.541 73.5656 104.752 66.6361 104.752 66.6361C104.752 66.6361 95.7521 59.2253 92.0009 70.7999Z" fill="white"/>
</mask>
<g mask="url(#mask1_341_1625)">
<g style="mix-blend-mode:multiply" opacity="0.5">
<path d="M98.4109 64.3059L99.809 67.8203C99.809 67.8203 102.009 67.3313 103.247 69.99C104.485 72.6488 105.73 76.5452 105.019 79.563C104.34 82.4356 102.727 83.383 100.244 83.4517C102.949 84.6054 105.401 83.4517 106.418 78.7455C107.541 73.5503 104.752 66.6208 104.752 66.6208C104.752 66.6208 101.704 64.1225 98.4109 64.3059Z" fill="#1856E4"/>
</g>
</g>
<path d="M92.0009 70.7999C92.0009 70.7999 93.7199 77.9586 97.41 81.4959C101.1 85.0332 105.05 85.0638 106.418 78.7608C107.541 73.5656 104.752 66.6361 104.752 66.6361C104.752 66.6361 95.7521 59.2253 92.0009 70.7999Z" stroke="#263238" stroke-linecap="round" stroke-linejoin="round"/>
<path d="M98.831 74.5817C99.045 74.9866 99.0068 75.4221 98.747 75.5596C98.4872 75.6971 98.1052 75.4755 97.899 75.0706C97.6927 74.6657 97.7232 74.2379 97.983 74.1003C98.2428 73.9628 98.6248 74.1844 98.831 74.5817Z" fill="#263238"/>
<path d="M102.819 73.344C102.972 73.7718 102.873 74.1997 102.598 74.2914C102.323 74.383 101.971 74.1233 101.834 73.6954C101.696 73.2676 101.78 72.8398 102.055 72.7481C102.33 72.6564 102.666 72.9314 102.819 73.344Z" fill="#263238"/>
<path d="M103.094 71.052C102.782 70.8423 102.41 70.7407 102.035 70.7628C101.659 70.7849 101.301 70.9294 101.016 71.1742C99.9159 72.0299 101.994 76.316 101.994 76.316C101.994 76.316 102.032 77.6682 100.298 77.0418" stroke="#263238" stroke-width="0.5" stroke-linecap="round" stroke-linejoin="round"/>
<path d="M103.094 78.4323C102.975 78.7136 102.792 78.9634 102.56 79.1621C102.328 79.3607 102.053 79.5027 101.757 79.5767C101.46 79.6508 101.151 79.655 100.853 79.589C100.554 79.523 100.276 79.3885 100.038 79.1963" stroke="#263238" stroke-width="0.5" stroke-linecap="round" stroke-linejoin="round"/>
<path d="M98.4414 72.1904C98.4414 72.1904 96.4856 70.3491 95.6299 73.9017" stroke="#263238" stroke-width="0.5" stroke-linecap="round" stroke-linejoin="round"/>
<path d="M104.867 64.367C102.72 62.5029 100.986 62.5258 100.229 62.7703C99.5212 62.3285 98.716 62.0662 97.8837 62.0063C91.8787 61.2041 91.0765 65.8263 91.0765 70.2193C91.0765 74.6123 87.2565 79.8304 89.877 80.4339C90.5941 80.606 91.349 80.5195 92.0087 80.1897C92.6683 79.8599 93.1904 79.3079 93.4831 78.6309C93.4831 78.6309 96.2869 74.0469 96.2869 70.8152C96.2869 67.5835 99.7784 67.8891 99.7784 67.8891C99.9292 67.6665 100.126 67.4792 100.356 67.34C100.586 67.2008 100.843 67.1129 101.11 67.0824C101.377 67.0519 101.648 67.0796 101.903 67.1634C102.159 67.2473 102.393 67.3853 102.59 67.5682C104.179 68.9281 104.362 70.5249 105.646 70.9374C106.929 71.35 109.076 69.2872 109.076 69.2872C107.853 67.5011 106.442 65.8516 104.867 64.367Z" fill="#263238"/>
<path d="M99.9465 65.5665C99.9465 65.5665 97.5323 63.6259 95.3625 65.8033C93.1927 67.9807 93.4296 72.0987 92.7038 74.7651C91.978 77.4314 90.0374 77.9127 90.0374 77.9127" stroke="white" stroke-width="0.5" stroke-linecap="round" stroke-linejoin="round"/>
<path d="M98.258 64.8407C98.258 64.8407 95.6528 62.2584 92.3753 65.5283C89.877 68.0342 90.9924 69.6768 90.5034 73.7948" stroke="white" stroke-width="0.5" stroke-linecap="round" stroke-linejoin="round"/>
<path d="M101.161 64.3517C101.161 64.3517 105.745 62.1743 107.701 67.7439" stroke="white" stroke-width="0.5" stroke-linecap="round" stroke-linejoin="round"/>
<path d="M91.2751 91.4126L84.3456 119.299L104.668 125.059L105.669 121.453L92.3218 115.295L96.8523 99.2512C96.8523 99.2512 96.2564 96.2487 93.0323 92.8489" fill="white"/>
<mask id="mask2_341_1625" style="mask-type:luminance" maskUnits="userSpaceOnUse" x="84" y="91" width="22" height="35">
<path d="M91.2751 91.4126L84.3456 119.299L104.668 125.059L105.669 121.453L92.3218 115.295L96.8523 99.2512C96.8523 99.2512 96.2564 96.2487 93.0323 92.8489" fill="white"/>
</mask>
<g mask="url(#mask2_341_1625)">
<g style="mix-blend-mode:multiply" opacity="0.5">
<path d="M105.699 121.476L92.3523 115.318L96.8828 99.2741C96.528 97.9423 95.9521 96.6794 95.1791 95.5382L94.7436 95.2097V99.6409C94.7436 102.475 91.1987 111.513 89.9534 113.637C88.708 115.761 86.7675 118.42 86.7675 118.42L90.6639 116.647L105.432 122.561L105.699 121.476Z" fill="#1856E4"/>
</g>
</g>
<path d="M91.2751 91.4126L84.3456 119.299L104.668 125.059L105.669 121.453L92.3218 115.295L96.8523 99.2512C96.8523 99.2512 96.2564 96.2487 93.0323 92.8489" stroke="#263238" stroke-linecap="round" stroke-linejoin="round"/>
<path d="M148.415 99.786L133.028 96.5543L117.312 78.394L119.635 93.0017L129.276 102.185L148.651 103.071L148.415 99.786Z" fill="white"/>
<mask id="mask3_341_1625" style="mask-type:luminance" maskUnits="userSpaceOnUse" x="117" y="78" width="32" height="26">
<path d="M148.415 99.786L133.028 96.5543L117.312 78.394L119.635 93.0017L129.276 102.185L148.651 103.071L148.415 99.786Z" fill="white"/>
</mask>
<g mask="url(#mask3_341_1625)">
<g style="mix-blend-mode:multiply" opacity="0.5">
<path d="M117.312 78.394L119.184 90.0527L120.376 93.697L120.529 93.8345C120.979 93.3684 123.524 90.725 124.173 90.725C124.822 90.725 132.149 97.1044 131.087 97.601L130.018 98.1282L148.269 101.138L148.399 99.7402L133.043 96.5161L117.312 78.394Z" fill="#1856E4"/>
</g>
</g>
<path d="M148.415 99.786L133.028 96.5543L117.312 78.394L119.635 93.0017L129.276 102.185L148.651 103.071L148.415 99.786Z" stroke="#263238" stroke-linecap="round" stroke-linejoin="round"/>
<path d="M292.054 254.412L96.1112 225.701C95.4883 225.608 94.9275 225.272 94.5522 224.767C94.1769 224.261 94.0177 223.627 94.1095 223.004L110.429 111.682C110.473 111.373 110.579 111.077 110.738 110.81C110.898 110.542 111.108 110.309 111.358 110.123C111.608 109.937 111.892 109.802 112.194 109.726C112.496 109.65 112.81 109.634 113.118 109.68L116.831 110.222C117.301 110.293 117.782 110.22 118.21 110.013C118.638 109.805 118.993 109.474 119.23 109.061L124.158 100.542C124.307 100.275 124.51 100.041 124.754 99.8548C125.907 99.0206 127.341 98.6697 128.749 98.8769L178.142 106.12C179.25 106.279 180.282 106.775 181.099 107.541C181.316 107.759 181.488 108.019 181.603 108.305L185.996 119.184C186.15 119.569 186.403 119.906 186.729 120.162C187.054 120.419 187.442 120.584 187.852 120.643L309.061 138.414C309.684 138.505 310.245 138.839 310.622 139.343C310.999 139.847 311.16 140.48 311.07 141.103L294.751 252.418C294.657 253.04 294.32 253.598 293.815 253.972C293.309 254.346 292.676 254.504 292.054 254.412Z" fill="#263238" stroke="#263238" stroke-miterlimit="10"/>
<path d="M294.14 253.87H99.9236C99.3597 253.87 98.8014 253.759 98.2804 253.543C97.7595 253.327 97.2862 253.011 96.8875 252.612C96.4888 252.213 96.1725 251.74 95.9567 251.219C95.7409 250.698 95.6299 250.14 95.6299 249.576V140.905C95.6299 139.766 96.0823 138.674 96.8875 137.868C97.6927 137.063 98.7848 136.611 99.9236 136.611H100.451C101.31 136.609 102.15 136.351 102.862 135.869C103.574 135.387 104.125 134.704 104.446 133.906L107.403 126.473C107.734 125.615 108.338 124.89 109.122 124.41C109.965 123.912 110.925 123.649 111.903 123.646H161.823C162.494 123.645 163.159 123.767 163.786 124.005C164.658 124.356 165.385 124.991 165.849 125.808L170.93 134.464C171.308 135.111 171.85 135.647 172.5 136.019C173.15 136.392 173.886 136.588 174.635 136.588H294.14C295.279 136.588 296.371 137.04 297.176 137.846C297.981 138.651 298.434 139.743 298.434 140.882V249.576C298.434 250.14 298.323 250.698 298.107 251.219C297.891 251.74 297.575 252.213 297.176 252.612C296.777 253.011 296.304 253.327 295.783 253.543C295.262 253.759 294.704 253.87 294.14 253.87Z" fill="#1856E4"/>
<mask id="mask4_341_1625" style="mask-type:luminance" maskUnits="userSpaceOnUse" x="95" y="123" width="204" height="131">
<path d="M294.14 253.87H99.9236C99.3597 253.87 98.8014 253.759 98.2804 253.543C97.7595 253.327 97.2862 253.011 96.8875 252.612C96.4888 252.213 96.1725 251.74 95.9567 251.219C95.7409 250.698 95.6299 250.14 95.6299 249.576V140.905C95.6299 139.766 96.0823 138.674 96.8875 137.868C97.6927 137.063 98.7848 136.611 99.9236 136.611H100.451C101.31 136.609 102.15 136.351 102.862 135.869C103.574 135.387 104.125 134.704 104.446 133.906L107.403 126.473C107.734 125.615 108.338 124.89 109.122 124.41C109.965 123.912 110.925 123.649 111.903 123.646H161.823C162.494 123.645 163.159 123.767 163.786 124.005C164.658 124.356 165.385 124.991 165.849 125.808L170.93 134.464C171.308 135.111 171.85 135.647 172.5 136.019C173.15 136.392 173.886 136.588 174.635 136.588H294.14C295.279 136.588 296.371 137.04 297.176 137.846C297.981 138.651 298.434 139.743 298.434 140.882V249.576C298.434 250.14 298.323 250.698 298.107 251.219C297.891 251.74 297.575 252.213 297.176 252.612C296.777 253.011 296.304 253.327 295.783 253.543C295.262 253.759 294.704 253.87 294.14 253.87Z" fill="white"/>
</mask>
<g mask="url(#mask4_341_1625)">
<path opacity="0.1" d="M294.14 253.87H99.9236C99.3597 253.87 98.8014 253.759 98.2804 253.543C97.7595 253.327 97.2862 253.011 96.8875 252.612C96.4888 252.213 96.1725 251.74 95.9567 251.219C95.7409 250.698 95.6299 250.14 95.6299 249.576V140.905C95.6299 139.766 96.0823 138.674 96.8875 137.868C97.6927 137.063 98.7848 136.611 99.9236 136.611H100.451C101.31 136.609 102.15 136.351 102.862 135.869C103.574 135.387 104.125 134.704 104.446 133.906L107.403 126.473C107.734 125.615 108.338 124.89 109.122 124.41C109.965 123.912 110.925 123.649 111.903 123.646H161.823C162.494 123.645 163.159 123.767 163.786 124.005C164.658 124.356 165.385 124.991 165.849 125.808L170.93 134.464C171.308 135.111 171.85 135.647 172.5 136.019C173.15 136.392 173.886 136.588 174.635 136.588H294.14C295.279 136.588 296.371 137.04 297.176 137.846C297.981 138.651 298.434 139.743 298.434 140.882V249.576C298.434 250.14 298.323 250.698 298.107 251.219C297.891 251.74 297.575 252.213 297.176 252.612C296.777 253.011 296.304 253.327 295.783 253.543C295.262 253.759 294.704 253.87 294.14 253.87Z" fill="#263238"/>
</g>
<path d="M294.14 253.87H99.9236C99.3597 253.87 98.8014 253.759 98.2804 253.543C97.7595 253.327 97.2862 253.011 96.8875 252.612C96.4888 252.213 96.1725 251.74 95.9567 251.219C95.7409 250.698 95.6299 250.14 95.6299 249.576V140.905C95.6299 139.766 96.0823 138.674 96.8875 137.868C97.6927 137.063 98.7848 136.611 99.9236 136.611H100.451C101.31 136.609 102.15 136.351 102.862 135.869C103.574 135.387 104.125 134.704 104.446 133.906L107.403 126.473C107.734 125.615 108.338 124.89 109.122 124.41C109.965 123.912 110.925 123.649 111.903 123.646H161.823C162.494 123.645 163.159 123.767 163.786 124.005C164.658 124.356 165.385 124.991 165.849 125.808L170.93 134.464C171.308 135.111 171.85 135.647 172.5 136.019C173.15 136.392 173.886 136.588 174.635 136.588H294.14C295.279 136.588 296.371 137.04 297.176 137.846C297.981 138.651 298.434 139.743 298.434 140.882V249.576C298.434 250.14 298.323 250.698 298.107 251.219C297.891 251.74 297.575 252.213 297.176 252.612C296.777 253.011 296.304 253.327 295.783 253.543C295.262 253.759 294.704 253.87 294.14 253.87Z" stroke="#263238" stroke-miterlimit="10"/>
<path d="M150.508 136.244H119.428C118.687 136.244 117.976 135.95 117.451 135.425C116.927 134.901 116.632 134.19 116.632 133.448C116.631 133.08 116.703 132.716 116.843 132.376C116.983 132.035 117.189 131.726 117.449 131.466C117.708 131.205 118.017 130.999 118.357 130.858C118.696 130.717 119.061 130.644 119.428 130.644H150.508C151.252 130.644 151.965 130.939 152.491 131.465C153.016 131.991 153.312 132.704 153.312 133.448C153.312 133.816 153.239 134.18 153.098 134.52C152.957 134.86 152.751 135.168 152.49 135.428C152.23 135.688 151.921 135.893 151.58 136.034C151.24 136.174 150.876 136.245 150.508 136.244Z" fill="white"/>
<path d="M294.14 272.832H99.9236C98.7848 272.832 97.6927 272.38 96.8875 271.574C96.0823 270.769 95.6299 269.677 95.6299 268.538V159.867C95.6299 158.728 96.0823 157.636 96.8875 156.831C97.6927 156.026 98.7848 155.573 99.9236 155.573H100.451C101.311 155.573 102.151 155.315 102.863 154.833C103.575 154.351 104.126 153.667 104.446 152.869L107.403 145.443C107.732 144.583 108.336 143.858 109.122 143.38C109.963 142.879 110.924 142.615 111.903 142.616H161.823C162.494 142.615 163.159 142.737 163.786 142.975C164.66 143.326 165.387 143.965 165.849 144.786L170.93 153.449C171.308 154.096 171.85 154.632 172.5 155.005C173.15 155.377 173.886 155.573 174.635 155.573H294.14C295.279 155.573 296.371 156.026 297.176 156.831C297.981 157.636 298.434 158.728 298.434 159.867V268.538C298.434 269.677 297.981 270.769 297.176 271.574C296.371 272.38 295.279 272.832 294.14 272.832Z" fill="#263238" stroke="#263238" stroke-miterlimit="10"/>
<path d="M165.398 113.836L134.563 110.016C133.827 109.922 133.157 109.541 132.701 108.956C132.244 108.371 132.038 107.628 132.126 106.891C132.22 106.154 132.602 105.484 133.189 105.028C133.777 104.572 134.521 104.369 135.259 104.462L166.086 108.282C166.823 108.373 167.494 108.754 167.951 109.34C168.408 109.926 168.614 110.669 168.523 111.407C168.478 111.771 168.361 112.124 168.179 112.443C167.998 112.763 167.755 113.044 167.465 113.269C167.174 113.495 166.842 113.661 166.488 113.758C166.133 113.856 165.763 113.882 165.398 113.836Z" fill="#1856E4"/>
<path opacity="0.5" d="M165.398 113.836L134.563 110.016C133.827 109.922 133.157 109.541 132.701 108.956C132.244 108.371 132.038 107.628 132.126 106.891C132.22 106.154 132.602 105.484 133.189 105.028C133.777 104.572 134.521 104.369 135.259 104.462L166.086 108.282C166.823 108.373 167.494 108.754 167.951 109.34C168.408 109.926 168.614 110.669 168.523 111.407C168.478 111.771 168.361 112.124 168.179 112.443C167.998 112.763 167.755 113.044 167.465 113.269C167.174 113.495 166.842 113.661 166.488 113.758C166.133 113.856 165.763 113.882 165.398 113.836Z" fill="white"/>
<path d="M150.508 155.214H119.428C119.061 155.214 118.696 155.142 118.357 155.001C118.017 154.86 117.708 154.653 117.449 154.392C117.189 154.132 116.983 153.823 116.843 153.483C116.703 153.143 116.631 152.778 116.632 152.41C116.632 151.668 116.927 150.956 117.451 150.43C117.975 149.905 118.686 149.608 119.428 149.606H150.508C151.252 149.606 151.965 149.902 152.491 150.428C153.016 150.954 153.312 151.667 153.312 152.41C153.312 153.154 153.016 153.867 152.491 154.393C151.965 154.919 151.252 155.214 150.508 155.214Z" fill="#1856E4"/>
<path opacity="0.5" d="M150.508 155.214H119.428C119.061 155.214 118.696 155.142 118.357 155.001C118.017 154.86 117.708 154.653 117.449 154.392C117.189 154.132 116.983 153.823 116.843 153.483C116.703 153.143 116.631 152.778 116.632 152.41C116.632 151.668 116.927 150.956 117.451 150.43C117.975 149.905 118.686 149.608 119.428 149.606H150.508C151.252 149.606 151.965 149.902 152.491 150.428C153.016 150.954 153.312 151.667 153.312 152.41C153.312 153.154 153.016 153.867 152.491 154.393C151.965 154.919 151.252 155.214 150.508 155.214Z" fill="white"/>
<path d="M300.489 188.257H93.5671C91.3434 188.257 89.5408 190.06 89.5408 192.283V317.495C89.5408 319.719 91.3434 321.522 93.5671 321.522H300.489C302.712 321.522 304.515 319.719 304.515 317.495V192.283C304.515 190.06 302.712 188.257 300.489 188.257Z" fill="white"/>
<mask id="mask5_341_1625" style="mask-type:luminance" maskUnits="userSpaceOnUse" x="89" y="188" width="216" height="134">
<path d="M300.489 188.257H93.5671C91.3434 188.257 89.5408 190.06 89.5408 192.283V317.495C89.5408 319.719 91.3434 321.522 93.5671 321.522H300.489C302.712 321.522 304.515 319.719 304.515 317.495V192.283C304.515 190.06 302.712 188.257 300.489 188.257Z" fill="white"/>
</mask>
<g mask="url(#mask5_341_1625)">
<g style="mix-blend-mode:multiply">
<path d="M304.515 224.127C280.686 246.398 253.611 264.92 224.219 279.059C180.785 299.832 131.141 314.149 102.216 321.522H300.481C301.011 321.523 301.535 321.419 302.024 321.217C302.514 321.016 302.958 320.719 303.333 320.345C303.708 319.971 304.005 319.527 304.208 319.038C304.411 318.549 304.515 318.025 304.515 317.495V224.127Z" fill="#1856E4"/>
</g>
<path opacity="0.2" d="M304.515 224.127C280.686 246.398 253.611 264.92 224.219 279.059C180.785 299.832 131.141 314.149 102.216 321.522H300.481C301.011 321.523 301.535 321.419 302.024 321.217C302.514 321.016 302.958 320.719 303.333 320.345C303.708 319.971 304.005 319.527 304.208 319.038C304.411 318.549 304.515 318.025 304.515 317.495V224.127Z" fill="white"/>
</g>
<path d="M300.489 188.257H93.5671C91.3434 188.257 89.5408 190.06 89.5408 192.283V317.495C89.5408 319.719 91.3434 321.522 93.5671 321.522H300.489C302.712 321.522 304.515 319.719 304.515 317.495V192.283C304.515 190.06 302.712 188.257 300.489 188.257Z" stroke="#263238" stroke-miterlimit="10"/>
<path d="M92.6503 199.962V194.614C92.6523 193.545 93.0782 192.521 93.8345 191.766C94.5908 191.011 95.6157 190.587 96.6842 190.587H105.432" stroke="#263238" stroke-miterlimit="10"/>
<path d="M92.6503 281.183V206.479" stroke="#263238" stroke-miterlimit="10"/>
<path d="M301.398 306.67V315.127C301.399 315.656 301.296 316.181 301.094 316.67C300.892 317.16 300.595 317.604 300.221 317.979C299.847 318.354 299.403 318.651 298.914 318.854C298.425 319.057 297.901 319.161 297.372 319.161H290.32" stroke="#263238" stroke-miterlimit="10"/>
<path d="M301.398 198.082V300.382" stroke="#263238" stroke-miterlimit="10"/>
<path d="M228.986 236.985H165.062C163.91 236.985 162.977 237.919 162.977 239.071V271.686C162.977 272.838 163.91 273.772 165.062 273.772H228.986C230.138 273.772 231.072 272.838 231.072 271.686V239.071C231.072 237.919 230.138 236.985 228.986 236.985Z" fill="#263238" stroke="#263238" stroke-miterlimit="10"/>
<path d="M228.986 236.985H165.062C163.91 236.985 162.977 237.919 162.977 239.071V246.084C162.977 247.236 163.91 248.17 165.062 248.17H228.986C230.138 248.17 231.072 247.236 231.072 246.084V239.071C231.072 237.919 230.138 236.985 228.986 236.985Z" fill="white" stroke="#263238" stroke-miterlimit="10"/>
<path d="M104.668 125.059L106.066 127.664L109.038 129.804C109.225 129.941 109.449 130.019 109.68 130.027C109.912 130.035 110.141 129.973 110.337 129.849L110.597 129.681C110.786 129.567 110.926 129.387 110.992 129.176C111.058 128.965 111.045 128.737 110.956 128.535L109.267 124.654L110.406 125.541C110.586 125.68 110.814 125.743 111.041 125.718C111.268 125.692 111.475 125.579 111.62 125.403C111.746 125.246 111.815 125.05 111.815 124.849C111.815 124.648 111.746 124.452 111.62 124.295L108.969 120.941L105.654 121.453L104.668 125.059Z" fill="white" stroke="#263238" stroke-miterlimit="10"/>
<path d="M110.627 129.681L107.969 126.19" stroke="#263238" stroke-width="0.5" stroke-linecap="round" stroke-linejoin="round"/>
<path d="M109.069 129.804L106.983 127.038" stroke="#263238" stroke-width="0.5" stroke-linecap="round" stroke-linejoin="round"/>
<path d="M148.415 99.786L152.571 100.03L157.628 103.262C157.628 103.262 157.911 104.248 157.208 104.385C156.505 104.523 152.708 103.125 152.708 103.125L148.651 103.071L148.415 99.786Z" fill="white" stroke="#263238" stroke-miterlimit="10"/>
<path d="M148.629 102.559L152.991 104.53C152.991 104.53 153.694 103.545 152.708 103.125L151.272 102.139" fill="white"/>
<path d="M148.629 102.559L152.991 104.53C152.991 104.53 153.694 103.545 152.708 103.125L151.272 102.139" stroke="#263238" stroke-linejoin="round"/>
<path d="M302.75 177.065L300.947 171.671L298.923 168.897C298.889 168.847 298.84 168.809 298.783 168.789C298.726 168.769 298.663 168.769 298.606 168.788C298.548 168.807 298.499 168.845 298.465 168.895C298.431 168.945 298.415 169.005 298.418 169.066V177.057L299.946 179.066L302.75 177.065Z" fill="white"/>
<path d="M332.134 200.649L317.007 201.184C316.448 201.204 315.896 201.064 315.414 200.781C314.933 200.498 314.542 200.084 314.287 199.587L302.75 177.065C302.75 177.065 300.153 178.47 299.954 179.066C299.755 179.662 308.496 201.581 311.177 208.312C311.403 208.877 311.798 209.358 312.308 209.69C312.819 210.021 313.419 210.185 314.027 210.161L330.934 209.443" fill="white"/>
<path d="M332.134 200.649L317.007 201.184C316.448 201.204 315.896 201.064 315.414 200.781C314.933 200.498 314.542 200.084 314.287 199.587L302.75 177.065C302.75 177.065 300.153 178.47 299.954 179.066C299.755 179.662 308.496 201.581 311.177 208.312C311.403 208.877 311.798 209.358 312.308 209.69C312.819 210.021 313.419 210.185 314.027 210.161L330.934 209.443" stroke="#263238" stroke-miterlimit="10"/>
<path d="M303.858 179.869L301.49 180.846" stroke="#263238" stroke-width="0.75" stroke-miterlimit="10"/>
<g opacity="0.5">
<path d="M332.134 200.649L317.007 201.184C316.448 201.204 315.896 201.064 315.414 200.781C314.933 200.498 314.542 200.084 314.287 199.587L302.75 177.065C302.75 177.065 300.153 178.47 299.954 179.066C299.755 179.662 308.496 201.581 311.177 208.312C311.403 208.877 311.798 209.358 312.308 209.69C312.819 210.021 313.419 210.185 314.027 210.161L330.934 209.443" fill="#1856E4"/>
<path d="M332.134 200.649L317.007 201.184C316.448 201.204 315.896 201.064 315.414 200.781C314.933 200.498 314.542 200.084 314.287 199.587L302.75 177.065C302.75 177.065 300.153 178.47 299.954 179.066C299.755 179.662 308.496 201.581 311.177 208.312C311.403 208.877 311.798 209.358 312.308 209.69C312.819 210.021 313.419 210.185 314.027 210.161L330.934 209.443" stroke="#263238" stroke-miterlimit="10"/>
<path d="M303.858 179.868L301.49 180.846" stroke="#263238" stroke-width="0.75" stroke-miterlimit="10"/>
</g>
<path d="M302.75 177.065L300.947 171.671L298.923 168.897C298.889 168.847 298.84 168.809 298.783 168.789C298.726 168.769 298.663 168.769 298.606 168.788C298.548 168.807 298.499 168.845 298.465 168.895C298.431 168.945 298.415 169.005 298.418 169.066V177.057L299.946 179.066L302.75 177.065Z" fill="#1856E4"/>
<mask id="mask6_341_1625" style="mask-type:luminance" maskUnits="userSpaceOnUse" x="298" y="168" width="5" height="12">
<path d="M302.75 177.065L300.947 171.671L298.923 168.897C298.889 168.847 298.84 168.809 298.783 168.789C298.726 168.769 298.663 168.769 298.606 168.788C298.548 168.807 298.499 168.845 298.465 168.895C298.431 168.945 298.415 169.005 298.418 169.066V177.057L299.946 179.066L302.75 177.065Z" fill="white"/>
</mask>
<g mask="url(#mask6_341_1625)">
<path opacity="0.5" d="M302.75 177.065L300.947 171.671L298.923 168.897C298.889 168.847 298.84 168.809 298.783 168.789C298.726 168.769 298.663 168.769 298.606 168.788C298.548 168.807 298.499 168.845 298.465 168.895C298.431 168.945 298.415 169.005 298.418 169.066V177.057L299.946 179.066L302.75 177.065Z" fill="white"/>
</g>
<path d="M302.75 177.065L300.947 171.671L298.923 168.897C298.889 168.847 298.84 168.809 298.783 168.789C298.726 168.769 298.663 168.769 298.606 168.788C298.548 168.807 298.499 168.845 298.465 168.895C298.431 168.945 298.415 169.005 298.418 169.066V177.057L299.946 179.066L302.75 177.065Z" stroke="#263238" stroke-miterlimit="10"/>
<path d="M336.817 186.416C336.091 187.337 335.57 188.402 335.289 189.541C335.067 191.008 335.419 196.654 335.419 196.654L327.55 197.54C327.55 197.54 328.146 191.802 328.176 190.847C328.428 189.663 328.93 188.546 329.648 187.571C330.366 186.596 331.284 185.786 332.34 185.194C335.045 183.864 337.344 184.514 336.817 186.416Z" fill="white"/>
<mask id="mask7_341_1625" style="mask-type:luminance" maskUnits="userSpaceOnUse" x="327" y="184" width="10" height="14">
<path d="M336.817 186.416C336.091 187.337 335.57 188.402 335.289 189.541C335.067 191.008 335.419 196.654 335.419 196.654L327.55 197.54C327.55 197.54 328.146 191.802 328.176 190.847C328.428 189.663 328.93 188.546 329.648 187.571C330.366 186.596 331.284 185.786 332.34 185.194C335.045 183.864 337.344 184.514 336.817 186.416Z" fill="white"/>
</mask>
<g mask="url(#mask7_341_1625)">
<g style="mix-blend-mode:multiply" opacity="0.5">
<path d="M336.764 186.477C335.335 186.088 333.601 185.652 332.134 185.301C331.125 185.901 330.251 186.703 329.567 187.656C328.882 188.609 328.401 189.692 328.153 190.84C328.153 191.206 328.046 192.276 327.939 193.453C328.703 193.277 329.918 193.009 330.82 192.849C331.534 192.734 332.237 192.557 332.921 192.322L332.653 196.906H332.829L335.396 196.616C335.396 196.616 335.045 190.97 335.266 189.503C335.545 188.399 336.056 187.368 336.764 186.477Z" fill="#1856E4"/>
</g>
</g>
<path d="M336.817 186.416C336.091 187.337 335.57 188.402 335.289 189.541C335.067 191.008 335.419 196.654 335.419 196.654L327.55 197.54C327.55 197.54 328.146 191.802 328.176 190.847C328.428 189.663 328.93 188.546 329.648 187.571C330.366 186.596 331.284 185.786 332.34 185.194C335.045 183.864 337.344 184.514 336.817 186.416Z" stroke="#263238" stroke-width="1.00396" stroke-miterlimit="10"/>
<path d="M338.452 187.386C344.977 178.768 329.246 169.814 325.113 178.379C324.536 179.435 324.08 180.552 323.753 181.71C323.126 182.092 321.461 183.115 321.155 183.398C320.849 183.681 321.919 184.407 322.507 184.766C321.384 187.524 321.552 190.427 321.873 191.084C322.431 192.215 325.181 192.23 326.992 191.894C328.803 191.558 329.521 189.823 330.048 189.35C330.575 188.876 333.203 189.48 334.128 189.755C335.052 190.03 337.184 189.09 338.452 187.386Z" fill="white"/>
<mask id="mask8_341_1625" style="mask-type:luminance" maskUnits="userSpaceOnUse" x="321" y="174" width="20" height="19">
<path d="M338.452 187.386C344.977 178.768 329.246 169.814 325.113 178.379C324.536 179.435 324.08 180.552 323.753 181.71C323.126 182.092 321.461 183.115 321.155 183.398C320.849 183.681 321.919 184.407 322.507 184.766C321.384 187.524 321.552 190.427 321.873 191.084C322.431 192.215 325.181 192.23 326.992 191.894C328.803 191.558 329.521 189.823 330.048 189.35C330.575 188.876 333.203 189.48 334.128 189.755C335.052 190.03 337.184 189.09 338.452 187.386Z" fill="white"/>
</mask>
<g mask="url(#mask8_341_1625)">
<g style="mix-blend-mode:multiply" opacity="0.5">
<path d="M331.996 186.561C331.996 186.561 332.134 187.21 330.82 187.738C329.506 188.265 329.246 187.867 328.856 188.784C328.691 189.387 328.356 189.93 327.891 190.348C327.427 190.767 326.852 191.043 326.236 191.145C324.991 191.381 323.733 191.542 322.469 191.626C323.508 192.207 325.571 192.161 327.053 191.894C328.856 191.565 329.582 189.823 330.109 189.35C330.636 188.876 333.264 189.48 334.189 189.755C334.406 189.798 334.629 189.798 334.846 189.755C335.191 188.987 335.398 188.164 335.457 187.325L331.996 186.561Z" fill="#1856E4"/>
</g>
</g>
<path d="M338.452 187.386C344.977 178.768 329.246 169.814 325.113 178.379C324.536 179.435 324.08 180.552 323.753 181.71C323.126 182.092 321.461 183.115 321.155 183.398C320.849 183.681 321.919 184.407 322.507 184.766C321.384 187.524 321.552 190.427 321.873 191.084C322.431 192.215 325.181 192.23 326.992 191.894C328.803 191.558 329.521 189.823 330.048 189.35C330.575 188.876 333.203 189.48 334.128 189.755C335.052 190.03 337.184 189.09 338.452 187.386Z" stroke="#263238" stroke-miterlimit="10"/>
<path d="M325.709 182.466C325.54 182.833 325.258 183.062 325.074 182.978C324.891 182.894 324.876 182.527 325.074 182.16C325.273 181.794 325.525 181.565 325.709 181.649C325.892 181.733 325.877 182.099 325.709 182.466Z" fill="#263238"/>
<path d="M325.556 180.113C325.556 180.113 326.32 179.479 326.472 180.938" stroke="#263238" stroke-width="0.5" stroke-linecap="round" stroke-linejoin="round"/>
<path d="M322.355 186.248C322.355 186.248 322.355 187.012 323.73 187.012" stroke="#263238" stroke-width="0.5" stroke-linecap="round" stroke-linejoin="round"/>
<path d="M320.49 236.244L319.887 243.716C319.887 243.716 315.708 273.466 315.906 276.881C316.105 280.296 316.556 315.578 316.556 315.578L321.591 316.38L327.244 277.248L335.182 237.482L320.49 236.244Z" fill="#1856E4" stroke="#263238" stroke-miterlimit="10"/>
<path opacity="0.2" d="M320.49 236.244L319.887 243.716C319.887 243.716 315.708 273.466 315.906 276.881C316.105 280.296 316.556 315.578 316.556 315.578L321.591 316.38L327.244 277.248L335.182 237.482L320.49 236.244Z" fill="#263238"/>
<path d="M326.862 263.42C326.862 263.42 324.929 274.796 323.47 280.373C322.011 285.95 322.018 291.512 322.018 297.563C322.018 303.614 319.841 314.768 319.841 314.768" stroke="#263238" stroke-width="0.75" stroke-miterlimit="10"/>
<path d="M330.705 234.41C334.021 232.669 337.581 231.515 338.597 233.83C340.614 238.46 338.2 245.496 338.2 245.496L340.041 277.951L343.41 317.106L338.376 316.296C338.376 316.296 330.644 283.253 329.437 281.236C328.23 279.219 326.327 250.928 326.327 250.928L322.507 247.452" fill="#1856E4"/>
<path d="M330.705 234.41C334.021 232.669 337.581 231.515 338.597 233.83C340.614 238.46 338.2 245.496 338.2 245.496L340.041 277.951L343.41 317.106L338.376 316.296C338.376 316.296 330.644 283.253 329.437 281.236C328.23 279.219 326.327 250.928 326.327 250.928L322.507 247.452" stroke="#263238" stroke-miterlimit="10"/>
<g opacity="0.2">
<path d="M330.705 234.41C334.021 232.669 337.581 231.515 338.597 233.83C340.614 238.46 338.2 245.496 338.2 245.496L340.041 277.951L343.41 317.106L338.376 316.296C338.376 316.296 330.644 283.253 329.437 281.236C328.23 279.219 326.327 250.928 326.327 250.928L322.507 247.452" fill="#263238"/>
</g>
<path d="M334.632 258.996C334.747 266.521 335.511 270.143 336.107 272.129C336.832 274.551 336.588 279.15 336.588 281.297C336.588 283.444 335.618 280.816 337.803 290.748C339.988 300.68 341.432 314.478 341.432 314.478" stroke="#263238" stroke-width="0.75" stroke-miterlimit="10"/>
<path d="M334.632 242.593C334.632 242.593 334.869 242.104 334.632 253.488C334.632 254.099 334.632 254.687 334.632 255.26" stroke="#263238" stroke-width="0.75" stroke-miterlimit="10"/>
<path d="M323.455 240.431L323.294 243.838L322.507 246.207L323.684 247.582" stroke="#263238" stroke-width="0.75" stroke-linecap="round" stroke-linejoin="round"/>
<path d="M321.911 242.463C321.911 242.463 323.883 244.434 329.001 243.838" stroke="#263238" stroke-width="0.75" stroke-linecap="round" stroke-linejoin="round"/>
<path d="M334.006 240.759C337.826 239.995 338.07 238.941 339.392 238.055C339.416 236.61 339.157 235.174 338.628 233.83C337.627 231.538 334.044 232.669 330.736 234.41L329.131 236.947L320.521 236.244L320.246 239.621C324.667 241.138 329.396 241.529 334.006 240.759Z" fill="#263238"/>
<path d="M321.354 238.582L321.27 239.927L323.455 240.431L323.623 238.666L321.354 238.582Z" fill="white" stroke="#263238" stroke-width="0.75" stroke-miterlimit="10"/>
<path d="M336.603 240.576L336.236 237.23L337.344 236.863L337.902 239.835" fill="#1856E4"/>
<path d="M336.603 240.576L336.236 237.23L337.344 236.863L337.902 239.835" stroke="#263238" stroke-miterlimit="10"/>
<path d="M328.062 241.691L327.321 237.787H329.177L329.918 241.134" fill="#1856E4"/>
<path d="M328.062 241.691L327.321 237.787H329.177L329.918 241.134" stroke="#263238" stroke-miterlimit="10"/>
<g opacity="0.2">
<path d="M336.603 240.576L336.236 237.23L337.344 236.863L337.902 239.835" fill="#263238"/>
<path d="M328.062 241.691L327.321 237.787H329.177L329.918 241.134" fill="#263238"/>
</g>
<path d="M319.505 206.631C319.505 206.631 318.871 210.872 316.968 218.091C315.066 225.311 313.148 233.967 313.148 233.967L314.21 238.414L317.381 233.753L319.505 206.631Z" fill="#263238" stroke="#263238" stroke-miterlimit="10"/>
<path d="M324.799 200.497C324.799 200.497 320.353 201.551 319.933 203.667C319.706 204.641 319.563 205.633 319.505 206.631L326.281 201.131L334.754 197.739L324.799 200.497Z" fill="#263238" stroke="#263238" stroke-miterlimit="10"/>
<path d="M326.014 198.862C326.014 198.862 322.4 202.949 320.964 204.63C319.528 206.311 319.52 224.349 319.52 227C319.52 229.651 318.084 236.848 320.483 238.292C322.882 239.736 337.558 239.254 339.002 236.848C340.446 234.441 341.401 205.592 341.164 202.949C340.984 201.763 340.517 200.639 339.803 199.675C339.09 198.711 338.151 197.936 337.069 197.418C335.396 196.646 326.014 198.862 326.014 198.862Z" fill="white"/>
<mask id="mask9_341_1625" style="mask-type:luminance" maskUnits="userSpaceOnUse" x="319" y="197" width="23" height="43">
<path d="M326.014 198.862C326.014 198.862 322.4 202.949 320.964 204.63C319.528 206.311 319.52 224.349 319.52 227C319.52 229.651 318.084 236.848 320.483 238.292C322.882 239.736 337.558 239.254 339.002 236.848C340.446 234.441 341.401 205.592 341.164 202.949C340.984 201.763 340.517 200.639 339.803 199.675C339.09 198.711 338.151 197.936 337.069 197.418C335.396 196.646 326.014 198.862 326.014 198.862Z" fill="white"/>
</mask>
<g mask="url(#mask9_341_1625)">
<g style="mix-blend-mode:multiply" opacity="0.5">
<path d="M337.069 197.418C336.87 197.337 336.658 197.29 336.443 197.28L335.404 197.822C337.153 199.255 338.356 201.246 338.811 203.461C339.294 206.678 339.25 209.953 338.681 213.156C338.162 216.693 329.773 213.156 331.347 214.47C332.921 215.784 338.811 218.007 339.078 219.184C339.346 220.36 336.16 222.324 335.014 222.461C333.868 222.599 335.778 225.212 336.977 227.435C338.177 229.658 337.741 232.783 335.014 234.907C332.287 237.031 325.953 238.078 323.218 238.185C322.332 238.185 321.782 238.414 321.613 238.674C325.815 239.613 337.711 239.002 339.002 236.848C340.446 234.441 341.401 205.592 341.164 202.949C340.984 201.763 340.517 200.639 339.803 199.675C339.09 198.711 338.151 197.936 337.069 197.418Z" fill="#1856E4"/>
</g>
</g>
<path d="M326.014 198.862C326.014 198.862 322.4 202.949 320.964 204.63C319.528 206.311 319.52 224.349 319.52 227C319.52 229.651 318.084 236.848 320.483 238.292C322.882 239.736 337.558 239.254 339.002 236.848C340.446 234.441 341.401 205.592 341.164 202.949C340.984 201.763 340.517 200.639 339.803 199.675C339.09 198.711 338.151 197.936 337.069 197.418C335.396 196.646 326.014 198.862 326.014 198.862Z" stroke="#263238" stroke-miterlimit="10"/>
<path d="M333.402 217.159C329.528 215.952 326.136 212.575 326.136 212.575C326.996 216.588 329.33 220.132 332.676 222.507" fill="white"/>
<path d="M333.402 217.159C329.528 215.952 326.136 212.575 326.136 212.575C326.996 216.588 329.33 220.132 332.676 222.507" stroke="#263238" stroke-width="0.75" stroke-linecap="round" stroke-linejoin="round"/>
<path d="M336.351 194.774L324.807 197.418L324.089 200.787L337.069 197.418L336.351 194.774Z" fill="white" stroke="#263238" stroke-miterlimit="10"/>
<path d="M322.263 321.422L321.591 316.349L316.556 315.547L312.361 318.534L308.603 320.597V321.422H322.263Z" fill="#263238" stroke="#263238" stroke-miterlimit="10"/>
<path d="M344.037 321.82L343.41 317.106L338.376 316.296L334.181 319.283L330.422 321.354V321.82H344.037Z" fill="#263238" stroke="#263238" stroke-miterlimit="10"/>
<path d="M300.55 172.664L297.448 170.869C297.448 170.869 296.241 170.723 296.761 172.068L299.862 174.459" fill="white"/>
<path d="M300.55 172.664L297.448 170.869C297.448 170.869 296.241 170.723 296.761 172.068L299.862 174.459" stroke="#263238" stroke-linecap="round" stroke-linejoin="round"/>
<path d="M300.092 177.332C299.946 176.964 299.73 176.626 299.457 176.339L298.877 175.712L295.721 171.801C295.721 171.801 294.744 171.144 294.957 172.565L296.913 176.385L293.437 173.122C293.437 173.122 292.78 172.58 292.78 173.344C292.78 174.108 295.935 177.477 295.935 177.477L292.452 175.842C292.452 175.842 291.688 176.385 292.238 176.927C292.788 177.47 295.714 178.562 295.714 178.562L293.109 178.455C293.109 178.455 292.345 179.105 292.887 179.326C293.429 179.548 296.478 180.189 296.478 180.189C296.865 180.519 297.307 180.777 297.784 180.953L298.548 182.367L301.474 180.892L300.092 177.332Z" fill="white" stroke="#263238" stroke-linecap="round" stroke-linejoin="round"/>
<path d="M331.332 211.246L313.897 215.333C313.005 215.491 312.085 215.334 311.295 214.889C310.506 214.445 309.894 213.741 309.565 212.896L298.564 182.336L301.49 180.862L313.645 203.377C313.921 203.892 314.355 204.304 314.883 204.553C315.412 204.802 316.006 204.875 316.579 204.76L329.91 200.993" fill="white"/>
<path d="M331.332 211.246L313.897 215.333C313.005 215.491 312.085 215.334 311.295 214.889C310.506 214.445 309.894 213.741 309.565 212.896L298.564 182.336L301.49 180.862L313.645 203.377C313.921 203.892 314.355 204.304 314.883 204.553C315.412 204.802 316.006 204.875 316.579 204.76L329.91 200.993" stroke="#263238" stroke-miterlimit="10"/>
<path d="M303.132 183.742L299.74 185.438" stroke="#263238" stroke-width="0.75" stroke-miterlimit="10"/>
<path d="M329.162 178.47C329.162 178.47 327.305 180.327 328.23 181.717C328.777 182.52 329.195 183.405 329.467 184.338C329.467 184.338 328.703 186.194 329.315 186.194C329.926 186.194 329.62 184.804 330.705 185.117C331.79 185.43 332.867 187.279 331.943 187.898C331.251 188.285 330.518 188.592 329.758 188.815C329.661 188.845 329.575 188.902 329.51 188.98C329.445 189.058 329.405 189.153 329.393 189.254C329.382 189.354 329.4 189.456 329.446 189.546C329.492 189.637 329.563 189.712 329.651 189.762C330.656 190.441 331.813 190.861 333.02 190.985C334.007 191.006 334.992 190.903 335.954 190.679C335.954 190.679 339.01 186.508 341.21 185.423C343.41 184.338 342.448 179.395 342.448 178.776C342.448 178.157 340.286 176.767 340.286 176.767C340.286 176.767 340.904 175.376 338.123 172.29C335.343 169.203 330.086 168.577 329.933 169.662C329.88 169.949 329.909 170.245 330.019 170.516C330.129 170.787 330.314 171.021 330.552 171.19C330.552 171.19 325.915 169.18 323.753 171.342C321.591 173.504 329.162 178.47 329.162 178.47Z" fill="#263238" stroke="#263238" stroke-miterlimit="10"/>
<path d="M329.162 178.47C329.162 178.47 332.921 183.054 338.49 183.497" stroke="white" stroke-width="0.5" stroke-linecap="round" stroke-linejoin="round"/>
<path d="M327.832 179.869C327.832 179.869 329.582 184.957 336.817 186.408" stroke="white" stroke-width="0.5" stroke-linecap="round" stroke-linejoin="round"/>
</svg>
