<svg width="382" height="382" viewBox="0 0 382 382" fill="none" xmlns="http://www.w3.org/2000/svg">
<path d="M139.85 45.5497H84.9797V148.988H139.85V45.5497Z" fill="#E6E6E6"/>
<path d="M137.161 45.5497H72.7099V148.988H137.161V45.5497Z" fill="#F0F0F0"/>
<path d="M127.336 54.7406H82.5044V139.804H127.336V54.7406Z" fill="white"/>
<path d="M114.165 72.6487H96.2793V122.355H114.165V72.6487Z" fill="#F0F0F0"/>
<path d="M326.511 43.7084H271.64V147.146H326.511V43.7084Z" fill="#E6E6E6"/>
<path d="M323.814 43.7084H259.363V147.146H323.814V43.7084Z" fill="#F0F0F0"/>
<path d="M313.996 52.8994H269.165V137.963H313.996V52.8994Z" fill="white"/>
<path d="M300.825 70.8075H282.94V120.513H300.825V70.8075Z" fill="#F0F0F0"/>
<path d="M326.281 273.306C326.266 272.931 325.013 235.809 318.97 229.933C313.095 224.226 306.356 229.72 306.074 229.956L305.47 229.231C305.547 229.169 313.156 222.958 319.635 229.253C325.945 235.388 327.183 271.732 327.229 273.275L326.281 273.306Z" fill="#E0E0E0"/>
<path d="M326.801 280.602C326.755 280.159 322.675 236.03 338.788 217.534L339.499 218.153C323.653 236.343 327.695 280.067 327.741 280.503L326.801 280.594V280.602Z" fill="#E0E0E0"/>
<path d="M326.205 275.934L325.265 275.873C325.296 275.376 328.421 225.709 316.602 214.837L317.243 214.142C329.399 225.319 326.35 273.879 326.213 275.942L326.205 275.934Z" fill="#E0E0E0"/>
<path d="M327.741 275.911H326.793C326.809 274.536 327.183 242.356 336.32 237.115C338.353 235.946 340.339 235.755 342.234 236.534C347.758 238.819 350.5 248.659 350.615 249.072L349.706 249.324C349.683 249.225 346.978 239.514 341.875 237.405C340.27 236.741 338.559 236.916 336.794 237.933C328.123 242.906 327.741 275.575 327.741 275.903V275.911Z" fill="#E0E0E0"/>
<path d="M324.18 275.934L323.241 275.88C323.256 275.628 324.616 250.455 317.824 241.584C316.181 239.438 314.394 238.414 312.499 238.544C308.045 238.857 304.316 245.366 304.278 245.435L303.453 244.969C303.614 244.686 307.472 237.948 312.43 237.604C314.646 237.444 316.716 238.597 318.573 241.011C325.579 250.157 324.242 274.895 324.18 275.942V275.934Z" fill="#E0E0E0"/>
<path d="M325.67 279.357C325.487 276.912 321.231 219.428 328.719 209.298L329.475 209.856C322.194 219.704 326.564 278.684 326.61 279.28L325.67 279.349V279.357Z" fill="#E0E0E0"/>
<path d="M344.281 242.364C344.281 242.364 339.789 244.022 341.126 247.933C342.463 251.845 356.666 258.278 356.666 258.278C356.666 258.278 362.617 252.823 357.155 243.953C351.692 235.083 344.404 239.567 344.281 242.364Z" fill="#EBEBEB"/>
<path d="M324.746 234.922C324.746 234.922 329.528 234.724 329.804 238.842C330.079 242.967 319.436 254.374 319.436 254.374C319.436 254.374 311.842 251.631 313.477 241.34C315.104 231.049 323.554 232.386 324.746 234.922Z" fill="#EBEBEB"/>
<path d="M320.697 215.181C320.697 215.181 323.89 214.837 323.63 212.896C323.371 210.956 311.231 205.952 304.064 214.042C304.064 214.042 308.648 221.919 315.28 222.026C321.911 222.125 320.689 215.188 320.689 215.188L320.697 215.181Z" fill="#EBEBEB"/>
<path d="M326.641 210.467C326.641 210.467 323.753 211.865 322.943 210.077C322.133 208.289 329.796 197.624 340.148 200.703C340.148 200.703 340.423 209.817 334.846 213.408C329.269 217.007 326.633 210.467 326.633 210.467H326.641Z" fill="#EBEBEB"/>
<path d="M311.536 240.79C311.536 240.79 313.737 239.01 311.361 238.146C308.985 237.276 297.326 237.528 297.204 249.072C297.204 249.072 310.78 251.325 312.461 246.932C314.142 242.532 311.529 240.79 311.529 240.79H311.536Z" fill="#EBEBEB"/>
<path d="M339.224 214.89C339.224 214.89 337.023 213.11 339.399 212.247C341.775 211.376 353.434 211.628 353.556 223.172C353.556 223.172 339.98 225.426 338.299 221.033C336.618 216.632 339.231 214.89 339.231 214.89H339.224Z" fill="#EBEBEB"/>
<path d="M332.042 224.196C332.042 224.196 331.851 222.034 333.593 222.882C335.335 223.73 341.416 230.285 335.113 236.504C335.113 236.504 326.633 230.224 328.161 226.954C329.689 223.684 332.042 224.196 332.042 224.196Z" fill="#EBEBEB"/>
<path d="M309.565 227.275C309.565 227.275 310.879 225.548 308.954 225.334C307.029 225.12 298.388 227.427 300.397 236.045C300.397 236.045 310.917 235.251 311.368 231.675C311.819 228.092 309.558 227.275 309.558 227.275H309.565Z" fill="#EBEBEB"/>
<path d="M336.588 292.566H315.364L309.718 266.521H341.699L336.588 292.566Z" fill="#F0F0F0"/>
<path d="M343.54 266.147H307.793V273.634H343.54V266.147Z" fill="#E6E6E6"/>
<path d="M52.1812 273.306C52.1659 272.931 50.913 235.809 44.8697 229.933C38.9946 224.226 32.2561 229.72 31.9734 229.956L31.3698 229.231C31.4462 229.169 39.0557 222.958 45.5344 229.253C51.845 235.388 53.0827 271.732 53.1286 273.275L52.1812 273.306Z" fill="#E0E0E0"/>
<path d="M52.6931 280.602C52.6472 280.159 48.5675 236.03 64.6802 217.534L65.3908 218.153C49.5454 236.343 53.587 280.067 53.6328 280.503L52.6931 280.594V280.602Z" fill="#E0E0E0"/>
<path d="M52.0972 275.934L51.1574 275.873C51.188 275.376 54.3128 225.709 42.4937 214.837L43.1354 214.142C55.2907 225.319 52.2423 273.879 52.1048 275.942L52.0972 275.934Z" fill="#E0E0E0"/>
<path d="M53.6404 275.911H52.6931C52.7084 274.536 53.0827 242.356 62.2202 237.115C64.2524 235.946 66.2388 235.755 68.1335 236.534C73.6572 238.819 76.4 248.659 76.5146 249.072L75.6054 249.324C75.5825 249.225 72.878 239.514 67.7744 237.405C66.17 236.741 64.4587 236.916 62.6938 237.933C54.0224 242.906 53.6404 275.575 53.6404 275.903V275.911Z" fill="#E0E0E0"/>
<path d="M50.0802 275.934L49.1405 275.88C49.1558 275.628 50.5157 250.455 43.7237 241.584C42.0811 239.438 40.2934 238.414 38.3986 238.544C33.9445 238.857 30.2162 245.366 30.178 245.435L29.3529 244.969C29.5133 244.686 33.3715 237.948 38.3299 237.604C40.5455 237.444 42.6159 238.597 44.4724 241.011C51.4783 250.157 50.1413 274.895 50.0802 275.942V275.934Z" fill="#E0E0E0"/>
<path d="M51.57 279.357C51.3866 276.912 47.1312 219.428 54.6184 209.298L55.3747 209.856C48.0938 219.704 52.4639 278.684 52.5097 279.28L51.57 279.349V279.357Z" fill="#E0E0E0"/>
<path d="M70.1734 242.364C70.1734 242.364 65.6811 244.022 67.0181 247.933C68.3551 251.845 82.5578 258.278 82.5578 258.278C82.5578 258.278 88.5094 252.823 83.0468 243.953C77.5842 235.083 70.2956 239.567 70.1734 242.364Z" fill="#EBEBEB"/>
<path d="M50.6456 234.922C50.6456 234.922 55.4282 234.724 55.7032 238.842C55.9783 242.967 45.3358 254.374 45.3358 254.374C45.3358 254.374 37.7416 251.631 39.3766 241.34C41.0039 231.049 49.4537 232.386 50.6456 234.922Z" fill="#EBEBEB"/>
<path d="M46.5964 215.181C46.5964 215.181 49.7899 214.837 49.5301 212.896C49.2704 210.956 37.1304 205.952 29.9641 214.042C29.9641 214.042 34.5481 221.919 41.1796 222.026C47.8111 222.125 46.5887 215.188 46.5887 215.188L46.5964 215.181Z" fill="#EBEBEB"/>
<path d="M52.5403 210.467C52.5403 210.467 49.6524 211.865 48.8425 210.077C48.0327 208.289 55.6956 197.624 66.0478 200.703C66.0478 200.703 66.3228 209.817 60.7456 213.408C55.1684 217.007 52.5326 210.467 52.5326 210.467H52.5403Z" fill="#EBEBEB"/>
<path d="M37.436 240.79C37.436 240.79 39.6363 239.01 37.2603 238.146C34.8842 237.276 23.2256 237.528 23.1034 249.072C23.1034 249.072 36.6796 251.325 38.3604 246.932C40.0412 242.532 37.4284 240.79 37.4284 240.79H37.436Z" fill="#EBEBEB"/>
<path d="M65.1234 214.89C65.1234 214.89 62.923 213.11 65.2991 212.247C67.6751 211.376 79.3338 211.628 79.456 223.172C79.456 223.172 65.8797 225.426 64.1989 221.033C62.5181 216.632 65.131 214.89 65.131 214.89H65.1234Z" fill="#EBEBEB"/>
<path d="M57.9418 224.196C57.9418 224.196 57.7508 222.034 59.4927 222.882C61.2346 223.73 67.316 230.285 61.013 236.504C61.013 236.504 52.5326 230.224 54.0606 226.954C55.5886 223.684 57.9418 224.196 57.9418 224.196Z" fill="#EBEBEB"/>
<path d="M35.4649 227.275C35.4649 227.275 36.779 225.548 34.8537 225.334C32.9284 225.12 24.2876 227.427 26.2969 236.045C26.2969 236.045 36.8172 235.251 37.2679 231.675C37.7187 228.092 35.4572 227.275 35.4572 227.275H35.4649Z" fill="#EBEBEB"/>
<path d="M62.4876 292.566H41.2636L35.6177 266.521H67.5911L62.4876 292.566Z" fill="#F0F0F0"/>
<path d="M69.44 266.147H33.6924V273.634H69.44V266.147Z" fill="#E6E6E6"/>
<path d="M142.127 273.306C142.112 272.931 140.859 235.809 134.815 229.933C128.94 224.226 122.202 229.72 121.919 229.956L121.316 229.231C121.392 229.169 129.001 222.958 135.48 229.253C141.791 235.388 143.028 271.732 143.074 273.275L142.127 273.306Z" fill="#E0E0E0"/>
<path d="M142.646 280.602C142.601 280.159 138.521 236.03 154.634 217.534L155.344 218.153C139.499 236.343 143.54 280.067 143.586 280.503L142.646 280.594V280.602Z" fill="#E0E0E0"/>
<path d="M142.051 275.934L141.111 275.873C141.141 275.376 144.266 225.709 132.447 214.837L133.089 214.142C145.244 225.319 142.196 273.879 142.058 275.942L142.051 275.934Z" fill="#E0E0E0"/>
<path d="M143.586 275.911H142.639C142.654 274.536 143.028 242.356 152.166 237.115C154.198 235.946 156.185 235.755 158.079 236.534C163.603 238.819 166.346 248.659 166.46 249.072L165.551 249.324C165.528 249.225 162.824 239.514 157.72 237.405C156.116 236.741 154.404 236.916 152.64 237.933C143.968 242.906 143.586 275.575 143.586 275.903V275.911Z" fill="#E0E0E0"/>
<path d="M140.034 275.934L139.094 275.88C139.109 275.628 140.469 250.455 133.677 241.584C132.034 239.438 130.247 238.414 128.352 238.544C123.898 238.857 120.17 245.366 120.131 245.435L119.306 244.969C119.467 244.686 123.325 237.948 128.283 237.604C130.499 237.444 132.569 238.597 134.426 241.011C141.432 250.157 140.095 274.895 140.034 275.942V275.934Z" fill="#E0E0E0"/>
<path d="M141.523 279.357C141.34 276.912 137.085 219.428 144.572 209.298L145.328 209.856C138.047 219.704 142.417 278.684 142.463 279.28L141.523 279.349V279.357Z" fill="#E0E0E0"/>
<path d="M160.127 242.364C160.127 242.364 155.634 244.022 156.971 247.933C158.308 251.845 172.511 258.278 172.511 258.278C172.511 258.278 178.463 252.823 173 243.953C167.538 235.083 160.249 239.567 160.127 242.364Z" fill="#EBEBEB"/>
<path d="M140.591 234.922C140.591 234.922 145.374 234.724 145.649 238.842C145.924 242.967 135.281 254.374 135.281 254.374C135.281 254.374 127.687 251.631 129.322 241.34C130.95 231.049 139.399 232.386 140.591 234.922Z" fill="#EBEBEB"/>
<path d="M136.542 215.181C136.542 215.181 139.736 214.837 139.476 212.896C139.216 210.956 127.076 205.952 119.91 214.042C119.91 214.042 124.494 221.919 131.125 222.026C137.757 222.125 136.534 215.188 136.534 215.188L136.542 215.181Z" fill="#EBEBEB"/>
<path d="M142.486 210.467C142.486 210.467 139.598 211.865 138.788 210.077C137.978 208.289 145.641 197.624 155.994 200.703C155.994 200.703 156.269 209.817 150.691 213.408C145.114 217.007 142.478 210.467 142.478 210.467H142.486Z" fill="#EBEBEB"/>
<path d="M127.382 240.79C127.382 240.79 129.582 239.01 127.206 238.146C124.83 237.276 113.171 237.528 113.049 249.072C113.049 249.072 126.625 251.325 128.306 246.932C129.987 242.532 127.374 240.79 127.374 240.79H127.382Z" fill="#EBEBEB"/>
<path d="M155.069 214.89C155.069 214.89 152.869 213.11 155.245 212.247C157.621 211.376 169.279 211.628 169.402 223.172C169.402 223.172 155.825 225.426 154.145 221.033C152.464 216.632 155.077 214.89 155.077 214.89H155.069Z" fill="#EBEBEB"/>
<path d="M147.895 224.196C147.895 224.196 147.704 222.034 149.446 222.882C151.188 223.73 157.269 230.285 150.966 236.504C150.966 236.504 142.486 230.224 144.014 226.954C145.542 223.684 147.895 224.196 147.895 224.196Z" fill="#EBEBEB"/>
<path d="M125.418 227.275C125.418 227.275 126.732 225.548 124.807 225.334C122.882 225.12 114.241 227.427 116.25 236.045C116.25 236.045 126.771 235.251 127.221 231.675C127.672 228.092 125.411 227.275 125.411 227.275H125.418Z" fill="#EBEBEB"/>
<path d="M152.433 292.566H131.209L125.563 266.521H157.544L152.433 292.566Z" fill="#F0F0F0"/>
<path d="M159.386 266.147H123.638V273.634H159.386V266.147Z" fill="#E6E6E6"/>
<path d="M339.155 245.626H201.062C198.594 245.626 196.585 243.617 196.585 241.149V40.003C196.585 37.5353 198.594 35.526 201.062 35.526H339.155C341.623 35.526 343.632 37.5353 343.632 40.003V241.149C343.632 243.617 341.623 245.626 339.155 245.626ZM201.062 35.717C198.701 35.717 196.776 37.6423 196.776 40.003V241.149C196.776 243.51 198.701 245.435 201.062 245.435H339.155C341.516 245.435 343.441 243.51 343.441 241.149V40.003C343.441 37.6423 341.516 35.717 339.155 35.717H201.062Z" fill="#E0E0E0"/>
<path d="M179.914 245.626H41.829C39.3613 245.626 37.352 243.617 37.352 241.149V40.003C37.352 37.5353 39.3613 35.526 41.829 35.526H179.914C182.382 35.526 184.391 37.5353 184.391 40.003V241.149C184.391 243.617 182.382 245.626 179.914 245.626ZM41.829 35.717C39.4682 35.717 37.543 37.6423 37.543 40.003V241.149C37.543 243.51 39.4682 245.435 41.829 245.435H179.914C182.275 245.435 184.2 243.51 184.2 241.149V40.003C184.2 37.6423 182.275 35.717 179.914 35.717H41.829Z" fill="#E0E0E0"/>
<path d="M382 292.283H0V292.474H382V292.283Z" fill="#E0E0E0"/>
<path d="M51.7457 303.178H39.4759V303.369H51.7457V303.178Z" fill="#E0E0E0"/>
<path d="M171.044 301.108H130.147V301.299H171.044V301.108Z" fill="#E0E0E0"/>
<path d="M80.2047 310.276H52.5097V310.467H80.2047V310.276Z" fill="#E0E0E0"/>
<path d="M322.057 301.008H289.059V301.199H322.057V301.008Z" fill="#E0E0E0"/>
<path d="M333.7 301.008H328.864V301.199H333.7V301.008Z" fill="#E0E0E0"/>
<path d="M282.756 305.768H241.584V305.959H282.756V305.768Z" fill="#E0E0E0"/>
<path d="M350.584 360.257C350.584 362.847 279.135 364.94 191 364.94C102.865 364.94 31.4157 362.839 31.4157 360.257C31.4157 357.674 102.865 355.573 191 355.573C279.135 355.573 350.584 357.674 350.584 360.257Z" fill="#F5F5F5"/>
<path d="M232.676 135.068C232.676 135.068 232.386 127.542 233.639 126.511C234.899 125.479 236.282 125.327 236.282 125.327C236.282 125.327 242.73 114.478 244.182 115.608C244.961 116.22 243.815 119.146 240.691 124.234C240.691 124.234 243.838 123.76 243.624 125.877C243.624 125.877 246.039 125.701 246.061 128.184C246.061 128.184 247.872 129.391 247.353 131.079C246.833 132.768 243.235 138.628 240.438 140.736C239.59 141.378 238.972 141.477 237.917 141.164C237.917 141.164 233.822 153.633 231.163 153.633L228.39 140.133L232.669 135.075L232.676 135.068Z" fill="#EEC1BB"/>
<path opacity="0.3" d="M237.069 135.297C237 135.297 236.939 135.259 236.901 135.197C236.848 135.106 236.886 134.991 236.978 134.938C237.772 134.502 238.315 133.57 238.399 132.508C238.475 131.507 238.07 129.865 237.642 128.956C237.612 128.887 237.619 128.81 237.673 128.749C237.719 128.696 237.803 128.673 237.871 128.688C239.109 129.07 241.309 128.574 241.951 127.527C242.287 126.969 242.241 126.618 241.783 126.22C241.577 126.045 240.866 126.029 240.446 126.022C240.301 126.022 240.171 126.022 240.072 126.014C239.468 125.976 238.857 125.892 238.276 125.815C237.696 125.739 237.092 125.655 236.504 125.617C236.397 125.617 236.32 125.518 236.328 125.411C236.328 125.304 236.435 125.22 236.527 125.235C237.13 125.273 237.742 125.357 238.33 125.433C238.91 125.51 239.514 125.594 240.102 125.632C240.194 125.632 240.316 125.64 240.454 125.64C241.141 125.647 241.737 125.678 242.028 125.93C242.639 126.45 242.715 127.007 242.28 127.725C241.607 128.826 239.537 129.368 238.146 129.139C238.528 130.117 238.857 131.561 238.788 132.531C238.697 133.723 238.078 134.77 237.169 135.266C237.138 135.281 237.107 135.289 237.077 135.289L237.069 135.297Z" fill="black"/>
<path opacity="0.3" d="M244.602 133.937C244.526 133.937 244.449 133.937 244.381 133.914C243.655 133.769 243.288 132.966 243.258 132.287C243.242 131.897 243.296 131.515 243.418 131.148C243.265 131.24 243.105 131.309 242.952 131.362C242.219 131.614 241.409 131.492 240.882 131.041C240.286 130.522 240.14 129.59 240.576 128.994C240.637 128.91 240.759 128.887 240.843 128.948C240.927 129.009 240.95 129.131 240.889 129.215C240.576 129.651 240.691 130.369 241.134 130.751C241.554 131.118 242.219 131.217 242.83 131.003C243.166 130.888 243.494 130.675 243.8 130.384C243.938 130.178 244.106 129.979 244.297 129.811C244.365 129.75 244.48 129.75 244.549 129.811C244.625 129.88 244.633 129.987 244.579 130.063C244.427 130.27 244.266 130.461 244.098 130.629C243.785 131.11 243.624 131.683 243.647 132.264C243.67 132.814 243.96 133.433 244.465 133.532C244.755 133.593 245.091 133.471 245.374 133.219C245.641 132.966 245.832 132.638 246.016 132.309C246.069 132.218 246.184 132.187 246.275 132.233C246.367 132.279 246.398 132.401 246.344 132.493C246.153 132.829 245.939 133.203 245.626 133.494C245.32 133.769 244.954 133.921 244.61 133.921L244.602 133.937Z" fill="black"/>
<path d="M205.76 113.309C205.76 113.309 206.975 112.835 208.343 114.088C209.71 115.341 223.638 145.359 223.638 145.359L230.208 137.191L242.929 167.499C242.929 167.499 233.685 177.882 223.417 178.799C213.148 179.708 205.149 158.507 205.149 158.507L201.849 127.565L205.768 113.324L205.76 113.309Z" fill="#263238"/>
<path d="M223.638 145.359C221.751 151.272 220.995 157.59 221.675 163.771C220.475 157.659 221.254 151.104 223.638 145.359Z" fill="black"/>
<path d="M116.64 163.763C116.64 163.763 103.583 142.287 103.178 140.079C102.773 137.871 108.075 133.746 108.075 133.746L122.607 147.337L116.64 163.763Z" fill="#EEC1BB"/>
<path d="M150.34 115.616C150.34 115.616 149.125 115.142 147.758 116.395C146.39 117.648 132.462 147.666 132.462 147.666L125.892 139.499L107.044 169.088C107.044 169.088 122.416 180.197 132.692 181.106C142.96 182.015 152.991 158.538 152.991 158.538L154.259 129.865L150.34 115.624V115.616Z" fill="#263238"/>
<path d="M132.669 152.013C134.953 157.094 135.549 163.007 134.304 168.439C135.022 162.9 134.464 157.3 132.669 152.013Z" fill="black"/>
<path d="M138.819 145.595L136.703 150.141L109.03 155.252L100.863 113.209L103.155 109.94L130.759 105.852L138.819 145.595Z" fill="#407BFF"/>
<path opacity="0.3" d="M103.155 109.94L111.697 150.691L109.03 155.252L100.863 113.209L103.155 109.94Z" fill="black"/>
<path d="M110.367 154.114L112.377 150.844L138.513 146.245L137.169 149.14L110.367 154.114Z" fill="white"/>
<path opacity="0.3" d="M113.141 148.766L113.064 148.407C105.638 111.972 105.806 111.758 105.952 111.567L106.043 111.445L129.49 108.075L137.245 144.839L113.133 148.758L113.141 148.766ZM106.67 112.132C107.113 115.165 111.796 138.33 113.744 147.895L136.336 144.22L128.894 108.939L106.662 112.132H106.67Z" fill="black"/>
<path d="M111.376 117.358L112.835 117.136L113.316 120.33L115.265 120.032L115.433 121.163L112.025 121.675L111.376 117.35V117.358Z" fill="white"/>
<path d="M118.733 119.902L117.091 120.147L116.915 120.941L115.433 121.163L116.67 116.556L118.107 116.342L120.651 120.383L119.146 120.613L118.741 119.902H118.733ZM118.176 118.909L117.595 117.885L117.343 119.039L118.183 118.909H118.176Z" fill="white"/>
<path d="M127.023 114.997L126.289 119.528L124.723 119.765L123.676 117.557L123.287 119.979L121.72 120.215L119.681 116.097L121.178 115.868L122.301 118.214L122.729 115.631L124.066 115.433L125.197 117.809L125.617 115.196L127 114.99L127.023 114.997Z" fill="white"/>
<path opacity="0.3" d="M129.032 122.511L112.049 125.074L112.327 126.917L129.31 124.355L129.032 122.511Z" fill="black"/>
<path opacity="0.3" d="M129.559 125.977L112.576 128.539L112.854 130.383L129.837 127.82L129.559 125.977Z" fill="black"/>
<path opacity="0.3" d="M127.367 129.961L117.033 131.52L117.311 133.364L127.645 131.804L127.367 129.961Z" fill="black"/>
<path opacity="0.3" d="M133.349 141.262L116.238 143.843L116.516 145.687L133.627 143.105L133.349 141.262Z" fill="black"/>
<path opacity="0.3" d="M127.282 110.386L110.171 112.968L110.449 114.811L127.56 112.229L127.282 110.386Z" fill="black"/>
<path d="M99.7631 134.609C99.3811 136.618 100.901 143.013 103.369 143.38C105.837 143.747 112.262 140.591 112.392 139.644C112.522 138.697 110.696 138.849 110.696 138.849C110.696 138.849 113.752 137.421 113.294 136.267C112.85 135.152 110.383 135.832 110.383 135.832C110.383 135.832 113.164 134.762 112.468 133.31C111.895 132.096 108.908 133.051 108.908 133.051C108.908 133.051 111.559 132.019 110.054 130.713C108.549 129.406 103.904 130.552 103.904 130.552C103.904 130.552 100.336 131.668 99.7708 134.609H99.7631Z" fill="#EEC1BB"/>
<path opacity="0.2" d="M108.962 133.188H108.946L103.66 134.609C103.591 134.624 103.514 134.579 103.491 134.502C103.469 134.426 103.507 134.342 103.575 134.326L108.862 132.913C108.931 132.898 109.008 132.944 109.03 133.02C109.053 133.096 109.023 133.173 108.954 133.196L108.962 133.188Z" fill="black"/>
<path opacity="0.2" d="M110.283 136.023L105.317 137.787C105.249 137.81 105.172 137.772 105.142 137.688C105.111 137.612 105.142 137.543 105.218 137.505L110.184 135.74C110.253 135.717 110.329 135.763 110.36 135.839C110.39 135.916 110.36 136 110.291 136.023H110.283Z" fill="black"/>
<path opacity="0.2" d="M110.581 139.048L106.929 140.461C106.861 140.484 106.784 140.446 106.754 140.37C106.723 140.293 106.754 140.209 106.822 140.179L110.474 138.765C110.543 138.742 110.62 138.781 110.65 138.857C110.681 138.933 110.65 139.017 110.581 139.048Z" fill="black"/>
<path d="M170.968 76.889C171.503 75.3763 170.502 73.5961 169.027 72.9849C167.545 72.3737 165.78 72.7863 164.497 73.7489C163.213 74.7116 162.358 76.1403 161.762 77.6301C159.737 82.703 160.608 88.8227 163.962 93.1316C165.589 95.2173 167.874 96.9287 170.502 97.2343C173.13 97.5323 176.033 96.0959 176.835 93.5747L170.968 76.889Z" fill="#263238"/>
<path opacity="0.3" d="M161.326 78.883C161.326 78.883 163.313 82.81 171.22 78.2107L172.542 80.5944C172.542 80.5944 163.97 85.484 160.845 81.0146C160.845 81.0146 161.051 79.7693 161.326 78.8907V78.883Z" fill="white"/>
<path d="M188.273 72.3431C188.273 72.3431 195.187 85.95 195.385 90.1061C198.128 92.6197 200.321 87.8065 200.451 81.2437C200.558 75.8728 197.968 69.9824 193.407 67.7286C187.004 64.5656 188.265 72.3355 188.265 72.3355L188.273 72.3431Z" fill="#263238"/>
<path d="M186.347 110.673C185.155 109.389 184.636 108.083 184.941 106.288C185.155 104.905 185.652 103.484 186.24 102.101L184.46 100.023L175.17 90.6486C175.399 96.9134 176.155 106.968 171.258 110.367C171.258 110.367 164.818 112.002 162.167 112.552C163.748 113.851 169.593 137.092 178.975 136.336C187.509 135.648 192.78 115.043 193.682 111.521C191.26 110.765 188.639 111.185 186.347 110.673Z" fill="#EEC1BB"/>
<path opacity="0.2" d="M184.865 106.83C182.313 105.31 179.509 102.682 179.846 99.679C179.998 98.4108 180.266 97.2113 180.571 96.4473L185.759 103.323C185.331 104.431 185.178 105.165 184.865 106.838V106.83Z" fill="black"/>
<path d="M172.534 80.5943C173.405 90.1443 173.581 94.1935 178.501 99.1977C185.912 106.731 197.311 104.194 199.274 94.7283C201.039 86.2097 199.312 72.0299 189.938 68.0189C180.701 64.069 171.656 71.0443 172.526 80.5943H172.534Z" fill="#EEC1BB"/>
<path d="M186.187 84.4067C186.164 85.3006 186.645 86.0799 187.272 86.1486C187.898 86.2174 188.425 85.5451 188.448 84.6435C188.471 83.7497 187.99 82.9704 187.363 82.9016C186.737 82.8329 186.21 83.5052 186.187 84.4067Z" fill="#263238"/>
<path d="M195.08 83.9253C195.003 84.7887 195.446 85.5756 196.065 85.6749C196.684 85.7742 197.242 85.1554 197.318 84.2921C197.395 83.4287 196.952 82.6418 196.333 82.5425C195.714 82.4432 195.156 83.062 195.08 83.9253Z" fill="#263238"/>
<path d="M184.964 81.5188C185.071 81.5722 185.201 81.5875 185.323 81.5417C187.195 80.8159 188.555 81.8702 188.57 81.8855C188.769 82.0459 189.052 82.0077 189.197 81.7938C189.342 81.5799 189.289 81.2819 189.09 81.1215C189.021 81.068 187.31 79.7387 184.987 80.6402C184.758 80.7319 184.644 81.0069 184.735 81.259C184.781 81.3813 184.865 81.4729 184.964 81.5264V81.5188Z" fill="#263238"/>
<path d="M198.365 80.3651C198.457 80.2887 198.518 80.1894 198.525 80.0672C198.548 79.8227 198.35 79.6011 198.082 79.5782C195.416 79.3566 194.025 80.9687 193.972 81.0374C193.812 81.2361 193.842 81.5111 194.056 81.6639C194.27 81.8167 194.568 81.7862 194.736 81.5875C194.789 81.5264 195.89 80.2887 198.006 80.4644C198.143 80.4797 198.273 80.4339 198.365 80.3575V80.3651Z" fill="#263238"/>
<path d="M169.646 88.3719C170.777 90.3277 172.603 91.5577 174.284 91.9779C176.813 92.6121 178.119 88.5476 177.256 86.0187C176.476 83.742 173.993 82.2293 171.533 82.7259C169.111 83.2149 168.355 86.1333 169.646 88.3719Z" fill="#EEC1BB"/>
<path d="M191.756 83.2072C191.756 83.2072 193.246 86.7827 194.935 89.006C195.233 89.3956 195.049 89.961 194.591 90.1291C193.414 90.5645 192.031 90.1673 192.031 90.1673L191.756 83.1996V83.2072Z" fill="#D4827D"/>
<path d="M186.997 82.9704L189.22 82.6342C189.22 82.6342 187.891 84.1622 186.997 82.9704Z" fill="#263238"/>
<path d="M196.104 82.5349L198.35 82.3362C198.35 82.3362 196.929 83.7802 196.104 82.5349Z" fill="#263238"/>
<path d="M170.15 75.2922C168.791 77.1105 171.167 82.6342 171.167 82.6342C171.167 82.6342 175.789 81.4424 175.789 88.3413C177.462 88.6851 179.593 82.321 179.548 75.8423C179.341 72.1751 172.549 72.0757 170.143 75.2922H170.15Z" fill="#263238"/>
<path d="M197.303 70.968C195.439 66.7048 187.363 62.5105 177.768 66.2159C169.096 69.5546 166.185 81.8932 172.335 82.5808C178.486 83.276 185.981 77.5002 185.981 77.5002L197.303 70.968Z" fill="#263238"/>
<path opacity="0.2" d="M173.81 89.5484C173.81 89.5484 173.779 89.5484 173.757 89.5484C172.244 89.1282 171.571 88.3031 171.281 87.6766C170.937 86.9508 170.991 86.2938 171.151 85.9194C171.487 85.1631 172.442 84.613 173.344 84.995C173.443 85.0332 173.489 85.1478 173.443 85.2471C173.405 85.3464 173.29 85.3923 173.191 85.3464C172.511 85.0561 171.747 85.4916 171.495 86.0722C171.373 86.3549 171.327 86.905 171.617 87.5162C171.877 88.0663 172.481 88.7997 173.856 89.1817C173.955 89.2123 174.016 89.3116 173.986 89.4185C173.963 89.5026 173.886 89.5561 173.802 89.5561L173.81 89.5484Z" fill="black"/>
<path d="M173.329 93.2768C174.054 93.2768 174.643 92.6884 174.643 91.9627C174.643 91.237 174.054 90.6486 173.329 90.6486C172.603 90.6486 172.015 91.237 172.015 91.9627C172.015 92.6884 172.603 93.2768 173.329 93.2768Z" fill="#407BFF"/>
<path d="M195.003 72.007C192.811 74.788 189.724 76.5452 186.63 78.1572C183.123 79.9908 179.311 82.0689 175.216 81.2514C174.857 81.1826 174.704 81.7327 175.063 81.8015C179.112 82.6037 182.856 80.7548 186.355 78.9365C189.671 77.2175 193.04 75.3915 195.401 72.4043C195.63 72.1216 195.225 71.709 194.996 71.9994L195.003 72.007Z" fill="#263238"/>
<path d="M190.32 91.8481C189.556 91.3591 187.975 91.3591 187.149 91.7488C186.324 92.1384 185.759 92.5662 185.209 93.292C186.79 93.7886 188.853 94.5908 190.435 95.0874C191.642 93.292 191.084 92.337 190.32 91.8481Z" fill="#263238"/>
<path d="M185.858 92.5968C185.912 92.551 187.99 92.528 189.174 93.3608C190.335 94.1783 190.427 95.0875 190.427 95.0875L185.201 93.2921C185.201 93.2921 185.545 92.8489 185.851 92.5968H185.858Z" fill="#D16F62"/>
<path d="M190.32 91.8481C189.663 91.4279 188.41 91.3744 187.547 91.6112C187.638 91.6112 190.228 92.7267 190.58 92.7725C190.733 92.7954 190.916 92.7878 191.069 92.7725C190.939 92.3599 190.656 92.062 190.32 91.8557V91.8481Z" fill="white"/>
<path d="M154.618 344.732L155.505 345.932L157.269 345.19L158.37 350.47L165.811 360.562C165.811 360.562 168.645 361.005 166.414 355.268C166.315 355.008 166.231 354.718 166.178 354.397C165.513 350.966 166.972 344.388 166.972 344.388L162.892 338.849C162.892 338.849 162.465 338.849 161.739 338.971C160.05 339.247 156.666 340.049 154.618 344.717V344.732Z" fill="#407BFF"/>
<path opacity="0.2" d="M154.618 344.732L155.505 345.932L157.269 345.19L158.37 350.47L165.811 360.562C165.811 360.562 168.645 361.005 166.414 355.268C166.315 355.008 166.231 354.718 166.178 354.397C165.513 350.966 166.972 344.388 166.972 344.388L162.892 338.849C162.892 338.849 162.465 338.849 161.739 338.971C160.05 339.247 156.666 340.049 154.618 344.717V344.732Z" fill="black"/>
<path d="M161.739 338.987L161.724 339.002C163.099 339.147 161.892 345.053 162.442 348.369C162.938 351.325 164.252 354.122 166.178 354.412C165.513 350.982 167.904 343.166 167.904 343.166L164.619 338.712C164.619 338.712 162.465 338.872 161.739 338.994V338.987Z" fill="#D4827D"/>
<path d="M163.32 360.448H164.833L165.253 358.614L170.273 360.83H182.986C182.986 360.83 185.01 358.843 178.952 357.254C178.677 357.185 178.394 357.078 178.096 356.933C174.864 355.451 170.273 350.447 170.273 350.447H163.297C163.297 350.447 163.053 350.791 162.724 351.432C161.96 352.937 160.646 356.085 163.32 360.448Z" fill="#407BFF"/>
<path d="M162.724 351.432V351.455C163.649 350.447 167.836 354.863 170.907 356.368C173.65 357.705 176.728 358.293 178.096 356.941C174.864 355.459 169.738 348.651 169.738 348.651L164.13 348.819C164.13 348.819 163.045 350.798 162.717 351.44L162.724 351.432Z" fill="#EEC1BB"/>
<path d="M177.561 291.519C181.022 282.26 185.262 273.145 190.351 265.773C169.539 207.816 170.196 181.885 170.196 181.885L195.255 181.863L197.922 191.558C197.922 191.558 204.179 215.685 206.005 229.536L211.231 260.333V260.417C211.582 266.812 210.131 273.161 207.013 278.791C203.606 284.934 197.586 292.23 194.278 298.854C189.93 307.594 185.828 316.357 182.321 324.196C178.631 332.462 175.621 339.682 173.749 344.694C171.976 344.893 166.613 341.76 165.077 338.926C165.077 338.926 168.875 314.753 177.554 291.512L177.561 291.519Z" fill="#263238"/>
<path opacity="0.3" d="M177.561 291.519C181.022 282.26 185.262 273.145 190.351 265.773C169.539 207.816 170.196 181.885 170.196 181.885L195.255 181.863L197.922 191.558C197.922 191.558 204.179 215.685 206.005 229.536L211.231 260.333V260.417C211.582 266.812 210.131 273.161 207.013 278.791C203.606 284.934 197.586 292.23 194.278 298.854C189.93 307.594 185.828 316.357 182.321 324.196C178.631 332.462 175.621 339.682 173.749 344.694C171.976 344.893 166.613 341.76 165.077 338.926C165.077 338.926 168.875 314.753 177.554 291.512L177.561 291.519Z" fill="white"/>
<path opacity="0.2" d="M182.336 324.203C178.646 332.47 175.636 339.69 173.764 344.702C171.992 344.9 166.628 341.768 165.093 338.933C165.093 338.933 168.882 314.76 177.569 291.52C179.334 301.115 181.305 313.248 182.336 324.203Z" fill="black"/>
<path d="M188.93 182.413C188.93 182.413 179.395 246.436 178.279 260.852C178.279 260.852 172.389 330.774 173.443 348.346L160.302 348.965C160.302 348.965 151.463 296.004 155.932 262.021C156.322 257.59 152.25 228.696 151.608 217.182C150.057 189.487 161.632 181.878 161.632 181.878L188.922 182.405L188.93 182.413Z" fill="#263238"/>
<g opacity="0.3">
<path d="M188.93 182.413C188.93 182.413 179.395 246.436 178.279 260.852C178.279 260.852 172.389 330.774 173.443 348.346L160.302 348.965C160.302 348.965 151.463 296.004 155.932 262.021C156.322 257.59 152.25 228.696 151.608 217.182C150.057 189.487 161.632 181.878 161.632 181.878L188.922 182.405L188.93 182.413Z" fill="white"/>
</g>
<path d="M168.302 110.986L170.464 110.444L174.154 105.516L179.998 109.733L185.339 106.57L187.745 110.008L192.734 110.429L180.105 134.579L168.302 110.986Z" fill="#407BFF"/>
<path opacity="0.8" d="M168.302 110.986L170.464 110.444L174.154 105.516L179.998 109.733L185.339 106.57L187.745 110.008L192.734 110.429L180.105 134.579L168.302 110.986Z" fill="white"/>
<path opacity="0.2" d="M170.464 110.444L176.194 115.417L179.991 110.077L183.551 114.707L187.738 110.016C187.738 110.016 183.635 115.815 183.513 115.769C183.383 115.723 179.991 110.719 179.991 110.719L176.148 116.563L170.456 110.451L170.464 110.444Z" fill="black"/>
<path d="M177.118 114.119L178.654 116.869H181.542L182.947 113.905L180.739 111.04L179.28 111.093L177.118 114.119Z" fill="#407BFF"/>
<path d="M178.654 116.869L177.118 124.456L181.351 130.957L184.017 124.463L181.542 116.869H178.654Z" fill="#407BFF"/>
<path d="M148.858 115.945L168.592 110.474L181.351 130.95L190.175 109.527L205.768 113.309L206.761 159.454L220.956 279.02C220.956 279.02 201.558 287.715 182.344 286.141C163.129 284.567 142.471 281.664 142.471 281.664L151.478 170.769L148.865 115.937L148.858 115.945Z" fill="#263238"/>
<path d="M149.301 116.869C149.912 121.919 151.043 132.088 151.593 137.138L151.463 137.023C164.008 136.955 190.733 136.366 202.689 136.634C203.262 131.37 204.523 120.781 205.157 115.524C204.622 120.796 203.53 131.393 202.941 136.664C190.343 137.176 164.268 137.107 151.471 137.283H151.356L151.341 137.169C150.814 132.111 149.775 121.927 149.301 116.869Z" fill="black"/>
<path d="M166.674 137.444C166.934 139.201 166.934 140.966 166.674 142.723C166.414 140.966 166.414 139.201 166.674 137.444Z" fill="black"/>
<path d="M170.807 137.253C171.724 155.275 172.458 175.109 172.87 193.147C171.953 175.124 171.228 155.298 170.807 137.253Z" fill="black"/>
<path d="M185.896 136.542C186.149 149.943 186.149 164.688 185.896 178.088C185.644 164.688 185.644 149.943 185.896 136.542Z" fill="black"/>
<path d="M190.03 136.351C190.794 144.786 191.359 154.084 191.619 162.556C190.855 154.122 190.297 144.824 190.03 136.351Z" fill="black"/>
<path opacity="0.3" d="M202.811 136.649L205.661 159.791C205.661 159.791 208.748 150.646 207.029 144.335C205.31 138.024 204.049 125.426 204.049 125.426L202.804 136.649H202.811Z" fill="black"/>
<path opacity="0.3" d="M151.463 137.161C151.478 138.269 151.073 162.564 151.073 162.564C151.073 162.564 149.217 157.269 149.033 153.327C148.644 144.831 151.463 137.169 151.463 137.169V137.161Z" fill="black"/>
<path d="M244.297 46.0157H219.352C212.957 46.0157 207.77 51.2033 207.77 57.598V71.5792C207.77 77.9739 212.957 83.1614 219.352 83.1614H225.029L225.938 89.6172L232.821 83.1614H244.304C250.699 83.1614 255.887 77.9739 255.887 71.5792V57.598C255.887 51.2033 250.699 46.0157 244.304 46.0157H244.297Z" fill="#407BFF"/>
<path d="M244.946 43.8689H229.124C228.757 43.8689 228.757 44.4419 229.124 44.4419H244.946C245.313 44.4419 245.313 43.8689 244.946 43.8689Z" fill="#407BFF"/>
<path d="M227.137 43.8689H225.815C225.663 43.8689 225.525 43.9988 225.525 44.1592C225.525 44.3197 225.647 44.4495 225.815 44.4495H227.137C227.29 44.4495 227.428 44.3197 227.428 44.1592C227.428 43.9988 227.305 43.8689 227.137 43.8689Z" fill="#407BFF"/>
<path d="M220.483 65.1921H222.018V67.7362C221.667 67.9884 221.262 68.1794 220.811 68.3169C220.353 68.4544 219.902 68.5155 219.444 68.5155C218.802 68.5155 218.221 68.378 217.709 68.1106C217.198 67.8356 216.793 67.4612 216.502 66.9722C216.212 66.4909 216.067 65.9408 216.067 65.322C216.067 64.7032 216.212 64.1607 216.502 63.6718C216.793 63.1904 217.198 62.8084 217.717 62.5334C218.237 62.2584 218.825 62.1285 219.482 62.1285C220.055 62.1285 220.567 62.2278 221.025 62.4188C221.484 62.6098 221.858 62.8925 222.164 63.2516L221.056 64.2524C220.643 63.794 220.147 63.5724 219.566 63.5724C219.039 63.5724 218.619 63.7329 218.298 64.0461C217.977 64.367 217.816 64.7872 217.816 65.322C217.816 65.6582 217.893 65.9638 218.038 66.2312C218.183 66.4986 218.389 66.7048 218.649 66.85C218.909 66.9952 219.215 67.0716 219.551 67.0716C219.887 67.0716 220.192 67.0028 220.49 66.8729V65.1921H220.483Z" fill="white"/>
<path d="M223.829 67.7668C223.325 67.2702 223.073 66.5673 223.073 65.6582V62.2584H224.807V65.6047C224.807 66.5826 225.197 67.0792 225.976 67.0792C226.755 67.0792 227.13 66.5902 227.13 65.6047V62.2584H228.841V65.6582C228.841 66.5673 228.589 67.2702 228.085 67.7668C227.58 68.2634 226.87 68.5155 225.961 68.5155C225.051 68.5155 224.341 68.2634 223.837 67.7668H223.829Z" fill="white"/>
<path d="M230.01 62.2507H231.744V68.3857H230.01V62.2507Z" fill="white"/>
<path d="M232.982 62.2507H234.716V67.0104H237.642V68.3857H232.982V62.2507Z" fill="white"/>
<path d="M239.063 63.6259H237.176V62.2507H242.669V63.6259H240.79V68.3857H239.056V63.6259H239.063Z" fill="white"/>
<path d="M246.459 66.1853V68.3857H244.724V66.1624L242.387 62.2507H244.22L245.672 64.6879L247.123 62.2507H248.804L246.459 66.1853Z" fill="white"/>
<path d="M85.9118 49.1863V239.529C85.9118 254.664 69.8831 259.836 68.2252 260.333C75.9416 250.615 72.1904 238.108 72.1904 238.108C60.0198 233.104 52.9758 217.992 50.6456 207.64C49.2856 201.467 55.0309 184.453 60.9366 168.844C64.9476 158.255 69.0809 148.323 71.1055 142.876C75.4908 131.087 65.7957 117.389 66.6514 100.993C66.7812 98.5637 67.1403 96.1494 67.7439 93.7887C72.8016 74.1462 85.9118 49.1863 85.9118 49.1863Z" fill="#407BFF"/>
<path d="M89.1053 46.2908H84.506V354.748H89.1053V46.2908Z" fill="#263238"/>
<path d="M80.3728 351.188H93.2309C96.1036 354.916 100.229 357.476 104.844 358.392L109.504 359.332V361.387H64.1072V359.332L68.7676 358.392C73.3746 357.468 77.5002 354.909 80.3652 351.188H80.3728Z" fill="#263238"/>
<path opacity="0.1" d="M80.3728 351.188H93.2309C96.1036 354.916 100.229 357.476 104.844 358.392L109.504 359.332H64.1072L68.7676 358.392C73.3746 357.468 77.5002 354.909 80.3652 351.188H80.3728Z" fill="white"/>
<path d="M89.7929 46.2908C89.7929 47.9486 88.4636 49.2933 86.8057 49.2933C85.1478 49.2933 83.8032 47.9639 83.8032 46.306C83.8032 44.6482 85.1325 43.3035 86.7904 43.3035H86.8133C88.4636 43.3035 89.8006 44.6405 89.8006 46.2908H89.7929Z" fill="#263238"/>
<path opacity="0.3" d="M89.7929 46.2908C89.7929 47.9486 88.4636 49.2933 86.8057 49.2933C85.1478 49.2933 83.8032 47.9639 83.8032 46.306C83.8032 44.6482 85.1325 43.3035 86.7904 43.3035H86.8133C88.4636 43.3035 89.8006 44.6405 89.8006 46.2908H89.7929Z" fill="white"/>
<path d="M317.595 191.237H225.693V198.182H317.595V191.237Z" fill="#407BFF"/>
<path d="M304.316 361.387H238.91L231.828 197.097H311.46L304.316 361.387Z" fill="#407BFF"/>
<path opacity="0.3" d="M311.46 198.25H231.828V203.117H311.46V198.25Z" fill="black"/>
<path d="M295.935 341.814H247.307V341.722L242.05 213.844H301.23V213.943L295.935 341.814ZM247.49 341.623H295.752L301.031 214.035H242.249L247.49 341.623Z" fill="#263238"/>
<path opacity="0.3" d="M291.137 336.382H251.96L246.589 220.513H296.692L291.137 336.382Z" fill="white"/>
<path d="M308.236 352.426H235.052V362.487H308.236V352.426Z" fill="#407BFF"/>
<path opacity="0.3" d="M247.398 341.714L251.96 336.382H291.137L295.844 341.714H247.398Z" fill="black"/>
<path opacity="0.3" d="M242.15 213.943L246.589 220.513H296.692L301.131 213.943H242.15Z" fill="black"/>
<path opacity="0.3" d="M304.706 352.426H238.528L238.391 349.316H304.706V352.426Z" fill="black"/>
<path d="M284.132 189.739H269.417V191.237H284.132V189.739Z" fill="#407BFF"/>
<path opacity="0.3" d="M284.132 189.739H269.417V191.237H284.132V189.739Z" fill="#263238"/>
<path d="M239.988 191C239.178 190.228 238.842 189.082 239.101 187.997L239.17 187.875L266.109 181.037L266.957 184.177L239.988 190.992V191Z" fill="#407BFF"/>
<path opacity="0.5" d="M239.988 191C239.178 190.228 238.842 189.082 239.101 187.997L239.17 187.875L266.109 181.037L266.957 184.177L239.988 190.992V191Z" fill="#263238"/>
<path d="M267.807 180.113L263.994 181.143L265.066 185.111L268.879 184.081L267.807 180.113Z" fill="#407BFF"/>
<path opacity="0.7" d="M267.807 180.113L263.994 181.143L265.066 185.111L268.879 184.081L267.807 180.113Z" fill="#263238"/>
<path d="M271.432 174.854L265.134 176.556L268.358 188.49L274.657 186.788L271.432 174.854Z" fill="#407BFF"/>
<path opacity="0.3" d="M271.432 174.854L265.134 176.556L268.358 188.49L274.657 186.788L271.432 174.854Z" fill="#263238"/>
<path d="M270.802 173.034L264.769 174.664C264.284 174.795 263.998 175.294 264.129 175.779L264.635 177.652C264.766 178.137 265.265 178.424 265.75 178.293L271.783 176.663C272.267 176.532 272.554 176.033 272.423 175.548L271.917 173.674C271.786 173.19 271.287 172.903 270.802 173.034Z" fill="#407BFF"/>
<path d="M274.041 185.059L268.008 186.689C267.523 186.82 267.236 187.319 267.367 187.804L267.873 189.677C268.004 190.162 268.503 190.449 268.988 190.318L275.021 188.687C275.506 188.557 275.793 188.057 275.662 187.573L275.156 185.699C275.025 185.215 274.525 184.928 274.041 185.059Z" fill="#407BFF"/>
<g opacity="0.5">
<path d="M270.802 173.034L264.769 174.664C264.284 174.795 263.998 175.294 264.129 175.779L264.635 177.652C264.766 178.137 265.265 178.424 265.75 178.293L271.783 176.663C272.267 176.532 272.554 176.033 272.423 175.548L271.917 173.674C271.786 173.19 271.287 172.903 270.802 173.034Z" fill="#263238"/>
<path d="M274.041 185.059L268.008 186.689C267.523 186.82 267.236 187.319 267.367 187.804L267.873 189.677C268.004 190.162 268.503 190.449 268.988 190.318L275.021 188.687C275.506 188.557 275.793 188.057 275.662 187.573L275.156 185.699C275.025 185.215 274.525 184.928 274.041 185.059Z" fill="#263238"/>
</g>
</svg>
