<svg width="372" height="339" viewBox="0 0 372 339" fill="none" xmlns="http://www.w3.org/2000/svg">
<path d="M139.509 324.574C139.509 324.574 203.717 342.023 261.221 307.364C318.725 272.705 342.669 207.788 363.621 155.71C384.573 103.631 363.853 52.4707 314.821 30.8441C265.789 9.2176 237.901 45.4135 172.869 49.9268C107.837 54.4401 89.3247 46.6817 38.7807 82.624C-11.7633 118.566 -13.0833 198.336 35.8927 255.256C84.8687 312.176 139.509 324.574 139.509 324.574Z" fill="#FFDD40"/>
<path opacity="0.7" d="M139.509 324.574C139.509 324.574 203.717 342.023 261.221 307.364C318.725 272.705 342.669 207.788 363.621 155.71C384.573 103.631 363.853 52.4707 314.821 30.8441C265.789 9.2176 237.901 45.4135 172.869 49.9268C107.837 54.4401 89.3247 46.6817 38.7807 82.624C-11.7633 118.566 -13.0833 198.336 35.8927 255.256C84.8687 312.176 139.509 324.574 139.509 324.574Z" fill="white"/>
<path d="M228.54 96.1372C247.52 78.4388 247.52 49.7441 228.54 32.0457C209.561 14.3473 178.789 14.3473 159.81 32.0457C140.83 49.7441 140.83 78.4388 159.81 96.1372C178.789 113.836 209.561 113.836 228.54 96.1372Z" stroke="#263238" stroke-linecap="round" stroke-linejoin="round"/>
<path d="M235.885 66.0404L235.973 64.4663C237.093 65.4436 238.221 66.488 239.333 67.6219C239.333 67.9054 239.333 68.1889 239.285 68.4723L239.149 69.3153C238.138 68.1585 237.048 67.0645 235.885 66.0404Z" stroke="#263238" stroke-linecap="round" stroke-linejoin="round"/>
<path d="M235.269 71.2176L235.525 69.6584C236.029 70.2105 236.533 70.7849 237.029 71.3817C237.546 71.9727 238.026 72.5903 238.469 73.2318L238.013 74.8804C237.581 74.2389 237.141 73.6122 236.701 73.008L236.037 72.1128L235.269 71.2176Z" stroke="#263238" stroke-linecap="round" stroke-linejoin="round"/>
<path d="M233.885 76.2606C234.084 75.7749 234.244 75.2762 234.365 74.7686C235.25 76.0044 236.039 77.2984 236.725 78.6403L236.093 80.2367C235.389 78.8343 234.653 77.5089 233.885 76.2606Z" stroke="#263238" stroke-linecap="round" stroke-linejoin="round"/>
<path d="M231.773 81.0722L232.501 79.6548C233.13 80.9628 233.727 82.3429 234.293 83.7951C234.02 84.307 233.718 84.8051 233.389 85.2871C232.956 83.8488 232.416 82.4404 231.773 81.0722Z" stroke="#263238" stroke-linecap="round" stroke-linejoin="round"/>
<path d="M229.037 85.6154L229.909 84.2651C230.411 85.6805 230.809 87.1261 231.101 88.5919L230.005 89.9571C229.725 88.4427 229.453 87.0253 229.037 85.6154Z" stroke="#263238" stroke-linecap="round" stroke-linejoin="round"/>
<path d="M225.621 89.7333C226.012 89.3573 226.381 88.9613 226.725 88.5472C226.991 90.0064 227.17 91.4783 227.261 92.956C226.837 93.3663 226.461 93.8139 226.005 94.2019C225.973 92.6875 225.805 91.1358 225.621 89.7333Z" stroke="#263238" stroke-linecap="round" stroke-linejoin="round"/>
<path d="M221.669 93.4186L222.917 92.3593C222.957 93.799 222.957 95.3433 222.853 96.8353L221.397 97.8498C221.493 97.1038 221.565 96.3578 221.629 95.6118C221.693 94.8658 221.669 94.1198 221.669 93.4186Z" stroke="#263238" stroke-linecap="round" stroke-linejoin="round"/>
<path d="M217.253 96.5965C217.725 96.3127 218.182 96.0064 218.621 95.679C218.549 96.425 218.485 97.171 218.357 97.917C218.229 98.663 218.077 99.3567 217.909 100.095L216.309 100.983C216.725 99.4686 217.021 98.0139 217.253 96.5965Z" stroke="#263238" stroke-linecap="round" stroke-linejoin="round"/>
<path d="M212.389 99.1479L213.909 98.469C213.541 99.8566 213.09 101.279 212.557 102.736C212.285 102.855 212.013 102.99 211.757 103.094L210.893 103.385C211.497 102.007 211.997 100.591 212.389 99.1479Z" stroke="#263238" stroke-linecap="round" stroke-linejoin="round"/>
<path d="M207.221 101.125L208.821 100.58C208.549 101.266 208.253 101.953 207.933 102.647L207.437 103.691L206.893 104.676L205.117 105.101C205.517 104.437 205.917 103.78 206.253 103.124C206.618 102.476 206.942 101.809 207.221 101.125Z" stroke="#263238" stroke-linecap="round" stroke-linejoin="round"/>
<path d="M201.813 102.408L202.653 102.289L203.453 102.087C202.709 103.397 201.87 104.659 200.941 105.862L199.125 106.123C200.122 104.87 201.018 103.631 201.813 102.408Z" stroke="#263238" stroke-linecap="round" stroke-linejoin="round"/>
<path d="M196.269 102.99L197.957 102.908C197.029 104.049 196.021 105.205 194.925 106.354C194.315 106.391 193.703 106.391 193.093 106.354C194.234 105.303 195.295 104.179 196.269 102.99Z" stroke="#263238" stroke-linecap="round" stroke-linejoin="round"/>
<path d="M190.685 102.923L192.373 103.005C191.829 103.527 191.269 104.049 190.685 104.571C190.111 105.098 189.507 105.596 188.877 106.063L187.069 105.802C187.717 105.34 188.333 104.87 188.933 104.4L189.821 103.654L190.685 102.923Z" stroke="#263238" stroke-linecap="round" stroke-linejoin="round"/>
<path d="M185.165 102.154C185.708 102.292 186.262 102.391 186.821 102.453C185.588 103.394 184.286 104.254 182.925 105.026L181.157 104.601C182.573 103.818 183.909 102.99 185.165 102.154Z" stroke="#263238" stroke-linecap="round" stroke-linejoin="round"/>
<path d="M179.813 100.677L181.413 101.222C180.085 101.938 178.674 102.627 177.181 103.288C176.607 103.095 176.049 102.865 175.509 102.602C176.99 102.055 178.428 101.412 179.813 100.677Z" stroke="#263238" stroke-linecap="round" stroke-linejoin="round"/>
<path d="M174.701 98.5958L176.221 99.2821C174.76 99.886 173.258 100.399 171.725 100.819L170.125 99.9312C170.925 99.7372 171.685 99.5358 172.437 99.3194C173.189 99.1031 173.949 98.8868 174.701 98.5958Z" stroke="#263238" stroke-linecap="round" stroke-linejoin="round"/>
<path d="M169.957 95.8431C170.393 96.1742 170.855 96.4735 171.341 96.7383C170.587 96.956 169.82 97.1328 169.045 97.2679C168.245 97.4171 167.485 97.5589 166.685 97.6782C166.197 97.3351 165.701 97.0068 165.229 96.6488C166.861 96.4473 168.453 96.1639 169.957 95.8431Z" stroke="#263238" stroke-linecap="round" stroke-linejoin="round"/>
<path d="M165.669 92.5458L166.917 93.6051C165.391 93.7941 163.791 93.9234 162.117 93.993L160.869 92.7323C161.669 92.7323 162.469 92.7323 163.269 92.7323C164.069 92.7323 164.869 92.6278 165.669 92.5458Z" stroke="#263238" stroke-linecap="round" stroke-linejoin="round"/>
<path d="M161.797 88.7635C162.149 89.1738 162.549 89.5468 162.917 89.9422C162.117 89.9422 161.317 89.9422 160.517 89.9422C159.717 89.9422 158.917 89.8229 158.117 89.7408L157.029 88.3756C158.677 88.5596 160.266 88.6889 161.797 88.7635Z" stroke="#263238" stroke-linecap="round" stroke-linejoin="round"/>
<path d="M158.589 84.5039L159.461 85.8467C157.949 85.6378 156.389 85.3692 154.789 85.0186L154.317 84.2726L153.909 83.5266L155.053 83.8325L156.245 84.0861C157.037 84.2428 157.821 84.4218 158.589 84.5039Z" stroke="#263238" stroke-linecap="round" stroke-linejoin="round"/>
<path d="M155.965 79.9458L156.701 81.3632C155.949 81.1692 155.189 80.9678 154.413 80.7365C153.642 80.5261 152.883 80.277 152.141 79.9905L151.509 78.3941C152.253 78.6925 152.997 78.9834 153.725 79.2445L154.813 79.6325L155.965 79.9458Z" stroke="#263238" stroke-linecap="round" stroke-linejoin="round"/>
<path d="M154.045 75.0222C154.125 75.2758 154.173 75.5295 154.269 75.7682L154.557 76.5142C153.08 75.9565 151.648 75.3034 150.269 74.5597L149.821 72.911C151.269 73.6943 152.661 74.3956 154.045 75.0222Z" stroke="#263238" stroke-linecap="round" stroke-linejoin="round"/>
<path d="M152.869 69.9345L153.125 71.4862C151.813 70.7501 150.479 69.927 149.125 69.0169C149.027 68.4568 148.974 67.8908 148.965 67.3235C150.199 68.2783 151.503 69.1508 152.869 69.9345Z" stroke="#263238" stroke-linecap="round" stroke-linejoin="round"/>
<path d="M152.389 64.7498L152.469 66.3164C151.861 65.8688 151.245 65.3988 150.629 64.9139L149.701 64.1679C149.405 63.9143 149.133 63.6532 148.853 63.4219L148.941 61.7136C149.501 62.2656 150.061 62.8027 150.629 63.31L151.469 64.056C151.765 64.2798 152.069 64.5111 152.389 64.7498Z" stroke="#263238" stroke-linecap="round" stroke-linejoin="round"/>
<path d="M152.661 59.5427C152.569 60.0606 152.521 60.5844 152.517 61.1093C151.383 60.0655 150.332 58.946 149.373 57.7598L149.669 56.0738C150.637 57.3122 151.645 58.4685 152.661 59.5427Z" stroke="#263238" stroke-linecap="round" stroke-linejoin="round"/>
<path d="M153.669 54.4326L153.245 55.9246C152.349 54.7683 151.469 53.53 150.621 52.1946C150.701 51.9186 150.765 51.6426 150.861 51.374L151.173 50.5684C151.906 51.9096 152.74 53.2009 153.669 54.4326Z" stroke="#263238" stroke-linecap="round" stroke-linejoin="round"/>
<path d="M155.413 49.4792L154.837 50.9712C154.461 50.3371 154.085 49.6806 153.725 49.0017L153.189 47.9797L152.733 46.9502L153.533 45.4135C153.813 46.1595 154.109 46.8234 154.413 47.4948C154.71 48.1714 155.044 48.8336 155.413 49.4792Z" stroke="#263238" stroke-linecap="round" stroke-linejoin="round"/>
<path d="M157.861 44.8017L157.421 45.4731L157.053 46.1818L156.605 45.1374L156.245 44.1378C156.013 43.4366 155.789 42.7204 155.581 41.9893L156.533 40.4973C156.925 41.9968 157.373 43.4366 157.861 44.8017Z" stroke="#263238" stroke-linecap="round" stroke-linejoin="round"/>
<path d="M160.957 40.4675L159.941 41.7282C159.594 40.3257 159.301 38.8586 159.061 37.3268C159.437 36.8867 159.861 36.4838 160.277 36.0586C160.341 36.8046 160.413 37.5506 160.517 38.2966C160.621 39.0426 160.797 39.7513 160.957 40.4675Z" stroke="#263238" stroke-linecap="round" stroke-linejoin="round"/>
<path d="M164.597 36.5211L163.461 37.6849C163.373 36.9389 163.301 36.1929 163.245 35.4469C163.189 34.7009 163.245 33.9549 163.245 33.2089L164.597 32.0601C164.527 33.6117 164.527 35.0988 164.597 36.5211Z" stroke="#263238" stroke-linecap="round" stroke-linejoin="round"/>
<path d="M168.869 33.1194C168.421 33.4401 167.965 33.7385 167.525 34.0742C167.581 32.6345 167.733 31.1723 167.941 29.6505C168.421 29.2993 168.923 28.9755 169.445 28.6807C169.282 29.4202 169.162 30.1673 169.085 30.9187C168.957 31.6647 168.869 32.3957 168.869 33.1194Z" stroke="#263238" stroke-linecap="round" stroke-linejoin="round"/>
<path d="M173.477 30.2324L172.037 31.053C172.165 30.307 172.309 29.6132 172.469 28.8747C172.629 28.1361 172.813 27.3827 173.053 26.6814L174.701 25.9354C174.188 27.3401 173.779 28.7758 173.477 30.2324Z" stroke="#263238" stroke-linecap="round" stroke-linejoin="round"/>
<path d="M178.469 27.9571C177.938 28.1288 177.421 28.3383 176.925 28.5837C177.368 27.1591 177.919 25.7656 178.573 24.4136L180.293 23.8242C179.621 25.2267 179.021 26.6068 178.469 27.9571Z" stroke="#263238" stroke-linecap="round" stroke-linejoin="round"/>
<path d="M183.805 26.3532L182.205 26.7411C182.866 25.453 183.613 24.1425 184.445 22.8097C185.034 22.6655 185.632 22.5583 186.237 22.4889C185.329 23.7218 184.516 25.0131 183.805 26.3532Z" stroke="#263238" stroke-linecap="round" stroke-linejoin="round"/>
<path d="M189.285 25.3834L187.621 25.6221C188.037 25.0029 188.477 24.3912 188.933 23.7646L189.645 22.8321L190.389 21.9742L192.221 21.8846C191.685 22.4591 191.173 23.0409 190.685 23.6079C190.186 24.1769 189.718 24.7695 189.285 25.3834Z" stroke="#263238" stroke-linecap="round" stroke-linejoin="round"/>
<path d="M194.861 25.1297C194.302 25.085 193.74 25.085 193.181 25.1297C194.185 23.9771 195.275 22.8926 196.445 21.8846L198.269 21.9742C197.053 23.0285 195.917 24.0804 194.861 25.1297Z" stroke="#263238" stroke-linecap="round" stroke-linejoin="round"/>
<path d="M200.429 25.5773L198.757 25.3386C199.909 24.3986 201.157 23.4587 202.461 22.5336L203.365 22.6679L204.253 22.8842C202.912 23.6968 201.634 24.5968 200.429 25.5773Z" stroke="#263238" stroke-linecap="round" stroke-linejoin="round"/>
<path d="M205.885 26.6739L204.285 26.286C204.925 25.8682 205.589 25.4654 206.269 25.0551C206.949 24.6448 207.661 24.2494 208.357 23.9286L210.077 24.5105C209.349 24.8462 208.637 25.1894 207.949 25.54L206.925 26.0697L205.885 26.6739Z" stroke="#263238" stroke-linecap="round" stroke-linejoin="round"/>
<path d="M211.125 28.4718C210.869 28.3599 210.621 28.2331 210.365 28.1361L209.565 27.8675C210.972 27.1772 212.429 26.579 213.925 26.0771L215.573 26.8231C214.021 27.3304 212.538 27.88 211.125 28.4718Z" stroke="#263238" stroke-linecap="round" stroke-linejoin="round"/>
<path d="M216.069 30.9038L214.629 30.0906C216.085 29.6281 217.618 29.2103 219.229 28.8373C219.757 29.1283 220.213 29.5013 220.709 29.8295C219.909 29.9713 219.157 30.0981 218.373 30.2846C217.589 30.4711 216.805 30.7098 216.069 30.9038Z" stroke="#263238" stroke-linecap="round" stroke-linejoin="round"/>
<path d="M220.621 33.8952L219.269 32.9478C220.069 32.7986 220.821 32.6569 221.629 32.5301C222.437 32.4032 223.189 32.351 224.029 32.2764L225.381 33.4253C223.717 33.5372 222.157 33.6938 220.621 33.8952Z" stroke="#263238" stroke-linecap="round" stroke-linejoin="round"/>
<path d="M224.677 37.476C224.293 37.103 223.941 36.6853 223.525 36.3347C225.109 36.2396 226.698 36.2197 228.285 36.275C228.708 36.6865 229.106 37.1199 229.477 37.573C227.88 37.4593 226.277 37.4269 224.677 37.476Z" stroke="#263238" stroke-linecap="round" stroke-linejoin="round"/>
<path d="M228.221 41.5044L227.205 40.2437C228.813 40.3338 230.415 40.5031 232.005 40.7509L232.957 42.2429C231.398 41.8965 229.816 41.6498 228.221 41.5044Z" stroke="#263238" stroke-linecap="round" stroke-linejoin="round"/>
<path d="M231.165 45.9282C230.916 45.457 230.635 45.0011 230.325 44.563C231.892 44.8298 233.437 45.1988 234.949 45.6671L235.749 47.2114C234.181 46.7041 232.653 46.2764 231.165 45.9282Z" stroke="#263238" stroke-linecap="round" stroke-linejoin="round"/>
<path d="M233.405 50.6951L232.821 49.2031C234.266 49.7005 235.741 50.26 237.245 50.8816C237.461 51.4133 237.635 51.9595 237.765 52.5154C236.358 51.8149 234.902 51.2067 233.405 50.6951Z" stroke="#263238" stroke-linecap="round" stroke-linejoin="round"/>
<path d="M234.989 55.6859L234.565 54.1939C235.269 54.5147 235.973 54.8653 236.677 55.2308L237.741 55.7903L238.733 56.4021L239.013 58.088C238.351 57.6454 237.687 57.2276 237.021 56.8347C236.366 56.4178 235.688 56.0343 234.989 55.6859Z" stroke="#263238" stroke-linecap="round" stroke-linejoin="round"/>
<path d="M235.813 60.8333C235.813 60.5722 235.813 60.3111 235.765 60.0873L235.637 59.3413C236.962 60.1595 238.224 61.0645 239.413 62.0493L239.501 63.7502C238.279 62.6759 237.05 61.7036 235.813 60.8333Z" stroke="#263238" stroke-linecap="round" stroke-linejoin="round"/>
<path d="M193.813 51.8514L186.565 86.809" stroke="#263238" stroke-miterlimit="10"/>
<path d="M201.773 86.809L194.533 51.8514" stroke="#263238" stroke-miterlimit="10"/>
<path d="M205.901 86.809L198.253 49.8969" stroke="#263238" stroke-miterlimit="10"/>
<path d="M191.461 43.2874L193.445 33.6789" stroke="#263238" stroke-miterlimit="10"/>
<path d="M194.893 33.6789L196.885 43.2874" stroke="#263238" stroke-miterlimit="10"/>
<path d="M182.437 86.809L190.085 49.8969" stroke="#263238" stroke-miterlimit="10"/>
<path d="M167.981 48.099H167.717C167.478 48.0971 167.249 48.0077 167.08 47.85C166.911 47.6923 166.815 47.479 166.813 47.2561V47.1218C166.815 46.8988 166.911 46.6855 167.08 46.5279C167.249 46.3702 167.478 46.2808 167.717 46.2788H189.261" stroke="#263238" stroke-miterlimit="10"/>
<path d="M167.981 48.0991H189.261" stroke="#263238" stroke-miterlimit="10"/>
<path d="M219.813 48.0991H199.077" stroke="#263238" stroke-miterlimit="10"/>
<path d="M219.813 48.099H220.613C220.852 48.0971 221.081 48.0077 221.25 47.85C221.419 47.6923 221.515 47.479 221.517 47.2561V47.1218C221.515 46.8988 221.419 46.6855 221.25 46.5279C221.081 46.3702 220.852 46.2808 220.613 46.2788H199.077" stroke="#263238" stroke-miterlimit="10"/>
<path d="M205.901 86.809H201.773" stroke="#263238" stroke-miterlimit="10"/>
<path d="M182.437 86.809H186.565" stroke="#263238" stroke-miterlimit="10"/>
<path d="M182.437 86.809H172.373V92.404H215.973V86.809H205.901" stroke="#263238" stroke-miterlimit="10"/>
<path d="M186.565 86.809H201.773" stroke="#263238" stroke-miterlimit="10"/>
<path d="M199.077 48.0991C199.205 47.5082 199.205 46.8995 199.077 46.3087" stroke="#263238" stroke-miterlimit="10"/>
<path d="M193.813 51.8514H194.173H194.533" stroke="#263238" stroke-miterlimit="10"/>
<path d="M191.461 43.2874C190.899 43.6225 190.415 44.0592 190.037 44.5717C189.659 45.0842 189.395 45.6621 189.261 46.2714" stroke="#263238" stroke-miterlimit="10"/>
<path d="M191.461 43.2874C192.267 42.7954 193.209 42.5333 194.173 42.5333C195.136 42.5333 196.079 42.7954 196.885 43.2874" stroke="#263238" stroke-miterlimit="10"/>
<path d="M199.077 46.3086C198.944 45.6997 198.682 45.1219 198.305 44.6093C197.929 44.0967 197.446 43.6598 196.885 43.3246" stroke="#263238" stroke-miterlimit="10"/>
<path d="M190.085 49.8969C189.685 49.3568 189.413 48.7442 189.285 48.0991" stroke="#263238" stroke-miterlimit="10"/>
<path d="M194.533 51.8514C195.269 51.8019 195.984 51.601 196.628 51.2631C197.271 50.9251 197.826 50.4586 198.253 49.8969" stroke="#263238" stroke-miterlimit="10"/>
<path d="M189.261 48.0991C189.133 47.5082 189.133 46.8995 189.261 46.3087" stroke="#263238" stroke-miterlimit="10"/>
<path d="M198.253 49.8969C198.652 49.3568 198.925 48.7442 199.053 48.0991" stroke="#263238" stroke-miterlimit="10"/>
<path d="M193.813 51.8514C193.075 51.802 192.359 51.6011 191.714 51.2632C191.07 50.9253 190.513 50.4588 190.085 49.8969" stroke="#263238" stroke-miterlimit="10"/>
<path d="M194.893 33.6938C194.42 33.8239 193.917 33.8239 193.445 33.6938" stroke="#263238" stroke-miterlimit="10"/>
<path d="M194.893 33.6938C195.571 33.5296 196.161 33.1405 196.554 32.5994C196.947 32.0582 197.114 31.4022 197.025 30.7542C196.937 30.1061 196.598 29.5104 196.072 29.0787C195.546 28.647 194.869 28.4089 194.169 28.4089C193.468 28.4089 192.791 28.647 192.266 29.0787C191.74 29.5104 191.401 30.1061 191.312 30.7542C191.223 31.4022 191.391 32.0582 191.783 32.5994C192.176 33.1405 192.767 33.5296 193.445 33.6938" stroke="#263238" stroke-miterlimit="10"/>
<path d="M174.461 65.3242L167.981 48.0991" stroke="#263238" stroke-miterlimit="10"/>
<path d="M167.981 48.0991L161.501 65.3242" stroke="#263238" stroke-miterlimit="10"/>
<path d="M159.973 65.548C160.333 67.2517 161.317 68.786 162.755 69.8887C164.194 70.9915 165.998 71.5943 167.861 71.5943C169.723 71.5943 171.528 70.9915 172.966 69.8887C174.405 68.786 175.388 67.2517 175.749 65.548H159.973Z" stroke="#263238" stroke-miterlimit="10"/>
<path d="M219.813 48.0991L226.293 65.3242" stroke="#263238" stroke-miterlimit="10"/>
<path d="M219.813 48.0991L213.333 65.3242" stroke="#263238" stroke-miterlimit="10"/>
<path d="M219.693 71.5906C221.555 71.5962 223.361 70.9957 224.8 69.8926C226.238 68.7895 227.219 67.253 227.573 65.548H211.805C212.166 67.251 213.15 68.7844 214.588 69.8864C216.027 70.9884 217.831 71.5907 219.693 71.5906Z" stroke="#263238" stroke-miterlimit="10"/>
<path d="M59.3567 89.0918H56.6527V282.179H59.3567V89.0918Z" fill="#263238" stroke="#263238" stroke-linecap="round" stroke-linejoin="round"/>
<path d="M82.9807 282.179L57.8687 94.8957L38.8447 282.179H82.9807Z" fill="#FFDD40" stroke="#263238" stroke-linecap="round" stroke-linejoin="round"/>
<path d="M82.7647 282.179L75.3327 225.364L46.1087 269.288L65.6607 282.179H82.7647Z" fill="#FFDD40" stroke="#263238" stroke-linecap="round" stroke-linejoin="round"/>
<path d="M83.4287 248.863L46.1087 269.288L57.8687 94.8957L83.4287 248.863Z" fill="#FFDD40" stroke="#263238" stroke-linecap="round" stroke-linejoin="round"/>
<path d="M57.8687 94.8957L83.4286 248.863L63.5567 236.382L57.8687 94.8957Z" fill="#FFDD40" stroke="#263238" stroke-linecap="round" stroke-linejoin="round"/>
<path d="M63.5567 236.382L72.8847 221.626L61.9327 203.088L63.5567 236.382Z" fill="#FFDD40" stroke="#263238" stroke-linecap="round" stroke-linejoin="round"/>
<path d="M57.8687 94.8957L42.0527 204.222L72.8847 221.626L57.8687 94.8957Z" fill="#FFDD40" stroke="#263238" stroke-linecap="round" stroke-linejoin="round"/>
<path d="M56.6527 89.0918L53.1727 83.37L58.1887 74.2017L63.2047 83.7505L59.3567 89.0918H56.6527Z" fill="white" stroke="#263238" stroke-linecap="round" stroke-linejoin="round"/>
<path d="M322.829 89.0918H320.125V282.179H322.829V89.0918Z" fill="#263238" stroke="#263238" stroke-linecap="round" stroke-linejoin="round"/>
<path d="M346.453 282.179L321.341 94.8957L302.317 282.179H346.453Z" fill="#FFDD40" stroke="#263238" stroke-linecap="round" stroke-linejoin="round"/>
<path d="M346.237 282.179L338.805 225.364L309.581 269.288L329.133 282.179H346.237Z" fill="#FFDD40" stroke="#263238" stroke-linecap="round" stroke-linejoin="round"/>
<path d="M346.901 248.863L309.581 269.288L321.341 94.8957L346.901 248.863Z" fill="#FFDD40" stroke="#263238" stroke-linecap="round" stroke-linejoin="round"/>
<path d="M321.341 94.8957L346.901 248.863L327.021 236.382L321.341 94.8957Z" fill="#FFDD40" stroke="#263238" stroke-linecap="round" stroke-linejoin="round"/>
<path d="M327.021 236.382L336.357 221.626L325.405 203.088L327.021 236.382Z" fill="#FFDD40" stroke="#263238" stroke-linecap="round" stroke-linejoin="round"/>
<path d="M321.341 94.8957L305.525 204.222L336.357 221.626L321.341 94.8957Z" fill="#FFDD40" stroke="#263238" stroke-linecap="round" stroke-linejoin="round"/>
<path d="M320.125 89.0918L316.645 83.37L321.661 74.2017L326.677 83.7505L322.829 89.0918H320.125Z" fill="white" stroke="#263238" stroke-linecap="round" stroke-linejoin="round"/>
<path d="M147.093 138.529C147.093 138.529 135.093 133.024 128.981 142.766C122.869 152.509 126.957 231.339 126.957 231.339H143.589L147.093 138.529Z" fill="#8F8F8F" stroke="#263238" stroke-linecap="round" stroke-linejoin="round"/>
<path d="M244.493 138.529C244.493 138.529 256.493 133.024 262.605 142.766C268.717 152.509 264.629 231.339 264.629 231.339H247.997L244.493 138.529Z" fill="#8F8F8F" stroke="#263238" stroke-linecap="round" stroke-linejoin="round"/>
<path d="M147.093 138.529H246.381C249.469 138.529 251.981 141.081 252.133 144.303L255.557 232.182H137.909L141.333 144.303C141.461 141.118 143.997 138.529 147.093 138.529Z" fill="#8F8F8F" stroke="#263238" stroke-linecap="round" stroke-linejoin="round"/>
<path d="M182.693 174.113C182.693 174.113 154.093 189.608 145.981 193.785C137.869 197.963 132.181 200.052 132.181 203.036V280.202H261.189C261.189 280.202 258.557 203.998 257.741 201.924C256.925 199.85 213.325 174.113 210.685 173.36C208.045 172.606 182.693 174.113 182.693 174.113Z" fill="#263238" stroke="#263238" stroke-linecap="round" stroke-linejoin="round"/>
<path d="M255.509 202.491C255.509 202.491 257.741 200.596 259.773 203.625C261.805 206.654 280.869 243.723 281.277 247.318C281.685 250.914 279.677 250.914 280.477 253.182C281.277 255.45 288.797 268.102 287.581 271.72C286.365 275.338 281.445 280.001 279.421 280.187C277.397 280.374 236.221 280.187 236.221 280.187C233.155 279.514 230.4 277.946 228.357 275.711C225.309 272.115 217.197 262.097 217.197 260.388C217.197 258.68 226.125 252.637 227.949 250.743C229.773 248.848 235.453 249.042 236.269 248.505C237.085 247.967 247.197 226.162 249.669 220.455C251.207 216.805 252.495 213.067 253.525 209.265" fill="#263238"/>
<path d="M255.509 202.491C255.509 202.491 257.741 200.596 259.773 203.625C261.805 206.654 280.869 243.723 281.277 247.318C281.685 250.914 279.677 250.914 280.477 253.182C281.277 255.45 288.797 268.102 287.581 271.72C286.365 275.338 281.445 280.001 279.421 280.187C277.397 280.374 236.221 280.187 236.221 280.187C233.155 279.514 230.4 277.946 228.357 275.711C225.309 272.115 217.197 262.097 217.197 260.388C217.197 258.68 226.125 252.637 227.949 250.743C229.773 248.848 235.453 249.042 236.269 248.505C237.085 247.967 247.197 226.162 249.669 220.455C251.207 216.805 252.495 213.067 253.525 209.265" stroke="#263238" stroke-linecap="round" stroke-linejoin="round"/>
<path d="M228.333 275.689C228.333 275.689 214.165 261.731 217.133 258.143C220.101 254.555 233.797 248.982 233.797 248.982L250.461 213.92" stroke="#808080" stroke-linecap="round" stroke-linejoin="round"/>
<path d="M236.245 248.452C236.245 248.452 241.517 250.534 244.157 252.615C246.797 254.696 264.845 260.56 275.597 260.746" stroke="#808080" stroke-linecap="round" stroke-linejoin="round"/>
<path d="M244.357 247.885C244.357 247.885 260.581 251.101 275.189 243.909" stroke="#808080" stroke-linecap="round" stroke-linejoin="round"/>
<path d="M255.509 210.056C255.509 210.056 253.485 226.319 251.861 231.809" stroke="#808080" stroke-linecap="round" stroke-linejoin="round"/>
<path d="M259.973 211.943C260.381 212.51 264.845 228.967 264.845 235.397" stroke="#808080" stroke-linecap="round" stroke-linejoin="round"/>
<path d="M138.677 197.568C138.677 197.568 130.157 199.843 128.333 202.297C126.509 204.752 109.261 225.565 107.845 228.78C106.429 231.996 111.693 242.954 111.693 244.857C111.693 246.759 94.4687 268.878 96.2767 273.607C98.0847 278.337 104.397 280.038 104.397 280.038H164.069C164.069 280.038 168.733 271.153 173.605 267.938C178.477 264.723 180.909 265.476 182.125 263.775C183.341 262.074 181.717 259.046 177.661 257.151C173.605 255.256 162.245 251.287 162.245 251.287C162.245 251.287 165.085 249.586 163.045 248.266C161.005 246.945 153.109 243.342 152.301 242.208C151.493 241.074 143.781 222.163 141.341 213.077" fill="#263238"/>
<path d="M138.677 197.568C138.677 197.568 130.157 199.843 128.333 202.297C126.509 204.752 109.261 225.565 107.845 228.78C106.429 231.996 111.693 242.954 111.693 244.857C111.693 246.759 94.4687 268.878 96.2767 273.607C98.0847 278.337 104.397 280.038 104.397 280.038H164.069C164.069 280.038 168.733 271.153 173.605 267.938C178.477 264.723 180.909 265.476 182.125 263.775C183.341 262.074 181.717 259.046 177.661 257.151C173.605 255.256 162.245 251.287 162.245 251.287C162.245 251.287 165.085 249.586 163.045 248.266C161.005 246.945 153.109 243.342 152.301 242.208C151.493 241.074 143.781 222.163 141.341 213.077" stroke="#263238" stroke-linecap="round" stroke-linejoin="round"/>
<path d="M180.413 264.118C180.413 264.118 185.773 260.731 181.701 258.941C177.629 257.151 163.757 252.167 163.757 252.167C163.757 252.167 166.741 248.579 164.605 247.788C162.469 246.998 152.269 242.208 152.269 242.208L139.829 209.138" stroke="#808080" stroke-linecap="round" stroke-linejoin="round"/>
<path d="M113.117 233.13C113.117 233.13 141.717 240.321 137.253 240.888C132.789 241.455 119.205 240.888 117.581 241.261" stroke="#808080" stroke-linecap="round" stroke-linejoin="round"/>
<path d="M159.973 248.452C159.973 248.452 129.573 253.562 131.973 254.129C134.373 254.696 158.949 251.854 158.949 251.854" stroke="#808080" stroke-linecap="round" stroke-linejoin="round"/>
<path d="M134.413 207.594C134.413 207.594 131.781 227.646 131.781 232.562" stroke="#808080" stroke-linecap="round" stroke-linejoin="round"/>
<path d="M131.373 207.027C131.373 207.027 125.493 219.321 124.885 224.431" stroke="#808080" stroke-linecap="round" stroke-linejoin="round"/>
<path d="M147.805 207.407H187.357" stroke="#808080" stroke-linecap="round" stroke-linejoin="round"/>
<path d="M214.541 207.594H247.397" stroke="#808080" stroke-linecap="round" stroke-linejoin="round"/>
<path d="M195.677 218.568L191.005 252.615" stroke="#808080" stroke-linecap="round" stroke-linejoin="round"/>
<path d="M197.701 223.864V252.615" stroke="#808080" stroke-linecap="round" stroke-linejoin="round"/>
<path d="M201.557 218.568L205.413 254.696" stroke="#808080" stroke-linecap="round" stroke-linejoin="round"/>
<path d="M180.981 168.526C180.981 168.526 180.181 184.528 182.029 192.137C183.877 199.746 196.069 219.448 199.397 216.919C202.725 214.39 214.253 193.114 214.669 187.653C215.085 182.193 214.885 168.526 214.885 168.526C214.885 168.526 203.373 175.158 195.629 173.405C190.593 172.211 185.688 170.577 180.981 168.526Z" fill="white" stroke="#263238" stroke-linecap="round" stroke-linejoin="round"/>
<path d="M180.813 174.233C184.677 177.448 189.845 180.529 191.749 180.887C194.629 181.424 201.829 181.357 204.133 180.29C207.89 178.503 211.5 176.459 214.933 174.173C214.933 170.958 214.885 168.526 214.885 168.526C214.885 168.526 203.373 175.158 195.629 173.405C190.593 172.211 185.688 170.577 180.981 168.526C180.981 168.526 180.869 170.891 180.813 174.233Z" fill="#263238" stroke="#263238" stroke-linecap="round" stroke-linejoin="round"/>
<path d="M214.933 177.068C212.669 181.767 205.749 194.531 197.717 193.897C190.637 193.33 184.117 184.871 180.829 179.962C180.925 184.296 181.237 188.951 182.029 192.137C183.909 199.746 196.045 219.455 199.397 216.919C202.749 214.382 214.253 193.114 214.669 187.653C214.861 185.132 214.925 180.909 214.933 177.068Z" fill="white" stroke="#263238" stroke-linecap="round" stroke-linejoin="round"/>
<path d="M198.349 194.375C197.869 194.427 198.205 193.935 197.717 193.897C197.229 193.86 197.589 194.36 197.165 194.278L192.069 199.746L196.253 204.625L192.701 209.705C192.701 209.705 192.285 210.205 191.853 210.772C194.981 215.069 197.973 218.001 199.397 216.919C200.637 215.979 202.997 212.443 205.501 208.138L201.069 204.826L203.997 200.35L198.349 194.375Z" fill="#FFDD40" stroke="#263238" stroke-linecap="round" stroke-linejoin="round"/>
<path d="M188.093 203.849L197.717 193.897L207.973 203.849" stroke="#263238" stroke-linecap="round" stroke-linejoin="round"/>
<path d="M176.485 151.062C176.485 151.062 174.445 147.429 172.581 147.586C170.717 147.742 168.509 150.57 171.053 155.337C173.597 160.104 176.141 159.925 176.309 158.03C176.477 156.135 176.485 151.062 176.485 151.062Z" fill="white" stroke="#263238" stroke-linecap="round" stroke-linejoin="round"/>
<path d="M171.749 153.957C171.749 153.957 170.685 149.816 172.821 150.227C174.957 150.637 176.645 153.792 176.645 153.792C176.645 153.792 172.133 149.854 171.749 153.957Z" fill="#263238"/>
<path d="M217.749 151.062C217.749 151.062 219.781 147.429 221.653 147.586C223.525 147.742 225.717 150.57 223.173 155.337C220.629 160.104 218.085 159.925 217.917 158.03C217.749 156.135 217.749 151.062 217.749 151.062Z" fill="white" stroke="#263238" stroke-linecap="round" stroke-linejoin="round"/>
<path d="M218.109 153.956C218.109 153.956 222.109 148.391 222.701 150.674C222.906 151.258 222.984 151.873 222.932 152.485C222.88 153.098 222.698 153.694 222.397 154.24C222.397 154.24 222.157 149.607 218.109 153.956Z" fill="#263238"/>
<path d="M177.957 128.839C177.957 128.839 174.509 161.819 176.525 165.848C178.541 169.876 188.877 176.635 191.725 177.172C194.573 177.709 201.805 177.642 204.109 176.575C206.413 175.508 217.621 169.861 218.773 166.653C219.925 163.446 216.477 132.591 215.037 128.607C213.597 124.624 204.109 121.893 195.477 121.893C186.845 121.893 178.821 126.422 177.957 128.839Z" fill="white" stroke="#263238" stroke-linecap="round" stroke-linejoin="round"/>
<path d="M181.565 130.674C181.565 130.674 188.453 138.29 196.653 139.962C204.853 141.633 213.453 138.678 213.453 138.678L181.565 130.674Z" fill="#263238" stroke="#263238" stroke-linecap="round" stroke-linejoin="round"/>
<path d="M200.573 143.945C200.573 143.945 199.213 147.586 199.213 148.056C199.213 148.526 199.893 155.337 199.893 155.337" stroke="#263238" stroke-linecap="round" stroke-linejoin="round"/>
<path d="M186.149 159.134C186.325 158.186 193.109 155.65 193.109 155.65C193.109 155.65 190.901 157.075 192.261 157.552C193.621 158.03 197.181 160.402 198.365 159.925C199.549 159.447 204.309 157.239 204.477 156.605C204.645 155.971 203.797 154.703 203.797 154.703C203.797 154.703 209.061 158.186 209.565 159.447" stroke="#263238" stroke-linecap="round" stroke-linejoin="round"/>
<path d="M192.429 141.416C192.429 141.416 187.853 139.044 185.477 140.625C183.101 142.207 183.605 143.154 184.285 143.154C184.965 143.154 186.149 141.73 187.677 141.73C189.205 141.73 191.925 143.154 192.429 141.416Z" fill="#DBDBDB" stroke="#263238" stroke-linecap="round" stroke-linejoin="round"/>
<path d="M201.197 141.416C201.197 141.416 205.773 139.044 208.149 140.625C210.525 142.207 210.021 143.154 209.341 143.154C208.661 143.154 207.469 141.73 205.949 141.73C204.429 141.73 201.669 143.154 201.197 141.416Z" fill="#DBDBDB" stroke="#263238" stroke-linecap="round" stroke-linejoin="round"/>
<path d="M188.445 150.428C189.147 150.428 189.717 149.65 189.717 148.69C189.717 147.73 189.147 146.952 188.445 146.952C187.742 146.952 187.173 147.73 187.173 148.69C187.173 149.65 187.742 150.428 188.445 150.428Z" fill="#263238"/>
<path d="M204.901 150.428C205.603 150.428 206.173 149.65 206.173 148.69C206.173 147.73 205.603 146.952 204.901 146.952C204.198 146.952 203.629 147.73 203.629 148.69C203.629 149.65 204.198 150.428 204.901 150.428Z" fill="#263238"/>
<path d="M187.341 160.402C187.341 160.402 189.373 162.64 190.541 163.088C191.709 163.535 201.741 163.878 204.789 163.244C205.648 163.077 206.433 162.67 207.039 162.077C207.645 161.484 208.043 160.733 208.181 159.924" stroke="#263238" stroke-linecap="round" stroke-linejoin="round"/>
<path d="M191.269 150.271C191.269 150.271 191.093 153.121 185.325 154.389" stroke="#263238" stroke-linecap="round" stroke-linejoin="round"/>
<path d="M202.781 150.592C202.781 150.592 204.733 153.181 209.653 153.501" stroke="#263238" stroke-linecap="round" stroke-linejoin="round"/>
<path d="M212.469 139.029C212.469 139.029 211.605 142.013 213.045 143.587C214.485 145.161 215.637 146.265 215.637 146.265C215.637 146.265 215.349 151.36 217.069 151.36C218.789 151.36 218.221 148.951 218.221 148.951L217.357 136.642L212.469 139.029Z" fill="#DBDBDB" stroke="#263238" stroke-linecap="round" stroke-linejoin="round"/>
<path d="M180.549 130.181C180.549 130.181 190.613 137.686 200.677 139.029C210.741 140.372 218.509 139.835 219.661 136.881C220.813 133.926 222.293 126.34 211.941 122.587C201.589 118.835 189.037 118.313 181.989 122.938C180.908 123.597 179.991 124.465 179.301 125.483C178.611 126.501 178.163 127.645 177.989 128.839C177.989 128.839 175.405 129.644 175.405 131.823V150.294H177.421C177.421 150.294 176.845 143.856 179.429 142.513C182.013 141.17 184.029 138.223 184.029 136.075C184.029 133.926 180.549 130.181 180.549 130.181Z" fill="#DBDBDB" stroke="#263238" stroke-linecap="round" stroke-linejoin="round"/>
<path d="M182.061 267.848C182.061 267.848 199.493 273.331 202.325 274.271C205.157 275.211 211.853 278.807 211.853 279.941C211.853 281.075 211.653 281.269 210.437 281.269H194.021C193.005 281.269 175.621 281.463 174.781 280.985C173.668 280.57 172.504 280.285 171.317 280.135C171.317 280.135 174.557 268.415 182.061 267.848Z" fill="white" stroke="#263238" stroke-linecap="round" stroke-linejoin="round"/>
<path d="M187.333 278.054C187.333 278.054 195.237 279.546 198.277 281.269L187.333 278.054Z" fill="white"/>
<path d="M187.333 278.054C187.333 278.054 195.237 279.546 198.277 281.269" stroke="#263238" stroke-linecap="round" stroke-linejoin="round"/>
<path d="M191.381 275.032C191.381 275.032 200.709 278.434 203.141 281.269L191.381 275.032Z" fill="white"/>
<path d="M191.381 275.032C191.381 275.032 200.709 278.434 203.141 281.269" stroke="#263238" stroke-linecap="round" stroke-linejoin="round"/>
<path d="M196.653 274.085C196.653 274.085 205.773 277.867 208.405 280.888L196.653 274.085Z" fill="white"/>
<path d="M196.653 274.085C196.653 274.085 205.773 277.867 208.405 280.888" stroke="#263238" stroke-linecap="round" stroke-linejoin="round"/>
<path d="M177.621 263.962L184.717 267.744C184.717 267.744 177.621 271.153 175.589 274.555C173.557 277.957 172.141 280.605 172.141 280.605H164.069C164.069 280.605 164.637 270.176 177.621 263.962Z" fill="white" stroke="#263238" stroke-linecap="round" stroke-linejoin="round"/>
<path d="M215.205 269.034C215.205 269.034 214.493 267.483 215.357 266.58C216.221 265.677 223.621 264.342 226.757 266.244C229.893 268.147 232.885 275.659 232.749 277.927C232.613 280.195 223.805 281.239 221.029 280.165C218.253 279.091 215.205 269.034 215.205 269.034Z" fill="white" stroke="#263238" stroke-linecap="round" stroke-linejoin="round"/>
<path d="M217.125 267.625L212.821 268.154C212.821 268.154 188.357 266.282 186.877 267.147C185.397 268.012 174.021 281.433 174.021 281.433L187.989 282.179C187.989 282.179 199.653 277.494 200.669 277.546C201.685 277.599 206.429 279.747 210.045 280.321C213.661 280.896 222.517 279.128 222.517 279.128C222.517 279.128 223.469 276.89 221.717 272.638C219.965 268.385 217.125 267.625 217.125 267.625Z" fill="white" stroke="#263238" stroke-linecap="round" stroke-linejoin="round"/>
<path d="M184.549 281.992C184.549 281.992 194.813 273.637 196.277 272.958L184.549 281.992Z" fill="white"/>
<path d="M184.549 281.992C184.549 281.992 194.813 273.637 196.277 272.958" stroke="#263238" stroke-linecap="round" stroke-linejoin="round"/>
<path d="M191.317 270.989L180.725 281.411" stroke="#263238" stroke-linecap="round" stroke-linejoin="round"/>
<path d="M187.349 269.452L176.853 281.582" stroke="#263238" stroke-linecap="round" stroke-linejoin="round"/>
<path d="M75.4687 265.394L108.173 277.703C108.585 277.858 108.92 278.152 109.113 278.526C109.305 278.9 109.341 279.327 109.213 279.725C109.138 279.953 109.012 280.164 108.843 280.342C108.673 280.521 108.464 280.663 108.23 280.759C107.996 280.856 107.743 280.904 107.487 280.9C107.231 280.897 106.98 280.842 106.749 280.739L75.1647 266.826L75.4687 265.394Z" fill="white" stroke="#263238" stroke-linecap="round" stroke-linejoin="round"/>
<path d="M62.1247 256.002H66.7327V275.622H62.1247C59.8127 275.622 57.9407 271.228 57.9407 265.812C57.9407 260.396 59.8127 256.002 62.1247 256.002Z" fill="white" stroke="#263238" stroke-linecap="round" stroke-linejoin="round"/>
<path d="M66.7327 275.622C69.039 275.622 70.9087 271.23 70.9087 265.812C70.9087 260.394 69.039 256.002 66.7327 256.002C64.4263 256.002 62.5567 260.394 62.5567 265.812C62.5567 271.23 64.4263 275.622 66.7327 275.622Z" fill="white" stroke="#263238" stroke-linecap="round" stroke-linejoin="round"/>
<path d="M67.2687 256.748H86.3327V274.846H67.2687C65.1407 274.846 63.4127 270.795 63.4127 265.797C63.4127 260.799 65.1567 256.748 67.2687 256.748Z" fill="white" stroke="#263238" stroke-linecap="round" stroke-linejoin="round"/>
<path d="M82.4687 265.812C82.4687 270.81 84.1967 274.861 86.3247 274.861C88.4527 274.861 90.1807 270.81 90.1807 265.812C90.1807 260.814 88.4767 256.748 86.3487 256.748C84.2207 256.748 82.4687 260.814 82.4687 265.812Z" fill="white" stroke="#263238" stroke-linecap="round" stroke-linejoin="round"/>
<path d="M87.4367 256.002H92.0687V275.622H87.4527C85.1487 275.622 83.2767 271.228 83.2767 265.812C83.2767 260.396 85.1327 256.002 87.4367 256.002Z" fill="white" stroke="#263238" stroke-linecap="round" stroke-linejoin="round"/>
<path d="M92.0527 275.622C94.359 275.622 96.2287 271.23 96.2287 265.812C96.2287 260.394 94.359 256.002 92.0527 256.002C89.7463 256.002 87.8767 260.394 87.8767 265.812C87.8767 271.23 89.7463 275.622 92.0527 275.622Z" fill="white" stroke="#263238" stroke-linecap="round" stroke-linejoin="round"/>
<path d="M98.6447 278.098H55.6847V277.74C55.6847 277.113 55.9519 276.512 56.4275 276.068C56.9031 275.625 57.5481 275.375 58.2207 275.375H96.1087C96.7813 275.375 97.4263 275.625 97.9019 276.068C98.3775 276.512 98.6447 277.113 98.6447 277.74V278.098Z" fill="white" stroke="#263238" stroke-linecap="round" stroke-linejoin="round"/>
<path d="M105.701 280.821H49.2687V280.448C49.2687 279.789 49.5494 279.158 50.049 278.692C50.5486 278.226 51.2262 277.964 51.9327 277.964H103.037C103.743 277.964 104.421 278.226 104.92 278.692C105.42 279.158 105.701 279.789 105.701 280.448V280.821Z" fill="white" stroke="#263238" stroke-linecap="round" stroke-linejoin="round"/>
<path d="M360.621 285.514H16.9887V335.719H360.621V285.514Z" fill="white"/>
<path opacity="0.3" d="M349.061 287.625H33.3087V292.205H349.061V287.625Z" fill="black"/>
<path d="M368.221 280.478H12.3007V289.05H368.221V280.478Z" fill="#263238" stroke="#263238" stroke-linecap="round" stroke-linejoin="round"/>
<path d="M116.661 289.109H33.1727V297.502H116.661V289.109Z" stroke="#263238" stroke-linecap="round" stroke-linejoin="round"/>
<path d="M102.173 305.894H47.6687L40.8607 297.502H108.981L102.173 305.894Z" stroke="#263238" stroke-linecap="round" stroke-linejoin="round"/>
<path d="M47.6687 305.894V337.875" stroke="#263238" stroke-linecap="round" stroke-linejoin="round"/>
<path d="M102.029 337.875V305.894" stroke="#263238" stroke-linecap="round" stroke-linejoin="round"/>
<path d="M53.6447 338.062V311.094H72.5087V337.875" stroke="#263238" stroke-linecap="round" stroke-linejoin="round"/>
<path d="M76.7727 338.062V311.094H95.6367V337.875" stroke="#263238" stroke-linecap="round" stroke-linejoin="round"/>
<path d="M349.117 289.109H265.629V297.502H349.117V289.109Z" stroke="#263238" stroke-linecap="round" stroke-linejoin="round"/>
<path d="M334.629 305.894H280.125L273.317 297.502H341.437L334.629 305.894Z" stroke="#263238" stroke-linecap="round" stroke-linejoin="round"/>
<path d="M280.125 337.875V305.894" stroke="#263238" stroke-linecap="round" stroke-linejoin="round"/>
<path d="M334.493 305.894V337.875" stroke="#263238" stroke-linecap="round" stroke-linejoin="round"/>
<path d="M286.109 338.062V311.094H304.973V337.875" stroke="#263238" stroke-linecap="round" stroke-linejoin="round"/>
<path d="M309.229 338.062V311.094H328.093V337.875" stroke="#263238" stroke-linecap="round" stroke-linejoin="round"/>
<path d="M102.437 316.495H279.725" stroke="#263238" stroke-linecap="round" stroke-linejoin="round"/>
<path d="M227.117 293.981H156.797V311.527H227.117V293.981Z" fill="white"/>
<path d="M173.933 307.26C174.149 307.26 174.405 307.26 174.629 307.26C175.269 307.26 175.781 307.043 175.781 306.118V297.032H177.797V305.984C177.797 308.379 176.421 308.968 174.901 308.968C174.577 308.975 174.254 308.962 173.933 308.931V307.26Z" fill="#263238"/>
<path d="M181.093 297.032V306.267C181.093 307.118 181.501 307.424 182.141 307.424C182.781 307.424 183.189 307.118 183.189 306.267V297.032H185.093V306.148C185.093 308.058 184.069 309.132 182.085 309.132C180.101 309.132 179.077 308.035 179.077 306.148V297.032H181.093Z" fill="#263238"/>
<path d="M186.469 297.032H189.669C191.685 297.032 192.669 298.076 192.669 300.016V305.984C192.669 307.894 191.685 308.968 189.669 308.968H186.469V297.032ZM188.485 298.74V307.289H189.621C190.261 307.289 190.645 306.984 190.645 306.126V299.904C190.645 299.046 190.261 298.74 189.621 298.74H188.485Z" fill="#263238"/>
<path d="M196.973 302.299H199.797V306.096C199.797 308.013 198.765 309.08 196.789 309.08C194.813 309.08 193.781 307.983 193.781 306.096V299.874C193.781 297.957 194.805 296.89 196.789 296.89C198.773 296.89 199.797 297.979 199.797 299.874V301.038H197.885V299.755C197.885 298.897 197.485 298.576 196.845 298.576C196.205 298.576 195.797 298.897 195.797 299.755V306.215C195.797 307.073 196.205 307.379 196.845 307.379C197.485 307.379 197.885 307.073 197.885 306.215V304.014H196.973V302.299Z" fill="#263238"/>
<path d="M203.109 302.045H205.877V303.746H203.109V307.252H206.597V308.968H201.093V297.032H206.597V298.74H203.109V302.045Z" fill="#263238"/>
<path d="M225.901 295.115V310.4H158.013V295.115H225.901ZM228.301 292.877H155.581V312.698H228.333V292.847L228.301 292.877Z" fill="#263238"/>
</svg>
