<svg width="176" height="150" viewBox="0 0 176 150" fill="none" xmlns="http://www.w3.org/2000/svg">
<g opacity="0.7">
<path d="M0 114.72H176V114.795H0V114.72Z" fill="#EBEBEB"/>
<path d="M17.6352 119.547H29.2934V119.622H17.6352V119.547Z" fill="#EBEBEB"/>
<path d="M59.4105 120.363H62.4694V120.438H59.4105V120.363Z" fill="#EBEBEB"/>
<path d="M29.6455 116.763H36.4003V116.838H29.6455V116.763Z" fill="#EBEBEB"/>
<path d="M142.331 117.267H157.534V117.342H142.331V117.267Z" fill="#EBEBEB"/>
<path d="M136.967 117.267H139.195V117.342H136.967V117.267Z" fill="#EBEBEB"/>
<path d="M96.7472 118.533H129.723V118.608H96.7472V118.533Z" fill="#EBEBEB"/>
<path d="M92.576 101.34H160.544C161.076 101.339 161.586 101.158 161.963 100.837C162.339 100.516 162.55 100.081 162.55 99.627V18.198C162.545 17.7468 162.332 17.3154 161.956 16.9975C161.581 16.6795 161.073 16.5008 160.544 16.5H92.576C92.0429 16.5 91.5317 16.6805 91.1548 17.0017C90.7778 17.323 90.5661 17.7587 90.5661 18.213V99.627C90.5661 100.081 90.7778 100.517 91.1548 100.838C91.5317 101.16 92.0429 101.34 92.576 101.34ZM160.544 16.56C161.053 16.5608 161.541 16.7337 161.9 17.0408C162.26 17.3479 162.462 17.7641 162.462 18.198V99.627C162.462 100.061 162.26 100.477 161.9 100.784C161.541 101.091 161.053 101.264 160.544 101.265H92.576C92.0666 101.264 91.5783 101.091 91.218 100.784C90.8578 100.477 90.655 100.061 90.6541 99.627V18.198C90.655 17.7638 90.8578 17.3476 91.218 17.0406C91.5783 16.7336 92.0666 16.5608 92.576 16.56H160.544Z" fill="#EBEBEB"/>
<path d="M16.4349 101.34H84.4061C84.9389 101.339 85.4496 101.158 85.8263 100.837C86.203 100.516 86.4151 100.081 86.416 99.627V18.198C86.4105 17.7465 86.1964 17.3151 85.8201 16.9973C85.4439 16.6794 84.9358 16.5008 84.4061 16.5H16.4349C15.9061 16.5016 15.3993 16.6807 15.0244 16.9985C14.6495 17.3164 14.4366 17.7473 14.432 18.198V99.627C14.432 100.08 14.6428 100.515 15.0182 100.836C15.3936 101.157 15.9031 101.338 16.4349 101.34ZM84.4061 16.56C84.9155 16.5608 85.4038 16.7336 85.7641 17.0406C86.1243 17.3476 86.3271 17.7638 86.328 18.198V99.627C86.3271 100.061 86.1243 100.477 85.7641 100.784C85.4038 101.091 84.9155 101.264 84.4061 101.265H16.4349C15.9255 101.264 15.4371 101.091 15.0769 100.784C14.7167 100.477 14.5139 100.061 14.513 99.627V18.198C14.5139 17.7638 14.7167 17.3476 15.0769 17.0406C15.4371 16.7336 15.9255 16.5608 16.4349 16.56H84.4061Z" fill="#EBEBEB"/>
<path d="M20.3773 47.751H82.4314V114.72H20.3773V47.751Z" fill="#F0F0F0"/>
<path d="M22.5667 50.19H80.2349V64.512H22.5667V50.19Z" fill="#E0E0E0"/>
<path d="M76.9578 52.509H80.2349V64.512H76.9578V52.509Z" fill="#EBEBEB"/>
<path d="M61.1177 52.509H64.3949V64.512H61.1177V52.509Z" fill="#EBEBEB"/>
<path d="M43.1338 52.2055L46.3633 52.6799L43.971 64.5085L40.7415 64.0341L43.1338 52.2055Z" fill="#EBEBEB"/>
<path d="M72.8992 54.09H76.1763V64.512H72.8992V54.09Z" fill="#EBEBEB"/>
<path d="M65.3699 54.09H68.647V64.512H65.3699V54.09Z" fill="#EBEBEB"/>
<path d="M46.3654 54.09H49.6425V64.512H46.3654V54.09Z" fill="#EBEBEB"/>
<path d="M56.8123 53.7272L60.0114 54.3331L57.3584 64.5069L54.1593 63.901L56.8123 53.7272Z" fill="#EBEBEB"/>
<path d="M70.0691 51.912H71.7059V64.509H70.0691V51.912Z" fill="#EBEBEB"/>
<path d="M50.5859 51.912H52.2227V64.509H50.5859V51.912Z" fill="#EBEBEB"/>
<path d="M80.2384 81.099H22.5703L22.5703 66.777H80.2384V81.099Z" fill="#E0E0E0"/>
<path d="M25.8474 81.099H22.5703V69.096H25.8474V81.099Z" fill="#EBEBEB"/>
<path d="M41.6873 81.099H38.4102V69.096H41.6873V81.099Z" fill="#EBEBEB"/>
<path d="M62.0554 80.6247L58.8259 81.0991L56.4336 69.2706L59.6631 68.7961L62.0554 80.6247Z" fill="#EBEBEB"/>
<path d="M29.9059 81.099H26.6288V70.677H29.9059V81.099Z" fill="#EBEBEB"/>
<path d="M37.4352 81.099H34.1581V70.677H37.4352V81.099Z" fill="#EBEBEB"/>
<path d="M56.4397 81.099H53.1626V70.677H56.4397V81.099Z" fill="#EBEBEB"/>
<path d="M48.8873 79.8775L45.6757 80.492L42.9855 70.2784L46.197 69.664L48.8873 79.8775Z" fill="#EBEBEB"/>
<path d="M32.736 81.099H31.0992L31.0992 68.502H32.736V81.099Z" fill="#EBEBEB"/>
<path d="M52.2192 81.099H50.5824V68.502H52.2192V81.099Z" fill="#EBEBEB"/>
<path d="M76.9578 69.096H80.2349V81.099H76.9578V69.096Z" fill="#EBEBEB"/>
<path d="M72.8992 70.68H76.1763V81.102H72.8992V70.68Z" fill="#EBEBEB"/>
<path d="M65.3699 70.68H68.647V81.102H65.3699V70.68Z" fill="#EBEBEB"/>
<path d="M70.0691 68.502H71.7059V81.099H70.0691V68.502Z" fill="#EBEBEB"/>
<path d="M22.5667 83.367H80.2349V97.689H22.5667V83.367Z" fill="#E0E0E0"/>
<path d="M43.8592 85.686H47.1363V97.689H43.8592V85.686Z" fill="#EBEBEB"/>
<path d="M25.8742 85.3808L29.1037 85.8552L26.7114 97.6838L23.4819 97.2094L25.8742 85.3808Z" fill="#EBEBEB"/>
<path d="M55.6406 87.267H58.9177V97.689H55.6406V87.267Z" fill="#EBEBEB"/>
<path d="M48.1114 87.267H51.3885V97.689H48.1114V87.267Z" fill="#EBEBEB"/>
<path d="M29.1069 87.267H32.384V97.689H29.1069V87.267Z" fill="#EBEBEB"/>
<path d="M39.5528 86.901L42.7519 87.5069L40.0989 97.6807L36.8998 97.0747L39.5528 86.901Z" fill="#EBEBEB"/>
<path d="M52.8106 85.089H54.4474V97.686H52.8106V85.089Z" fill="#EBEBEB"/>
<path d="M33.3273 85.089H34.9641V97.686H33.3273V85.089Z" fill="#EBEBEB"/>
<path d="M63.5643 85.383L66.7938 85.8575L64.4015 97.686L61.172 97.2116L63.5643 85.383Z" fill="#EBEBEB"/>
<path d="M66.7955 87.267H70.0726V97.689H66.7955V87.267Z" fill="#EBEBEB"/>
<path d="M77.2414 86.9036L80.4405 87.5096L77.7875 97.6834L74.5884 97.0774L77.2414 86.9036Z" fill="#EBEBEB"/>
<path d="M71.0125 85.089H72.6493V97.686H71.0125V85.089Z" fill="#EBEBEB"/>
<path d="M57.6013 24.135H71.3785V39.303H57.6013V24.135Z" fill="#E0E0E0"/>
<path d="M58.7946 25.122H70.1853V38.316H58.7946V25.122Z" fill="#EBEBEB"/>
<path d="M60.7728 26.307H68.207V27.027H60.7728V26.307Z" fill="#E0E0E0"/>
<path d="M63.1382 29.571C63.1382 29.7988 63.2175 30.0216 63.366 30.211C63.5146 30.4005 63.7257 30.5481 63.9727 30.6353C64.2196 30.7225 64.4914 30.7453 64.7536 30.7009C65.0158 30.6564 65.2567 30.5467 65.4457 30.3856C65.6347 30.2245 65.7635 30.0192 65.8156 29.7957C65.8678 29.5723 65.841 29.3407 65.7387 29.1302C65.6364 28.9197 65.4631 28.7397 65.2409 28.6132C65.0186 28.4866 64.7572 28.419 64.4899 28.419C64.1314 28.419 63.7876 28.5404 63.5341 28.7564C63.2806 28.9725 63.1382 29.2655 63.1382 29.571Z" fill="#E0E0E0"/>
<path d="M62.04 32.259H66.9398V32.931H62.04V32.259Z" fill="#E0E0E0"/>
<path d="M60.6601 33.843H68.3197V34.383H60.6601V33.843Z" fill="#E0E0E0"/>
<path d="M61.4205 35.553H67.5594V36.63H61.4205V35.553Z" fill="#E0E0E0"/>
<path d="M31.4266 24.135H45.2038V39.303H31.4266V24.135Z" fill="#E0E0E0"/>
<path d="M32.6199 25.122H44.0106V38.316H32.6199V25.122Z" fill="#EBEBEB"/>
<path d="M34.5981 26.307H42.0323V27.027H34.5981V26.307Z" fill="#E0E0E0"/>
<path d="M36.96 29.571C36.96 29.7989 37.0393 30.0216 37.1878 30.211C37.3363 30.4005 37.5474 30.5481 37.7944 30.6353C38.0414 30.7225 38.3132 30.7453 38.5754 30.7009C38.8376 30.6564 39.0784 30.5467 39.2675 30.3856C39.4565 30.2245 39.5852 30.0192 39.6374 29.7958C39.6895 29.5723 39.6628 29.3407 39.5605 29.1302C39.4582 28.9197 39.2849 28.7397 39.0626 28.6132C38.8403 28.4866 38.579 28.419 38.3117 28.419C38.134 28.4186 37.9581 28.4481 37.7939 28.5059C37.6296 28.5636 37.4805 28.6485 37.3548 28.7555C37.2292 28.8626 37.1297 28.9897 37.0619 29.1297C36.9942 29.2696 36.9595 29.4196 36.96 29.571Z" fill="#E0E0E0"/>
<path d="M35.8688 32.259H40.7686V32.931H35.8688V32.259Z" fill="#E0E0E0"/>
<path d="M34.4854 33.843H42.145V34.383H34.4854V33.843Z" fill="#E0E0E0"/>
<path d="M35.2458 35.553H41.3847V36.63H35.2458V35.553Z" fill="#E0E0E0"/>
<path d="M95.656 33.978C91.6046 33.978 88.3203 31.1789 88.3203 27.726C88.3203 24.2731 91.6046 21.474 95.656 21.474C99.7074 21.474 102.992 24.2731 102.992 27.726C102.992 31.1789 99.7074 33.978 95.656 33.978Z" fill="#E0E0E0"/>
<path d="M95.656 32.982C92.25 32.982 89.489 30.6288 89.489 27.726C89.489 24.8232 92.25 22.47 95.656 22.47C99.062 22.47 101.823 24.8232 101.823 27.726C101.823 30.6288 99.062 32.982 95.656 32.982Z" fill="#EBEBEB"/>
<path d="M95.656 28.026H95.6842C95.737 28.0224 95.7882 28.0086 95.8339 27.9857C95.8796 27.9629 95.9186 27.9315 95.9482 27.894L98.5002 24.669C98.5524 24.603 98.5718 24.5219 98.554 24.4437C98.5361 24.3655 98.4826 24.2966 98.4051 24.252C98.3276 24.2074 98.2325 24.1909 98.1408 24.2061C98.049 24.2213 97.9681 24.267 97.9158 24.333L95.6138 27.243L94.0086 25.743C93.9452 25.6845 93.857 25.6499 93.7636 25.6468C93.6702 25.6437 93.5792 25.6724 93.5106 25.7265C93.4419 25.7806 93.4013 25.8557 93.3977 25.9353C93.3941 26.0149 93.4277 26.0925 93.4912 26.151L95.392 27.927C95.4253 27.9585 95.466 27.9835 95.5115 28.0006C95.557 28.0177 95.6063 28.0263 95.656 28.026Z" fill="#E0E0E0"/>
<path d="M88 128.268C50.307 128.268 19.7507 126.748 19.7507 124.872C19.7507 122.996 50.307 121.476 88 121.476C125.693 121.476 156.249 122.996 156.249 124.872C156.249 126.748 125.693 128.268 88 128.268Z" fill="#F5F5F5"/>
<path d="M146.08 33.945V89.421C146.08 93.831 151.561 95.34 152.127 95.484C149.487 92.652 150.772 89.007 150.772 89.007C154.933 87.549 157.344 83.145 158.14 80.127C158.604 78.327 156.64 73.368 154.62 68.82C153.247 65.733 151.835 62.838 151.142 61.251C149.642 57.816 152.958 53.823 152.666 49.044C152.623 48.3353 152.498 47.6319 152.293 46.944C150.564 41.22 146.08 33.945 146.08 33.945Z" fill="#407BFF"/>
<path opacity="0.2" d="M152.127 95.529V95.511C149.487 92.679 150.772 89.07 150.772 89.07V89.1C147.801 89.4 145.232 91.239 152.127 95.529Z" fill="black"/>
<path opacity="0.2" d="M146.08 67.398V80.505C149.337 76.8355 152.192 72.9191 154.609 68.805C153.236 65.718 151.825 62.823 151.131 61.236C149.632 57.801 152.948 53.808 152.655 49.029C151.951 52.908 150.871 57.549 149.516 59.334C148.301 60.948 147.097 64.14 146.08 67.398Z" fill="black"/>
<path d="M144.989 33.099H146.562V123H144.989V33.099Z" fill="#263238"/>
<path opacity="0.2" d="M144.989 33.099H146.562V123H144.989V33.099Z" fill="white"/>
<path d="M147.974 121.962H143.577C142.595 123.048 141.184 123.793 139.607 124.062L138.012 124.335V124.935H153.535V124.335L151.941 124.062C150.364 123.793 148.955 123.047 147.974 121.962Z" fill="#263238"/>
<path opacity="0.1" d="M147.974 121.962H143.577C142.595 123.048 141.184 123.793 139.607 124.062L138.012 124.335H153.535L151.941 124.062C150.364 123.793 148.955 123.047 147.974 121.962Z" fill="white"/>
<path d="M144.753 33.099C144.752 33.2719 144.812 33.4411 144.924 33.5851C145.036 33.7292 145.196 33.8415 145.384 33.908C145.571 33.9744 145.777 33.992 145.976 33.9584C146.175 33.9248 146.358 33.8416 146.502 33.7193C146.645 33.597 146.743 33.4412 146.782 33.2716C146.821 33.102 146.801 32.9262 146.723 32.7665C146.645 32.6069 146.513 32.4706 146.344 32.3749C146.175 32.2792 145.977 32.2284 145.774 32.229C145.503 32.229 145.243 32.3207 145.052 32.4838C144.861 32.647 144.753 32.8683 144.753 33.099Z" fill="#263238"/>
<path opacity="0.3" d="M144.753 33.099C144.752 33.2719 144.812 33.4411 144.924 33.5851C145.036 33.7292 145.196 33.8415 145.384 33.908C145.571 33.9744 145.777 33.992 145.976 33.9584C146.175 33.9248 146.358 33.8416 146.502 33.7193C146.645 33.597 146.743 33.4412 146.782 33.2716C146.821 33.102 146.801 32.9262 146.723 32.7665C146.645 32.6069 146.513 32.4706 146.344 32.3749C146.175 32.2792 145.977 32.2284 145.774 32.229C145.503 32.229 145.243 32.3207 145.052 32.4838C144.861 32.647 144.753 32.8683 144.753 33.099Z" fill="white"/>
<path d="M117.04 47.94C114.08 48.825 107.744 57.15 108.536 60.825C109.328 64.5 117.621 65.625 117.621 65.625L117.04 47.94Z" fill="#263238"/>
<path opacity="0.3" d="M117.04 47.94C114.08 48.825 107.744 57.15 108.536 60.825C109.328 64.5 117.621 65.625 117.621 65.625L117.04 47.94Z" fill="black"/>
<path d="M118.74 122.709L115.882 122.964L115.734 121.5L115.787 121.473L115.456 117.732V117.717L118.254 117.459L118.237 117.489L118.624 121.473V121.5L118.74 122.709Z" fill="#B97964"/>
<path d="M132.986 122.4H130.219L130.187 121.68L130.184 121.614L130.057 118.578L130.053 118.512L129.99 117H132.704V117.072L132.757 117.132L133.056 121.461V121.53L132.986 122.4Z" fill="#B97964"/>
<path d="M129.835 122.259H133.197C133.252 122.259 133.306 122.275 133.349 122.304C133.392 122.334 133.421 122.375 133.433 122.421L133.978 124.521C134 124.611 133.979 124.705 133.92 124.782C133.86 124.859 133.767 124.913 133.661 124.932C133.632 124.935 133.603 124.935 133.573 124.932C132.486 124.917 131.694 124.86 130.328 124.86C129.487 124.86 126.949 124.935 125.787 124.935C124.626 124.935 124.474 123.957 124.949 123.867C127.083 123.471 128.688 122.922 129.371 122.4C129.499 122.304 129.665 122.253 129.835 122.259Z" fill="#263238"/>
<path d="M115.579 122.184H118.941C118.996 122.184 119.05 122.2 119.093 122.229C119.136 122.259 119.165 122.3 119.177 122.346L119.722 124.446C119.744 124.536 119.723 124.63 119.664 124.707C119.604 124.784 119.511 124.838 119.405 124.857C119.376 124.86 119.347 124.86 119.317 124.857C118.23 124.842 117.438 124.785 116.072 124.785C115.231 124.785 112.693 124.86 111.531 124.86C110.37 124.86 110.218 123.882 110.693 123.792C112.827 123.396 114.432 122.847 115.115 122.325C115.243 122.229 115.409 122.179 115.579 122.184Z" fill="#263238"/>
<path opacity="0.2" d="M118.613 121.5H115.731L115.347 117.732L118.202 117.48L118.205 117.489L118.61 121.473L118.613 121.5Z" fill="black"/>
<path opacity="0.2" d="M132.894 121.59L130.187 121.8H130.184L130.053 118.641L130.057 118.608L132.651 117.147L132.887 121.5L132.894 121.59Z" fill="black"/>
<path d="M133.588 121.05L129.342 121.473C129.342 121.473 126.206 103.581 124.886 95.868C124.865 95.745 124.847 95.625 124.826 95.508C124.305 92.463 123.707 86.736 123.2 81.354C122.911 82.014 122.647 82.743 122.401 83.538C122.348 83.703 122.295 83.871 122.246 84.042C122.197 84.213 122.13 84.447 122.074 84.642C122.017 84.837 121.968 85.038 121.915 85.242C121.824 85.608 121.732 85.986 121.644 86.37C118.793 98.829 118.737 120.837 118.737 120.837L114.724 121.044C111.802 101.955 115.027 79.044 116.611 70.725C116.609 70.7379 116.609 70.751 116.611 70.764C116.639 70.608 116.67 70.464 116.699 70.299C116.697 70.288 116.697 70.2769 116.699 70.266C116.776 69.861 116.85 69.588 116.917 69.288H131.592C131.592 69.288 131.592 69.396 131.592 69.471C131.592 69.546 131.592 69.648 131.592 69.753C131.592 69.858 131.592 69.909 131.592 69.999C131.592 70.089 131.592 70.101 131.592 70.155C131.592 70.209 131.592 70.266 131.592 70.326C131.592 70.596 131.592 70.911 131.592 71.265C131.592 71.391 131.592 71.523 131.592 71.661C131.592 71.739 131.592 71.817 131.592 71.895C131.592 71.973 131.592 72.117 131.592 72.234C131.637 75.414 131.732 80.634 131.877 85.734C131.877 85.935 131.877 86.136 131.894 86.334C131.912 86.532 131.894 86.652 131.894 86.811C131.947 88.611 132.007 90.357 132.077 91.98C132.148 93.603 132.222 95.079 132.303 96.33C132.303 96.444 132.303 96.564 132.324 96.684C132.324 96.855 132.345 97.032 132.359 97.215C132.919 105 133.588 121.05 133.588 121.05Z" fill="#263238"/>
<path opacity="0.3" d="M133.588 121.05L129.342 121.473C129.342 121.473 126.206 103.581 124.886 95.868C124.865 95.745 124.847 95.625 124.826 95.508C124.305 92.463 123.707 86.736 123.2 81.354C122.911 82.014 122.647 82.743 122.401 83.538C122.348 83.703 122.295 83.871 122.246 84.042C122.197 84.213 122.13 84.447 122.074 84.642C122.017 84.837 121.968 85.038 121.915 85.242C121.824 85.608 121.732 85.986 121.644 86.37C118.793 98.829 118.737 120.837 118.737 120.837L114.724 121.044C111.802 101.955 115.027 79.044 116.611 70.725C116.609 70.713 116.609 70.7009 116.611 70.689C116.639 70.554 116.67 70.425 116.699 70.299C116.697 70.288 116.697 70.2769 116.699 70.266C116.78 69.9 116.853 69.588 116.917 69.288H131.616C131.616 69.288 131.616 69.396 131.616 69.471C131.616 69.546 131.616 69.645 131.616 69.753C131.616 69.861 131.616 69.909 131.616 69.999V70.155C131.616 70.209 131.616 70.266 131.616 70.326C131.616 70.596 131.616 70.911 131.616 71.265C131.616 71.391 131.616 71.523 131.616 71.661C131.616 71.739 131.616 71.817 131.616 71.895C131.616 71.973 131.616 72.117 131.616 72.234C131.662 75.414 131.757 80.634 131.901 85.734C131.901 85.935 131.901 86.136 131.919 86.334C131.937 86.532 131.919 86.652 131.919 86.811C131.972 88.611 132.032 90.357 132.102 91.98C132.172 93.603 132.243 95.136 132.327 96.405C132.327 96.495 132.327 96.588 132.348 96.684C132.348 96.855 132.37 97.032 132.384 97.215C132.919 105 133.588 121.05 133.588 121.05Z" fill="black"/>
<path d="M135.816 109.266C135.816 109.266 124.745 111.729 111.01 109.266C111.01 109.266 111.63 89.358 113.854 69.294C114.347 64.839 114.91 60.372 115.586 56.118C116.03 53.277 116.512 50.529 117.04 47.94C122.693 46.6743 128.665 46.9045 134.161 48.6C134.161 48.6 133.883 54.693 133.746 63.315C133.721 64.815 133.7 66.372 133.69 67.998C133.577 81.282 133.89 98.4 135.816 109.266Z" fill="#263238"/>
<path d="M121.021 37.2C120.377 38.349 121.067 40.764 122.588 41.25C124.928 41.997 124.612 36.45 124.612 36.45C124.612 36.45 121.792 35.811 121.021 37.2Z" fill="#263238"/>
<path d="M129.261 47.775C127.913 48.819 124.612 48.432 124.612 48.432C124.612 48.432 122.549 47.9519 122.982 47.4029C124.196 47.2319 124.784 46.749 125.027 46.131C125.16 45.7479 125.202 45.346 125.15 44.949C125.13 44.7276 125.096 44.5072 125.048 44.289L129.131 41.7C128.596 43.413 127.941 46.542 129.261 47.775Z" fill="#B97964"/>
<path opacity="0.2" d="M128.188 43.35C128.026 45.45 126.012 46.014 125.02 46.131C125.153 45.7479 125.195 45.346 125.143 44.949L128.188 43.35Z" fill="black"/>
<path d="M128.462 43.833C128.038 44.3681 127.42 44.7697 126.702 44.9762C125.984 45.1827 125.206 45.1826 124.488 44.976C123.555 44.7226 122.769 44.1769 122.288 43.449C122.221 43.3517 122.16 43.2515 122.105 43.149C121.109 41.163 120.792 37.689 123.256 36.387C123.798 36.097 124.418 35.9298 125.057 35.9015C125.696 35.8731 126.333 35.9845 126.907 36.225C127.481 36.4655 127.974 36.8271 128.338 37.2755C128.702 37.7239 128.925 38.2442 128.987 38.787C129.29 41.1 129.596 42.459 128.462 43.833Z" fill="#B97964"/>
<path d="M125.016 40.026C125.066 40.209 124.967 40.38 124.823 40.401C124.678 40.422 124.531 40.287 124.492 40.101C124.453 39.915 124.545 39.747 124.685 39.726C124.826 39.705 124.96 39.834 125.016 40.026Z" fill="#263238"/>
<path d="M122.528 40.386C122.58 40.569 122.478 40.743 122.334 40.764C122.19 40.785 122.045 40.647 122.007 40.464C121.968 40.281 122.056 40.107 122.2 40.086C122.345 40.065 122.496 40.2 122.528 40.386Z" fill="#263238"/>
<path d="M123.337 40.365C123.189 40.976 122.943 41.5666 122.605 42.12C122.776 42.188 122.962 42.2233 123.151 42.2233C123.339 42.2233 123.526 42.188 123.696 42.12L123.337 40.365Z" fill="#A24E3F"/>
<path d="M125.664 39.225C125.641 39.232 125.617 39.2334 125.593 39.2292C125.57 39.2249 125.548 39.2152 125.53 39.201C125.413 39.1026 125.271 39.0288 125.114 38.9856C124.958 38.9423 124.792 38.9308 124.629 38.952C124.596 38.9592 124.56 38.9547 124.53 38.9395C124.501 38.9243 124.479 38.8996 124.471 38.871C124.462 38.8424 124.468 38.812 124.485 38.7867C124.503 38.7614 124.532 38.7432 124.566 38.736C124.77 38.7047 124.98 38.7155 125.179 38.7677C125.377 38.8199 125.558 38.9119 125.706 39.036C125.73 39.0568 125.744 39.0848 125.744 39.114C125.744 39.1432 125.73 39.1712 125.706 39.192C125.695 39.2051 125.68 39.2163 125.664 39.225Z" fill="#263238"/>
<path d="M124.256 43.053C124.579 43.0483 124.896 42.9772 125.18 42.8455C125.464 42.7139 125.706 42.5257 125.886 42.297C125.895 42.2834 125.897 42.2673 125.893 42.2522C125.888 42.2371 125.877 42.2241 125.861 42.216C125.846 42.2081 125.828 42.2056 125.811 42.209C125.794 42.2123 125.779 42.2213 125.77 42.234C125.598 42.4426 125.371 42.6142 125.108 42.735C124.844 42.8558 124.551 42.9226 124.252 42.93C124.235 42.9307 124.218 42.9369 124.206 42.9475C124.194 42.958 124.186 42.9721 124.186 42.987C124.186 43.0021 124.193 43.0166 124.205 43.0273C124.218 43.038 124.235 43.044 124.252 43.044L124.256 43.053Z" fill="#263238"/>
<path d="M121.313 39.81C121.29 39.8218 121.263 39.8281 121.236 39.828C121.219 39.8239 121.204 39.817 121.191 39.8079C121.178 39.7987 121.166 39.7874 121.158 39.7746C121.15 39.7617 121.145 39.7477 121.143 39.7332C121.141 39.7187 121.143 39.704 121.148 39.69C121.202 39.5186 121.303 39.3608 121.443 39.2297C121.583 39.0987 121.759 38.9983 121.954 38.937C121.97 38.9329 121.988 38.9315 122.005 38.933C122.022 38.9346 122.038 38.9389 122.053 38.9459C122.068 38.9529 122.081 38.9623 122.092 38.9736C122.103 38.985 122.111 38.998 122.116 39.012C122.124 39.0402 122.119 39.07 122.103 39.0955C122.087 39.121 122.06 39.1404 122.028 39.15C121.876 39.2018 121.74 39.283 121.632 39.3871C121.523 39.4913 121.444 39.6155 121.401 39.75C121.393 39.7653 121.381 39.7787 121.366 39.7891C121.351 39.7995 121.332 39.8067 121.313 39.81Z" fill="#263238"/>
<path d="M128.04 34.8C130.282 35.301 130.578 37.95 130.261 40.365C129.987 42.465 128.688 43.449 128.688 43.449C129.276 42.45 129.1 40.5 128.716 40.449C128.332 40.398 128.364 40.776 128.364 40.776C127.516 40.323 126.28 39.6 127.227 37.425C127.34 37.167 127.424 36.564 127.012 36.339C126.22 35.901 125.115 36.318 125.115 36.318C125.115 36.318 122.362 39.264 121.042 36.825C120.384 35.616 125.576 34.251 128.04 34.8Z" fill="#263238"/>
<path opacity="0.2" d="M124.488 44.976C123.555 44.7225 122.769 44.1769 122.288 43.449C122.954 43.449 123.922 43.482 124.175 43.614C124.428 43.746 124.485 44.469 124.488 44.976Z" fill="black"/>
<path d="M130.546 40.5C130.349 41.0644 129.899 41.5399 129.293 41.823C128.487 42.192 127.885 41.616 127.941 40.881C127.998 40.224 128.473 39.222 129.367 39.165C130.261 39.108 130.775 39.804 130.546 40.5Z" fill="#B97964"/>
<path d="M129.283 47.319C129.283 47.319 123.411 61.05 125.984 107.85L131.24 107.214C131.24 107.214 126.607 73.2 132.912 47.94L129.283 47.319Z" fill="#407BFF"/>
<path d="M123.552 46.83C123.552 46.83 117.631 60.525 114.97 107.4L111.714 106.95C111.714 106.95 115.234 54.825 120.461 46.902L123.552 46.83Z" fill="#407BFF"/>
<path d="M118.863 52.173L122.176 47.577C122.724 47.476 123.213 47.211 123.552 46.83C124.059 46.23 124.379 43.83 124.14 43.728C123.9 43.626 121.324 43.878 121.148 44.172C120.972 44.466 120.461 46.902 120.461 46.902L116.646 50.715L118.863 52.173Z" fill="#B97964"/>
<path opacity="0.2" d="M119.888 53.025C119.888 53.025 117.776 67.29 113.854 69.294C114.347 64.839 114.91 60.372 115.586 56.118L119.888 53.025Z" fill="black"/>
<path d="M128.554 46.272C129.489 46.636 130.317 47.1742 130.976 47.847L129.261 50.139L128.188 49.839L128.072 57.912C128.072 57.912 122.725 58.686 119.184 57.231L122.288 49.476L121.363 49.542C121.363 49.542 121.567 46.902 125.027 46.143C125.027 46.143 124.21 47.505 124.323 47.694L127.449 47.859L128.554 46.272Z" fill="#407BFF"/>
<path opacity="0.6" d="M128.554 46.272C129.489 46.636 130.317 47.1742 130.976 47.847L129.261 50.139L128.188 49.839L128.072 57.912C128.072 57.912 122.725 58.686 119.184 57.231L122.288 49.476L121.363 49.542C121.363 49.542 121.567 46.902 125.027 46.143C125.027 46.143 124.21 47.505 124.323 47.694L127.449 47.859L128.554 46.272Z" fill="white"/>
<path opacity="0.2" d="M128.188 49.827L127.938 48.324L129.261 50.139L128.188 49.827Z" fill="black"/>
<path opacity="0.2" d="M122.288 49.464L123.696 47.847L121.363 49.53L122.288 49.464Z" fill="black"/>
<path opacity="0.2" d="M133.76 63.318C133.735 64.818 133.714 66.375 133.704 68.001C127.199 68.517 123.556 65.625 123.556 65.625L133.76 63.318Z" fill="black"/>
<path d="M108.493 59.652C108.574 58.23 117.093 49.53 117.093 49.53L119.888 53.025L114.368 64.914C114.368 64.914 108.233 64.365 108.493 59.652Z" fill="#263238"/>
<path d="M108.48 57.2643L114.527 62.5216C114.568 62.5574 114.624 62.5778 114.683 62.5783C114.741 62.5788 114.798 62.5593 114.84 62.5243L115.3 62.1399C115.341 62.1054 115.365 62.0583 115.366 62.009C115.366 61.9596 115.344 61.9121 115.303 61.8769L109.254 56.6175L108.48 57.2643Z" fill="#407BFF"/>
<path d="M107.663 59.121L105.755 57.459C106.608 56.1965 107.853 55.1585 109.352 54.459L111.264 56.1C110.413 57.3708 109.167 58.4164 107.663 59.121Z" fill="#407BFF"/>
<path opacity="0.2" d="M107.663 59.121L105.755 57.459C106.608 56.1965 107.853 55.1585 109.352 54.459L111.264 56.1C110.413 57.3708 109.167 58.4164 107.663 59.121Z" fill="black"/>
<path d="M111.161 56.4929L108.908 54.5349C108.84 54.4757 108.841 54.3807 108.911 54.3227L109.27 54.0224C109.34 53.9644 109.451 53.9654 109.519 54.0245L111.771 55.9826C111.839 56.0418 111.838 56.1367 111.769 56.1947L111.409 56.495C111.34 56.553 111.229 56.5521 111.161 56.4929Z" fill="#407BFF"/>
<path d="M107.496 59.5549L105.243 57.5968C105.175 57.5376 105.177 57.4427 105.246 57.3847L105.605 57.0844C105.675 57.0264 105.786 57.0273 105.854 57.0865L108.107 59.0446C108.175 59.1037 108.173 59.1987 108.104 59.2567L107.745 59.557C107.675 59.615 107.564 59.614 107.496 59.5549Z" fill="#407BFF"/>
<path d="M121.824 59.592L115.509 59.217C115.15 58.8537 114.651 58.6113 114.101 58.533C113.224 58.431 110.602 59.292 110.602 59.523C110.602 59.754 112.059 61.578 112.45 61.578C112.841 61.578 115.618 60.831 115.618 60.831L121.348 61.95L121.824 59.592Z" fill="#B97964"/>
<path d="M134.161 48.6C137.4 50.022 141.096 59.547 138.385 63.6C135.675 67.653 121.158 66.822 121.158 66.822L118.04 59.1C118.04 59.1 129.48 60.369 131.856 58.908C133.32 58.008 133.39 54.024 133.588 51.312C133.633 50.3899 133.826 49.4775 134.161 48.6Z" fill="#263238"/>
<path opacity="0.3" d="M134.161 48.6C137.4 50.022 141.096 59.547 138.385 63.6C135.675 67.653 121.158 66.822 121.158 66.822L118.04 59.1C118.04 59.1 129.48 60.369 131.856 58.908C133.32 58.008 133.39 54.024 133.588 51.312C133.633 50.3899 133.826 49.4775 134.161 48.6Z" fill="black"/>
<path d="M123.862 41.13C123.861 41.2452 123.901 41.358 123.975 41.4541C124.05 41.5502 124.156 41.6253 124.281 41.6698C124.406 41.7143 124.543 41.7263 124.676 41.7041C124.808 41.682 124.93 41.6268 125.026 41.5456C125.122 41.4643 125.187 41.3606 125.214 41.2476C125.241 41.1346 125.227 41.0175 125.176 40.9109C125.124 40.8044 125.037 40.7133 124.924 40.6493C124.812 40.5852 124.68 40.551 124.545 40.551C124.364 40.551 124.191 40.6119 124.063 40.7204C123.935 40.8289 123.863 40.9761 123.862 41.13Z" stroke="#263238" stroke-width="0.5" stroke-miterlimit="10"/>
<path d="M121.44 41.421C121.44 41.5362 121.48 41.6489 121.555 41.7446C121.631 41.8404 121.737 41.915 121.862 41.959C121.987 42.0029 122.125 42.0143 122.257 41.9916C122.39 41.9689 122.512 41.9132 122.607 41.8315C122.702 41.7498 122.767 41.6458 122.793 41.5327C122.819 41.4196 122.805 41.3025 122.753 41.1962C122.701 41.0899 122.612 40.9992 122.5 40.9356C122.387 40.872 122.255 40.8384 122.119 40.839C122.03 40.8386 121.941 40.8534 121.858 40.8825C121.775 40.9117 121.7 40.9546 121.637 41.0087C121.573 41.0629 121.524 41.1273 121.49 41.198C121.456 41.2688 121.439 41.3446 121.44 41.421Z" stroke="#263238" stroke-width="0.5" stroke-miterlimit="10"/>
<path d="M127.938 39.828L125.224 41.025" stroke="#263238" stroke-width="0.5" stroke-miterlimit="10"/>
<path d="M123.862 41.25C123.862 41.25 123.158 40.911 122.806 41.421" stroke="#263238" stroke-width="0.5" stroke-miterlimit="10"/>
<path d="M59.5056 57.642H61.0122V59.715H59.5056V57.642Z" fill="#407BFF"/>
<path opacity="0.2" d="M59.5056 57.642H61.0122V59.715H59.5056V57.642Z" fill="black"/>
<path d="M61.3536 122.01H59.1606L59.1606 74.976H61.3536L61.3536 122.01Z" fill="#263238"/>
<path d="M54.912 113.184C54.9123 112.429 55.1389 111.688 55.5701 111.029C56.0013 110.37 56.623 109.816 57.376 109.419L57.545 106.8H62.9552L63.1277 109.419C63.8409 109.802 64.4359 110.326 64.8631 110.945C65.2903 111.565 65.5371 112.263 65.5829 112.98C65.6288 113.698 65.4723 114.415 65.1266 115.07C64.7809 115.725 64.256 116.301 63.5959 116.748L63.7648 119.4H56.753L56.9219 116.73C56.2956 116.306 55.7895 115.767 55.4415 115.153C55.0935 114.539 54.9125 113.866 54.912 113.184Z" fill="#407BFF"/>
<path opacity="0.1" d="M57.3936 109.5L57.5626 106.8H62.9552L63.1277 109.5H57.3936Z" fill="white"/>
<path opacity="0.2" d="M63.5958 116.937L63.7648 119.658H56.753L56.9219 116.931L63.5958 116.937Z" fill="black"/>
<path d="M65.2256 118.2H55.2957C53.0757 120.648 49.8934 122.331 46.3338 122.94L42.7328 123.54V124.923H77.792V123.54L74.191 122.94C70.6298 122.333 67.4458 120.65 65.2256 118.2Z" fill="#263238"/>
<path opacity="0.1" d="M65.2256 118.2H55.2957C53.0757 120.648 49.8934 122.331 46.3338 122.94L42.7328 123.54H77.792L74.191 122.94C70.6298 122.333 67.4458 120.65 65.2256 118.2Z" fill="white"/>
<path d="M58.601 65.979H61.9168V76.296H58.601V65.979Z" fill="#407BFF"/>
<path opacity="0.2" d="M58.601 65.979H61.9168V76.296H58.601V65.979Z" fill="black"/>
<path d="M59.4528 58.062C59.3865 57.9547 59.3515 57.8353 59.3507 57.714C59.3507 57.5087 59.4464 57.3119 59.6167 57.1667C59.787 57.0215 60.018 56.94 60.2589 56.94C60.4997 56.94 60.7307 57.0215 60.901 57.1667C61.0714 57.3119 61.167 57.5087 61.167 57.714C61.1657 57.8349 61.1319 57.9539 61.0685 58.062H59.4528Z" fill="#407BFF"/>
<path d="M17.8746 100.086C17.943 99.9721 17.957 99.8401 17.9136 99.7176C17.8703 99.5951 17.7731 99.4917 17.6422 99.429C17.3923 99.348 17.0896 99.516 16.9664 99.804C16.9202 99.8577 16.8893 99.9198 16.8761 99.9854C16.863 100.051 16.8679 100.118 16.8906 100.182C16.9132 100.246 16.953 100.304 17.0067 100.353C17.0604 100.401 17.1266 100.438 17.2 100.461C17.2734 100.484 17.352 100.491 17.4296 100.484C17.5072 100.476 17.5817 100.453 17.6472 100.417C17.7126 100.381 17.7672 100.332 17.8067 100.274C17.8462 100.217 17.8694 100.152 17.8746 100.086Z" stroke="#263238" stroke-miterlimit="10"/>
<path d="M17.5613 99.615L18.0435 98.49" stroke="#263238" stroke-linecap="round" stroke-linejoin="round"/>
<path d="M18.5997 98.4C18.6051 98.3206 18.5845 98.2416 18.5402 98.1716C18.4959 98.1016 18.4297 98.0435 18.349 98.0038C18.2682 97.964 18.1761 97.9441 18.0828 97.9464C17.9896 97.9487 17.899 97.973 17.821 98.0166C17.743 98.0602 17.6808 98.1214 17.6412 98.1934C17.6017 98.2654 17.5864 98.3453 17.5971 98.4243C17.6078 98.5033 17.644 98.5782 17.7017 98.6406C17.7594 98.7031 17.8363 98.7506 17.9238 98.778C18.1738 98.85 18.4765 98.682 18.5997 98.4Z" stroke="#263238" stroke-miterlimit="10"/>
<path d="M18.2864 97.926L18.7686 96.798" stroke="#263238" stroke-linecap="round" stroke-linejoin="round"/>
<path d="M19.3248 96.705C19.3934 96.5907 19.4075 96.4582 19.3642 96.3353C19.3209 96.2123 19.2236 96.1083 19.0925 96.045C18.8426 95.967 18.5399 96.135 18.4167 96.423C18.3705 96.4767 18.3395 96.5388 18.3264 96.6045C18.3132 96.6701 18.3182 96.7375 18.3408 96.8012C18.3635 96.8649 18.4032 96.9233 18.457 96.9716C18.5107 97.02 18.5768 97.057 18.6502 97.0798C18.7236 97.1026 18.8023 97.1105 18.8799 97.1029C18.9575 97.0954 19.032 97.0725 19.0974 97.0361C19.1629 96.9998 19.2175 96.9509 19.257 96.8934C19.2964 96.836 19.3197 96.7715 19.3248 96.705Z" stroke="#263238" stroke-miterlimit="10"/>
<path d="M19.0115 96.234L19.4938 95.109" stroke="#263238" stroke-linecap="round" stroke-linejoin="round"/>
<path d="M20.064 95.013C20.0654 94.9354 20.042 94.8589 19.9963 94.7917C19.9507 94.7245 19.8845 94.6691 19.8049 94.6314C19.7252 94.5938 19.635 94.5752 19.544 94.5778C19.4529 94.5804 19.3644 94.604 19.2878 94.6461C19.2113 94.6881 19.1496 94.7472 19.1093 94.8168C19.069 94.8864 19.0516 94.9641 19.059 95.0414C19.0664 95.1188 19.0983 95.1931 19.1513 95.2562C19.2043 95.3193 19.2764 95.369 19.36 95.4C19.624 95.469 19.9267 95.301 20.064 95.013Z" stroke="#263238" stroke-miterlimit="10"/>
<path d="M19.7366 94.545L20.2189 93.417" stroke="#263238" stroke-linecap="round" stroke-linejoin="round"/>
<path d="M20.768 93.324C20.774 93.2446 20.754 93.1653 20.7102 93.095C20.6663 93.0247 20.6004 92.9662 20.5198 92.926C20.4392 92.8858 20.347 92.8655 20.2536 92.8674C20.1603 92.8693 20.0693 92.8934 19.9911 92.9368C19.9128 92.9802 19.8502 93.0414 19.8104 93.1134C19.7706 93.1854 19.755 93.2654 19.7655 93.3445C19.776 93.4236 19.8121 93.4987 19.8698 93.5613C19.9275 93.6239 20.0045 93.6716 20.0922 93.699C20.2398 93.7225 20.3923 93.6966 20.5182 93.6268C20.644 93.557 20.7335 93.4485 20.768 93.324Z" stroke="#263238" stroke-miterlimit="10"/>
<path d="M20.4618 92.853L20.944 91.725" stroke="#263238" stroke-linecap="round" stroke-linejoin="round"/>
<path d="M21.5002 91.632C21.5062 91.5526 21.4862 91.4733 21.4423 91.403C21.3985 91.3327 21.3326 91.2742 21.252 91.234C21.1713 91.1938 21.0792 91.1735 20.9858 91.1754C20.8924 91.1773 20.8015 91.2013 20.7232 91.2448C20.645 91.2882 20.5824 91.3494 20.5426 91.4214C20.5027 91.4934 20.4872 91.5734 20.4977 91.6525C20.5082 91.7316 20.5443 91.8066 20.602 91.8692C20.6597 91.9319 20.7367 91.9796 20.8243 92.007C20.972 92.0312 21.125 92.0057 21.2511 91.9358C21.3771 91.8658 21.4664 91.7569 21.5002 91.632Z" stroke="#263238" stroke-miterlimit="10"/>
<path d="M21.1869 91.164L21.6691 90.036" stroke="#263238" stroke-linecap="round" stroke-linejoin="round"/>
<path d="M22.2253 89.943C22.2313 89.8636 22.2113 89.7843 22.1675 89.714C22.1236 89.6437 22.0577 89.5852 21.9771 89.545C21.8964 89.5048 21.8043 89.4845 21.7109 89.4865C21.6175 89.4884 21.5266 89.5124 21.4483 89.5558C21.3701 89.5992 21.3075 89.6604 21.2677 89.7324C21.2279 89.8044 21.2123 89.8844 21.2228 89.9635C21.2333 90.0426 21.2694 90.1177 21.3271 90.1803C21.3848 90.2429 21.4618 90.2906 21.5495 90.318C21.6971 90.3415 21.8496 90.3156 21.9754 90.2458C22.1013 90.176 22.1908 90.0676 22.2253 89.943Z" stroke="#263238" stroke-miterlimit="10"/>
<path d="M21.912 89.472L22.3942 88.344" stroke="#263238" stroke-linecap="round" stroke-linejoin="round"/>
<path d="M22.9504 88.251C22.9564 88.1716 22.9364 88.0923 22.8926 88.022C22.8487 87.9517 22.7828 87.8932 22.7022 87.853C22.6215 87.8128 22.5294 87.7925 22.436 87.7944C22.3426 87.7963 22.2517 87.8204 22.1734 87.8638C22.0952 87.9072 22.0326 87.9684 21.9928 88.0404C21.953 88.1124 21.9374 88.1924 21.9479 88.2715C21.9584 88.3506 21.9945 88.4257 22.0522 88.4883C22.1099 88.5509 22.1869 88.5986 22.2746 88.626C22.4223 88.6503 22.5752 88.6247 22.7013 88.5548C22.8273 88.4848 22.9166 88.3759 22.9504 88.251Z" stroke="#263238" stroke-miterlimit="10"/>
<path d="M22.6371 87.783L23.1194 86.655" stroke="#263238" stroke-linecap="round" stroke-linejoin="round"/>
<path d="M23.6755 86.562C23.6825 86.4817 23.663 86.4014 23.6192 86.33C23.5755 86.2587 23.5092 86.1992 23.4279 86.1582C23.3466 86.1173 23.2535 86.0965 23.159 86.0982C23.0646 86.1 22.9726 86.1242 22.8935 86.1681C22.8143 86.212 22.7511 86.2739 22.711 86.3468C22.671 86.4197 22.6556 86.5007 22.6666 86.5807C22.6777 86.6606 22.7147 86.7363 22.7735 86.7993C22.8324 86.8623 22.9107 86.91 22.9997 86.937C23.1473 86.9605 23.2998 86.9346 23.4257 86.8648C23.5515 86.795 23.641 86.6866 23.6755 86.562Z" stroke="#263238" stroke-miterlimit="10"/>
<path d="M23.3622 86.091L23.8445 84.963" stroke="#263238" stroke-linecap="round" stroke-linejoin="round"/>
<path d="M24.4007 84.87C24.4688 84.7558 24.4822 84.6235 24.4382 84.501C24.3943 84.3784 24.2962 84.2752 24.1648 84.213C23.9149 84.132 23.6122 84.303 23.489 84.588C23.4439 84.6419 23.414 84.7039 23.4018 84.7692C23.3895 84.8345 23.3951 84.9014 23.4181 84.9645C23.4412 85.0277 23.4811 85.0855 23.5346 85.1333C23.5882 85.1812 23.6541 85.2178 23.727 85.2404C23.8 85.263 23.8781 85.2708 23.9552 85.2634C24.0324 85.256 24.1064 85.2335 24.1716 85.1976C24.2369 85.1618 24.2915 85.1135 24.3312 85.0567C24.3709 84.9999 24.3947 84.936 24.4007 84.87Z" stroke="#263238" stroke-miterlimit="10"/>
<path d="M24.0838 84.399L24.5696 83.274" stroke="#263238" stroke-linecap="round" stroke-linejoin="round"/>
<path d="M25.1258 83.181C25.1325 83.1009 25.1129 83.0208 25.0691 82.9496C25.0253 82.8785 24.9592 82.8192 24.878 82.7783C24.7969 82.7374 24.704 82.7166 24.6098 82.7183C24.5156 82.7199 24.4237 82.7439 24.3446 82.7876C24.2655 82.8313 24.2023 82.8929 24.162 82.9655C24.1217 83.0381 24.1059 83.1188 24.1165 83.1987C24.1271 83.2785 24.1635 83.3542 24.2218 83.4173C24.2801 83.4805 24.3579 83.5285 24.4464 83.556C24.5945 83.5803 24.748 83.5549 24.8746 83.485C25.0012 83.4151 25.0912 83.3062 25.1258 83.181Z" stroke="#263238" stroke-miterlimit="10"/>
<path d="M24.809 82.71L25.2947 81.582" stroke="#263238" stroke-linecap="round" stroke-linejoin="round"/>
<path d="M25.8474 81.489C25.9159 81.3747 25.93 81.2422 25.8868 81.1193C25.8435 80.9963 25.7461 80.8923 25.615 80.829C25.3651 80.751 25.0624 80.919 24.9392 81.207C24.893 81.2607 24.8621 81.3228 24.8489 81.3885C24.8358 81.4541 24.8407 81.5214 24.8634 81.5852C24.886 81.6489 24.9258 81.7073 24.9795 81.7556C25.0332 81.804 25.0994 81.841 25.1728 81.8638C25.2462 81.8866 25.3248 81.8945 25.4024 81.8869C25.4801 81.8794 25.5545 81.8565 25.62 81.8201C25.6854 81.7838 25.7401 81.7349 25.7795 81.6774C25.819 81.62 25.8422 81.5555 25.8474 81.489Z" stroke="#263238" stroke-miterlimit="10"/>
<path d="M25.5341 81.018L26.0198 79.893" stroke="#263238" stroke-linecap="round" stroke-linejoin="round"/>
<path d="M26.5725 79.8C26.6418 79.6863 26.6563 79.554 26.6129 79.4313C26.5695 79.3086 26.4716 79.2051 26.3401 79.143C26.2261 79.0706 26.0882 79.0308 25.9461 79.029C25.8039 79.0273 25.6648 79.0639 25.5484 79.1335C25.432 79.203 25.3444 79.3021 25.2979 79.4166C25.2514 79.5311 25.2484 79.6552 25.2894 79.7712C25.3305 79.8872 25.4134 79.9892 25.5263 80.0628C25.6393 80.1363 25.7766 80.1776 25.9188 80.1808C26.0609 80.184 26.2005 80.1489 26.3179 80.0805C26.4353 80.0122 26.5243 79.914 26.5725 79.8Z" stroke="#263238" stroke-miterlimit="10"/>
<path d="M26.2592 79.329L26.745 78.201" stroke="#263238" stroke-linecap="round" stroke-linejoin="round"/>
<path d="M27.2976 78.108C27.3036 78.0286 27.2836 77.9493 27.2398 77.879C27.1959 77.8087 27.13 77.7502 27.0494 77.71C26.9687 77.6698 26.8766 77.6495 26.7832 77.6514C26.6898 77.6533 26.5989 77.6774 26.5206 77.7208C26.4424 77.7642 26.3798 77.8254 26.34 77.8974C26.3002 77.9694 26.2846 78.0494 26.2951 78.1285C26.3056 78.2076 26.3417 78.2827 26.3994 78.3453C26.4571 78.4079 26.5341 78.4556 26.6218 78.483C26.7694 78.5065 26.9219 78.4806 27.0477 78.4108C27.1736 78.341 27.263 78.2325 27.2976 78.108Z" stroke="#263238" stroke-miterlimit="10"/>
<path d="M26.9843 77.637L27.4666 76.509" stroke="#263238" stroke-linecap="round" stroke-linejoin="round"/>
<path d="M28.0227 76.416C28.0287 76.3366 28.0087 76.2572 27.9649 76.187C27.9211 76.1167 27.8551 76.0581 27.7745 76.018C27.6939 75.9778 27.6017 75.9575 27.5083 75.9594C27.415 75.9613 27.3241 75.9853 27.2458 76.0288C27.1675 76.0722 27.1049 76.1333 27.0651 76.2053C27.0253 76.2774 27.0097 76.3574 27.0202 76.4365C27.0307 76.5156 27.0668 76.5906 27.1245 76.6532C27.1822 76.7159 27.2592 76.7635 27.3469 76.791C27.4946 76.8152 27.6476 76.7897 27.7736 76.7198C27.8997 76.6498 27.989 76.5409 28.0227 76.416Z" stroke="#263238" stroke-miterlimit="10"/>
<path d="M27.7094 75.948L28.1917 74.82" stroke="#263238" stroke-linecap="round" stroke-linejoin="round"/>
<path d="M28.7479 74.727C28.7539 74.6476 28.7339 74.5683 28.69 74.498C28.6462 74.4277 28.5803 74.3692 28.4996 74.329C28.419 74.2888 28.3269 74.2685 28.2335 74.2704C28.1401 74.2724 28.0492 74.2964 27.9709 74.3398C27.8926 74.3832 27.8301 74.4444 27.7902 74.5164C27.7504 74.5884 27.7349 74.6684 27.7454 74.7475C27.7559 74.8266 27.792 74.9017 27.8497 74.9643C27.9073 75.0269 27.9843 75.0746 28.072 75.102C28.2196 75.1255 28.3722 75.0996 28.498 75.0298C28.6238 74.96 28.7133 74.8516 28.7479 74.727Z" stroke="#263238" stroke-miterlimit="10"/>
<path d="M28.4346 74.256L28.9168 73.128" stroke="#263238" stroke-linecap="round" stroke-linejoin="round"/>
<path d="M29.473 73.035C29.479 72.9556 29.459 72.8763 29.4151 72.806C29.3713 72.7357 29.3054 72.6772 29.2247 72.637C29.1441 72.5968 29.052 72.5765 28.9586 72.5784C28.8652 72.5803 28.7743 72.6044 28.696 72.6478C28.6177 72.6912 28.5552 72.7524 28.5154 72.8244C28.4755 72.8964 28.46 72.9764 28.4705 73.0555C28.481 73.1346 28.5171 73.2097 28.5748 73.2723C28.6325 73.3349 28.7094 73.3826 28.7971 73.41C28.9448 73.4343 29.0978 73.4087 29.2239 73.3388C29.3499 73.2688 29.4392 73.1599 29.473 73.035Z" stroke="#263238" stroke-miterlimit="10"/>
<path d="M29.1597 72.567L29.6419 71.439" stroke="#263238" stroke-linecap="round" stroke-linejoin="round"/>
<path d="M30.1981 71.346C30.2041 71.2665 30.1841 71.1872 30.1403 71.1169C30.0964 71.0467 30.0305 70.9881 29.9499 70.948C29.8692 70.9078 29.7771 70.8875 29.6837 70.8894C29.5903 70.8913 29.4994 70.9153 29.4211 70.9588C29.3429 71.0022 29.2803 71.0633 29.2405 71.1353C29.2006 71.2073 29.1851 71.2874 29.1956 71.3665C29.2061 71.4456 29.2422 71.5206 29.2999 71.5832C29.3576 71.6458 29.4346 71.6935 29.5222 71.721C29.6698 71.7445 29.8224 71.7186 29.9482 71.6488C30.0741 71.579 30.1635 71.4705 30.1981 71.346Z" stroke="#263238" stroke-miterlimit="10"/>
<path d="M29.8848 70.875L30.3671 69.747" stroke="#263238" stroke-linecap="round" stroke-linejoin="round"/>
<path d="M43.0214 100.086C42.953 99.9721 42.939 99.8401 42.9823 99.7176C43.0257 99.5951 43.1229 99.4917 43.2538 99.429C43.5037 99.348 43.8064 99.516 43.9296 99.804C43.9758 99.8577 44.0067 99.9198 44.0199 99.9854C44.033 100.051 44.0281 100.118 44.0054 100.182C43.9828 100.246 43.943 100.304 43.8893 100.353C43.8356 100.401 43.7694 100.438 43.696 100.461C43.6226 100.484 43.544 100.491 43.4664 100.484C43.3887 100.476 43.3143 100.453 43.2488 100.417C43.1834 100.381 43.1287 100.332 43.0893 100.274C43.0498 100.217 43.0266 100.152 43.0214 100.086Z" stroke="#263238" stroke-miterlimit="10"/>
<path d="M43.3347 99.615L42.8525 98.49" stroke="#263238" stroke-linecap="round" stroke-linejoin="round"/>
<path d="M42.2963 98.4C42.2909 98.3206 42.3115 98.2416 42.3558 98.1716C42.4001 98.1016 42.4663 98.0435 42.547 98.0038C42.6278 97.964 42.7199 97.9441 42.8131 97.9464C42.9064 97.9487 42.997 97.973 43.075 98.0166C43.153 98.0602 43.2152 98.1214 43.2547 98.1934C43.2943 98.2654 43.3096 98.3453 43.2989 98.4243C43.2882 98.5033 43.252 98.5782 43.1943 98.6406C43.1366 98.7031 43.0597 98.7506 42.9721 98.778C42.7222 98.85 42.4195 98.682 42.2963 98.4Z" stroke="#263238" stroke-miterlimit="10"/>
<path d="M42.6096 97.926L42.1274 96.798" stroke="#263238" stroke-linecap="round" stroke-linejoin="round"/>
<path d="M41.5712 96.705C41.5026 96.5907 41.4885 96.4582 41.5318 96.3353C41.5751 96.2123 41.6724 96.1083 41.8035 96.045C42.0534 95.967 42.3562 96.135 42.4794 96.423C42.5256 96.4767 42.5565 96.5388 42.5696 96.6045C42.5828 96.6701 42.5778 96.7375 42.5552 96.8012C42.5325 96.8649 42.4928 96.9233 42.4391 96.9716C42.3854 97.02 42.3192 97.057 42.2458 97.0798C42.1724 97.1026 42.0937 97.1105 42.0161 97.1029C41.9385 97.0954 41.864 97.0725 41.7986 97.0361C41.7331 96.9998 41.6785 96.9509 41.639 96.8934C41.5996 96.836 41.5764 96.7715 41.5712 96.705Z" stroke="#263238" stroke-miterlimit="10"/>
<path d="M41.8845 96.234L41.4022 95.109" stroke="#263238" stroke-linecap="round" stroke-linejoin="round"/>
<path d="M40.832 95.013C40.8306 94.9354 40.854 94.8589 40.8996 94.7917C40.9453 94.7245 41.0115 94.6691 41.0911 94.6314C41.1708 94.5938 41.261 94.5752 41.352 94.5778C41.4431 94.5804 41.5316 94.604 41.6081 94.6461C41.6847 94.6881 41.7464 94.7472 41.7867 94.8168C41.827 94.8864 41.8444 94.9641 41.837 95.0414C41.8296 95.1188 41.7977 95.1931 41.7447 95.2562C41.6917 95.3193 41.6195 95.369 41.536 95.4C41.272 95.469 40.9693 95.301 40.832 95.013Z" stroke="#263238" stroke-miterlimit="10"/>
<path d="M41.1594 94.545L40.6771 93.417" stroke="#263238" stroke-linecap="round" stroke-linejoin="round"/>
<path d="M40.128 93.324C40.122 93.2446 40.142 93.1653 40.1858 93.095C40.2297 93.0247 40.2956 92.9662 40.3762 92.926C40.4568 92.8858 40.549 92.8655 40.6424 92.8674C40.7358 92.8693 40.8267 92.8934 40.9049 92.9368C40.9832 92.9802 41.0458 93.0414 41.0856 93.1134C41.1254 93.1854 41.141 93.2654 41.1305 93.3445C41.12 93.4236 41.0839 93.4987 41.0262 93.5613C40.9685 93.6239 40.8915 93.6716 40.8038 93.699C40.6562 93.7225 40.5037 93.6966 40.3778 93.6268C40.252 93.557 40.1625 93.4485 40.128 93.324Z" stroke="#263238" stroke-miterlimit="10"/>
<path d="M40.4342 92.853L39.952 91.725" stroke="#263238" stroke-linecap="round" stroke-linejoin="round"/>
<path d="M39.3958 91.632C39.3898 91.5526 39.4098 91.4733 39.4537 91.403C39.4975 91.3327 39.5634 91.2742 39.644 91.234C39.7247 91.1938 39.8168 91.1735 39.9102 91.1754C40.0036 91.1773 40.0945 91.2013 40.1728 91.2448C40.2511 91.2882 40.3136 91.3494 40.3534 91.4214C40.3933 91.4934 40.4088 91.5734 40.3983 91.6525C40.3878 91.7316 40.3517 91.8066 40.294 91.8692C40.2363 91.9319 40.1593 91.9796 40.0717 92.007C39.924 92.0312 39.771 92.0057 39.6449 91.9358C39.5189 91.8658 39.4296 91.7569 39.3958 91.632Z" stroke="#263238" stroke-miterlimit="10"/>
<path d="M39.7091 91.164L39.2269 90.036" stroke="#263238" stroke-linecap="round" stroke-linejoin="round"/>
<path d="M38.6707 89.943C38.6638 89.8627 38.6833 89.7824 38.727 89.711C38.7708 89.6397 38.837 89.5802 38.9183 89.5392C38.9996 89.4983 39.0928 89.4775 39.1872 89.4792C39.2816 89.481 39.3736 89.5052 39.4528 89.5491C39.5319 89.593 39.5951 89.6549 39.6352 89.7278C39.6753 89.8007 39.6907 89.8817 39.6796 89.9616C39.6686 90.0416 39.6316 90.1173 39.5727 90.1803C39.5139 90.2432 39.4355 90.2909 39.3466 90.318C39.199 90.3415 39.0464 90.3156 38.9206 90.2458C38.7947 90.176 38.7053 90.0675 38.6707 89.943Z" stroke="#263238" stroke-miterlimit="10"/>
<path d="M38.984 89.472L38.5018 88.344" stroke="#263238" stroke-linecap="round" stroke-linejoin="round"/>
<path d="M37.9456 88.251C37.9396 88.1716 37.9596 88.0923 38.0034 88.022C38.0473 87.9517 38.1132 87.8932 38.1938 87.853C38.2744 87.8128 38.3666 87.7925 38.46 87.7944C38.5534 87.7963 38.6443 87.8204 38.7225 87.8638C38.8008 87.9072 38.8634 87.9684 38.9032 88.0404C38.943 88.1124 38.9586 88.1924 38.9481 88.2715C38.9376 88.3506 38.9015 88.4257 38.8438 88.4883C38.7861 88.5509 38.7091 88.5986 38.6214 88.626C38.4738 88.6495 38.3213 88.6236 38.1955 88.5538C38.0696 88.484 37.9801 88.3756 37.9456 88.251Z" stroke="#263238" stroke-miterlimit="10"/>
<path d="M38.2589 87.783L37.7766 86.655" stroke="#263238" stroke-linecap="round" stroke-linejoin="round"/>
<path d="M37.2205 86.562C37.2135 86.4817 37.233 86.4014 37.2768 86.33C37.3205 86.2587 37.3868 86.1992 37.4681 86.1582C37.5494 86.1173 37.6425 86.0965 37.737 86.0982C37.8314 86.1 37.9234 86.1242 38.0025 86.1681C38.0817 86.212 38.1449 86.2739 38.185 86.3468C38.225 86.4197 38.2404 86.5007 38.2294 86.5807C38.2183 86.6606 38.1813 86.7363 38.1225 86.7993C38.0636 86.8623 37.9853 86.91 37.8963 86.937C37.7487 86.9605 37.5962 86.9346 37.4703 86.8648C37.3445 86.795 37.255 86.6866 37.2205 86.562Z" stroke="#263238" stroke-miterlimit="10"/>
<path d="M37.5373 86.091L37.0515 84.963" stroke="#263238" stroke-linecap="round" stroke-linejoin="round"/>
<path d="M36.4954 84.87C36.4273 84.7558 36.4138 84.6235 36.4578 84.501C36.5018 84.3784 36.5998 84.2752 36.7312 84.213C36.9811 84.132 37.2838 84.303 37.407 84.588C37.4521 84.6419 37.482 84.7039 37.4943 84.7692C37.5065 84.8345 37.501 84.9014 37.4779 84.9645C37.4548 85.0277 37.415 85.0855 37.3614 85.1333C37.3078 85.1812 37.2419 85.2178 37.169 85.2404C37.096 85.263 37.0179 85.2708 36.9408 85.2634C36.8637 85.256 36.7896 85.2335 36.7244 85.1976C36.6591 85.1618 36.6045 85.1135 36.5648 85.0567C36.5251 84.9999 36.5013 84.936 36.4954 84.87Z" stroke="#263238" stroke-miterlimit="10"/>
<path d="M36.8122 84.399L36.3264 83.274" stroke="#263238" stroke-linecap="round" stroke-linejoin="round"/>
<path d="M35.7702 83.181C35.7635 83.1009 35.7831 83.0208 35.8269 82.9496C35.8707 82.8785 35.9368 82.8192 36.018 82.7783C36.0991 82.7374 36.192 82.7166 36.2862 82.7183C36.3805 82.7199 36.4723 82.7439 36.5514 82.7876C36.6305 82.8313 36.6937 82.8929 36.734 82.9655C36.7743 83.0381 36.7901 83.1188 36.7795 83.1987C36.7689 83.2785 36.7325 83.3542 36.6742 83.4173C36.6159 83.4805 36.5381 83.5285 36.4496 83.556C36.3015 83.5803 36.148 83.5549 36.0214 83.485C35.8948 83.4151 35.8048 83.3062 35.7702 83.181Z" stroke="#263238" stroke-miterlimit="10"/>
<path d="M36.087 82.71L35.6013 81.582" stroke="#263238" stroke-linecap="round" stroke-linejoin="round"/>
<path d="M35.0487 81.489C34.9801 81.3747 34.966 81.2422 35.0092 81.1193C35.0525 80.9963 35.1499 80.8923 35.281 80.829C35.5309 80.751 35.8336 80.919 35.9568 81.207C36.003 81.2607 36.0339 81.3228 36.0471 81.3885C36.0602 81.4541 36.0553 81.5214 36.0326 81.5852C36.01 81.6489 35.9702 81.7073 35.9165 81.7556C35.8628 81.804 35.7966 81.841 35.7232 81.8638C35.6498 81.8866 35.5712 81.8945 35.4936 81.8869C35.416 81.8794 35.3415 81.8565 35.276 81.8201C35.2106 81.7838 35.156 81.7349 35.1165 81.6774C35.077 81.62 35.0538 81.5555 35.0487 81.489Z" stroke="#263238" stroke-miterlimit="10"/>
<path d="M35.3619 81.018L34.8762 79.893" stroke="#263238" stroke-linecap="round" stroke-linejoin="round"/>
<path d="M34.3235 79.8C34.2542 79.6863 34.2397 79.554 34.2831 79.4313C34.3265 79.3086 34.4243 79.2051 34.5558 79.143C34.6699 79.0706 34.8077 79.0308 34.9499 79.029C35.092 79.0273 35.2312 79.0639 35.3476 79.1335C35.464 79.203 35.5516 79.3021 35.5981 79.4166C35.6446 79.5311 35.6476 79.6552 35.6065 79.7712C35.5655 79.8872 35.4826 79.9892 35.3696 80.0628C35.2567 80.1363 35.1193 80.1776 34.9772 80.1808C34.8351 80.184 34.6954 80.1489 34.5781 80.0805C34.4607 80.0122 34.3716 79.914 34.3235 79.8Z" stroke="#263238" stroke-miterlimit="10"/>
<path d="M34.6368 79.329L34.151 78.201" stroke="#263238" stroke-linecap="round" stroke-linejoin="round"/>
<path d="M33.5984 78.108C33.5924 78.0286 33.6124 77.9493 33.6562 77.879C33.7001 77.8087 33.766 77.7502 33.8466 77.71C33.9273 77.6698 34.0194 77.6495 34.1128 77.6514C34.2062 77.6533 34.2971 77.6774 34.3754 77.7208C34.4536 77.7642 34.5162 77.8254 34.556 77.8974C34.5958 77.9694 34.6114 78.0494 34.6009 78.1285C34.5904 78.2076 34.5543 78.2827 34.4966 78.3453C34.4389 78.4079 34.3619 78.4556 34.2742 78.483C34.1266 78.5065 33.9741 78.4806 33.8483 78.4108C33.7224 78.341 33.633 78.2325 33.5984 78.108Z" stroke="#263238" stroke-miterlimit="10"/>
<path d="M33.9117 77.637L33.4294 76.509" stroke="#263238" stroke-linecap="round" stroke-linejoin="round"/>
<path d="M32.8733 76.416C32.8673 76.3366 32.8873 76.2572 32.9311 76.187C32.975 76.1167 33.0409 76.0581 33.1215 76.018C33.2021 75.9778 33.2943 75.9575 33.3877 75.9594C33.481 75.9613 33.572 75.9853 33.6502 76.0288C33.7285 76.0722 33.7911 76.1333 33.8309 76.2053C33.8707 76.2774 33.8863 76.3574 33.8758 76.4365C33.8653 76.5156 33.8292 76.5906 33.7715 76.6532C33.7138 76.7159 33.6368 76.7635 33.5491 76.791C33.4014 76.8152 33.2484 76.7897 33.1224 76.7198C32.9963 76.6498 32.907 76.5409 32.8733 76.416Z" stroke="#263238" stroke-miterlimit="10"/>
<path d="M33.1866 75.948L32.7043 74.82" stroke="#263238" stroke-linecap="round" stroke-linejoin="round"/>
<path d="M32.1482 74.727C32.1421 74.6476 32.1622 74.5683 32.206 74.498C32.2498 74.4277 32.3158 74.3692 32.3964 74.329C32.477 74.2888 32.5692 74.2685 32.6625 74.2704C32.7559 74.2724 32.8468 74.2964 32.9251 74.3398C33.0034 74.3832 33.0659 74.4444 33.1058 74.5164C33.1456 74.5884 33.1611 74.6684 33.1507 74.7475C33.1402 74.8266 33.104 74.9017 33.0464 74.9643C32.9887 75.0269 32.9117 75.0746 32.824 75.102C32.6764 75.1255 32.5239 75.0996 32.398 75.0298C32.2722 74.96 32.1827 74.8516 32.1482 74.727Z" stroke="#263238" stroke-miterlimit="10"/>
<path d="M32.4614 74.256L31.9792 73.128" stroke="#263238" stroke-linecap="round" stroke-linejoin="round"/>
<path d="M31.423 73.035C31.417 72.9556 31.437 72.8763 31.4809 72.806C31.5247 72.7357 31.5906 72.6772 31.6713 72.637C31.7519 72.5968 31.844 72.5765 31.9374 72.5784C32.0308 72.5803 32.1217 72.6044 32.2 72.6478C32.2783 72.6912 32.3408 72.7524 32.3807 72.8244C32.4205 72.8964 32.436 72.9764 32.4255 73.0555C32.415 73.1346 32.3789 73.2097 32.3212 73.2723C32.2636 73.3349 32.1866 73.3826 32.0989 73.41C31.9512 73.4343 31.7982 73.4087 31.6722 73.3388C31.5461 73.2688 31.4568 73.1599 31.423 73.035Z" stroke="#263238" stroke-miterlimit="10"/>
<path d="M31.7363 72.567L31.2541 71.439" stroke="#263238" stroke-linecap="round" stroke-linejoin="round"/>
<path d="M30.6979 71.346C30.6919 71.2665 30.7119 71.1872 30.7557 71.1169C30.7996 71.0467 30.8655 70.9881 30.9461 70.948C31.0268 70.9078 31.1189 70.8875 31.2123 70.8894C31.3057 70.8913 31.3966 70.9153 31.4749 70.9588C31.5531 71.0022 31.6157 71.0633 31.6555 71.1353C31.6954 71.2073 31.7109 71.2874 31.7004 71.3665C31.6899 71.4456 31.6538 71.5206 31.5961 71.5832C31.5384 71.6458 31.4614 71.6935 31.3738 71.721C31.2262 71.7445 31.0736 71.7186 30.9478 71.6488C30.8219 71.579 30.7325 71.4705 30.6979 71.346Z" stroke="#263238" stroke-miterlimit="10"/>
<path d="M31.0112 70.875L30.529 69.747" stroke="#263238" stroke-linecap="round" stroke-linejoin="round"/>
<path d="M30.9338 101.151C30.9338 100.851 30.7155 100.599 30.448 100.599C30.1805 100.599 29.9658 100.845 29.9658 101.151C29.9658 101.457 30.1805 101.7 30.448 101.7C30.7155 101.7 30.9338 101.454 30.9338 101.151Z" stroke="#263238" stroke-miterlimit="10"/>
<path d="M30.448 100.8V99.6" stroke="#263238" stroke-linecap="round" stroke-linejoin="round"/>
<path d="M30.9338 99.351C30.9338 99.051 30.7155 98.799 30.448 98.799C30.1805 98.799 29.9658 99.045 29.9658 99.351C29.9658 99.657 30.1805 99.9 30.448 99.9C30.7155 99.9 30.9338 99.654 30.9338 99.351Z" stroke="#263238" stroke-miterlimit="10"/>
<path d="M30.448 99V97.8" stroke="#263238" stroke-linecap="round" stroke-linejoin="round"/>
<path d="M30.9338 97.551C30.9338 97.251 30.7155 96.999 30.448 96.999C30.1805 96.999 29.9658 97.245 29.9658 97.551C29.9658 97.857 30.1805 98.1 30.448 98.1C30.7155 98.1 30.9338 97.854 30.9338 97.551Z" stroke="#263238" stroke-miterlimit="10"/>
<path d="M30.448 97.2V96" stroke="#263238" stroke-linecap="round" stroke-linejoin="round"/>
<path d="M30.9338 95.751C30.9338 95.451 30.7155 95.199 30.448 95.199C30.1805 95.199 29.9658 95.445 29.9658 95.751C29.9658 96.057 30.1805 96.3 30.448 96.3C30.7155 96.3 30.9338 96.054 30.9338 95.751Z" stroke="#263238" stroke-miterlimit="10"/>
<path d="M30.448 95.4V94.2" stroke="#263238" stroke-linecap="round" stroke-linejoin="round"/>
<path d="M30.9338 93.951C30.9338 93.651 30.7155 93.399 30.448 93.399C30.1805 93.399 29.9658 93.645 29.9658 93.951C29.9658 94.257 30.1805 94.5 30.448 94.5C30.7155 94.5 30.9338 94.254 30.9338 93.951Z" stroke="#263238" stroke-miterlimit="10"/>
<path d="M30.448 93.6V92.4" stroke="#263238" stroke-linecap="round" stroke-linejoin="round"/>
<path d="M30.9338 92.151C30.9338 91.851 30.7155 91.599 30.448 91.599C30.1805 91.599 29.9658 91.845 29.9658 92.151C29.9658 92.457 30.1805 92.7 30.448 92.7C30.7155 92.7 30.9338 92.454 30.9338 92.151Z" stroke="#263238" stroke-miterlimit="10"/>
<path d="M30.448 91.8V90.6" stroke="#263238" stroke-linecap="round" stroke-linejoin="round"/>
<path d="M30.9338 90.351C30.9338 90.051 30.7155 89.799 30.448 89.799C30.1805 89.799 29.9658 90.045 29.9658 90.351C29.9658 90.657 30.1805 90.9 30.448 90.9C30.7155 90.9 30.9338 90.654 30.9338 90.351Z" stroke="#263238" stroke-miterlimit="10"/>
<path d="M30.448 90V88.8" stroke="#263238" stroke-linecap="round" stroke-linejoin="round"/>
<path d="M30.9338 88.551C30.9338 88.251 30.7155 87.999 30.448 87.999C30.1805 87.999 29.9658 88.245 29.9658 88.551C29.9658 88.857 30.1805 89.1 30.448 89.1C30.7155 89.1 30.9338 88.854 30.9338 88.551Z" stroke="#263238" stroke-miterlimit="10"/>
<path d="M30.448 88.2V87" stroke="#263238" stroke-linecap="round" stroke-linejoin="round"/>
<path d="M30.9338 86.751C30.9338 86.451 30.7155 86.199 30.448 86.199C30.1805 86.199 29.9658 86.445 29.9658 86.751C29.9658 87.057 30.1805 87.3 30.448 87.3C30.7155 87.3 30.9338 87.054 30.9338 86.751Z" stroke="#263238" stroke-miterlimit="10"/>
<path d="M30.448 86.4V85.2" stroke="#263238" stroke-linecap="round" stroke-linejoin="round"/>
<path d="M30.9338 84.951C30.9338 84.651 30.7155 84.399 30.448 84.399C30.1805 84.399 29.9658 84.645 29.9658 84.951C29.9658 85.257 30.1805 85.5 30.448 85.5C30.7155 85.5 30.9338 85.254 30.9338 84.951Z" stroke="#263238" stroke-miterlimit="10"/>
<path d="M30.448 84.6V83.4" stroke="#263238" stroke-linecap="round" stroke-linejoin="round"/>
<path d="M30.9338 83.151C30.9338 82.851 30.7155 82.599 30.448 82.599C30.1805 82.599 29.9658 82.845 29.9658 83.151C29.9658 83.457 30.1805 83.7 30.448 83.7C30.7155 83.7 30.9338 83.454 30.9338 83.151Z" stroke="#263238" stroke-miterlimit="10"/>
<path d="M30.448 82.8V81.6" stroke="#263238" stroke-linecap="round" stroke-linejoin="round"/>
<path d="M30.9338 81.351C30.9338 81.051 30.7155 80.799 30.448 80.799C30.1805 80.799 29.9658 81.045 29.9658 81.351C29.9658 81.657 30.1805 81.9 30.448 81.9C30.7155 81.9 30.9338 81.654 30.9338 81.351Z" stroke="#263238" stroke-miterlimit="10"/>
<path d="M30.448 81V79.8" stroke="#263238" stroke-linecap="round" stroke-linejoin="round"/>
<path d="M30.9338 79.551C30.9338 79.251 30.7155 78.999 30.448 78.999C30.1805 78.999 29.9658 79.245 29.9658 79.551C29.9658 79.857 30.1805 80.1 30.448 80.1C30.7155 80.1 30.9338 79.854 30.9338 79.551Z" stroke="#263238" stroke-miterlimit="10"/>
<path d="M30.448 79.2V78" stroke="#263238" stroke-linecap="round" stroke-linejoin="round"/>
<path d="M30.9338 77.751C30.9338 77.451 30.7155 77.199 30.448 77.199C30.1805 77.199 29.9658 77.445 29.9658 77.751C29.9658 78.057 30.1805 78.3 30.448 78.3C30.7155 78.3 30.9338 78.054 30.9338 77.751Z" stroke="#263238" stroke-miterlimit="10"/>
<path d="M30.448 77.4V76.2" stroke="#263238" stroke-linecap="round" stroke-linejoin="round"/>
<path d="M30.9338 75.951C30.9338 75.651 30.7155 75.399 30.448 75.399C30.1805 75.399 29.9658 75.645 29.9658 75.951C29.9658 76.257 30.1805 76.5 30.448 76.5C30.7155 76.5 30.9338 76.254 30.9338 75.951Z" stroke="#263238" stroke-miterlimit="10"/>
<path d="M30.448 75.6V74.4" stroke="#263238" stroke-linecap="round" stroke-linejoin="round"/>
<path d="M30.9338 74.151C30.9338 73.851 30.7155 73.599 30.448 73.599C30.1805 73.599 29.9658 73.845 29.9658 74.151C29.9658 74.457 30.1805 74.7 30.448 74.7C30.7155 74.7 30.9338 74.454 30.9338 74.151Z" stroke="#263238" stroke-miterlimit="10"/>
<path d="M30.448 73.8V72.6" stroke="#263238" stroke-linecap="round" stroke-linejoin="round"/>
<path d="M30.9338 72.351C30.9338 72.051 30.7155 71.799 30.448 71.799C30.1805 71.799 29.9658 72.045 29.9658 72.351C29.9658 72.657 30.1805 72.9 30.448 72.9C30.7155 72.9 30.9338 72.654 30.9338 72.351Z" stroke="#263238" stroke-miterlimit="10"/>
<path d="M30.448 72V70.8" stroke="#263238" stroke-linecap="round" stroke-linejoin="round"/>
<path d="M30.9338 70.551C30.9338 70.251 30.7155 69.999 30.448 69.999C30.1805 69.999 29.9658 70.245 29.9658 70.551C29.9658 70.857 30.1805 71.1 30.448 71.1C30.7155 71.1 30.9338 70.854 30.9338 70.551Z" stroke="#263238" stroke-miterlimit="10"/>
<path d="M30.448 70.2V69" stroke="#263238" stroke-linecap="round" stroke-linejoin="round"/>
<path d="M30.9338 68.751C30.9338 68.451 30.7155 68.199 30.448 68.199C30.1805 68.199 29.9658 68.445 29.9658 68.751C29.9658 69.057 30.1805 69.3 30.448 69.3C30.7155 69.3 30.9338 69.054 30.9338 68.751Z" stroke="#263238" stroke-miterlimit="10"/>
<path d="M30.448 68.4V67.2" stroke="#263238" stroke-linecap="round" stroke-linejoin="round"/>
<path d="M44.9504 99.9C44.9504 100.8 38.456 102.186 30.448 102.186C22.44 102.186 15.9456 100.8 15.9456 99.9H44.9504Z" fill="#407BFF"/>
<path opacity="0.2" d="M15.9456 99.9C15.9456 100.8 22.44 102.186 30.448 102.186C38.456 102.186 44.9504 100.8 44.9504 99.9H15.9456Z" fill="black"/>
<path d="M77.3626 100.086C77.4309 99.9721 77.445 99.8401 77.4016 99.7176C77.3583 99.5951 77.2611 99.4917 77.1302 99.429C76.8803 99.348 76.5776 99.516 76.4544 99.804C76.4082 99.8577 76.3773 99.9198 76.3641 99.9854C76.351 100.051 76.3559 100.118 76.3786 100.182C76.4012 100.246 76.441 100.304 76.4947 100.353C76.5484 100.401 76.6146 100.438 76.688 100.461C76.7614 100.484 76.84 100.491 76.9176 100.484C76.9952 100.476 77.0697 100.453 77.1352 100.417C77.2006 100.381 77.2552 100.332 77.2947 100.274C77.3342 100.217 77.3574 100.152 77.3626 100.086Z" stroke="#263238" stroke-miterlimit="10"/>
<path d="M77.0493 99.615L77.5315 98.49" stroke="#263238" stroke-linecap="round" stroke-linejoin="round"/>
<path d="M78.0877 98.4C78.0931 98.3206 78.0725 98.2416 78.0282 98.1716C77.9839 98.1016 77.9177 98.0435 77.837 98.0038C77.7562 97.964 77.6641 97.9441 77.5708 97.9464C77.4776 97.9487 77.387 97.973 77.309 98.0166C77.231 98.0602 77.1688 98.1214 77.1292 98.1934C77.0897 98.2654 77.0744 98.3453 77.0851 98.4243C77.0958 98.5033 77.132 98.5782 77.1897 98.6406C77.2474 98.7031 77.3243 98.7506 77.4118 98.778C77.6618 98.85 77.9645 98.682 78.0877 98.4Z" stroke="#263238" stroke-miterlimit="10"/>
<path d="M77.7744 97.926L78.2566 96.798" stroke="#263238" stroke-linecap="round" stroke-linejoin="round"/>
<path d="M78.8128 96.705C78.8814 96.5907 78.8955 96.4582 78.8522 96.3353C78.8089 96.2123 78.7116 96.1083 78.5805 96.045C78.3306 95.967 78.0278 96.135 77.9046 96.423C77.8584 96.4767 77.8275 96.5388 77.8144 96.6045C77.8012 96.6701 77.8061 96.7375 77.8288 96.8012C77.8515 96.8649 77.8912 96.9233 77.9449 96.9716C77.9986 97.02 78.0648 97.057 78.1382 97.0798C78.2116 97.1026 78.2903 97.1105 78.3679 97.1029C78.4455 97.0954 78.52 97.0725 78.5854 97.0361C78.6509 96.9998 78.7055 96.9509 78.745 96.8934C78.7844 96.836 78.8076 96.7715 78.8128 96.705Z" stroke="#263238" stroke-miterlimit="10"/>
<path d="M78.4995 96.234L78.9818 95.109" stroke="#263238" stroke-linecap="round" stroke-linejoin="round"/>
<path d="M79.552 95.013C79.5534 94.9354 79.53 94.8589 79.4843 94.7917C79.4387 94.7245 79.3725 94.6691 79.2929 94.6314C79.2132 94.5938 79.123 94.5752 79.032 94.5778C78.9409 94.5804 78.8524 94.604 78.7759 94.6461C78.6993 94.6881 78.6376 94.7472 78.5973 94.8168C78.557 94.8864 78.5396 94.9641 78.547 95.0414C78.5544 95.1188 78.5863 95.1931 78.6393 95.2562C78.6923 95.3193 78.7645 95.369 78.848 95.4C79.112 95.469 79.4147 95.301 79.552 95.013Z" stroke="#263238" stroke-miterlimit="10"/>
<path d="M79.2246 94.545L79.7069 93.417" stroke="#263238" stroke-linecap="round" stroke-linejoin="round"/>
<path d="M80.256 93.324C80.262 93.2446 80.242 93.1653 80.1982 93.095C80.1543 93.0247 80.0884 92.9662 80.0078 92.926C79.9272 92.8858 79.835 92.8655 79.7416 92.8674C79.6482 92.8693 79.5573 92.8934 79.4791 92.9368C79.4008 92.9802 79.3382 93.0414 79.2984 93.1134C79.2586 93.1854 79.243 93.2654 79.2535 93.3445C79.264 93.4236 79.3001 93.4987 79.3578 93.5613C79.4155 93.6239 79.4925 93.6716 79.5802 93.699C79.7278 93.7225 79.8803 93.6966 80.0062 93.6268C80.132 93.557 80.2215 93.4485 80.256 93.324Z" stroke="#263238" stroke-miterlimit="10"/>
<path d="M79.9498 92.853L80.432 91.725" stroke="#263238" stroke-linecap="round" stroke-linejoin="round"/>
<path d="M80.9882 91.632C80.9942 91.5526 80.9742 91.4733 80.9303 91.403C80.8865 91.3327 80.8206 91.2742 80.7399 91.234C80.6593 91.1938 80.5672 91.1735 80.4738 91.1754C80.3804 91.1773 80.2895 91.2013 80.2112 91.2448C80.1329 91.2882 80.0704 91.3494 80.0306 91.4214C79.9907 91.4934 79.9752 91.5734 79.9857 91.6525C79.9962 91.7316 80.0323 91.8066 80.09 91.8692C80.1477 91.9319 80.2246 91.9796 80.3123 92.007C80.46 92.0312 80.613 92.0057 80.7391 91.9358C80.8651 91.8658 80.9544 91.7569 80.9882 91.632Z" stroke="#263238" stroke-miterlimit="10"/>
<path d="M80.6749 91.164L81.1571 90.036" stroke="#263238" stroke-linecap="round" stroke-linejoin="round"/>
<path d="M81.7133 89.943C81.7193 89.8636 81.6993 89.7843 81.6554 89.714C81.6116 89.6437 81.5457 89.5852 81.4651 89.545C81.3844 89.5048 81.2923 89.4845 81.1989 89.4865C81.1055 89.4884 81.0146 89.5124 80.9363 89.5558C80.8581 89.5992 80.7955 89.6604 80.7557 89.7324C80.7158 89.8044 80.7003 89.8844 80.7108 89.9635C80.7213 90.0426 80.7574 90.1177 80.8151 90.1803C80.8728 90.2429 80.9498 90.2906 81.0374 90.318C81.185 90.3415 81.3376 90.3156 81.4634 90.2458C81.5893 90.176 81.6787 90.0676 81.7133 89.943Z" stroke="#263238" stroke-miterlimit="10"/>
<path d="M81.4 89.472L81.8822 88.344" stroke="#263238" stroke-linecap="round" stroke-linejoin="round"/>
<path d="M82.4384 88.251C82.4444 88.1716 82.4244 88.0923 82.3806 88.022C82.3367 87.9517 82.2708 87.8932 82.1902 87.853C82.1096 87.8128 82.0174 87.7925 81.924 87.7944C81.8306 87.7963 81.7397 87.8204 81.6615 87.8638C81.5832 87.9072 81.5206 87.9684 81.4808 88.0404C81.441 88.1124 81.4254 88.1924 81.4359 88.2715C81.4464 88.3506 81.4825 88.4257 81.5402 88.4883C81.5979 88.5509 81.6749 88.5986 81.7626 88.626C81.9103 88.6503 82.0632 88.6247 82.1893 88.5548C82.3153 88.4848 82.4047 88.3759 82.4384 88.251Z" stroke="#263238" stroke-miterlimit="10"/>
<path d="M82.1251 87.783L82.6074 86.655" stroke="#263238" stroke-linecap="round" stroke-linejoin="round"/>
<path d="M83.1635 86.562C83.1705 86.4817 83.151 86.4014 83.1072 86.33C83.0635 86.2587 82.9972 86.1992 82.9159 86.1582C82.8346 86.1173 82.7415 86.0965 82.647 86.0982C82.5526 86.1 82.4606 86.1242 82.3815 86.1681C82.3023 86.212 82.2391 86.2739 82.1991 86.3468C82.159 86.4197 82.1436 86.5007 82.1546 86.5807C82.1657 86.6606 82.2027 86.7363 82.2615 86.7993C82.3204 86.8623 82.3987 86.91 82.4877 86.937C82.6353 86.9605 82.7878 86.9346 82.9137 86.8648C83.0395 86.795 83.129 86.6866 83.1635 86.562Z" stroke="#263238" stroke-miterlimit="10"/>
<path d="M82.8502 86.091L83.3325 84.963" stroke="#263238" stroke-linecap="round" stroke-linejoin="round"/>
<path d="M83.8887 84.87C83.9568 84.7558 83.9702 84.6235 83.9262 84.501C83.8823 84.3784 83.7842 84.2752 83.6528 84.213C83.4029 84.132 83.1002 84.303 82.977 84.588C82.9319 84.6419 82.902 84.7039 82.8898 84.7692C82.8775 84.8345 82.8831 84.9014 82.9061 84.9645C82.9292 85.0277 82.9691 85.0855 83.0226 85.1333C83.0762 85.1812 83.1421 85.2178 83.215 85.2404C83.288 85.263 83.3661 85.2708 83.4432 85.2634C83.5204 85.256 83.5944 85.2335 83.6596 85.1976C83.7249 85.1618 83.7795 85.1135 83.8192 85.0567C83.8589 84.9999 83.8827 84.936 83.8887 84.87Z" stroke="#263238" stroke-miterlimit="10"/>
<path d="M83.5718 84.399L84.0576 83.274" stroke="#263238" stroke-linecap="round" stroke-linejoin="round"/>
<path d="M84.6138 83.181C84.6205 83.1009 84.6009 83.0208 84.5571 82.9496C84.5133 82.8785 84.4472 82.8192 84.366 82.7783C84.2849 82.7374 84.192 82.7166 84.0978 82.7183C84.0036 82.7199 83.9117 82.7439 83.8326 82.7876C83.7535 82.8313 83.6903 82.8929 83.65 82.9655C83.6097 83.0381 83.5939 83.1188 83.6045 83.1987C83.6151 83.2785 83.6515 83.3542 83.7098 83.4173C83.7681 83.4805 83.8459 83.5285 83.9344 83.556C84.0825 83.5803 84.236 83.5549 84.3626 83.485C84.4892 83.4151 84.5792 83.3062 84.6138 83.181Z" stroke="#263238" stroke-miterlimit="10"/>
<path d="M84.297 82.71L84.7827 81.582" stroke="#263238" stroke-linecap="round" stroke-linejoin="round"/>
<path d="M85.3354 81.489C85.4039 81.3747 85.4181 81.2422 85.3748 81.1193C85.3315 80.9963 85.2341 80.8923 85.103 80.829C84.8531 80.751 84.5504 80.919 84.4272 81.207C84.381 81.2607 84.3501 81.3228 84.3369 81.3885C84.3238 81.4541 84.3287 81.5214 84.3514 81.5852C84.374 81.6489 84.4138 81.7073 84.4675 81.7556C84.5212 81.804 84.5874 81.841 84.6608 81.8638C84.7342 81.8866 84.8128 81.8945 84.8904 81.8869C84.9681 81.8794 85.0425 81.8565 85.108 81.8201C85.1734 81.7838 85.2281 81.7349 85.2675 81.6774C85.307 81.62 85.3302 81.5555 85.3354 81.489Z" stroke="#263238" stroke-miterlimit="10"/>
<path d="M85.0221 81.018L85.5078 79.893" stroke="#263238" stroke-linecap="round" stroke-linejoin="round"/>
<path d="M86.0605 79.8C86.1298 79.6863 86.1443 79.554 86.1009 79.4313C86.0575 79.3086 85.9596 79.2051 85.8282 79.143C85.7141 79.0706 85.5762 79.0308 85.4341 79.029C85.292 79.0273 85.1528 79.0639 85.0364 79.1335C84.92 79.203 84.8324 79.3021 84.7859 79.4166C84.7394 79.5311 84.7364 79.6552 84.7774 79.7712C84.8185 79.8872 84.9014 79.9892 85.0143 80.0628C85.1273 80.1363 85.2646 80.1776 85.4068 80.1808C85.5489 80.184 85.6885 80.1489 85.8059 80.0805C85.9233 80.0122 86.0124 79.914 86.0605 79.8Z" stroke="#263238" stroke-miterlimit="10"/>
<path d="M85.7472 79.329L86.233 78.201" stroke="#263238" stroke-linecap="round" stroke-linejoin="round"/>
<path d="M86.7856 78.108C86.7916 78.0286 86.7716 77.9493 86.7278 77.879C86.6839 77.8087 86.618 77.7502 86.5374 77.71C86.4568 77.6698 86.3646 77.6495 86.2712 77.6514C86.1778 77.6533 86.0869 77.6774 86.0087 77.7208C85.9304 77.7642 85.8678 77.8254 85.828 77.8974C85.7882 77.9694 85.7726 78.0494 85.7831 78.1285C85.7936 78.2076 85.8297 78.2827 85.8874 78.3453C85.9451 78.4079 86.0221 78.4556 86.1098 78.483C86.2574 78.5065 86.4099 78.4806 86.5358 78.4108C86.6616 78.341 86.7511 78.2325 86.7856 78.108Z" stroke="#263238" stroke-miterlimit="10"/>
<path d="M86.4723 77.637L86.9546 76.509" stroke="#263238" stroke-linecap="round" stroke-linejoin="round"/>
<path d="M87.5107 76.416C87.5168 76.3366 87.4967 76.2572 87.4529 76.187C87.4091 76.1167 87.3431 76.0581 87.2625 76.018C87.1819 75.9778 87.0897 75.9575 86.9963 75.9594C86.903 75.9613 86.8121 75.9853 86.7338 76.0288C86.6555 76.0722 86.5929 76.1333 86.5531 76.2053C86.5133 76.2774 86.4977 76.3574 86.5082 76.4365C86.5187 76.5156 86.5548 76.5906 86.6125 76.6532C86.6702 76.7159 86.7472 76.7635 86.8349 76.791C86.9826 76.8152 87.1356 76.7897 87.2616 76.7198C87.3877 76.6498 87.477 76.5409 87.5107 76.416Z" stroke="#263238" stroke-miterlimit="10"/>
<path d="M87.1974 75.948L87.6797 74.82" stroke="#263238" stroke-linecap="round" stroke-linejoin="round"/>
<path d="M88.2358 74.727C88.2419 74.6476 88.2219 74.5683 88.178 74.498C88.1342 74.4277 88.0683 74.3692 87.9876 74.329C87.907 74.2888 87.8148 74.2685 87.7215 74.2704C87.6281 74.2724 87.5372 74.2964 87.4589 74.3398C87.3806 74.3832 87.3181 74.4444 87.2782 74.5164C87.2384 74.5884 87.2229 74.6684 87.2334 74.7475C87.2439 74.8266 87.28 74.9017 87.3377 74.9643C87.3953 75.0269 87.4723 75.0746 87.56 75.102C87.7076 75.1255 87.8602 75.0996 87.986 75.0298C88.1118 74.96 88.2013 74.8516 88.2358 74.727Z" stroke="#263238" stroke-miterlimit="10"/>
<path d="M87.9226 74.256L88.4048 73.128" stroke="#263238" stroke-linecap="round" stroke-linejoin="round"/>
<path d="M88.961 73.035C88.967 72.9556 88.947 72.8763 88.9031 72.806C88.8593 72.7357 88.7934 72.6772 88.7128 72.637C88.6321 72.5968 88.54 72.5765 88.4466 72.5784C88.3532 72.5803 88.2623 72.6044 88.184 72.6478C88.1057 72.6912 88.0432 72.7524 88.0034 72.8244C87.9635 72.8964 87.948 72.9764 87.9585 73.0555C87.969 73.1346 88.0051 73.2097 88.0628 73.2723C88.1205 73.3349 88.1974 73.3826 88.2851 73.41C88.4328 73.4343 88.5858 73.4087 88.7119 73.3388C88.8379 73.2688 88.9272 73.1599 88.961 73.035Z" stroke="#263238" stroke-miterlimit="10"/>
<path d="M88.6477 72.567L89.1299 71.439" stroke="#263238" stroke-linecap="round" stroke-linejoin="round"/>
<path d="M89.6861 71.346C89.6921 71.2665 89.6721 71.1872 89.6283 71.1169C89.5844 71.0467 89.5185 70.9881 89.4379 70.948C89.3572 70.9078 89.2651 70.8875 89.1717 70.8894C89.0783 70.8913 88.9874 70.9153 88.9091 70.9588C88.8309 71.0022 88.7683 71.0633 88.7285 71.1353C88.6886 71.2073 88.6731 71.2874 88.6836 71.3665C88.6941 71.4456 88.7302 71.5206 88.7879 71.5832C88.8456 71.6458 88.9226 71.6935 89.0102 71.721C89.1578 71.7445 89.3104 71.7186 89.4362 71.6488C89.5621 71.579 89.6515 71.4705 89.6861 71.346Z" stroke="#263238" stroke-miterlimit="10"/>
<path d="M89.3728 70.875L89.855 69.747" stroke="#263238" stroke-linecap="round" stroke-linejoin="round"/>
<path d="M102.509 100.086C102.441 99.9721 102.427 99.8401 102.47 99.7176C102.514 99.5951 102.611 99.4917 102.742 99.429C102.992 99.348 103.294 99.516 103.418 99.804C103.464 99.8577 103.495 99.9198 103.508 99.9854C103.521 100.051 103.516 100.118 103.493 100.182C103.471 100.246 103.431 100.304 103.377 100.353C103.324 100.401 103.257 100.438 103.184 100.461C103.111 100.484 103.032 100.491 102.954 100.484C102.877 100.476 102.802 100.453 102.737 100.417C102.671 100.381 102.617 100.332 102.577 100.274C102.538 100.217 102.515 100.152 102.509 100.086Z" stroke="#263238" stroke-miterlimit="10"/>
<path d="M102.823 99.615L102.34 98.49" stroke="#263238" stroke-linecap="round" stroke-linejoin="round"/>
<path d="M101.784 98.4C101.779 98.3206 101.8 98.2416 101.844 98.1716C101.888 98.1016 101.954 98.0435 102.035 98.0038C102.116 97.964 102.208 97.9441 102.301 97.9464C102.394 97.9487 102.485 97.973 102.563 98.0166C102.641 98.0602 102.703 98.1214 102.743 98.1934C102.782 98.2654 102.798 98.3453 102.787 98.4243C102.776 98.5033 102.74 98.5782 102.682 98.6406C102.625 98.7031 102.548 98.7506 102.46 98.778C102.21 98.85 101.908 98.682 101.784 98.4Z" stroke="#263238" stroke-miterlimit="10"/>
<path d="M102.098 97.926L101.615 96.798" stroke="#263238" stroke-linecap="round" stroke-linejoin="round"/>
<path d="M101.059 96.705C100.991 96.5907 100.977 96.4582 101.02 96.3353C101.063 96.2123 101.16 96.1083 101.292 96.045C101.541 95.967 101.844 96.135 101.967 96.423C102.014 96.4767 102.044 96.5388 102.058 96.6045C102.071 96.6701 102.066 96.7375 102.043 96.8012C102.021 96.8649 101.981 96.9233 101.927 96.9716C101.873 97.02 101.807 97.057 101.734 97.0798C101.66 97.1026 101.582 97.1105 101.504 97.1029C101.427 97.0954 101.352 97.0725 101.287 97.0361C101.221 96.9998 101.167 96.9509 101.127 96.8934C101.088 96.836 101.064 96.7715 101.059 96.705Z" stroke="#263238" stroke-miterlimit="10"/>
<path d="M101.372 96.234L100.89 95.109" stroke="#263238" stroke-linecap="round" stroke-linejoin="round"/>
<path d="M100.32 95.013C100.319 94.9354 100.342 94.8589 100.388 94.7917C100.433 94.7245 100.499 94.6691 100.579 94.6314C100.659 94.5938 100.749 94.5752 100.84 94.5778C100.931 94.5804 101.02 94.604 101.096 94.6461C101.173 94.6881 101.234 94.7472 101.275 94.8168C101.315 94.8864 101.332 94.9641 101.325 95.0414C101.318 95.1188 101.286 95.1931 101.233 95.2562C101.18 95.3193 101.108 95.369 101.024 95.4C100.76 95.469 100.457 95.301 100.32 95.013Z" stroke="#263238" stroke-miterlimit="10"/>
<path d="M100.647 94.545L100.165 93.417" stroke="#263238" stroke-linecap="round" stroke-linejoin="round"/>
<path d="M99.616 93.324C99.61 93.2446 99.63 93.1653 99.6738 93.095C99.7177 93.0247 99.7836 92.9662 99.8642 92.926C99.9448 92.8858 100.037 92.8655 100.13 92.8674C100.224 92.8693 100.315 92.8934 100.393 92.9368C100.471 92.9802 100.534 93.0414 100.574 93.1134C100.613 93.1854 100.629 93.2654 100.618 93.3445C100.608 93.4236 100.572 93.4987 100.514 93.5613C100.457 93.6239 100.38 93.6716 100.292 93.699C100.144 93.7225 99.9917 93.6966 99.8658 93.6268C99.74 93.557 99.6505 93.4485 99.616 93.324Z" stroke="#263238" stroke-miterlimit="10"/>
<path d="M99.9222 92.853L99.44 91.725" stroke="#263238" stroke-linecap="round" stroke-linejoin="round"/>
<path d="M98.8838 91.632C98.8778 91.5526 98.8978 91.4733 98.9417 91.403C98.9855 91.3327 99.0514 91.2742 99.132 91.234C99.2127 91.1938 99.3048 91.1735 99.3982 91.1754C99.4916 91.1773 99.5825 91.2013 99.6608 91.2448C99.7391 91.2882 99.8016 91.3494 99.8414 91.4214C99.8813 91.4934 99.8968 91.5734 99.8863 91.6525C99.8758 91.7316 99.8397 91.8066 99.782 91.8692C99.7243 91.9319 99.6474 91.9796 99.5597 92.007C99.412 92.0312 99.259 92.0057 99.1329 91.9358C99.0069 91.8658 98.9176 91.7569 98.8838 91.632Z" stroke="#263238" stroke-miterlimit="10"/>
<path d="M99.1971 91.164L98.7149 90.036" stroke="#263238" stroke-linecap="round" stroke-linejoin="round"/>
<path d="M98.1587 89.943C98.1517 89.8627 98.1712 89.7824 98.215 89.711C98.2587 89.6397 98.325 89.5802 98.4063 89.5392C98.4876 89.4983 98.5808 89.4775 98.6752 89.4792C98.7696 89.481 98.8616 89.5052 98.9408 89.5491C99.0199 89.593 99.0831 89.6549 99.1232 89.7278C99.1633 89.8007 99.1787 89.8817 99.1676 89.9616C99.1566 90.0416 99.1195 90.1173 99.0607 90.1803C99.0018 90.2432 98.9235 90.2909 98.8346 90.318C98.6869 90.3415 98.5344 90.3156 98.4086 90.2458C98.2827 90.176 98.1933 90.0675 98.1587 89.943Z" stroke="#263238" stroke-miterlimit="10"/>
<path d="M98.472 89.472L97.9898 88.344" stroke="#263238" stroke-linecap="round" stroke-linejoin="round"/>
<path d="M97.4336 88.251C97.4276 88.1716 97.4476 88.0923 97.4914 88.022C97.5353 87.9517 97.6012 87.8932 97.6818 87.853C97.7624 87.8128 97.8546 87.7925 97.948 87.7944C98.0414 87.7963 98.1323 87.8204 98.2105 87.8638C98.2888 87.9072 98.3514 87.9684 98.3912 88.0404C98.431 88.1124 98.4466 88.1924 98.4361 88.2715C98.4256 88.3506 98.3895 88.4257 98.3318 88.4883C98.2741 88.5509 98.1971 88.5986 98.1094 88.626C97.9618 88.6495 97.8093 88.6236 97.6834 88.5538C97.5576 88.484 97.4681 88.3756 97.4336 88.251Z" stroke="#263238" stroke-miterlimit="10"/>
<path d="M97.7469 87.783L97.2646 86.655" stroke="#263238" stroke-linecap="round" stroke-linejoin="round"/>
<path d="M96.7085 86.562C96.7015 86.4817 96.721 86.4014 96.7647 86.33C96.8085 86.2587 96.8748 86.1992 96.9561 86.1582C97.0374 86.1173 97.1305 86.0965 97.225 86.0982C97.3194 86.1 97.4114 86.1242 97.4905 86.1681C97.5697 86.212 97.6329 86.2739 97.673 86.3468C97.713 86.4197 97.7284 86.5007 97.7174 86.5807C97.7063 86.6606 97.6693 86.7363 97.6105 86.7993C97.5516 86.8623 97.4733 86.91 97.3843 86.937C97.2367 86.9605 97.0842 86.9346 96.9583 86.8648C96.8325 86.795 96.743 86.6866 96.7085 86.562Z" stroke="#263238" stroke-miterlimit="10"/>
<path d="M97.0253 86.091L96.5395 84.963" stroke="#263238" stroke-linecap="round" stroke-linejoin="round"/>
<path d="M95.9834 84.87C95.9152 84.7558 95.9018 84.6235 95.9458 84.501C95.9897 84.3784 96.0878 84.2752 96.2192 84.213C96.4691 84.132 96.7718 84.303 96.895 84.588C96.9401 84.6419 96.97 84.7039 96.9822 84.7692C96.9945 84.8345 96.9889 84.9014 96.9659 84.9645C96.9428 85.0277 96.903 85.0855 96.8494 85.1333C96.7958 85.1812 96.7299 85.2178 96.657 85.2404C96.584 85.263 96.5059 85.2708 96.4288 85.2634C96.3516 85.256 96.2776 85.2335 96.2124 85.1976C96.1471 85.1618 96.0925 85.1135 96.0528 85.0567C96.0131 84.9999 95.9893 84.936 95.9834 84.87Z" stroke="#263238" stroke-miterlimit="10"/>
<path d="M96.3002 84.399L95.8144 83.274" stroke="#263238" stroke-linecap="round" stroke-linejoin="round"/>
<path d="M95.2582 83.181C95.2515 83.1009 95.2711 83.0208 95.3149 82.9496C95.3587 82.8785 95.4248 82.8192 95.506 82.7783C95.5871 82.7374 95.68 82.7166 95.7742 82.7183C95.8685 82.7199 95.9603 82.7439 96.0394 82.7876C96.1185 82.8313 96.1817 82.8929 96.222 82.9655C96.2623 83.0381 96.2781 83.1188 96.2675 83.1987C96.2569 83.2785 96.2205 83.3542 96.1622 83.4173C96.1039 83.4805 96.0261 83.5285 95.9376 83.556C95.7895 83.5803 95.636 83.5549 95.5094 83.485C95.3828 83.4151 95.2928 83.3062 95.2582 83.181Z" stroke="#263238" stroke-miterlimit="10"/>
<path d="M95.575 82.71L95.0893 81.582" stroke="#263238" stroke-linecap="round" stroke-linejoin="round"/>
<path d="M94.5366 81.489C94.4681 81.3747 94.454 81.2422 94.4972 81.1193C94.5405 80.9963 94.6379 80.8923 94.769 80.829C95.0189 80.751 95.3216 80.919 95.4448 81.207C95.491 81.2607 95.5219 81.3228 95.5351 81.3885C95.5482 81.4541 95.5433 81.5214 95.5206 81.5852C95.498 81.6489 95.4582 81.7073 95.4045 81.7556C95.3508 81.804 95.2846 81.841 95.2112 81.8638C95.1378 81.8866 95.0592 81.8945 94.9816 81.8869C94.904 81.8794 94.8295 81.8565 94.764 81.8201C94.6986 81.7838 94.644 81.7349 94.6045 81.6774C94.565 81.62 94.5418 81.5555 94.5366 81.489Z" stroke="#263238" stroke-miterlimit="10"/>
<path d="M94.8499 81.018L94.3642 79.893" stroke="#263238" stroke-linecap="round" stroke-linejoin="round"/>
<path d="M93.8115 79.8C93.7422 79.6863 93.7277 79.554 93.7711 79.4313C93.8145 79.3086 93.9123 79.2051 94.0438 79.143C94.1579 79.0706 94.2958 79.0308 94.4379 79.029C94.5801 79.0273 94.7192 79.0639 94.8356 79.1335C94.952 79.203 95.0396 79.3021 95.0861 79.4166C95.1326 79.5311 95.1356 79.6552 95.0946 79.7712C95.0535 79.8872 94.9706 79.9892 94.8576 80.0628C94.7447 80.1363 94.6074 80.1776 94.4652 80.1808C94.3231 80.184 94.1835 80.1489 94.0661 80.0805C93.9487 80.0122 93.8596 79.914 93.8115 79.8Z" stroke="#263238" stroke-miterlimit="10"/>
<path d="M94.1248 79.329L93.639 78.201" stroke="#263238" stroke-linecap="round" stroke-linejoin="round"/>
<path d="M93.0864 78.108C93.0804 78.0286 93.1004 77.9493 93.1442 77.879C93.1881 77.8087 93.254 77.7502 93.3346 77.71C93.4152 77.6698 93.5074 77.6495 93.6008 77.6514C93.6942 77.6533 93.7851 77.6774 93.8633 77.7208C93.9416 77.7642 94.0042 77.8254 94.044 77.8974C94.0838 77.9694 94.0994 78.0494 94.0889 78.1285C94.0784 78.2076 94.0423 78.2827 93.9846 78.3453C93.9269 78.4079 93.8499 78.4556 93.7622 78.483C93.6146 78.5065 93.4621 78.4806 93.3362 78.4108C93.2104 78.341 93.1209 78.2325 93.0864 78.108Z" stroke="#263238" stroke-miterlimit="10"/>
<path d="M93.3997 77.637L92.9174 76.509" stroke="#263238" stroke-linecap="round" stroke-linejoin="round"/>
<path d="M92.3613 76.416C92.3552 76.3366 92.3753 76.2572 92.4191 76.187C92.4629 76.1167 92.5289 76.0581 92.6095 76.018C92.6901 75.9778 92.7823 75.9575 92.8757 75.9594C92.969 75.9613 93.0599 75.9853 93.1382 76.0288C93.2165 76.0722 93.2791 76.1333 93.3189 76.2053C93.3587 76.2774 93.3743 76.3574 93.3638 76.4365C93.3533 76.5156 93.3172 76.5906 93.2595 76.6532C93.2018 76.7159 93.1248 76.7635 93.0371 76.791C92.8894 76.8152 92.7364 76.7897 92.6104 76.7198C92.4843 76.6498 92.395 76.5409 92.3613 76.416Z" stroke="#263238" stroke-miterlimit="10"/>
<path d="M92.6746 75.948L92.1923 74.82" stroke="#263238" stroke-linecap="round" stroke-linejoin="round"/>
<path d="M91.6362 74.727C91.6301 74.6476 91.6502 74.5683 91.694 74.498C91.7378 74.4277 91.8037 74.3692 91.8844 74.329C91.965 74.2888 92.0572 74.2685 92.1505 74.2704C92.2439 74.2724 92.3348 74.2964 92.4131 74.3398C92.4914 74.3832 92.5539 74.4444 92.5938 74.5164C92.6336 74.5884 92.6491 74.6684 92.6386 74.7475C92.6282 74.8266 92.592 74.9017 92.5344 74.9643C92.4767 75.0269 92.3997 75.0746 92.312 75.102C92.1644 75.1255 92.0118 75.0996 91.886 75.0298C91.7602 74.96 91.6707 74.8516 91.6362 74.727Z" stroke="#263238" stroke-miterlimit="10"/>
<path d="M91.9494 74.256L91.4672 73.128" stroke="#263238" stroke-linecap="round" stroke-linejoin="round"/>
<path d="M90.911 73.035C90.905 72.9556 90.925 72.8763 90.9689 72.806C91.0127 72.7357 91.0786 72.6772 91.1593 72.637C91.2399 72.5968 91.332 72.5765 91.4254 72.5784C91.5188 72.5803 91.6097 72.6044 91.688 72.6478C91.7663 72.6912 91.8288 72.7524 91.8686 72.8244C91.9085 72.8964 91.924 72.9764 91.9135 73.0555C91.903 73.1346 91.8669 73.2097 91.8092 73.2723C91.7515 73.3349 91.6746 73.3826 91.5869 73.41C91.4392 73.4343 91.2862 73.4087 91.1601 73.3388C91.0341 73.2688 90.9448 73.1599 90.911 73.035Z" stroke="#263238" stroke-miterlimit="10"/>
<path d="M91.2243 72.567L90.7421 71.439" stroke="#263238" stroke-linecap="round" stroke-linejoin="round"/>
<path d="M90.1859 71.346C90.1799 71.2665 90.1999 71.1872 90.2437 71.1169C90.2876 71.0467 90.3535 70.9881 90.4341 70.948C90.5148 70.9078 90.6069 70.8875 90.7003 70.8894C90.7937 70.8913 90.8846 70.9153 90.9629 70.9588C91.0411 71.0022 91.1037 71.0633 91.1435 71.1353C91.1834 71.2073 91.1989 71.2874 91.1884 71.3665C91.1779 71.4456 91.1418 71.5206 91.0841 71.5832C91.0264 71.6458 90.9494 71.6935 90.8618 71.721C90.7142 71.7445 90.5616 71.7186 90.4358 71.6488C90.3099 71.579 90.2205 71.4705 90.1859 71.346Z" stroke="#263238" stroke-miterlimit="10"/>
<path d="M90.4992 70.875L90.017 69.747" stroke="#263238" stroke-linecap="round" stroke-linejoin="round"/>
<path d="M90.4218 101.151C90.4218 100.851 90.2035 100.599 89.936 100.599C89.6685 100.599 89.4538 100.845 89.4538 101.151C89.4538 101.457 89.6685 101.7 89.936 101.7C90.2035 101.7 90.4218 101.454 90.4218 101.151Z" stroke="#263238" stroke-miterlimit="10"/>
<path d="M89.936 100.8V99.6" stroke="#263238" stroke-linecap="round" stroke-linejoin="round"/>
<path d="M90.4218 99.351C90.4218 99.051 90.2035 98.799 89.936 98.799C89.6685 98.799 89.4538 99.045 89.4538 99.351C89.4538 99.657 89.6685 99.9 89.936 99.9C90.2035 99.9 90.4218 99.654 90.4218 99.351Z" stroke="#263238" stroke-miterlimit="10"/>
<path d="M89.936 99V97.8" stroke="#263238" stroke-linecap="round" stroke-linejoin="round"/>
<path d="M90.4218 97.551C90.4218 97.251 90.2035 96.999 89.936 96.999C89.6685 96.999 89.4538 97.245 89.4538 97.551C89.4538 97.857 89.6685 98.1 89.936 98.1C90.2035 98.1 90.4218 97.854 90.4218 97.551Z" stroke="#263238" stroke-miterlimit="10"/>
<path d="M89.936 97.2V96" stroke="#263238" stroke-linecap="round" stroke-linejoin="round"/>
<path d="M90.4218 95.751C90.4218 95.451 90.2035 95.199 89.936 95.199C89.6685 95.199 89.4538 95.445 89.4538 95.751C89.4538 96.057 89.6685 96.3 89.936 96.3C90.2035 96.3 90.4218 96.054 90.4218 95.751Z" stroke="#263238" stroke-miterlimit="10"/>
<path d="M89.936 95.4V94.2" stroke="#263238" stroke-linecap="round" stroke-linejoin="round"/>
<path d="M90.4218 93.951C90.4218 93.651 90.2035 93.399 89.936 93.399C89.6685 93.399 89.4538 93.645 89.4538 93.951C89.4538 94.257 89.6685 94.5 89.936 94.5C90.2035 94.5 90.4218 94.254 90.4218 93.951Z" stroke="#263238" stroke-miterlimit="10"/>
<path d="M89.936 93.6V92.4" stroke="#263238" stroke-linecap="round" stroke-linejoin="round"/>
<path d="M90.4218 92.151C90.4218 91.851 90.2035 91.599 89.936 91.599C89.6685 91.599 89.4538 91.845 89.4538 92.151C89.4538 92.457 89.6685 92.7 89.936 92.7C90.2035 92.7 90.4218 92.454 90.4218 92.151Z" stroke="#263238" stroke-miterlimit="10"/>
<path d="M89.936 91.8V90.6" stroke="#263238" stroke-linecap="round" stroke-linejoin="round"/>
<path d="M90.4218 90.351C90.4218 90.051 90.2035 89.799 89.936 89.799C89.6685 89.799 89.4538 90.045 89.4538 90.351C89.4538 90.657 89.6685 90.9 89.936 90.9C90.2035 90.9 90.4218 90.654 90.4218 90.351Z" stroke="#263238" stroke-miterlimit="10"/>
<path d="M89.936 90V88.8" stroke="#263238" stroke-linecap="round" stroke-linejoin="round"/>
<path d="M90.4218 88.551C90.4218 88.251 90.2035 87.999 89.936 87.999C89.6685 87.999 89.4538 88.245 89.4538 88.551C89.4538 88.857 89.6685 89.1 89.936 89.1C90.2035 89.1 90.4218 88.854 90.4218 88.551Z" stroke="#263238" stroke-miterlimit="10"/>
<path d="M89.936 88.2V87" stroke="#263238" stroke-linecap="round" stroke-linejoin="round"/>
<path d="M90.4218 86.751C90.4218 86.451 90.2035 86.199 89.936 86.199C89.6685 86.199 89.4538 86.445 89.4538 86.751C89.4538 87.057 89.6685 87.3 89.936 87.3C90.2035 87.3 90.4218 87.054 90.4218 86.751Z" stroke="#263238" stroke-miterlimit="10"/>
<path d="M89.936 86.4V85.2" stroke="#263238" stroke-linecap="round" stroke-linejoin="round"/>
<path d="M90.4218 84.951C90.4218 84.651 90.2035 84.399 89.936 84.399C89.6685 84.399 89.4538 84.645 89.4538 84.951C89.4538 85.257 89.6685 85.5 89.936 85.5C90.2035 85.5 90.4218 85.254 90.4218 84.951Z" stroke="#263238" stroke-miterlimit="10"/>
<path d="M89.936 84.6V83.4" stroke="#263238" stroke-linecap="round" stroke-linejoin="round"/>
<path d="M90.4218 83.151C90.4218 82.851 90.2035 82.599 89.936 82.599C89.6685 82.599 89.4538 82.845 89.4538 83.151C89.4538 83.457 89.6685 83.7 89.936 83.7C90.2035 83.7 90.4218 83.454 90.4218 83.151Z" stroke="#263238" stroke-miterlimit="10"/>
<path d="M89.936 82.8V81.6" stroke="#263238" stroke-linecap="round" stroke-linejoin="round"/>
<path d="M90.4218 81.351C90.4218 81.051 90.2035 80.799 89.936 80.799C89.6685 80.799 89.4538 81.045 89.4538 81.351C89.4538 81.657 89.6685 81.9 89.936 81.9C90.2035 81.9 90.4218 81.654 90.4218 81.351Z" stroke="#263238" stroke-miterlimit="10"/>
<path d="M89.936 81V79.8" stroke="#263238" stroke-linecap="round" stroke-linejoin="round"/>
<path d="M90.4218 79.551C90.4218 79.251 90.2035 78.999 89.936 78.999C89.6685 78.999 89.4538 79.245 89.4538 79.551C89.4538 79.857 89.6685 80.1 89.936 80.1C90.2035 80.1 90.4218 79.854 90.4218 79.551Z" stroke="#263238" stroke-miterlimit="10"/>
<path d="M89.936 79.2V78" stroke="#263238" stroke-linecap="round" stroke-linejoin="round"/>
<path d="M90.4218 77.751C90.4218 77.451 90.2035 77.199 89.936 77.199C89.6685 77.199 89.4538 77.445 89.4538 77.751C89.4538 78.057 89.6685 78.3 89.936 78.3C90.2035 78.3 90.4218 78.054 90.4218 77.751Z" stroke="#263238" stroke-miterlimit="10"/>
<path d="M89.936 77.4V76.2" stroke="#263238" stroke-linecap="round" stroke-linejoin="round"/>
<path d="M90.4218 75.951C90.4218 75.651 90.2035 75.399 89.936 75.399C89.6685 75.399 89.4538 75.645 89.4538 75.951C89.4538 76.257 89.6685 76.5 89.936 76.5C90.2035 76.5 90.4218 76.254 90.4218 75.951Z" stroke="#263238" stroke-miterlimit="10"/>
<path d="M89.936 75.6V74.4" stroke="#263238" stroke-linecap="round" stroke-linejoin="round"/>
<path d="M90.4218 74.151C90.4218 73.851 90.2035 73.599 89.936 73.599C89.6685 73.599 89.4538 73.845 89.4538 74.151C89.4538 74.457 89.6685 74.7 89.936 74.7C90.2035 74.7 90.4218 74.454 90.4218 74.151Z" stroke="#263238" stroke-miterlimit="10"/>
<path d="M89.936 73.8V72.6" stroke="#263238" stroke-linecap="round" stroke-linejoin="round"/>
<path d="M90.4218 72.351C90.4218 72.051 90.2035 71.799 89.936 71.799C89.6685 71.799 89.4538 72.045 89.4538 72.351C89.4538 72.657 89.6685 72.9 89.936 72.9C90.2035 72.9 90.4218 72.654 90.4218 72.351Z" stroke="#263238" stroke-miterlimit="10"/>
<path d="M89.936 72V70.8" stroke="#263238" stroke-linecap="round" stroke-linejoin="round"/>
<path d="M90.4218 70.551C90.4218 70.251 90.2035 69.999 89.936 69.999C89.6685 69.999 89.4538 70.245 89.4538 70.551C89.4538 70.857 89.6685 71.1 89.936 71.1C90.2035 71.1 90.4218 70.854 90.4218 70.551Z" stroke="#263238" stroke-miterlimit="10"/>
<path d="M89.936 70.2V69" stroke="#263238" stroke-linecap="round" stroke-linejoin="round"/>
<path d="M90.4218 68.751C90.4218 68.451 90.2035 68.199 89.936 68.199C89.6685 68.199 89.4538 68.445 89.4538 68.751C89.4538 69.057 89.6685 69.3 89.936 69.3C90.2035 69.3 90.4218 69.054 90.4218 68.751Z" stroke="#263238" stroke-miterlimit="10"/>
<path d="M89.936 68.4V67.2" stroke="#263238" stroke-linecap="round" stroke-linejoin="round"/>
<path d="M104.438 99.9C104.438 100.8 97.944 102.186 89.936 102.186C81.928 102.186 75.4336 100.8 75.4336 99.9H104.438Z" fill="#407BFF"/>
<path opacity="0.2" d="M75.4336 99.9C75.4336 100.8 81.928 102.186 89.936 102.186C97.944 102.186 104.438 100.8 104.438 99.9H75.4336Z" fill="black"/>
<path d="M60.3046 62.37L58.9354 62.427C58.7206 62.427 58.4672 62.454 58.1891 62.478L57.2986 62.556C56.9747 62.577 56.6509 62.631 56.2989 62.676C55.9469 62.721 55.5949 62.76 55.2042 62.838L54.025 63.051L52.7789 63.351C52.353 63.456 51.9235 63.579 51.48 63.696C51.0365 63.813 50.6 63.969 50.1494 64.11C49.2589 64.41 48.3507 64.743 47.4531 65.112C46.5555 65.481 45.6614 65.871 44.7744 66.261C43.8874 66.651 43.0144 67.035 42.145 67.383C41.3117 67.7203 40.4462 67.9963 39.5578 68.208C38.7305 68.4048 37.883 68.5334 37.0269 68.592C36.2647 68.6455 35.4982 68.6334 34.7389 68.556C34.5629 68.538 34.3869 68.505 34.232 68.481L33.9856 68.445L33.7533 68.391L33.3062 68.286L32.8979 68.154C32.831 68.133 32.7677 68.115 32.7043 68.091L32.5248 68.016L32.1904 67.872C31.9827 67.767 31.8032 67.659 31.6342 67.572L31.233 67.272C31.1361 67.1976 31.0455 67.1174 30.9619 67.032L30.7437 66.825L30.0186 67.287L30.265 67.545C30.3602 67.6508 30.4636 67.7511 30.5747 67.845L31.0429 68.214C31.2365 68.328 31.4442 68.466 31.6835 68.598L32.0707 68.781L32.2749 68.877C32.3453 68.907 32.4227 68.931 32.4966 68.958L32.9613 69.126C33.1232 69.174 33.2922 69.216 33.4646 69.264L33.7286 69.333L34.0032 69.387C34.1862 69.42 34.3763 69.462 34.5699 69.489C35.4052 69.604 36.252 69.6462 37.0973 69.615C38.0342 69.5846 38.9655 69.4771 39.8781 69.294C40.8497 69.098 41.7999 68.8321 42.7187 68.499C43.641 68.166 44.5562 67.806 45.4573 67.446C46.3584 67.086 47.2525 66.729 48.1395 66.408C49.0266 66.087 49.8995 65.808 50.7654 65.538C51.1984 65.421 51.6208 65.301 52.0362 65.193C52.4515 65.085 52.8669 64.995 53.2682 64.908L54.4438 64.686L55.5526 64.524C55.9046 64.464 56.2566 64.446 56.577 64.41C56.8973 64.374 57.2106 64.335 57.4957 64.329L58.2982 64.287C58.5446 64.272 58.7699 64.26 59.0022 64.263H60.3715L60.3046 62.37Z" fill="#407BFF"/>
<path d="M60.0019 62.37L61.3712 62.427C61.5824 62.427 61.8358 62.454 62.1139 62.478L63.008 62.556C63.3283 62.577 63.6557 62.631 64.0042 62.676C64.3526 62.721 64.7082 62.76 65.0989 62.838L66.2781 63.051L67.5277 63.351C67.9501 63.456 68.383 63.579 68.823 63.696C69.263 63.813 69.703 63.969 70.1536 64.11C71.0442 64.41 71.9558 64.743 72.8499 65.112C73.744 65.481 74.6451 65.871 75.5322 66.261C76.4192 66.651 77.2922 67.035 78.1616 67.383C78.9946 67.7208 79.8602 67.9969 80.7488 68.208C81.5759 68.4053 82.4235 68.5339 83.2797 68.592C84.0407 68.6455 84.806 68.6334 85.5642 68.556C85.7402 68.538 85.9162 68.505 86.0746 68.481L86.321 68.445L86.5533 68.391L87.0003 68.286L87.4086 68.154C87.472 68.133 87.5389 68.115 87.6022 68.091L87.7782 68.016L88.1302 67.872C88.3344 67.767 88.5139 67.659 88.6829 67.572L89.0877 67.272C89.1835 67.1976 89.273 67.1174 89.3552 67.032L89.5734 66.825L90.3021 67.287L90.0522 67.545C89.957 67.6508 89.8535 67.7511 89.7424 67.845L89.2778 68.214C89.0842 68.328 88.873 68.466 88.6371 68.598L88.2499 68.781L88.0422 68.877C87.9718 68.907 87.8979 68.931 87.824 68.958L87.3594 69.126C87.1974 69.174 87.025 69.216 86.8525 69.264L86.5885 69.333L86.3174 69.387C86.1309 69.42 85.9408 69.462 85.7472 69.489C84.9131 69.6041 84.0675 69.6463 83.2234 69.615C82.2864 69.5848 81.3551 69.4773 80.4426 69.294C79.471 69.098 78.5207 68.8321 77.6019 68.499C76.6762 68.166 75.7645 67.806 74.8598 67.446C73.9552 67.086 73.0646 66.729 72.1776 66.408C71.2906 66.087 70.4176 65.808 69.5552 65.538C69.1222 65.421 68.6998 65.301 68.281 65.193C67.8621 65.085 67.4502 64.995 67.049 64.908L65.8768 64.686L64.768 64.5C64.416 64.44 64.064 64.422 63.7437 64.386C63.4234 64.35 63.1066 64.311 62.8214 64.305L62.0189 64.263C61.7725 64.248 61.5472 64.236 61.3149 64.239H59.9456L60.0019 62.37Z" fill="#407BFF"/>
<path opacity="0.1" d="M60.3046 62.37L58.9354 62.427C58.7206 62.427 58.4672 62.454 58.1891 62.478L57.2986 62.556C56.9747 62.577 56.6509 62.631 56.2989 62.676C55.9469 62.721 55.5949 62.76 55.2042 62.838L54.025 63.051L52.7789 63.351C52.353 63.456 51.9235 63.579 51.48 63.696C51.0365 63.813 50.6 63.969 50.1494 64.11C49.2589 64.41 48.3507 64.743 47.4531 65.112C46.5555 65.481 45.6614 65.871 44.7744 66.261C43.8874 66.651 43.0144 67.035 42.145 67.383C41.3117 67.7203 40.4462 67.9963 39.5578 68.208C38.7305 68.4048 37.883 68.5334 37.0269 68.592C36.2647 68.6455 35.4982 68.6334 34.7389 68.556C34.5629 68.538 34.3869 68.505 34.232 68.481L33.9856 68.445L33.7533 68.391L33.3062 68.286L32.8979 68.154C32.831 68.133 32.7677 68.115 32.7043 68.091L32.5248 68.016L32.1904 67.872C31.9827 67.767 31.8032 67.659 31.6342 67.572L31.233 67.272C31.1361 67.1976 31.0455 67.1174 30.9619 67.032L30.7437 66.825L30.0186 67.287L30.265 67.545C30.3602 67.6508 30.4636 67.7511 30.5747 67.845L31.0429 68.214C31.2365 68.328 31.4442 68.466 31.6835 68.598L32.0707 68.781L32.2749 68.877C32.3453 68.907 32.4227 68.931 32.4966 68.958L32.9613 69.126C33.1232 69.174 33.2922 69.216 33.4646 69.264L33.7286 69.333L34.0032 69.387C34.1862 69.42 34.3763 69.462 34.5699 69.489C35.4052 69.604 36.252 69.6462 37.0973 69.615C38.0342 69.5846 38.9655 69.4771 39.8781 69.294C40.8497 69.098 41.7999 68.8321 42.7187 68.499C43.641 68.166 44.5562 67.806 45.4573 67.446C46.3584 67.086 47.2525 66.729 48.1395 66.408C49.0266 66.087 49.8995 65.808 50.7654 65.538C51.1984 65.421 51.6208 65.301 52.0362 65.193C52.4515 65.085 52.8669 64.995 53.2682 64.908L54.4438 64.686L55.5526 64.524C55.9046 64.464 56.2566 64.446 56.577 64.41C56.8973 64.374 57.2106 64.335 57.4957 64.329L58.2982 64.287C58.5446 64.272 58.7699 64.26 59.0022 64.263H60.3715L60.3046 62.37Z" fill="white"/>
<path opacity="0.1" d="M60.0019 62.37L61.3712 62.427C61.5824 62.427 61.8358 62.454 62.1139 62.478L63.008 62.556C63.3283 62.577 63.6557 62.631 64.0042 62.676C64.3526 62.721 64.7082 62.76 65.0989 62.838L66.2781 63.051L67.5277 63.351C67.9501 63.456 68.383 63.579 68.823 63.696C69.263 63.813 69.703 63.969 70.1536 64.11C71.0442 64.41 71.9558 64.743 72.8499 65.112C73.744 65.481 74.6451 65.871 75.5322 66.261C76.4192 66.651 77.2922 67.035 78.1616 67.383C78.9946 67.7208 79.8602 67.9969 80.7488 68.208C81.5759 68.4053 82.4235 68.5339 83.2797 68.592C84.0407 68.6455 84.806 68.6334 85.5642 68.556C85.7402 68.538 85.9162 68.505 86.0746 68.481L86.321 68.445L86.5533 68.391L87.0003 68.286L87.4086 68.154C87.472 68.133 87.5389 68.115 87.6022 68.091L87.7782 68.016L88.1302 67.872C88.3344 67.767 88.5139 67.659 88.6829 67.572L89.0877 67.272C89.1835 67.1976 89.273 67.1174 89.3552 67.032L89.5734 66.825L90.3021 67.287L90.0522 67.545C89.957 67.6508 89.8535 67.7511 89.7424 67.845L89.2778 68.214C89.0842 68.328 88.873 68.466 88.6371 68.598L88.2499 68.781L88.0422 68.877C87.9718 68.907 87.8979 68.931 87.824 68.958L87.3594 69.126C87.1974 69.174 87.025 69.216 86.8525 69.264L86.5885 69.333L86.3174 69.387C86.1309 69.42 85.9408 69.462 85.7472 69.489C84.9131 69.6041 84.0675 69.6463 83.2234 69.615C82.2864 69.5848 81.3551 69.4773 80.4426 69.294C79.471 69.098 78.5207 68.8321 77.6019 68.499C76.6762 68.166 75.7645 67.806 74.8598 67.446C73.9552 67.086 73.0646 66.729 72.1776 66.408C71.2906 66.087 70.4176 65.808 69.5552 65.538C69.1222 65.421 68.6998 65.301 68.281 65.193C67.8621 65.085 67.4502 64.995 67.049 64.908L65.8768 64.686L64.768 64.5C64.416 64.44 64.064 64.422 63.7437 64.386C63.4234 64.35 63.1066 64.311 62.8214 64.305L62.0189 64.263C61.7725 64.248 61.5472 64.236 61.3149 64.239H59.9456L60.0019 62.37Z" fill="white"/>
<path d="M30.529 67.818C30.0274 67.818 29.6208 67.4715 29.6208 67.044C29.6208 66.6166 30.0274 66.27 30.529 66.27C31.0305 66.27 31.4371 66.6166 31.4371 67.044C31.4371 67.4715 31.0305 67.818 30.529 67.818Z" fill="#407BFF"/>
<path d="M90.0698 66.27C90.2495 66.2694 90.4255 66.3143 90.5753 66.399C90.7251 66.4837 90.842 66.6044 90.9113 66.7457C90.9806 66.8871 90.9991 67.0428 90.9644 67.1932C90.9298 67.3435 90.8436 67.4817 90.7167 67.5903C90.5898 67.6988 90.428 67.7728 90.2518 67.8029C90.0755 67.833 89.8927 67.8179 89.7266 67.7594C89.5604 67.7009 89.4184 67.6017 89.3184 67.4743C89.2185 67.347 89.1651 67.1972 89.1651 67.044C89.1651 66.8393 89.2603 66.6429 89.4299 66.4978C89.5994 66.3527 89.8295 66.2708 90.0698 66.27Z" fill="#407BFF"/>
<path d="M57.4464 60.9C57.4464 60.2635 57.7431 59.653 58.2712 59.2029C58.7993 58.7529 59.5156 58.5 60.2624 58.5C61.0093 58.5 61.7255 58.7529 62.2536 59.2029C62.7817 59.653 63.0784 60.2635 63.0784 60.9C63.0785 61.4001 62.8772 61.8852 62.5082 62.274L62.2688 66.894H58.2666L58.0272 62.274C57.6531 61.887 57.4478 61.4014 57.4464 60.9Z" fill="#407BFF"/>
<path opacity="0.1" d="M62.5011 62.448H58.0202C57.6488 62.0519 57.4465 61.56 57.4464 61.053C57.4464 60.4165 57.7431 59.806 58.2712 59.356C58.7993 58.9059 59.5156 58.653 60.2624 58.653C61.0093 58.653 61.7255 58.9059 62.2536 59.356C62.7817 59.806 63.0784 60.4165 63.0784 61.053C63.078 61.5595 62.877 62.051 62.5082 62.448H62.5011Z" fill="white"/>
</g>
</svg>
