<svg width="75" height="78" viewBox="0 0 75 78" fill="none" xmlns="http://www.w3.org/2000/svg">
<g clip-path="url(#clip0_563_58)">
<path d="M37.4998 0C58.7315 0 74.9998 18.0692 74.9998 38.9998C74.9998 59.935 58.7327 78 37.4998 78C16.2656 78 0 59.9359 0 38.9998C0 18.1852 16.1458 0 37.4998 0Z" fill="#D9E9F0"/>
<path d="M67.2969 62.6371C60.5613 71.8381 49.952 77.9436 37.6644 77.9979C37.1145 77.9938 36.5647 77.9835 36.015 77.9671C24.2535 77.4971 14.1357 71.4707 7.64499 62.558C9.85977 58.122 14.5193 55.4788 19.2146 54.8479C23.9326 54.2145 27.8589 53.5714 29.5196 47.8429C29.9494 48.2211 30.4007 48.6028 30.861 49.0136C35.1588 52.8514 40.0014 53.0182 44.1421 49.0073C44.4821 48.6767 44.8151 48.3656 45.1334 48.0629C47.2527 52.8004 52.2565 53.6369 56.4758 54.4563C60.8493 55.305 65.1571 58.4916 67.2969 62.6371Z" fill="#256DE6"/>
<path d="M45.1335 48.064C46.2422 50.5417 48.1401 51.9532 50.3006 52.8517C42.9923 58.2373 32.9027 57.926 25.3863 53.3233C27.663 52.0918 28.803 50.3082 29.5172 47.8417C29.9469 48.2197 30.3996 48.6014 30.8607 49.0136C35.1588 52.8517 40.0016 53.0182 44.1422 49.0075C44.4823 48.6769 44.8151 48.3656 45.1335 48.064Z" fill="#D2A75F"/>
<path d="M37.9063 56.8319C33.5356 56.8512 29.1396 55.6209 25.3863 53.3233C27.6545 52.0967 28.8237 50.2852 29.5184 47.8417C29.9493 48.2197 30.3996 48.6014 30.8607 49.0136C33.1181 51.0292 35.528 52.0322 37.9063 51.9495V56.8319Z" fill="#DBB26F"/>
<path fill-rule="evenodd" clip-rule="evenodd" d="M22.727 34.9393C23.2942 33.3089 24.6129 33.8331 26.4921 34.5219C25.7415 31.1034 26.6273 28.4331 29.292 26.5818C34.9772 22.631 37.5466 26.0125 43.7086 21.0289C47.2485 22.8197 50.4156 25.8469 48.8018 35.3048C50.5101 34.0045 52.9734 34.1258 52.1986 37.006L51.1401 40.0173C50.887 40.738 50.7178 40.9994 49.8111 40.9504C49.4103 40.9291 49.0075 40.7741 48.6056 40.5073C48.9768 44.9506 46.8291 46.4004 44.1414 49.006C40.0017 53.0184 35.1587 52.8528 30.8619 49.0133C28.345 46.7648 26.1097 45.3992 25.9983 40.7766C25.3454 40.9774 24.7287 41.014 24.1898 40.7063C23.1161 40.0925 22.725 38.3062 22.6662 37.1619C22.6429 36.7021 22.6623 35.4078 22.727 34.9393Z" fill="#E9BE79"/>
<path fill-rule="evenodd" clip-rule="evenodd" d="M22.7271 34.9393C23.2948 33.3086 24.6126 33.8335 26.4921 34.5219L26.4753 34.4404L26.4921 34.4497C27.4717 24.1207 32.5775 25.6738 37.9058 24.3547V51.9494C35.5281 52.0329 33.1192 51.0307 30.8616 49.0133C28.3448 46.7648 26.1094 45.3996 25.9986 40.7768C25.3462 40.9772 24.7287 41.0139 24.1902 40.7062C22.6263 39.8122 22.5001 36.5792 22.7271 34.9393Z" fill="#F2CD8C"/>
<path fill-rule="evenodd" clip-rule="evenodd" d="M19.4781 20.3315C27.7691 10.0412 37.3251 4.44439 44.5007 13.5985C53.294 14.0623 56.3444 28.4736 48.9694 34.096C49.5601 26.2684 47.2532 22.7578 43.686 20.9937C36.8967 28.4297 27.8326 20.3181 26.4922 34.4493L23.2383 32.7472C22.9152 28.6942 23.8603 21.6628 19.4781 20.3315Z" fill="#462917"/>
</g>
<defs>
<clipPath id="clip0_563_58">
<rect width="75" height="78" fill="white"/>
</clipPath>
</defs>
</svg>
