<svg width="137" height="158" viewBox="0 0 137 158" fill="none" xmlns="http://www.w3.org/2000/svg">
<g opacity="0.7">
<path d="M116.099 50.7117C116.099 50.7117 111.477 29.3311 83.4933 15.8474C55.5097 2.3637 30.4743 14.852 24.7669 30.652C19.0594 46.452 25.0409 54.984 21.2323 68.4772C17.4237 81.9704 -2.14268 99.0597 5.754 119.783C13.6507 140.506 50.6023 146.425 80.5039 142.149C110.406 137.874 133.767 90.5087 116.099 50.7117Z" fill="#7FD4FB"/>
<path opacity="0.7" d="M116.099 50.7117C116.099 50.7117 111.477 29.3311 83.4933 15.8474C55.5097 2.3637 30.4743 14.852 24.7669 30.652C19.0594 46.452 25.0409 54.984 21.2323 68.4772C17.4237 81.9704 -2.14268 99.0597 5.754 119.783C13.6507 140.506 50.6023 146.425 80.5039 142.149C110.406 137.874 133.767 90.5087 116.099 50.7117Z" fill="white"/>
<path d="M43.292 33.6793H20.55C19.8233 33.6793 19.1264 34.0122 18.6125 34.6048C18.0987 35.1974 17.81 36.0012 17.81 36.8393V46.6353C17.81 47.4733 18.0987 48.2771 18.6125 48.8697C19.1264 49.4623 19.8233 49.7953 20.55 49.7953H43.155L46.032 54.2193V36.8393C46.032 36.0012 45.7433 35.1974 45.2295 34.6048C44.7156 34.0122 44.0187 33.6793 43.292 33.6793Z" fill="#212222"/>
<path d="M22.7612 44.4643H21.9392V38.4603H22.7612V41.0294H23.6873V38.4603H24.5093V44.4643H23.6873V41.8952H22.7612V44.4643Z" fill="#7FD4FB"/>
<path d="M25.1148 38.4698H25.9368V44.4738H25.1148V38.4698Z" fill="#7FD4FB"/>
<path d="M27.4384 38.4698H29.9619V39.3261H29.107V44.4643H28.285V39.3261H27.4329L27.4384 38.4698Z" fill="#7FD4FB"/>
<path d="M31.1346 44.4643H30.3126V38.4603H31.1346V41.0294H32.058V38.4603H32.88V44.4643H32.058V41.8952H31.1291L31.1346 44.4643Z" fill="#7FD4FB"/>
<path d="M34.3048 40.9946H35.4255V41.851H34.3048V43.608H35.7159V44.4643H33.4883V38.4603H35.7159V39.3167H34.3048V40.9946Z" fill="#7FD4FB"/>
<path d="M37.9271 44.4644C37.8601 44.2271 37.8349 43.9767 37.8531 43.7281V42.7801C37.8531 42.2239 37.6914 42.0185 37.3051 42.0185H37.0311V44.458H36.2091V38.454H37.4421C38.2888 38.454 38.6532 38.9091 38.6532 39.8318V40.3026C38.6532 40.9188 38.4806 41.3233 38.1052 41.5192C38.5134 41.7183 38.6532 42.1702 38.6532 42.7832V43.7091C38.6383 43.956 38.6692 44.2038 38.7436 44.4359L37.9271 44.4644ZM37.0366 39.3262V41.1685H37.3572C37.6613 41.1685 37.8476 41.0136 37.8476 40.5365V39.9424C37.8476 39.5158 37.7216 39.3104 37.4311 39.3104L37.0366 39.3262Z" fill="#7FD4FB"/>
<path d="M40.0232 40.9946H41.1438V41.851H40.0232V43.608H41.4315V44.4643H39.2039V38.4603H41.4315V39.3167H40.0232V40.9946Z" fill="#7FD4FB"/>
<path d="M42.0426 43.1371L41.9384 40.9693V38.4698H42.7604V40.9693L42.6563 43.1371H42.0426ZM42.7385 43.5574V44.4643H41.9521V43.5574H42.7385Z" fill="#7FD4FB"/>
<path d="M81.652 33.9953C81.652 33.9953 80.6382 33.5813 80.408 34.6273C80.1779 35.6733 81.5205 36.0619 81.6849 36.0619C81.8493 36.0619 82.1096 35.7997 81.9452 35.1961C81.7808 34.5925 81.652 33.9953 81.652 33.9953Z" fill="#212222" stroke="#212222" stroke-linecap="round" stroke-linejoin="round"/>
<path d="M87.406 31.4294C87.406 31.4294 87.3074 32.9399 87.3074 33.5434C87.3074 34.147 87.8554 34.3745 88.1294 34.3745C88.4034 34.3745 88.5239 35.0918 88.3595 35.8471C88.1951 36.6023 87.6389 37.0542 86.2963 37.0542C84.9537 37.0542 84.1372 36.3748 84.1043 35.885C84.0714 35.3952 84.3975 33.278 84.9564 32.725C85.5154 32.172 87.406 31.4294 87.406 31.4294Z" fill="#212222" stroke="#212222" stroke-linecap="round" stroke-linejoin="round"/>
<path d="M82.5041 36.0714V36.656C82.5043 36.748 82.5274 36.838 82.5706 36.9153C82.6138 36.9926 82.6754 37.0539 82.748 37.0921C82.9832 37.2068 83.2331 37.2762 83.4878 37.2975C84.0009 37.2976 84.5078 37.1682 84.9729 36.9183C85.0373 36.8866 85.0922 36.8337 85.1307 36.7663C85.1692 36.6989 85.1896 36.6198 85.1893 36.5391V35.9292C85.1887 35.892 85.1803 35.8556 85.1646 35.823C85.149 35.7905 85.1266 35.7629 85.0996 35.7426C85.0726 35.7224 85.0416 35.71 85.0095 35.7068C84.9774 35.7035 84.9451 35.7093 84.9153 35.7238L84.8085 35.787C84.8085 35.787 83.1919 36.024 82.5041 36.0714Z" fill="#7FD4FB" stroke="#212222" stroke-linecap="round" stroke-linejoin="round"/>
<path d="M81.7863 31.126C81.6071 31.9561 81.4861 32.8015 81.4246 33.654C81.3259 35.0507 81.4246 36.3337 81.915 36.3716C82.2515 36.3723 82.5813 36.2627 82.8658 36.0556C82.8658 36.0556 84.0111 36.2073 84.403 35.9829L84.7975 35.7554L85.0907 33.5434C85.0907 33.5434 85.1236 30.1085 84.5674 29.8809C84.0111 29.6534 81.7863 31.126 81.7863 31.126Z" fill="white" stroke="#212222" stroke-linecap="round" stroke-linejoin="round"/>
<path d="M82.6685 32.6744L82.4082 33.4676C82.4082 33.4676 81.8822 33.6193 81.9479 33.9195C82.0137 34.2197 82.3617 34.1754 82.3617 34.1754" stroke="#212222" stroke-linecap="round" stroke-linejoin="round"/>
<path d="M83.5097 33.0189C83.4577 33.1832 83.3508 33.2906 83.2768 33.259C83.2028 33.2274 83.1809 33.0663 83.2357 32.8988C83.2905 32.7313 83.3946 32.6239 83.4714 32.6586C83.5481 32.6934 83.57 32.864 83.5097 33.0189Z" fill="#212222"/>
<path d="M82.2767 32.6365C82.2219 32.804 82.1178 32.9114 82.0411 32.8798C81.9644 32.8482 81.9479 32.6839 82 32.5196C82.052 32.3553 82.1589 32.2447 82.2356 32.2763C82.3123 32.3079 82.3288 32.4722 82.2767 32.6365Z" fill="#212222"/>
<path d="M83.2576 31.9571C83.2576 31.9571 83.8796 31.7675 83.9454 32.4501" stroke="#212222" stroke-linecap="round" stroke-linejoin="round"/>
<path d="M82.4411 31.7675C82.4411 31.7675 81.8931 31.5431 81.7205 32.0835" stroke="#212222" stroke-linecap="round" stroke-linejoin="round"/>
<path d="M82.8658 36.0714L83.7481 35.6575" stroke="#212222" stroke-linecap="round" stroke-linejoin="round"/>
<path d="M82.2 29.388C82.2 29.388 81.1533 27.9534 80.3669 29.0088C79.5806 30.0643 79.8189 31.6538 81.2191 31.7296C82.6192 31.8054 84.1975 30.2191 84.1975 30.2191C84.1975 30.2191 84.0331 32.2952 84.4249 33.0126C84.8167 33.7299 85.1126 34.2197 85.1126 34.2197C85.1126 34.2197 85.6606 34.6336 86.5867 33.8057C87.5129 32.9778 87.7321 30.9617 87.0772 29.6124C86.4223 28.2631 85.277 27.4984 83.9015 28.0324C82.5261 28.5664 82.2 29.388 82.2 29.388Z" fill="#212222" stroke="#212222" stroke-linecap="round" stroke-linejoin="round"/>
<path d="M84.4687 34.1849C84.4687 34.1849 85.6469 32.9398 85.6469 33.6571C85.6469 34.3745 85.0989 35.0159 84.666 34.8643" fill="white"/>
<path d="M84.4687 34.1849C84.4687 34.1849 85.6469 32.9398 85.6469 33.6571C85.6469 34.3745 85.0989 35.0159 84.666 34.8643" stroke="#212222" stroke-linecap="round" stroke-linejoin="round"/>
<path d="M81.9479 34.76C82.1027 34.8886 82.2887 34.9578 82.4795 34.9578C82.6703 34.9578 82.8562 34.8886 83.011 34.76" stroke="#212222" stroke-linecap="round" stroke-linejoin="round"/>
<path d="M88.0283 37.146C90.1205 34.5783 90.0117 30.5406 87.7853 28.1277C85.5588 25.7147 82.0578 25.8402 79.9655 28.4079C77.8733 30.9757 77.9821 35.0133 80.2085 37.4263C82.435 39.8393 85.936 39.7138 88.0283 37.146Z" stroke="#212222" stroke-linecap="round" stroke-linejoin="round"/>
<path d="M121.644 84.6777C124.788 83.8298 126.741 80.2026 126.006 76.5761C125.271 72.9496 122.126 70.6971 118.981 71.545C115.837 72.393 113.884 76.0202 114.619 79.6467C115.354 83.2732 118.499 85.5256 121.644 84.6777Z" stroke="#212222" stroke-linecap="round" stroke-linejoin="round"/>
<path d="M122.308 80.0997C122.308 80.5434 122.194 80.9772 121.98 81.3462C121.766 81.7151 121.463 82.0027 121.107 82.1725C120.752 82.3423 120.361 82.3867 119.983 82.3002C119.606 82.2136 119.259 81.9999 118.987 81.6861C118.715 81.3724 118.53 80.9726 118.455 80.5374C118.38 80.1022 118.418 79.6511 118.565 79.2411C118.713 78.8311 118.962 78.4807 119.282 78.2342C119.602 77.9877 119.978 77.8561 120.363 77.8561C120.879 77.8561 121.373 78.0925 121.738 78.5132C122.103 78.934 122.308 79.5046 122.308 80.0997Z" fill="#7FD4FB" stroke="#212222" stroke-linecap="round" stroke-linejoin="round"/>
<path d="M123.144 81.5944C123.564 80.9903 123.827 80.2618 123.903 79.4927C123.979 78.7236 123.866 77.9454 123.575 77.2476C123.285 76.5498 122.829 75.9608 122.261 75.5486C121.693 75.1364 121.035 74.9177 120.364 74.9177C119.693 74.9177 119.035 75.1364 118.467 75.5486C117.899 75.9608 117.444 76.5498 117.153 77.2476C116.863 77.9454 116.749 78.7236 116.825 79.4927C116.902 80.2618 117.165 80.9903 117.584 81.5944H123.144Z" fill="white" stroke="#212222" stroke-linecap="round" stroke-linejoin="round"/>
<path d="M121.752 80.4315H118.886C118.718 80.4315 118.552 80.3934 118.397 80.3194C118.242 80.2454 118.102 80.1369 117.983 80.0002C117.864 79.8635 117.77 79.7011 117.706 79.5225C117.642 79.3438 117.609 79.1523 117.609 78.9589C117.609 78.7655 117.641 78.5738 117.705 78.3949C117.77 78.2161 117.864 78.0536 117.982 77.9168C118.101 77.7799 118.242 77.6715 118.397 77.5976C118.552 77.5238 118.718 77.486 118.886 77.4864H121.752C121.92 77.486 122.086 77.5238 122.241 77.5976C122.396 77.6715 122.537 77.7799 122.656 77.9168C122.774 78.0536 122.868 78.2161 122.932 78.3949C122.996 78.5738 123.029 78.7655 123.029 78.9589C123.029 79.3495 122.894 79.724 122.655 80.0002C122.415 80.2764 122.091 80.4315 121.752 80.4315Z" fill="#7FD4FB" stroke="#212222" stroke-linecap="round" stroke-linejoin="round"/>
<path d="M118.195 78.8388C118.254 78.6492 118.361 78.4845 118.502 78.3663C118.644 78.248 118.813 78.1819 118.987 78.1764C119.162 78.1709 119.334 78.2264 119.48 78.3356C119.627 78.4448 119.742 78.6026 119.809 78.7883" stroke="#212222" stroke-width="2" stroke-linecap="round" stroke-linejoin="round"/>
<path d="M120.875 78.8388C120.934 78.6492 121.041 78.4845 121.182 78.3663C121.323 78.248 121.492 78.1819 121.667 78.1764C121.842 78.1709 122.013 78.2264 122.16 78.3356C122.307 78.4448 122.421 78.6026 122.489 78.7883" stroke="#212222" stroke-width="2" stroke-linecap="round" stroke-linejoin="round"/>
<path d="M119.894 79.5214C119.907 79.6603 119.964 79.7889 120.054 79.8823C120.144 79.9757 120.261 80.0274 120.382 80.0274C120.503 80.0274 120.62 79.9757 120.71 79.8823C120.8 79.7889 120.857 79.6603 120.87 79.5214H119.894Z" fill="white" stroke="#212222" stroke-linecap="round" stroke-linejoin="round"/>
<path d="M124.969 79.7553C124.92 79.7553 124.871 79.7442 124.826 79.7226C124.781 79.701 124.74 79.6693 124.705 79.6294C124.671 79.5895 124.643 79.5421 124.624 79.49C124.606 79.4378 124.596 79.3819 124.596 79.3255V78.3491C124.596 78.2926 124.606 78.2368 124.624 78.1846C124.643 78.1325 124.671 78.0851 124.705 78.0452C124.74 78.0053 124.781 77.9736 124.826 77.952C124.871 77.9304 124.92 77.9193 124.969 77.9193C125.018 77.9193 125.066 77.9304 125.111 77.952C125.156 77.9736 125.198 78.0053 125.232 78.0452C125.267 78.0851 125.294 78.1325 125.313 78.1846C125.332 78.2368 125.341 78.2926 125.341 78.3491V79.316C125.342 79.3733 125.334 79.4302 125.315 79.4834C125.297 79.5366 125.27 79.5852 125.235 79.6261C125.2 79.667 125.159 79.6995 125.113 79.7217C125.067 79.7439 125.018 79.7553 124.969 79.7553Z" fill="#212222" stroke="#212222" stroke-linecap="round" stroke-linejoin="round"/>
<path d="M115.658 79.7553C115.609 79.7553 115.561 79.7442 115.516 79.7226C115.47 79.701 115.429 79.6693 115.395 79.6294C115.36 79.5895 115.333 79.5421 115.314 79.49C115.295 79.4378 115.286 79.3819 115.286 79.3255V78.3491C115.286 78.2926 115.295 78.2368 115.314 78.1846C115.333 78.1325 115.36 78.0851 115.395 78.0452C115.429 78.0053 115.47 77.9736 115.516 77.952C115.561 77.9304 115.609 77.9193 115.658 77.9193C115.707 77.9193 115.756 77.9304 115.801 77.952C115.846 77.9736 115.887 78.0053 115.922 78.0452C115.956 78.0851 115.984 78.1325 116.002 78.1846C116.021 78.2368 116.031 78.2926 116.031 78.3491V79.316C116.032 79.3733 116.023 79.4302 116.005 79.4834C115.987 79.5366 115.959 79.5852 115.925 79.6261C115.89 79.667 115.848 79.6995 115.803 79.7217C115.757 79.7439 115.708 79.7553 115.658 79.7553Z" fill="#212222" stroke="#212222" stroke-linecap="round" stroke-linejoin="round"/>
<path d="M116.346 78.4091C116.242 78.4082 116.143 78.3603 116.071 78.2756C115.998 78.191 115.957 78.0765 115.957 77.9572V77.2494C115.956 76.4824 116.154 75.7327 116.527 75.0974C116.553 75.0432 116.59 74.996 116.633 74.9588C116.676 74.9215 116.726 74.895 116.778 74.8808C116.831 74.8667 116.886 74.8653 116.939 74.8767C116.992 74.888 117.042 74.912 117.087 74.9469C117.132 74.9819 117.17 75.0272 117.199 75.0799C117.227 75.1326 117.247 75.1916 117.255 75.2532C117.263 75.3148 117.26 75.3777 117.246 75.4379C117.232 75.4981 117.207 75.5543 117.173 75.603C116.888 76.0891 116.737 76.6626 116.738 77.2494V77.9572C116.738 78.077 116.696 78.192 116.623 78.2767C116.549 78.3615 116.45 78.4091 116.346 78.4091Z" fill="#212222"/>
<path d="M123.914 75.5777C123.882 75.5779 123.85 75.5687 123.822 75.551C123.793 75.5333 123.77 75.5078 123.752 75.4766C123.501 75.0447 123.161 74.6909 122.763 74.4467C122.365 74.2025 121.921 74.0755 121.47 74.0767H119.294C118.843 74.0755 118.399 74.2025 118.001 74.4467C117.603 74.6909 117.263 75.0447 117.012 75.4766C116.982 75.5265 116.937 75.5608 116.885 75.5721C116.834 75.5833 116.781 75.5706 116.738 75.5367C116.716 75.5201 116.697 75.4988 116.683 75.4738C116.669 75.4488 116.659 75.4208 116.654 75.3913C116.649 75.3619 116.649 75.3316 116.655 75.3023C116.66 75.273 116.671 75.2452 116.686 75.2207C116.973 74.7281 117.361 74.3246 117.815 74.0457C118.27 73.7669 118.777 73.6212 119.291 73.6217H121.467C121.982 73.6213 122.49 73.7673 122.945 74.0467C123.4 74.3261 123.788 74.7304 124.075 75.2238C124.09 75.2486 124.101 75.2765 124.106 75.3059C124.111 75.3354 124.111 75.3657 124.106 75.3952C124.101 75.4247 124.091 75.4527 124.076 75.4775C124.061 75.5024 124.043 75.5236 124.021 75.5398C123.989 75.5641 123.952 75.5773 123.914 75.5777Z" fill="#212222"/>
<path d="M124.418 78.4091C124.314 78.4091 124.214 78.3615 124.141 78.2767C124.067 78.192 124.026 78.077 124.026 77.9572V77.2494C124.027 76.6626 123.875 76.0891 123.59 75.603C123.558 75.554 123.534 75.4978 123.521 75.4379C123.508 75.3779 123.506 75.3155 123.514 75.2545C123.523 75.1935 123.542 75.1352 123.571 75.0832C123.6 75.0312 123.638 74.9866 123.683 74.9521C123.727 74.9177 123.777 74.8941 123.83 74.8829C123.883 74.8718 123.937 74.8732 123.989 74.8871C124.041 74.901 124.091 74.9271 124.134 74.9638C124.177 75.0006 124.213 75.0471 124.24 75.1006C124.611 75.735 124.809 76.4837 124.807 77.2494V77.9572C124.807 78.0765 124.766 78.191 124.693 78.2756C124.62 78.3603 124.521 78.4082 124.418 78.4091Z" fill="#212222"/>
<path d="M116.395 80.3936C116.19 80.3936 115.994 80.2997 115.849 80.1326C115.704 79.9655 115.623 79.7388 115.623 79.5025V78.0868C115.623 77.8505 115.704 77.6238 115.849 77.4567C115.994 77.2896 116.19 77.1957 116.395 77.1957C116.6 77.1957 116.797 77.2896 116.942 77.4567C117.086 77.6238 117.168 77.8505 117.168 78.0868V79.5025C117.168 79.7388 117.086 79.9655 116.942 80.1326C116.797 80.2997 116.6 80.3936 116.395 80.3936Z" fill="white" stroke="#212222" stroke-linecap="round" stroke-linejoin="round"/>
<path d="M116.475 77.1957H116.316V80.3936H116.475V77.1957Z" fill="#7FD4FB" stroke="#212222" stroke-linecap="round" stroke-linejoin="round"/>
<path d="M125.048 78.0868C125.048 77.5946 124.702 77.1957 124.275 77.1957C123.849 77.1957 123.503 77.5946 123.503 78.0868V79.5025C123.503 79.9946 123.849 80.3936 124.275 80.3936C124.702 80.3936 125.048 79.9946 125.048 79.5025V78.0868Z" fill="white" stroke="#212222" stroke-linecap="round" stroke-linejoin="round"/>
<path d="M124.355 77.1957H124.196V80.3936H124.355V77.1957Z" fill="#7FD4FB" stroke="#212222" stroke-linecap="round" stroke-linejoin="round"/>
<path d="M120.376 76.9049C120.649 76.9037 120.916 76.8245 121.155 76.6745C121.395 76.5244 121.598 76.3083 121.746 76.0454L122.083 75.4419C121.549 75.1008 120.948 74.9246 120.337 74.9301C119.727 74.9357 119.128 75.1228 118.598 75.4735L119.102 76.2003C119.256 76.4196 119.45 76.5966 119.67 76.7185C119.891 76.8404 120.132 76.9041 120.376 76.9049Z" fill="#7FD4FB" stroke="#212222" stroke-linecap="round" stroke-linejoin="round"/>
<path d="M120.403 80.7949C120.435 80.7949 120.46 80.7652 120.46 80.7285C120.46 80.6919 120.435 80.6622 120.403 80.6622C120.372 80.6622 120.346 80.6919 120.346 80.7285C120.346 80.7652 120.372 80.7949 120.403 80.7949Z" fill="#212222"/>
<path d="M120.46 80.9592C120.46 80.9422 120.453 80.9261 120.443 80.9143C120.432 80.9025 120.418 80.896 120.403 80.896C120.396 80.8956 120.389 80.8969 120.382 80.8999C120.375 80.9029 120.368 80.9075 120.363 80.9134C120.358 80.9193 120.354 80.9264 120.351 80.9343C120.348 80.9422 120.346 80.9506 120.346 80.9592C120.346 80.9768 120.352 80.9937 120.363 81.0061C120.374 81.0186 120.388 81.0256 120.403 81.0256C120.419 81.0256 120.433 81.0186 120.444 81.0061C120.454 80.9937 120.46 80.9768 120.46 80.9592Z" fill="#212222"/>
<path d="M120.233 80.9245C120.248 80.9193 120.26 80.9078 120.267 80.8925C120.274 80.8771 120.276 80.8591 120.271 80.8423C120.266 80.8258 120.255 80.8122 120.242 80.8041C120.228 80.7959 120.213 80.7938 120.198 80.7981C120.184 80.8032 120.172 80.8147 120.164 80.83C120.157 80.8454 120.156 80.8634 120.16 80.8802C120.165 80.8967 120.176 80.9103 120.189 80.9184C120.203 80.9266 120.219 80.9287 120.233 80.9245Z" fill="#212222"/>
<path d="M120.592 80.9244C120.607 80.9193 120.619 80.9078 120.626 80.8924C120.633 80.8771 120.635 80.859 120.63 80.8423C120.625 80.8253 120.615 80.8113 120.601 80.803C120.588 80.7948 120.572 80.793 120.557 80.798C120.55 80.8005 120.543 80.8047 120.538 80.8102C120.532 80.8157 120.527 80.8226 120.524 80.8303C120.521 80.8379 120.519 80.8463 120.518 80.8549C120.518 80.8635 120.519 80.8721 120.522 80.8802C120.526 80.8969 120.536 80.9109 120.549 80.9192C120.562 80.9275 120.578 80.9294 120.592 80.9244Z" fill="#212222"/>
<path d="M113.129 43.6554H91.3269V32.4532V29.4828L93.9053 32.4532H113.129V43.6554Z" fill="#D6D6D6" stroke="#212222" stroke-linecap="round" stroke-linejoin="round"/>
<path d="M113.129 59.882H91.3269V48.683V45.7126L93.9053 48.683H113.129V59.882Z" fill="#D6D6D6" stroke="#212222" stroke-linecap="round" stroke-linejoin="round"/>
<path d="M105.885 36.3084H111.017" stroke="#212222" stroke-linecap="round" stroke-linejoin="round"/>
<path d="M98.703 36.3084H104.567" stroke="#212222" stroke-linecap="round" stroke-linejoin="round"/>
<path d="M94.3053 36.3084H97.6755" stroke="#212222" stroke-linecap="round" stroke-linejoin="round"/>
<path d="M103.539 38.1697H111.017" stroke="#212222" stroke-linecap="round" stroke-linejoin="round"/>
<path d="M94.3053 38.1697H102.221" stroke="#212222" stroke-linecap="round" stroke-linejoin="round"/>
<path d="M109.551 40.0277H111.017" stroke="#212222" stroke-linecap="round" stroke-linejoin="round"/>
<path d="M101.342 40.0277H108.378" stroke="#212222" stroke-linecap="round" stroke-linejoin="round"/>
<path d="M94.3053 40.0277H100.169" stroke="#212222" stroke-linecap="round" stroke-linejoin="round"/>
<path d="M105.885 52.0294H111.017" stroke="#212222" stroke-linecap="round" stroke-linejoin="round"/>
<path d="M98.703 52.0294H104.567" stroke="#212222" stroke-linecap="round" stroke-linejoin="round"/>
<path d="M94.3053 52.0294H97.6755" stroke="#212222" stroke-linecap="round" stroke-linejoin="round"/>
<path d="M103.539 53.8906H111.017" stroke="#212222" stroke-linecap="round" stroke-linejoin="round"/>
<path d="M94.3053 53.8906H102.221" stroke="#212222" stroke-linecap="round" stroke-linejoin="round"/>
<path d="M109.551 55.7487H111.017" stroke="#212222" stroke-linecap="round" stroke-linejoin="round"/>
<path d="M101.342 55.7487H108.378" stroke="#212222" stroke-linecap="round" stroke-linejoin="round"/>
<path d="M94.3053 55.7487H100.169" stroke="#212222" stroke-linecap="round" stroke-linejoin="round"/>
<path d="M91.3269 105.516H113.129V78.4249V75.4545L110.551 78.4249H91.3269V105.516Z" fill="#7FD4FB" stroke="#212222" stroke-linecap="round" stroke-linejoin="round"/>
<path d="M105.885 82.1221H111.017" stroke="#212222" stroke-linecap="round" stroke-linejoin="round"/>
<path d="M98.703 82.1221H104.567" stroke="#212222" stroke-linecap="round" stroke-linejoin="round"/>
<path d="M94.3053 82.1221H97.6755" stroke="#212222" stroke-linecap="round" stroke-linejoin="round"/>
<path d="M103.539 83.9802H111.017" stroke="#212222" stroke-linecap="round" stroke-linejoin="round"/>
<path d="M94.3053 83.9802H102.221" stroke="#212222" stroke-linecap="round" stroke-linejoin="round"/>
<path d="M109.551 85.8414H111.017" stroke="#212222" stroke-linecap="round" stroke-linejoin="round"/>
<path d="M101.342 85.8414H108.378" stroke="#212222" stroke-linecap="round" stroke-linejoin="round"/>
<path d="M94.3053 85.8414H100.169" stroke="#212222" stroke-linecap="round" stroke-linejoin="round"/>
<path d="M105.885 87.3614H111.017" stroke="#212222" stroke-linecap="round" stroke-linejoin="round"/>
<path d="M98.703 87.3614H104.567" stroke="#212222" stroke-linecap="round" stroke-linejoin="round"/>
<path d="M94.3053 87.3614H97.6755" stroke="#212222" stroke-linecap="round" stroke-linejoin="round"/>
<path d="M103.539 89.2226H111.017" stroke="#212222" stroke-linecap="round" stroke-linejoin="round"/>
<path d="M94.3053 89.2226H102.221" stroke="#212222" stroke-linecap="round" stroke-linejoin="round"/>
<path d="M109.551 91.0807H111.017" stroke="#212222" stroke-linecap="round" stroke-linejoin="round"/>
<path d="M101.342 91.0807H108.378" stroke="#212222" stroke-linecap="round" stroke-linejoin="round"/>
<path d="M94.3053 91.0807H100.169" stroke="#212222" stroke-linecap="round" stroke-linejoin="round"/>
<path d="M105.885 92.6038H111.017" stroke="#212222" stroke-linecap="round" stroke-linejoin="round"/>
<path d="M98.703 92.6038H104.567" stroke="#212222" stroke-linecap="round" stroke-linejoin="round"/>
<path d="M94.3053 92.6038H97.6755" stroke="#212222" stroke-linecap="round" stroke-linejoin="round"/>
<path d="M103.539 94.4619H111.017" stroke="#212222" stroke-linecap="round" stroke-linejoin="round"/>
<path d="M94.3053 94.4619H102.221" stroke="#212222" stroke-linecap="round" stroke-linejoin="round"/>
<path d="M109.551 96.3231H111.017" stroke="#212222" stroke-linecap="round" stroke-linejoin="round"/>
<path d="M101.342 96.3231H108.378" stroke="#212222" stroke-linecap="round" stroke-linejoin="round"/>
<path d="M94.3053 96.3231H100.169" stroke="#212222" stroke-linecap="round" stroke-linejoin="round"/>
<path d="M105.885 97.8431H111.017" stroke="#212222" stroke-linecap="round" stroke-linejoin="round"/>
<path d="M98.703 97.8431H104.567" stroke="#212222" stroke-linecap="round" stroke-linejoin="round"/>
<path d="M94.3053 97.8431H97.6755" stroke="#212222" stroke-linecap="round" stroke-linejoin="round"/>
<path d="M103.539 99.7043H111.017" stroke="#212222" stroke-linecap="round" stroke-linejoin="round"/>
<path d="M94.3053 99.7043H102.221" stroke="#212222" stroke-linecap="round" stroke-linejoin="round"/>
<path d="M109.551 101.562H111.017" stroke="#212222" stroke-linecap="round" stroke-linejoin="round"/>
<path d="M101.342 101.562H108.378" stroke="#212222" stroke-linecap="round" stroke-linejoin="round"/>
<path d="M94.3053 101.562H100.169" stroke="#212222" stroke-linecap="round" stroke-linejoin="round"/>
<path d="M120.313 120.579C123.543 120.579 126.161 117.56 126.161 113.836C126.161 110.112 123.543 107.092 120.313 107.092C117.084 107.092 114.466 110.112 114.466 113.836C114.466 117.56 117.084 120.579 120.313 120.579Z" stroke="#212222" stroke-linecap="round" stroke-linejoin="round"/>
<path d="M122.308 115.823C122.309 116.267 122.195 116.701 121.982 117.071C121.768 117.44 121.465 117.728 121.109 117.899C120.754 118.069 120.362 118.114 119.985 118.028C119.607 117.941 119.26 117.728 118.988 117.414C118.716 117.101 118.53 116.701 118.455 116.266C118.38 115.83 118.418 115.379 118.565 114.969C118.712 114.559 118.962 114.208 119.282 113.961C119.602 113.715 119.978 113.583 120.363 113.583C120.878 113.583 121.373 113.819 121.737 114.239C122.102 114.659 122.307 115.229 122.308 115.823Z" fill="#7FD4FB" stroke="#212222" stroke-linecap="round" stroke-linejoin="round"/>
<path d="M123.144 117.318C123.564 116.714 123.827 115.986 123.903 115.216C123.979 114.447 123.866 113.669 123.575 112.971C123.285 112.274 122.829 111.685 122.261 111.272C121.693 110.86 121.035 110.641 120.364 110.641C119.693 110.641 119.035 110.86 118.467 111.272C117.899 111.685 117.444 112.274 117.153 112.971C116.863 113.669 116.749 114.447 116.825 115.216C116.902 115.986 117.165 116.714 117.584 117.318H123.144Z" fill="white" stroke="#212222" stroke-linecap="round" stroke-linejoin="round"/>
<path d="M121.752 116.155H118.886C118.718 116.155 118.552 116.117 118.397 116.043C118.242 115.969 118.102 115.861 117.983 115.724C117.864 115.587 117.77 115.425 117.706 115.246C117.642 115.068 117.609 114.876 117.609 114.683C117.609 114.489 117.642 114.298 117.706 114.119C117.77 113.941 117.864 113.778 117.983 113.641C118.102 113.505 118.242 113.396 118.397 113.322C118.552 113.248 118.718 113.21 118.886 113.21H121.752C121.92 113.21 122.086 113.248 122.241 113.322C122.395 113.396 122.536 113.505 122.655 113.641C122.773 113.778 122.867 113.941 122.932 114.119C122.996 114.298 123.029 114.489 123.029 114.683C123.029 115.073 122.894 115.448 122.655 115.724C122.415 116 122.091 116.155 121.752 116.155Z" fill="#7FD4FB" stroke="#212222" stroke-linecap="round" stroke-linejoin="round"/>
<path d="M118.195 114.563C118.254 114.373 118.361 114.208 118.502 114.09C118.644 113.972 118.813 113.906 118.987 113.9C119.162 113.895 119.334 113.95 119.48 114.059C119.627 114.169 119.742 114.326 119.809 114.512" stroke="#212222" stroke-width="2" stroke-linecap="round" stroke-linejoin="round"/>
<path d="M120.875 114.563C120.934 114.373 121.041 114.208 121.182 114.09C121.323 113.972 121.492 113.906 121.667 113.9C121.842 113.895 122.013 113.95 122.16 114.059C122.307 114.169 122.421 114.326 122.489 114.512" stroke="#212222" stroke-width="2" stroke-linecap="round" stroke-linejoin="round"/>
<path d="M119.894 115.245C119.907 115.384 119.964 115.513 120.054 115.606C120.144 115.699 120.261 115.751 120.382 115.751C120.503 115.751 120.62 115.699 120.71 115.606C120.8 115.513 120.857 115.384 120.87 115.245H119.894Z" fill="white" stroke="#212222" stroke-linecap="round" stroke-linejoin="round"/>
<path d="M124.969 115.479C124.87 115.479 124.775 115.434 124.705 115.353C124.635 115.273 124.596 115.163 124.596 115.049V114.076C124.596 113.962 124.635 113.853 124.705 113.772C124.775 113.692 124.87 113.646 124.969 113.646C125.067 113.646 125.162 113.692 125.232 113.772C125.302 113.853 125.341 113.962 125.341 114.076V115.052C125.341 115.166 125.301 115.274 125.231 115.354C125.161 115.434 125.067 115.479 124.969 115.479Z" fill="#212222" stroke="#212222" stroke-linecap="round" stroke-linejoin="round"/>
<path d="M115.658 115.479C115.559 115.479 115.465 115.434 115.395 115.353C115.325 115.273 115.286 115.163 115.286 115.049V114.076C115.286 113.962 115.325 113.853 115.395 113.772C115.465 113.692 115.559 113.646 115.658 113.646C115.757 113.646 115.852 113.692 115.922 113.772C115.992 113.853 116.031 113.962 116.031 114.076V115.052C116.03 115.166 115.99 115.274 115.921 115.354C115.851 115.434 115.757 115.479 115.658 115.479Z" fill="#212222" stroke="#212222" stroke-linecap="round" stroke-linejoin="round"/>
<path d="M116.346 114.136C116.242 114.135 116.143 114.087 116.071 114.003C115.998 113.918 115.957 113.803 115.957 113.684V112.973C115.956 112.206 116.155 111.457 116.527 110.821C116.588 110.732 116.677 110.674 116.774 110.656C116.872 110.639 116.971 110.665 117.053 110.729C117.134 110.793 117.192 110.89 117.214 111.001C117.237 111.112 117.222 111.228 117.173 111.327C116.888 111.813 116.737 112.386 116.738 112.973V113.684C116.738 113.804 116.696 113.919 116.623 114.004C116.549 114.088 116.45 114.136 116.346 114.136Z" fill="#212222"/>
<path d="M123.914 111.302C123.882 111.301 123.851 111.292 123.823 111.275C123.794 111.258 123.77 111.234 123.752 111.204C123.501 110.771 123.162 110.417 122.763 110.172C122.365 109.927 121.921 109.8 121.47 109.801H119.294C118.843 109.801 118.4 109.929 118.002 110.173C117.604 110.417 117.264 110.77 117.012 111.2C116.997 111.225 116.979 111.246 116.957 111.262C116.936 111.278 116.912 111.29 116.887 111.295C116.862 111.301 116.836 111.301 116.811 111.295C116.786 111.289 116.762 111.277 116.74 111.26C116.719 111.244 116.701 111.223 116.687 111.198C116.673 111.173 116.663 111.146 116.658 111.116C116.653 111.087 116.654 111.058 116.659 111.029C116.664 111 116.674 110.972 116.688 110.948C116.976 110.455 117.364 110.052 117.818 109.773C118.272 109.494 118.779 109.348 119.294 109.349H121.47C121.985 109.349 122.492 109.495 122.947 109.774C123.402 110.054 123.79 110.458 124.078 110.951C124.093 110.976 124.103 111.003 124.109 111.033C124.114 111.062 124.114 111.093 124.109 111.122C124.104 111.152 124.093 111.18 124.079 111.204C124.064 111.229 124.045 111.25 124.023 111.267C123.991 111.291 123.952 111.303 123.914 111.302Z" fill="#212222"/>
<path d="M124.418 114.136C124.314 114.136 124.214 114.088 124.141 114.004C124.067 113.919 124.026 113.804 124.026 113.684V112.973C124.027 112.387 123.875 111.815 123.59 111.33C123.561 111.281 123.539 111.225 123.528 111.167C123.517 111.108 123.516 111.047 123.526 110.988C123.535 110.929 123.555 110.873 123.583 110.823C123.612 110.773 123.649 110.729 123.692 110.696C123.735 110.662 123.784 110.639 123.835 110.627C123.886 110.615 123.938 110.616 123.989 110.628C124.04 110.64 124.089 110.663 124.132 110.697C124.175 110.731 124.211 110.774 124.24 110.824C124.611 111.459 124.809 112.208 124.807 112.973V113.684C124.807 113.803 124.766 113.918 124.693 114.003C124.62 114.087 124.521 114.135 124.418 114.136Z" fill="#212222"/>
<path d="M116.395 116.121C116.19 116.121 115.994 116.027 115.849 115.86C115.704 115.692 115.623 115.466 115.623 115.229V113.811C115.623 113.574 115.704 113.348 115.849 113.18C115.994 113.013 116.19 112.919 116.395 112.919C116.6 112.919 116.797 113.013 116.942 113.18C117.086 113.348 117.168 113.574 117.168 113.811V115.229C117.167 115.466 117.086 115.692 116.941 115.859C116.796 116.026 116.6 116.12 116.395 116.121Z" fill="white" stroke="#212222" stroke-linecap="round" stroke-linejoin="round"/>
<path d="M116.475 112.919H116.316V116.117H116.475V112.919Z" fill="#7FD4FB" stroke="#212222" stroke-linecap="round" stroke-linejoin="round"/>
<path d="M125.048 113.811C125.048 113.318 124.702 112.919 124.275 112.919C123.849 112.919 123.503 113.318 123.503 113.811V115.226C123.503 115.718 123.849 116.117 124.275 116.117C124.702 116.117 125.048 115.718 125.048 115.226V113.811Z" fill="white" stroke="#212222" stroke-linecap="round" stroke-linejoin="round"/>
<path d="M124.355 112.919H124.196V116.117H124.355V112.919Z" fill="#7FD4FB" stroke="#212222" stroke-linecap="round" stroke-linejoin="round"/>
<path d="M120.376 112.629C120.649 112.627 120.916 112.548 121.155 112.398C121.395 112.248 121.598 112.032 121.746 111.769L122.083 111.169C121.549 110.829 120.948 110.653 120.338 110.658C119.727 110.663 119.128 110.849 118.598 111.197L119.102 111.924C119.256 112.143 119.45 112.32 119.67 112.442C119.891 112.564 120.132 112.628 120.376 112.629Z" fill="#7FD4FB" stroke="#212222" stroke-linecap="round" stroke-linejoin="round"/>
<path d="M120.403 116.519C120.435 116.519 120.46 116.489 120.46 116.452C120.46 116.416 120.435 116.386 120.403 116.386C120.372 116.386 120.346 116.416 120.346 116.452C120.346 116.489 120.372 116.519 120.403 116.519Z" fill="#212222"/>
<path d="M120.403 116.753C120.435 116.753 120.46 116.723 120.46 116.686C120.46 116.65 120.435 116.62 120.403 116.62C120.372 116.62 120.346 116.65 120.346 116.686C120.346 116.723 120.372 116.753 120.403 116.753Z" fill="#212222"/>
<path d="M120.233 116.648C120.248 116.643 120.26 116.632 120.267 116.616C120.274 116.601 120.276 116.583 120.271 116.566C120.266 116.55 120.255 116.536 120.242 116.528C120.228 116.52 120.213 116.518 120.198 116.522C120.184 116.528 120.172 116.539 120.165 116.554C120.158 116.57 120.156 116.587 120.16 116.604C120.162 116.613 120.166 116.621 120.171 116.628C120.176 116.635 120.182 116.64 120.188 116.644C120.195 116.649 120.203 116.651 120.211 116.652C120.218 116.652 120.226 116.651 120.233 116.648Z" fill="#212222"/>
<path d="M120.592 116.648C120.607 116.643 120.619 116.632 120.626 116.616C120.633 116.601 120.635 116.583 120.63 116.566C120.625 116.549 120.615 116.535 120.601 116.527C120.588 116.519 120.572 116.517 120.557 116.522C120.55 116.524 120.543 116.528 120.538 116.534C120.532 116.54 120.527 116.546 120.524 116.554C120.521 116.562 120.519 116.57 120.518 116.579C120.518 116.587 120.519 116.596 120.522 116.604C120.523 116.613 120.527 116.62 120.531 116.627C120.536 116.634 120.542 116.64 120.549 116.644C120.555 116.648 120.563 116.651 120.57 116.652C120.578 116.652 120.585 116.651 120.592 116.648Z" fill="#212222"/>
<path d="M91.3269 130.138H113.129V114.149V111.178L110.551 114.149H91.3269V130.138Z" fill="#7FD4FB" stroke="#212222" stroke-linecap="round" stroke-linejoin="round"/>
<path d="M105.885 117.846H111.017" stroke="#212222" stroke-linecap="round" stroke-linejoin="round"/>
<path d="M98.703 117.846H104.567" stroke="#212222" stroke-linecap="round" stroke-linejoin="round"/>
<path d="M94.3053 117.846H97.6755" stroke="#212222" stroke-linecap="round" stroke-linejoin="round"/>
<path d="M103.539 119.707H111.017" stroke="#212222" stroke-linecap="round" stroke-linejoin="round"/>
<path d="M94.3053 119.707H102.221" stroke="#212222" stroke-linecap="round" stroke-linejoin="round"/>
<path d="M109.551 121.565H111.017" stroke="#212222" stroke-linecap="round" stroke-linejoin="round"/>
<path d="M101.342 121.565H108.378" stroke="#212222" stroke-linecap="round" stroke-linejoin="round"/>
<path d="M94.3053 121.565H100.169" stroke="#212222" stroke-linecap="round" stroke-linejoin="round"/>
<path d="M105.885 123.088H111.017" stroke="#212222" stroke-linecap="round" stroke-linejoin="round"/>
<path d="M98.703 123.088H104.567" stroke="#212222" stroke-linecap="round" stroke-linejoin="round"/>
<path d="M94.3053 123.088H97.6755" stroke="#212222" stroke-linecap="round" stroke-linejoin="round"/>
<path d="M103.539 124.946H111.017" stroke="#212222" stroke-linecap="round" stroke-linejoin="round"/>
<path d="M94.3053 124.946H102.221" stroke="#212222" stroke-linecap="round" stroke-linejoin="round"/>
<path d="M109.551 126.805H111.017" stroke="#212222" stroke-linecap="round" stroke-linejoin="round"/>
<path d="M101.342 126.805H108.378" stroke="#212222" stroke-linecap="round" stroke-linejoin="round"/>
<path d="M94.3053 126.805H100.169" stroke="#212222" stroke-linecap="round" stroke-linejoin="round"/>
<path d="M124.122 17.5633H112.811C112.693 18.2857 112.359 18.9379 111.869 19.4074C111.378 19.8769 110.761 20.1344 110.123 20.1355H93.9299C93.2924 20.1344 92.6752 19.8769 92.1845 19.4074C91.6939 18.9379 91.3606 18.2857 91.242 17.5633H79.945C79.0003 17.5633 78.0943 17.9961 77.4263 18.7665C76.7583 19.5369 76.383 20.5818 76.383 21.6713V131.955C76.383 133.045 76.7583 134.09 77.4263 134.86C78.0943 135.63 79.0003 136.063 79.945 136.063H124.122C125.067 136.063 125.973 135.63 126.641 134.86C127.309 134.09 127.684 133.045 127.684 131.955V21.6713C127.684 20.5818 127.309 19.5369 126.641 18.7665C125.973 17.9961 125.067 17.5633 124.122 17.5633Z" stroke="#212222" stroke-width="2" stroke-linecap="round" stroke-linejoin="round"/>
<path d="M127.684 25.0051V21.6745C127.684 20.5849 127.309 19.5401 126.641 18.7697C125.973 17.9993 125.067 17.5665 124.122 17.5665H112.811C112.693 18.2889 112.359 18.941 111.869 19.4105C111.378 19.8801 110.761 20.1376 110.123 20.1387H93.9299C93.292 20.1374 92.6745 19.8795 92.1838 19.4093C91.6931 18.9392 91.36 18.2863 91.242 17.5633H79.945C79.0003 17.5633 78.0943 17.9961 77.4263 18.7665C76.7583 19.5369 76.383 20.5818 76.383 21.6713V25.0051H127.684Z" stroke="#212222" stroke-width="2" stroke-linecap="round" stroke-linejoin="round"/>
<path d="M81.0821 20.54C81.0821 21.3489 80.293 21.6397 80.2902 22.2559V22.2969H81.0547V22.5719H80.0354V22.3412C80.0354 21.488 80.83 21.3047 80.83 20.54C80.83 20.2619 80.7505 20.1165 80.556 20.1165C80.3615 20.1165 80.282 20.2745 80.282 20.5115V20.7485H80.0409V20.54C80.0409 20.1292 80.2025 19.8574 80.5615 19.8574C80.9204 19.8574 81.0821 20.1292 81.0821 20.54Z" fill="#212222"/>
<path d="M82.3534 20.54V20.6095C82.3651 20.723 82.3448 20.8378 82.2954 20.9368C82.2461 21.0359 82.1703 21.1139 82.0794 21.1594C82.1713 21.2051 82.2478 21.2842 82.2972 21.3845C82.3467 21.4849 82.3664 21.6011 82.3534 21.7155V21.9209C82.3534 22.3317 82.1863 22.6003 81.8301 22.6003C81.4739 22.6003 81.3068 22.3317 81.3068 21.9209V21.7376H81.5506V21.9399C81.5506 22.1832 81.6356 22.3286 81.8246 22.3286C82.0137 22.3286 82.0986 22.1864 82.0986 21.9146V21.7092C82.0986 21.4438 82 21.3174 81.8054 21.3079H81.652V21.0424H81.8054C81.8457 21.0431 81.8856 21.0336 81.9223 21.0144C81.959 20.9953 81.9916 20.9671 82.0177 20.9318C82.0439 20.8965 82.063 20.855 82.0736 20.8102C82.0843 20.7654 82.0863 20.7185 82.0794 20.6727V20.54C82.0794 20.2651 81.9945 20.1229 81.8054 20.1229C81.6164 20.1229 81.5314 20.2714 81.5314 20.5147V20.6538H81.2876V20.54C81.2876 20.1292 81.4547 19.8638 81.8109 19.8638C82.1671 19.8638 82.3534 20.126 82.3534 20.54Z" fill="#212222"/>
<path d="M82.8549 20.7391V21.112H82.6055V20.7391H82.8549ZM82.8549 22.199V22.5719H82.6055V22.199H82.8549Z" fill="#212222"/>
<path d="M83.3809 20.9792C83.415 20.909 83.4653 20.8511 83.5263 20.812C83.5873 20.773 83.6565 20.7543 83.7262 20.758C84.0248 20.758 84.1591 21.0108 84.1591 21.39V21.9146C84.1591 22.3254 83.9892 22.594 83.633 22.594C83.2768 22.594 83.1124 22.3254 83.1124 21.9146V21.7345H83.3535V21.9336C83.3535 22.1769 83.4412 22.3222 83.6275 22.3222C83.8139 22.3222 83.9015 22.1769 83.9015 21.9336V21.4185C83.9015 21.1752 83.8166 21.0298 83.6275 21.0298C83.5928 21.0258 83.5577 21.0303 83.5245 21.043C83.4914 21.0556 83.4609 21.0762 83.4351 21.1033C83.4092 21.1304 83.3886 21.1634 83.3746 21.2003C83.3605 21.2372 83.3534 21.2771 83.3535 21.3174V21.3774H83.1097L83.1727 19.889H84.0906V20.1576H83.4056L83.3809 20.9792Z" fill="#212222"/>
<path d="M85.4496 20.54V20.5874H85.214V20.5179C85.214 20.2777 85.1263 20.1355 84.94 20.1355C84.7537 20.1355 84.666 20.2809 84.666 20.5684V21.172C84.6928 21.0834 84.7439 21.0073 84.8117 20.9554C84.8795 20.9034 84.9602 20.8785 85.0414 20.8844C85.34 20.8844 85.4743 21.1309 85.4743 21.5164V21.9209C85.4743 22.3317 85.2989 22.6003 84.9427 22.6003C84.5865 22.6003 84.392 22.3286 84.392 21.9178V20.54C84.392 20.1134 84.5564 19.848 84.9263 19.848C85.2962 19.848 85.4496 20.1229 85.4496 20.54ZM84.6496 21.5417V21.943C84.6496 22.1864 84.7372 22.3317 84.9236 22.3317C85.1099 22.3317 85.1976 22.1864 85.1976 21.943V21.5354C85.1976 21.2952 85.1071 21.1499 84.9236 21.1499C84.74 21.1499 84.6496 21.2952 84.6496 21.5354V21.5417Z" fill="#212222"/>
<path d="M114.168 20.6506H113.51V22.5435H114.168V20.6506Z" fill="#212222"/>
<path d="M115.044 20.2714H114.387V22.5435H115.044V20.2714Z" fill="#212222"/>
<path d="M115.918 20.0028H115.261V22.5434H115.918V20.0028Z" fill="#212222"/>
<path d="M116.795 19.532H116.138V22.5435H116.795V19.532Z" fill="#212222"/>
<path d="M124.919 22.4898H120.979V19.7153H124.919V22.4898ZM121.198 22.2401H124.7V19.9681H121.198V22.2401Z" fill="#212222"/>
<path d="M123.607 20.243H121.527V21.9652H123.607V20.243Z" fill="#212222"/>
<path d="M125.278 20.777H124.782V21.4312H125.278V20.777Z" fill="#212222"/>
<path d="M119.535 21.8861C119.509 21.8867 119.484 21.879 119.461 21.864C118.658 21.3142 118.13 21.8229 118.108 21.8451C118.093 21.8618 118.076 21.8749 118.057 21.8836C118.039 21.8924 118.018 21.8965 117.998 21.8959C117.978 21.8952 117.958 21.8897 117.939 21.8797C117.921 21.8697 117.904 21.8554 117.891 21.8378C117.878 21.8201 117.868 21.7995 117.861 21.7771C117.855 21.7548 117.853 21.7312 117.855 21.7079C117.857 21.6845 117.863 21.662 117.873 21.6415C117.883 21.6211 117.897 21.6032 117.913 21.5891C117.941 21.5607 118.62 20.8907 119.612 21.5701C119.645 21.5943 119.668 21.632 119.677 21.6756C119.687 21.7192 119.681 21.7652 119.661 21.804C119.648 21.8292 119.63 21.8501 119.608 21.8645C119.586 21.8789 119.561 21.8864 119.535 21.8861Z" fill="#212222"/>
<path d="M119.831 21.3174C119.805 21.3168 119.779 21.3081 119.757 21.2921C118.598 20.4989 117.817 21.2668 117.809 21.2731C117.795 21.2877 117.778 21.2988 117.76 21.3058C117.742 21.3129 117.723 21.3158 117.703 21.3143C117.684 21.3128 117.666 21.3071 117.649 21.2973C117.631 21.2875 117.616 21.2739 117.604 21.2573C117.591 21.2407 117.581 21.2214 117.575 21.2005C117.569 21.1796 117.567 21.1576 117.568 21.1356C117.569 21.1136 117.574 21.092 117.583 21.0723C117.591 21.0525 117.603 21.0349 117.617 21.0203C117.617 21.0203 118.565 20.0723 119.908 21.0014C119.941 21.0249 119.965 21.0627 119.974 21.1066C119.984 21.1504 119.977 21.1966 119.957 21.2352C119.944 21.2602 119.926 21.2809 119.903 21.2953C119.881 21.3097 119.857 21.3173 119.831 21.3174Z" fill="#212222"/>
<path d="M120.102 20.6569C120.075 20.6563 120.049 20.6476 120.026 20.6317C118.557 19.6268 117.582 20.5748 117.541 20.6159C117.511 20.6418 117.473 20.6538 117.436 20.6494C117.399 20.645 117.365 20.6246 117.34 20.5922C117.315 20.5597 117.302 20.5178 117.303 20.4747C117.305 20.4316 117.32 20.3906 117.346 20.3599C117.36 20.3599 118.519 19.2033 120.176 20.3409C120.193 20.3523 120.208 20.3674 120.219 20.3854C120.231 20.4033 120.24 20.4237 120.244 20.4454C120.249 20.4671 120.25 20.4897 120.248 20.5119C120.245 20.5341 120.238 20.5555 120.228 20.5748C120.215 20.5996 120.197 20.6201 120.175 20.6345C120.153 20.6488 120.128 20.6566 120.102 20.6569Z" fill="#212222"/>
<path d="M119.091 22.1706C119.092 22.2552 119.071 22.3381 119.03 22.4088C118.99 22.4794 118.932 22.5346 118.864 22.5673C118.797 22.5999 118.722 22.6086 118.65 22.5923C118.578 22.5759 118.512 22.5352 118.46 22.4754C118.408 22.4155 118.373 22.3392 118.359 22.2562C118.344 22.1731 118.352 22.0871 118.38 22.009C118.409 21.9309 118.456 21.8644 118.518 21.8177C118.579 21.7711 118.651 21.7465 118.724 21.7471C118.822 21.7471 118.915 21.7918 118.984 21.8712C119.053 21.9506 119.091 22.0583 119.091 22.1706Z" fill="#212222"/>
<path d="M123.574 141.097H129.328" stroke="#212222" stroke-linecap="round" stroke-linejoin="round"/>
<path d="M15.07 141.097H121.656" stroke="#212222" stroke-linecap="round" stroke-linejoin="round"/>
<path d="M7.5761 141.097H11.508" stroke="#212222" stroke-linecap="round" stroke-linejoin="round"/>
<path d="M47.0403 98.5414H42.8536V140.506H47.0403V98.5414Z" fill="#212222" stroke="#212222" stroke-linecap="round" stroke-linejoin="round"/>
<path d="M13.8425 113.738V116.689H30.5291V113.738H13.8425Z" fill="#212222" stroke="#212222" stroke-linecap="round" stroke-linejoin="round"/>
<path d="M15.5577 103.55H12.9986V115.359H15.5577V103.55Z" fill="#212222" stroke="#212222" stroke-linecap="round" stroke-linejoin="round"/>
<path d="M16.6236 115.41C16.6236 115.765 16.5629 116.116 16.445 116.444C16.3271 116.772 16.1543 117.07 15.9364 117.321C15.7186 117.572 15.46 117.771 15.1755 117.907C14.8909 118.042 14.586 118.112 14.2781 118.111C14.2014 118.111 14.1247 118.111 14.0507 118.111C13.624 118.063 13.2169 117.88 12.8739 117.583C12.5309 117.286 12.265 116.887 12.1051 116.428C11.9452 115.969 11.8975 115.468 11.9672 114.98C12.0368 114.492 12.2211 114.036 12.5001 113.66C12.7791 113.284 13.142 113.004 13.5494 112.85C13.9568 112.695 14.3931 112.673 14.8109 112.784C15.2287 112.896 15.6119 113.138 15.919 113.483C16.226 113.828 16.4451 114.264 16.5523 114.743C16.5991 114.961 16.623 115.185 16.6236 115.41Z" fill="white" stroke="#212222" stroke-linecap="round" stroke-linejoin="round"/>
<path d="M16.7962 105.37C16.7948 106.087 16.5471 106.774 16.1075 107.28C15.6679 107.786 15.0721 108.071 14.4508 108.072C14.374 108.072 14.2973 108.072 14.2206 108.072C13.7936 108.025 13.3861 107.843 13.0422 107.548C12.6984 107.252 12.4314 106.853 12.2704 106.395C12.1094 105.936 12.0606 105.436 12.1291 104.947C12.1976 104.459 12.3809 104.002 12.6591 103.625C12.9373 103.249 13.2997 102.967 13.7069 102.812C14.114 102.656 14.5504 102.632 14.9685 102.743C15.3866 102.853 15.7704 103.094 16.0781 103.439C16.3859 103.783 16.6058 104.218 16.714 104.697C16.7666 104.916 16.7943 105.143 16.7962 105.37Z" fill="white" stroke="#212222" stroke-linecap="round" stroke-linejoin="round"/>
<path d="M20.9958 98.0389L17.5845 100.157L18.2911 101.671L21.7024 99.5525L20.9958 98.0389Z" fill="#212222" stroke="#212222" stroke-linecap="round" stroke-linejoin="round"/>
<path d="M22.268 99.717L20.5884 100.76L19.5143 98.4624L21.1966 97.4165C21.3286 97.333 21.4738 97.2809 21.6235 97.2631C21.7733 97.2453 21.9246 97.2622 22.0686 97.3128C22.2126 97.3635 22.3463 97.4468 22.462 97.558C22.5776 97.6691 22.6728 97.8058 22.742 97.96C22.8795 98.2658 22.9068 98.6219 22.8181 98.9508C22.7293 99.2798 22.5317 99.5551 22.268 99.717Z" fill="white" stroke="#212222" stroke-linecap="round" stroke-linejoin="round"/>
<path d="M14.9056 89.9747L14.785 97.9885L13.2972 97.96L13.415 89.9463L14.9056 89.9747Z" fill="#212222" stroke="#212222" stroke-linecap="round" stroke-linejoin="round"/>
<path d="M15.3084 89.4912L15.2782 91.7032L13.015 91.64L13.0451 89.428C13.0476 89.2566 13.0794 89.0875 13.1386 88.9302C13.1978 88.773 13.2832 88.6307 13.3901 88.5116C13.497 88.3925 13.6231 88.2988 13.7614 88.2359C13.8997 88.173 14.0473 88.1421 14.1959 88.1451C14.3461 88.1475 14.4943 88.1844 14.6319 88.2537C14.7695 88.323 14.8938 88.4233 14.9973 88.5486C15.1009 88.674 15.1818 88.8219 15.2352 88.9838C15.2886 89.1456 15.3135 89.3181 15.3084 89.4912Z" fill="white" stroke="#212222" stroke-linecap="round" stroke-linejoin="round"/>
<path d="M20.4733 92.8819L17.2045 99.954L15.8893 99.1482L19.1553 92.0761L20.4733 92.8819Z" fill="#212222" stroke="#212222" stroke-linecap="round" stroke-linejoin="round"/>
<path d="M21.0213 92.6638L20.1253 94.6072L18.1278 93.3843L19.0211 91.4377C19.1624 91.1331 19.4025 90.9053 19.6889 90.804C19.9754 90.7028 20.2849 90.7364 20.55 90.8974C20.8154 91.0598 21.014 91.3371 21.1024 91.6682C21.1907 91.9994 21.1616 92.3574 21.0213 92.6638Z" fill="white" stroke="#212222" stroke-linecap="round" stroke-linejoin="round"/>
<path d="M9.62288 92.8503L12.8616 99.9413L11.5436 100.744L8.30494 93.6529L9.62288 92.8503Z" fill="#212222" stroke="#212222" stroke-linecap="round" stroke-linejoin="round"/>
<path d="M12.6615 97.9916C12.6135 97.6636 12.4822 97.3595 12.2842 97.1176C12.0862 96.8757 11.8305 96.707 11.5493 96.6328C11.2682 96.5586 10.9743 96.5823 10.7048 96.7008C10.4353 96.8193 10.2023 97.0274 10.0354 97.2987C9.86852 97.5699 9.77514 97.8922 9.7671 98.2247C9.75906 98.5572 9.83673 98.885 9.99028 99.1666C10.1438 99.4481 10.3663 99.6708 10.6297 99.8065C10.893 99.9422 11.1853 99.9847 11.4696 99.9287C11.8503 99.8537 12.1895 99.6076 12.413 99.2445C12.6365 98.8813 12.7258 98.4307 12.6615 97.9916Z" fill="white" stroke="#212222" stroke-linecap="round" stroke-linejoin="round"/>
<path d="M14.0863 98.2128C14.8914 98.2128 15.544 97.4601 15.544 96.5317C15.544 95.6032 14.8914 94.8506 14.0863 94.8506C13.2813 94.8506 12.6287 95.6032 12.6287 96.5317C12.6287 97.4601 13.2813 98.2128 14.0863 98.2128Z" fill="white" stroke="#212222" stroke-linecap="round" stroke-linejoin="round"/>
<path d="M18.843 97.5018C18.8868 97.1731 18.8452 96.8367 18.7233 96.5353C18.6013 96.2339 18.4046 95.981 18.158 95.8086C17.9114 95.6361 17.626 95.5519 17.3379 95.5666C17.0498 95.5813 16.7719 95.6942 16.5395 95.8911C16.307 96.0879 16.1304 96.3599 16.032 96.6725C15.9337 96.9852 15.9179 97.3244 15.9867 97.6474C16.0556 97.9704 16.2059 98.2625 16.4188 98.4869C16.6317 98.7113 16.8974 98.8579 17.1825 98.908C17.3717 98.9417 17.5647 98.932 17.7505 98.8795C17.9364 98.827 18.1115 98.7328 18.2657 98.6022C18.4199 98.4716 18.5503 98.3071 18.6494 98.1183C18.7484 97.9295 18.8142 97.72 18.843 97.5018Z" fill="white" stroke="#212222" stroke-linecap="round" stroke-linejoin="round"/>
<path d="M9.77358 92.2025L10.6668 94.149L8.66662 95.372L7.77338 93.4223C7.70361 93.2709 7.66045 93.1051 7.64639 92.9344C7.63232 92.7637 7.64762 92.5915 7.69141 92.4277C7.7352 92.2639 7.80661 92.1116 7.90155 91.9797C7.9965 91.8478 8.1131 91.7388 8.24466 91.659C8.51006 91.4982 8.81986 91.4651 9.10635 91.5669C9.39285 91.6688 9.63273 91.8973 9.77358 92.2025Z" fill="white" stroke="#212222" stroke-linecap="round" stroke-linejoin="round"/>
<path d="M18.5635 101.237C18.5635 102.494 18.1305 103.7 17.3597 104.589C16.5889 105.478 15.5435 105.977 14.4535 105.977C14.3165 105.977 14.1795 105.977 14.0507 105.958C13.3031 105.872 12.5901 105.552 11.9892 105.032C11.3882 104.512 10.9225 103.812 10.6424 103.008C10.3623 102.204 10.2787 101.327 10.4006 100.472C10.5226 99.6168 10.8454 98.8168 11.334 98.1585C11.8226 97.5003 12.4582 97.0091 13.1719 96.7384C13.8856 96.4677 14.65 96.4277 15.382 96.6229C16.114 96.8181 16.7856 97.2409 17.3238 97.8455C17.862 98.45 18.2462 99.2132 18.4347 100.052C18.5197 100.439 18.5629 100.837 18.5635 101.237Z" fill="white" stroke="#212222" stroke-linecap="round" stroke-linejoin="round"/>
<path d="M18.5635 101.237C18.5635 102.494 18.1305 103.7 17.3597 104.589C16.5889 105.478 15.5435 105.977 14.4535 105.977C14.3165 105.977 14.1795 105.977 14.0507 105.958C13.8933 105.257 13.8773 104.523 14.004 103.813C14.1308 103.104 14.3968 102.437 14.7818 101.865C15.1668 101.292 15.6604 100.829 16.2248 100.511C16.7892 100.193 17.4093 100.028 18.0374 100.03C18.1717 100.03 18.3114 100.03 18.4402 100.052C18.5233 100.44 18.5647 100.838 18.5635 101.237Z" fill="white" stroke="#212222" stroke-linecap="round" stroke-linejoin="round"/>
<path d="M39.2589 115.495C39.9568 112.056 38.1049 108.615 35.1226 107.81C32.1403 107.005 29.157 109.141 28.4591 112.58C27.7613 116.02 29.6132 119.461 32.5955 120.265C35.5778 121.07 38.5611 118.934 39.2589 115.495Z" fill="white" stroke="#212222" stroke-linecap="round" stroke-linejoin="round"/>
<path d="M34.8894 116.898C36.2595 116.239 36.9069 114.424 36.3355 112.843C35.7641 111.263 34.1901 110.517 32.82 111.176C31.4499 111.835 30.8024 113.65 31.3739 115.23C31.9453 116.81 33.5193 117.557 34.8894 116.898Z" fill="#212222" stroke="#212222" stroke-linecap="round" stroke-linejoin="round"/>
<path d="M32.9047 141.097H57.5099L57.8633 139.176C58.0051 138.408 57.8777 137.607 57.5091 136.948C57.1405 136.288 56.5606 135.824 55.896 135.656C52.408 134.752 44.8565 134.426 44.8565 134.426C43.0372 134.493 37.9737 134.742 34.4856 135.659C33.8257 135.833 33.2516 136.299 32.8875 136.957C32.5234 137.615 32.3987 138.412 32.5402 139.176L32.9047 141.097Z" fill="white" stroke="#212222" stroke-linecap="round" stroke-linejoin="round"/>
<path d="M51.1284 134.894C47.9774 134.559 44.8648 134.426 44.8648 134.426C43.7194 134.467 41.2863 134.584 38.771 134.894C39.5053 137.785 41.9932 139.915 44.9497 139.915C47.9062 139.915 50.3941 137.776 51.1284 134.894Z" fill="#7FD4FB" stroke="#212222" stroke-linecap="round" stroke-linejoin="round"/>
<path d="M70.6491 127.547L72.1796 125.182L58.8059 113.673L57.2754 116.038L70.6491 127.547Z" fill="#212222" stroke="#212222" stroke-linecap="round" stroke-linejoin="round"/>
<path d="M63.9937 134.53L66.0448 136.296L72.1684 126.831L70.1173 125.066L63.9937 134.53Z" fill="#212222" stroke="#212222" stroke-linecap="round" stroke-linejoin="round"/>
<path d="M69.2864 124.289C69.4709 124.004 69.7023 123.763 69.9674 123.581C70.2326 123.399 70.5262 123.279 70.8316 123.228C71.1369 123.177 71.448 123.196 71.7471 123.284C72.0461 123.371 72.3272 123.526 72.5744 123.739L72.7525 123.907C73.0694 124.24 73.3009 124.667 73.422 125.142C73.543 125.616 73.5489 126.12 73.439 126.598C73.3291 127.076 73.1077 127.511 72.7987 127.854C72.4898 128.197 72.1051 128.436 71.6867 128.544C71.2682 128.653 70.832 128.627 70.4254 128.47C70.0188 128.312 69.6574 128.029 69.3805 127.651C69.1037 127.274 68.9219 126.815 68.8551 126.327C68.7882 125.838 68.8389 125.338 69.0014 124.88C69.075 124.67 69.1707 124.472 69.2864 124.289Z" fill="white" stroke="#212222" stroke-linecap="round" stroke-linejoin="round"/>
<path d="M63.9352 131.851C64.2826 131.256 64.8206 130.845 65.4311 130.707C66.0415 130.57 66.6743 130.717 67.1903 131.118C67.2533 131.165 67.3136 131.219 67.3739 131.273C67.7047 131.588 67.9543 132.001 68.0955 132.468C68.2367 132.935 68.2642 133.438 68.1749 133.922C68.0856 134.406 67.8829 134.852 67.589 135.212C67.295 135.573 66.9211 135.833 66.5077 135.965C66.0944 136.098 65.6575 136.097 65.2447 135.962C64.8318 135.828 64.4587 135.566 64.1661 135.204C63.8734 134.843 63.6724 134.395 63.5848 133.911C63.4972 133.427 63.5265 132.924 63.6694 132.458C63.7358 132.244 63.825 132.04 63.9352 131.851Z" fill="white" stroke="#212222" stroke-linecap="round" stroke-linejoin="round"/>
<path d="M56.8923 135.236L60.7481 135.673L60.8938 133.962L57.038 133.526L56.8923 135.236Z" fill="#212222" stroke="#212222" stroke-linecap="round" stroke-linejoin="round"/>
<path d="M56.6577 133.036L58.5593 133.251L58.3373 135.848L56.4358 135.634C56.1371 135.6 55.8623 135.431 55.6716 135.164C55.481 134.896 55.3902 134.553 55.4192 134.208C55.449 133.864 55.5961 133.547 55.8283 133.327C56.0605 133.107 56.3588 133.003 56.6577 133.036Z" fill="white" stroke="#212222" stroke-linecap="round" stroke-linejoin="round"/>
<path d="M60.4663 134.142C60.7675 133.624 61.1542 133.18 61.6043 132.835C62.0544 132.49 62.5591 132.251 63.0895 132.131C63.6199 132.012 64.1656 132.014 64.6953 132.138C65.225 132.261 65.7283 132.504 66.1765 132.853C66.2888 132.941 66.3957 133.033 66.4998 133.131C67.0791 133.683 67.516 134.408 67.7631 135.226C68.0102 136.045 68.058 136.926 67.9013 137.773C67.7445 138.621 67.3893 139.403 66.8742 140.034C66.3591 140.665 65.7038 141.121 64.9796 141.352C64.2554 141.584 63.4901 141.582 62.7667 141.347C62.0434 141.112 61.3898 140.652 60.8771 140.019C60.3643 139.385 60.012 138.602 59.8584 137.753C59.7048 136.905 59.7559 136.024 60.006 135.207C60.1194 134.831 60.2741 134.473 60.4663 134.142Z" fill="white" stroke="#212222" stroke-linecap="round" stroke-linejoin="round"/>
<path d="M56.0385 139.065L61.1349 134.67L61.9541 135.931L56.8577 140.323L56.0385 139.065Z" fill="#212222" stroke="#212222" stroke-linecap="round" stroke-linejoin="round"/>
<path d="M55.5097 138.999L56.9098 137.776L58.1538 139.672L56.7536 140.882C56.5338 141.072 56.2576 141.153 55.9858 141.108C55.714 141.063 55.4688 140.896 55.3042 140.642C55.1463 140.391 55.0795 140.079 55.1179 139.772C55.1562 139.466 55.2968 139.188 55.5097 138.999Z" fill="white" stroke="#212222" stroke-linecap="round" stroke-linejoin="round"/>
<path d="M62.62 136.025C62.6847 135.701 62.6644 135.361 62.5617 135.05C62.459 134.739 62.2784 134.47 62.0429 134.277C61.8074 134.085 61.5276 133.977 61.2389 133.968C60.9503 133.959 60.6658 134.049 60.4216 134.227C60.1774 134.404 59.9844 134.662 59.8672 134.966C59.75 135.27 59.7138 135.608 59.7632 135.936C59.8126 136.264 59.9454 136.568 60.1447 136.809C60.3441 137.05 60.6009 137.217 60.8828 137.289C61.2584 137.386 61.6518 137.307 61.9772 137.07C62.3026 136.833 62.5337 136.458 62.62 136.025Z" fill="white" stroke="#212222" stroke-linecap="round" stroke-linejoin="round"/>
<path d="M65.3216 143.483L66.0778 137.454L67.1985 137.637L66.445 143.666L65.3216 143.483Z" fill="#212222" stroke="#212222" stroke-linecap="round" stroke-linejoin="round"/>
<path d="M64.9791 143.802L65.1846 142.143L66.8861 142.424L66.6806 144.08C66.6648 144.209 66.6271 144.334 66.5697 144.446C66.5123 144.558 66.4362 144.656 66.3459 144.734C66.2555 144.813 66.1527 144.87 66.0432 144.902C65.9338 144.935 65.8198 144.942 65.7079 144.924C65.4824 144.886 65.279 144.747 65.1424 144.537C65.0057 144.327 64.947 144.062 64.9791 143.802Z" fill="white" stroke="#212222" stroke-linecap="round" stroke-linejoin="round"/>
<path d="M67.6369 137.242C67.5079 137.01 67.3222 136.828 67.1033 136.717C66.8844 136.607 66.6421 136.574 66.407 136.623C66.1719 136.671 65.9545 136.799 65.7824 136.99C65.6102 137.181 65.491 137.427 65.4398 137.696C65.3885 137.965 65.4076 138.245 65.4945 138.502C65.5814 138.758 65.7323 138.979 65.9281 139.137C66.1239 139.295 66.3559 139.382 66.5947 139.388C66.8335 139.394 67.0684 139.318 67.2697 139.17C67.5398 138.97 67.7302 138.655 67.7991 138.293C67.8679 137.932 67.8096 137.554 67.6369 137.242Z" fill="white" stroke="#212222" stroke-linecap="round" stroke-linejoin="round"/>
<path d="M60.2773 142.68L63.6749 136.474L64.8284 137.308L61.4335 143.518L60.2773 142.68Z" fill="#212222" stroke="#212222" stroke-linecap="round" stroke-linejoin="round"/>
<path d="M59.7649 142.832L60.6937 141.126L62.4501 142.39L61.5185 144.099C61.3719 144.367 61.1394 144.556 60.872 144.627C60.6045 144.697 60.3237 144.643 60.0909 144.475C59.8592 144.307 59.6948 144.039 59.6337 143.731C59.5726 143.423 59.6198 143.1 59.7649 142.832Z" fill="white" stroke="#212222" stroke-linecap="round" stroke-linejoin="round"/>
<path d="M65.486 137.125C65.4454 136.796 65.3209 136.488 65.1284 136.241C64.9359 135.993 64.684 135.818 64.4047 135.736C64.1254 135.654 63.8313 135.669 63.5596 135.78C63.288 135.891 63.051 136.093 62.8788 136.359C62.7067 136.626 62.607 136.945 62.5925 137.277C62.578 137.609 62.6493 137.939 62.7974 138.224C62.9455 138.509 63.1637 138.737 63.4243 138.879C63.6849 139.021 63.9762 139.07 64.2612 139.021C64.6413 138.956 64.9837 138.72 65.2132 138.365C65.4428 138.009 65.5409 137.564 65.486 137.125Z" fill="white" stroke="#212222" stroke-linecap="round" stroke-linejoin="round"/>
<path d="M59.1917 119.527C61.7671 117.615 62.511 113.657 60.8531 110.687C59.1953 107.717 55.7636 106.859 53.1882 108.771C50.6129 110.683 49.869 114.64 51.5268 117.611C53.1847 120.581 56.6163 121.439 59.1917 119.527Z" fill="white" stroke="#212222" stroke-linecap="round" stroke-linejoin="round"/>
<path d="M58.6354 115.443C59.2543 113.887 58.6622 112.047 57.3129 111.333C55.9635 110.62 54.368 111.302 53.749 112.859C53.1301 114.415 53.7222 116.255 55.0716 116.969C56.4209 117.683 58.0165 117 58.6354 115.443Z" fill="#212222" stroke="#212222" stroke-linecap="round" stroke-linejoin="round"/>
<path d="M44.947 101.474C49.8666 101.474 53.8547 96.8745 53.8547 91.2008C53.8547 85.5271 49.8666 80.9276 44.947 80.9276C40.0273 80.9276 36.0392 85.5271 36.0392 91.2008C36.0392 96.8745 40.0273 101.474 44.947 101.474Z" fill="#7FD4FB" stroke="#212222" stroke-linecap="round" stroke-linejoin="round"/>
<path d="M57.6825 98.0422C59.5955 95.2761 60.7927 91.9435 61.1364 88.4276C61.4801 84.9118 60.9563 81.3554 59.6254 78.1675C58.2944 74.9797 56.2102 72.2899 53.6126 70.4074C51.015 68.5249 48.0094 67.5262 44.9415 67.5262C41.8736 67.5262 38.868 68.5249 36.2704 70.4074C33.6727 72.2899 31.5886 74.9797 30.2576 78.1675C28.9266 81.3554 28.4029 84.9118 28.7466 88.4276C29.0903 91.9435 30.2875 95.2761 32.2005 98.0422H57.6825Z" fill="white" stroke="#212222" stroke-linecap="round" stroke-linejoin="round"/>
<path d="M54.9151 79.2275H34.5678C33.33 79.2275 32.3265 80.3848 32.3265 81.8124V90.1295C32.3265 91.5571 33.33 92.7144 34.5678 92.7144H54.9151C56.1529 92.7144 57.1564 91.5571 57.1564 90.1295V81.8124C57.1564 80.3848 56.1529 79.2275 54.9151 79.2275Z" fill="#7FD4FB" stroke="#212222" stroke-linecap="round" stroke-linejoin="round"/>
<path d="M35.0117 85.4243C35.2808 84.5553 35.7713 83.8004 36.4188 83.2585C37.0663 82.7166 37.8407 82.4129 38.6404 82.3873C39.4402 82.3616 40.228 82.6153 40.9006 83.1149C41.5732 83.6146 42.0992 84.3369 42.4097 85.1873" stroke="#212222" stroke-width="5" stroke-linecap="round" stroke-linejoin="round"/>
<path d="M47.2842 85.4243C47.5533 84.5553 48.0437 83.8004 48.6912 83.2585C49.3388 82.7166 50.1131 82.4129 50.9129 82.3873C51.7126 82.3616 52.5004 82.6153 53.173 83.1149C53.8457 83.6146 54.3717 84.3369 54.6822 85.1873" stroke="#212222" stroke-width="5" stroke-linecap="round" stroke-linejoin="round"/>
<path d="M42.7988 88.5495C42.8676 89.1762 43.1322 89.7523 43.5431 90.17C43.954 90.5876 44.4828 90.8181 45.0305 90.8181C45.5782 90.8181 46.1071 90.5876 46.518 90.17C46.9288 89.7523 47.1935 89.1762 47.2623 88.5495H42.7988Z" fill="white" stroke="#212222" stroke-linecap="round" stroke-linejoin="round"/>
<path d="M66.034 89.6176C65.582 89.6176 65.1485 89.4105 64.8289 89.0419C64.5093 88.6733 64.3297 88.1733 64.3297 87.6521V83.1807C64.3294 82.9223 64.3732 82.6664 64.4587 82.4275C64.5441 82.1887 64.6696 81.9716 64.8279 81.7888C64.9862 81.6059 65.1742 81.4609 65.3812 81.3619C65.5881 81.2629 65.81 81.212 66.034 81.212C66.258 81.2116 66.4799 81.2621 66.687 81.3607C66.8941 81.4593 67.0823 81.604 67.2409 81.7866C67.3994 81.9691 67.5252 82.1859 67.611 82.4246C67.6968 82.6633 67.741 82.9191 67.741 83.1775V87.6489C67.7414 87.9075 67.6975 88.1637 67.6118 88.4028C67.5261 88.6418 67.4004 88.859 67.2418 89.0419C67.0833 89.2248 66.8949 89.3698 66.6877 89.4686C66.4804 89.5674 66.2583 89.618 66.034 89.6176Z" fill="#212222" stroke="#212222" stroke-linecap="round" stroke-linejoin="round"/>
<path d="M23.3941 89.6176C23.1701 89.618 22.9482 89.5675 22.7411 89.4689C22.534 89.3703 22.3458 89.2256 22.1872 89.043C22.0287 88.8604 21.9029 88.6436 21.8171 88.405C21.7313 88.1663 21.6871 87.9104 21.6871 87.6521V83.1807C21.6867 82.922 21.7306 82.6658 21.8163 82.4268C21.902 82.1877 22.0277 81.9706 22.1863 81.7877C22.3449 81.6048 22.5332 81.4598 22.7404 81.361C22.9477 81.2622 23.1698 81.2116 23.3941 81.212C23.6179 81.212 23.8395 81.2628 24.0463 81.3616C24.2531 81.4604 24.441 81.6052 24.5992 81.7877C24.7575 81.9702 24.883 82.1869 24.9687 82.4253C25.0543 82.6638 25.0984 82.9194 25.0984 83.1775V87.6489C25.0988 87.9073 25.0549 88.1632 24.9695 88.402C24.884 88.6409 24.7585 88.8579 24.6002 89.0408C24.4419 89.2236 24.2539 89.3687 24.047 89.4677C23.84 89.5666 23.6182 89.6176 23.3941 89.6176Z" fill="#212222" stroke="#212222" stroke-linecap="round" stroke-linejoin="round"/>
<path d="M28.8577 69.441C27.3502 72.0099 26.5464 75.0417 26.5506 78.1436V81.3921" stroke="#212222" stroke-width="14" stroke-linecap="round" stroke-linejoin="round"/>
<path d="M61.2116 69.4536C59.9779 67.3339 58.3108 65.5969 56.3574 64.3961C54.4039 63.1952 52.2241 62.5674 50.0105 62.568H40.0506C37.84 62.5662 35.663 63.1913 33.7111 64.3882C31.7593 65.585 30.0926 67.317 28.8577 69.4315" stroke="#212222" stroke-width="7" stroke-linecap="round" stroke-linejoin="round"/>
<path d="M63.5077 81.3921V78.1436C63.5119 75.0475 62.7122 72.0209 61.2116 69.4536" stroke="#212222" stroke-width="14" stroke-linecap="round" stroke-linejoin="round"/>
<path d="M27.9096 77.894H25.6245C24.3019 77.894 23.2297 79.1305 23.2297 80.6558V89.7851C23.2297 91.3104 24.3019 92.5469 25.6245 92.5469H27.9096C29.2322 92.5469 30.3044 91.3104 30.3044 89.7851V80.6558C30.3044 79.1305 29.2322 77.894 27.9096 77.894Z" fill="white" stroke="#212222" stroke-linecap="round" stroke-linejoin="round"/>
<path d="M27.1287 77.894H26.4081V92.5469H27.1287V77.894Z" fill="#7FD4FB" stroke="#212222" stroke-linecap="round" stroke-linejoin="round"/>
<path d="M64.0009 77.894H61.7158C60.3932 77.894 59.321 79.1305 59.321 80.6558V89.7851C59.321 91.3104 60.3932 92.5469 61.7158 92.5469H64.0009C65.3235 92.5469 66.3957 91.3104 66.3957 89.7851V80.6558C66.3957 79.1305 65.3235 77.894 64.0009 77.894Z" fill="white" stroke="#212222" stroke-linecap="round" stroke-linejoin="round"/>
<path d="M63.22 77.894H62.4994V92.5469H63.22V77.894Z" fill="#7FD4FB" stroke="#212222" stroke-linecap="round" stroke-linejoin="round"/>
<path d="M45.0045 76.5637C46.2527 76.564 47.4811 76.2039 48.5776 75.5161C49.6741 74.8284 50.6038 73.8349 51.2818 72.6263L52.8272 69.8676C50.3784 68.308 47.6226 67.5018 44.8253 67.5267C42.028 67.5516 39.2834 68.4068 36.8557 70.0098L39.182 73.3405C39.8818 74.3456 40.7682 75.1569 41.7758 75.7148C42.7835 76.2726 43.8868 76.5627 45.0045 76.5637Z" fill="#7FD4FB" stroke="#212222" stroke-linecap="round" stroke-linejoin="round"/>
<path d="M45.3908 94.0795C45.3908 94.017 45.3748 93.9559 45.3447 93.904C45.3146 93.852 45.2718 93.8115 45.2217 93.7876C45.1716 93.7637 45.1165 93.7574 45.0634 93.7696C45.0102 93.7818 44.9614 93.8119 44.9231 93.8561C44.8848 93.9003 44.8587 93.9566 44.8481 94.0179C44.8375 94.0792 44.843 94.1427 44.8637 94.2004C44.8844 94.2582 44.9196 94.3075 44.9646 94.3423C45.0097 94.377 45.0627 94.3955 45.1168 94.3955C45.1895 94.3955 45.2592 94.3622 45.3106 94.303C45.362 94.2437 45.3908 94.1633 45.3908 94.0795Z" fill="#212222"/>
<path d="M45.3908 95.1413C45.3908 95.0788 45.3748 95.0177 45.3447 94.9657C45.3146 94.9138 45.2718 94.8733 45.2217 94.8493C45.1716 94.8254 45.1165 94.8192 45.0634 94.8314C45.0102 94.8436 44.9614 94.8736 44.9231 94.9178C44.8848 94.962 44.8587 95.0183 44.8481 95.0796C44.8375 95.1409 44.843 95.2045 44.8637 95.2622C44.8844 95.32 44.9196 95.3693 44.9646 95.404C45.0097 95.4388 45.0627 95.4573 45.1168 95.4573C45.1895 95.4573 45.2592 95.424 45.3106 95.3647C45.362 95.3055 45.3908 95.2251 45.3908 95.1413Z" fill="#212222"/>
<path d="M44.3469 94.977C44.3969 94.9397 44.4351 94.8847 44.4556 94.8202C44.4761 94.7556 44.4778 94.6852 44.4604 94.6195C44.4431 94.5537 44.4076 94.4963 44.3595 94.4559C44.3113 94.4155 44.253 94.3943 44.1935 94.3955C44.1434 94.4328 44.1053 94.4878 44.0848 94.5523C44.0643 94.6168 44.0626 94.6873 44.0799 94.753C44.0973 94.8187 44.1327 94.8762 44.1809 94.9166C44.2291 94.957 44.2873 94.9782 44.3469 94.977Z" fill="#212222"/>
<path d="M45.9936 94.977C46.036 94.9761 46.0777 94.9639 46.1153 94.9413C46.1529 94.9187 46.1854 94.8864 46.2104 94.8469C46.2353 94.8073 46.252 94.7617 46.259 94.7134C46.266 94.6652 46.2633 94.6158 46.2509 94.569C46.2386 94.5222 46.217 94.4794 46.1879 94.4439C46.1587 94.4083 46.1228 94.3811 46.083 94.3643C46.0432 94.3475 46.0006 94.3415 45.9584 94.3469C45.9163 94.3524 45.8758 94.369 45.8402 94.3955C45.7978 94.3964 45.7562 94.4086 45.7185 94.4311C45.6809 94.4537 45.6484 94.486 45.6234 94.5256C45.5985 94.5651 45.5819 94.6108 45.5748 94.659C45.5678 94.7073 45.5706 94.7567 45.5829 94.8035C45.5952 94.8503 45.6168 94.8931 45.646 94.9286C45.6751 94.9641 45.711 94.9914 45.7508 95.0082C45.7906 95.025 45.8333 95.0309 45.8754 95.0255C45.9175 95.0201 45.958 95.0035 45.9936 94.977Z" fill="#212222"/>
<path d="M55.896 105.936C52.408 105.029 44.8565 104.703 44.8565 104.703C43.0372 104.77 37.9737 105.019 34.4856 105.939C33.8253 106.112 33.2507 106.578 32.8865 107.237C32.5224 107.895 32.3979 108.693 32.5402 109.456L35.7707 126.887C35.9294 127.732 36.3338 128.489 36.9169 129.033C37.5 129.576 38.2267 129.874 38.9765 129.876H51.4298C52.1796 129.874 52.9063 129.576 53.4894 129.033C54.0725 128.489 54.4769 127.732 54.6356 126.887L57.8633 109.456C58.0051 108.689 57.8777 107.888 57.5091 107.228C57.1405 106.568 56.5606 106.104 55.896 105.936Z" fill="white" stroke="#212222" stroke-linecap="round" stroke-linejoin="round"/>
<path d="M54.3068 105.601C50.5229 104.95 44.8648 104.703 44.8648 104.703C42.0944 104.795 39.3303 105.059 36.5845 105.493L40.2451 129.876H50.1941L54.3068 105.601Z" fill="#7FD4FB" stroke="#212222" stroke-linecap="round" stroke-linejoin="round"/>
<path d="M48.1308 110.003H42.07C40.8321 110.003 39.8286 111.16 39.8286 112.588V116C39.8286 117.428 40.8321 118.585 42.07 118.585H48.1308C49.3687 118.585 50.3722 117.428 50.3722 116V112.588C50.3722 111.16 49.3687 110.003 48.1308 110.003Z" fill="white" stroke="#212222" stroke-linecap="round" stroke-linejoin="round"/>
<path d="M43.3304 113.539H41.6233V115.508H43.3304V113.539Z" fill="white" stroke="#212222" stroke-linecap="round" stroke-linejoin="round"/>
<path d="M45.9525 113.539H44.2455V115.508H45.9525V113.539Z" fill="white" stroke="#212222" stroke-linecap="round" stroke-linejoin="round"/>
<path d="M48.5775 113.539H46.8704V115.508H48.5775V113.539Z" fill="white" stroke="#212222" stroke-linecap="round" stroke-linejoin="round"/>
<path d="M21.1144 124.365H51.4846C51.8479 124.365 52.1964 124.531 52.4533 124.828C52.7103 125.124 52.8546 125.526 52.8546 125.945V145.622H19.7444V125.945C19.7444 125.526 19.8888 125.124 20.1457 124.828C20.4026 124.531 20.7511 124.365 21.1144 124.365Z" fill="white" stroke="#212222" stroke-linecap="round" stroke-linejoin="round"/>
<path d="M52.8546 131.437C48.6953 132.654 44.4264 135.75 36.4721 140.111C28.8001 144.32 22.5201 144.248 19.7444 143.922V145.622H52.8546V131.437Z" fill="#212222" stroke="#212222" stroke-linecap="round" stroke-linejoin="round"/>
<path d="M52.8546 144.444H19.7444V145.625H52.8546V144.444Z" fill="white" stroke="#212222" stroke-linecap="round" stroke-linejoin="round"/>
<path d="M38.0065 134.995C38.0065 135.385 37.9064 135.765 37.7189 136.089C37.5313 136.413 37.2647 136.665 36.9528 136.814C36.6409 136.963 36.2976 137.002 35.9665 136.926C35.6354 136.85 35.3312 136.663 35.0925 136.387C34.8537 136.112 34.6912 135.761 34.6253 135.379C34.5594 134.997 34.5932 134.602 34.7224 134.242C34.8516 133.882 35.0704 133.575 35.3511 133.358C35.6319 133.142 35.9619 133.027 36.2995 133.027C36.7522 133.027 37.1864 133.234 37.5066 133.603C37.8267 133.972 38.0065 134.473 38.0065 134.995Z" fill="white" stroke="#212222" stroke-linecap="round" stroke-linejoin="round"/>
</g>
</svg>
